<svg width="86" height="19" viewBox="0 0 86 19" fill="none" xmlns="http://www.w3.org/2000/svg">
<path d="M5.05244 18.192C3.64444 18.192 2.45244 17.712 1.47644 16.752C0.500438 15.792 0.0124376 14.592 0.0124376 13.152C0.0124376 11.696 0.476438 10.504 1.40444 9.576C2.33244 8.632 3.44444 8.16 4.74044 8.16L4.33244 7.968C3.26044 6.496 2.72444 5.24 2.72444 4.2C2.72444 3.144 3.12444 2.224 3.92444 1.44C4.74044 0.639999 5.83644 0.24 7.21244 0.24C8.58844 0.24 9.68444 0.624 10.5004 1.392C11.3164 2.144 11.7244 3.032 11.7244 4.056C11.7244 4.52 11.6524 4.928 11.5084 5.28H8.82044C8.94844 4.992 9.01244 4.632 9.01244 4.2C9.01244 3.768 8.84444 3.384 8.50844 3.048C8.17244 2.712 7.74044 2.544 7.21244 2.544C6.70044 2.544 6.27644 2.712 5.94044 3.048C5.62044 3.384 5.46044 3.84 5.46044 4.416C5.46044 4.976 5.76444 5.648 6.37244 6.432L15.1324 18H11.8684L9.68444 15.048C9.34844 15.96 8.75644 16.712 7.90844 17.304C7.06044 17.896 6.10844 18.192 5.05244 18.192ZM3.20444 15.12C3.71644 15.664 4.34044 15.936 5.07644 15.936C5.81244 15.936 6.43644 15.664 6.94844 15.12C7.47644 14.56 7.74044 13.888 7.74044 13.104C7.74044 12.32 7.47644 11.656 6.94844 11.112C6.43644 10.568 5.80444 10.296 5.05244 10.296C4.31644 10.296 3.69244 10.568 3.18044 11.112C2.68444 11.656 2.43644 12.328 2.43644 13.128C2.43644 13.912 2.69244 14.576 3.20444 15.12ZM27.1219 4.776V6.864C28.0019 5.328 29.4099 4.56 31.3459 4.56C32.3699 4.56 33.2819 4.8 34.0819 5.28C34.8819 5.76 35.4899 6.456 35.9059 7.368C36.3699 6.488 37.0099 5.8 37.8259 5.304C38.6579 4.808 39.5939 4.56 40.6339 4.56C42.1539 4.56 43.4019 5.056 44.3779 6.048C45.3539 7.024 45.8419 8.408 45.8419 10.2V18H43.1059V10.608C43.1059 9.424 42.8099 8.52 42.2179 7.896C41.6259 7.256 40.8179 6.936 39.7939 6.936C38.7699 6.936 37.9619 7.256 37.3699 7.896C36.7779 8.52 36.4819 9.424 36.4819 10.608V18H33.7699V10.608C33.7699 9.424 33.4739 8.52 32.8819 7.896C32.2899 7.256 31.4819 6.936 30.4579 6.936C29.4339 6.936 28.6179 7.256 28.0099 7.896C27.4179 8.52 27.1219 9.424 27.1219 10.608V18H24.3859V4.776H27.1219ZM57.9154 14.712C58.7154 13.912 59.1154 12.8 59.1154 11.376C59.1154 9.952 58.7234 8.848 57.9394 8.064C57.1714 7.264 56.2354 6.864 55.1314 6.864C54.0274 6.864 53.0994 7.264 52.3474 8.064C51.5954 8.848 51.2194 9.96 51.2194 11.4C51.2194 12.824 51.5874 13.936 52.3234 14.736C53.0594 15.52 53.9714 15.912 55.0594 15.912C56.1634 15.912 57.1154 15.512 57.9154 14.712ZM55.0594 18.216C53.1394 18.216 51.5554 17.592 50.3074 16.344C49.0594 15.08 48.4354 13.432 48.4354 11.4C48.4354 9.352 49.0754 7.704 50.3554 6.456C51.6514 5.192 53.2594 4.56 55.1794 4.56C57.0994 4.56 58.6994 5.192 59.9794 6.456C61.2754 7.704 61.9234 9.344 61.9234 11.376C61.9234 13.408 61.2594 15.056 59.9314 16.32C58.6194 17.584 56.9954 18.216 55.0594 18.216ZM67.3641 4.776V7.08C68.2121 5.4 69.5321 4.56 71.3241 4.56V7.392H70.6281C69.5561 7.392 68.7401 7.664 68.1801 8.208C67.6361 8.752 67.3641 9.696 67.3641 11.04V18H64.6281V4.776H67.3641ZM79.4071 18.216C77.4871 18.216 75.9271 17.592 74.7271 16.344C73.5271 15.096 72.9271 13.44 72.9271 11.376C72.9271 9.312 73.5351 7.664 74.7511 6.432C75.9671 5.184 77.5351 4.56 79.4551 4.56C81.3911 4.56 82.9591 5.16 84.1591 6.36C85.3591 7.544 85.9591 9.096 85.9591 11.016C85.9591 11.48 85.9271 11.912 85.8631 12.312H75.7351C75.7991 13.416 76.1671 14.296 76.8391 14.952C77.5271 15.592 78.3831 15.912 79.4071 15.912C80.8951 15.912 81.9431 15.296 82.5511 14.064H85.5031C85.1031 15.28 84.3751 16.28 83.3191 17.064C82.2631 17.832 80.9591 18.216 79.4071 18.216ZM83.1031 10.44C83.0871 9.352 82.7271 8.488 82.0231 7.848C81.3191 7.192 80.4631 6.864 79.4551 6.864C78.4471 6.864 77.5991 7.192 76.9111 7.848C76.2391 8.488 75.8551 9.352 75.7591 10.44H83.1031Z" fill="#212121"/>
</svg>
