<svg width="362" height="135" viewBox="0 0 362 135" fill="none" xmlns="http://www.w3.org/2000/svg">
<circle cx="16" cy="16" r="15.5" fill="white" stroke="#324FC5"/>
<path d="M15.75 8C12.5794 8 10 10.6807 10 13.9756C10 18.0648 15.1457 24.068 15.3648 24.3215C15.5705 24.5597 15.9298 24.5593 16.1352 24.3215C16.3543 24.068 21.5 18.0648 21.5 13.9756C21.4999 10.6807 18.9205 8 15.75 8ZM15.75 16.9822C14.1548 16.9822 12.8571 15.6335 12.8571 13.9756C12.8571 12.3178 14.1548 10.9692 15.75 10.9692C17.3452 10.9692 18.6429 12.3179 18.6429 13.9757C18.6429 15.6335 17.3452 16.9822 15.75 16.9822Z" fill="#324FC5"/>
<path d="M57.792 21L56.892 18.444H51.654L50.754 21H48.612L53.094 8.472H55.47L59.952 21H57.792ZM52.212 16.842H56.334L54.282 10.956L52.212 16.842ZM68.4348 18.48C69.0348 17.868 69.3348 17.052 69.3348 16.032C69.3348 15.012 69.0348 14.202 68.4348 13.602C67.8468 13.002 67.1448 12.702 66.3288 12.702C65.5128 12.702 64.8048 12.996 64.2048 13.584C63.6168 14.172 63.3228 14.976 63.3228 15.996C63.3228 17.016 63.6168 17.838 64.2048 18.462C64.8048 19.074 65.5128 19.38 66.3288 19.38C67.1448 19.38 67.8468 19.08 68.4348 18.48ZM65.8968 21.162C64.5768 21.162 63.4668 20.682 62.5668 19.722C61.6668 18.75 61.2168 17.514 61.2168 16.014C61.2168 14.502 61.6608 13.278 62.5488 12.342C63.4488 11.394 64.5648 10.92 65.8968 10.92C66.6768 10.92 67.3608 11.1 67.9488 11.46C68.5488 11.808 69.0108 12.27 69.3348 12.846V7.68H71.4048V21H69.3348V19.146C68.9988 19.758 68.5368 20.25 67.9488 20.622C67.3608 20.982 66.6768 21.162 65.8968 21.162ZM80.634 18.48C81.234 17.868 81.534 17.052 81.534 16.032C81.534 15.012 81.234 14.202 80.634 13.602C80.046 13.002 79.344 12.702 78.528 12.702C77.712 12.702 77.004 12.996 76.404 13.584C75.816 14.172 75.522 14.976 75.522 15.996C75.522 17.016 75.816 17.838 76.404 18.462C77.004 19.074 77.712 19.38 78.528 19.38C79.344 19.38 80.046 19.08 80.634 18.48ZM78.096 21.162C76.776 21.162 75.666 20.682 74.766 19.722C73.866 18.75 73.416 17.514 73.416 16.014C73.416 14.502 73.86 13.278 74.748 12.342C75.648 11.394 76.764 10.92 78.096 10.92C78.876 10.92 79.56 11.1 80.148 11.46C80.748 11.808 81.21 12.27 81.534 12.846V7.68H83.604V21H81.534V19.146C81.198 19.758 80.736 20.25 80.148 20.622C79.56 20.982 78.876 21.162 78.096 21.162ZM88.3512 11.082V12.81C88.9872 11.55 89.9772 10.92 91.3212 10.92V13.044H90.7992C89.9952 13.044 89.3832 13.248 88.9632 13.656C88.5552 14.064 88.3512 14.772 88.3512 15.78V21H86.2992V11.082H88.3512ZM97.3834 21.162C95.9434 21.162 94.7734 20.694 93.8734 19.758C92.9734 18.822 92.5234 17.58 92.5234 16.032C92.5234 14.484 92.9794 13.248 93.8914 12.324C94.8034 11.388 95.9794 10.92 97.4194 10.92C98.8714 10.92 100.047 11.37 100.947 12.27C101.847 13.158 102.297 14.322 102.297 15.762C102.297 16.11 102.273 16.434 102.225 16.734H94.6294C94.6774 17.562 94.9534 18.222 95.4574 18.714C95.9734 19.194 96.6154 19.434 97.3834 19.434C98.4994 19.434 99.2854 18.972 99.7414 18.048H101.955C101.655 18.96 101.109 19.71 100.317 20.298C99.5254 20.874 98.5474 21.162 97.3834 21.162ZM100.155 15.33C100.143 14.514 99.8734 13.866 99.3454 13.386C98.8174 12.894 98.1754 12.648 97.4194 12.648C96.6634 12.648 96.0274 12.894 95.5114 13.386C95.0074 13.866 94.7194 14.514 94.6474 15.33H100.155ZM103.867 13.926C103.867 13.086 104.221 12.378 104.929 11.802C105.637 11.214 106.567 10.92 107.719 10.92C108.871 10.92 109.783 11.208 110.455 11.784C111.139 12.348 111.505 13.122 111.553 14.106H109.447C109.411 13.614 109.237 13.23 108.925 12.954C108.625 12.678 108.199 12.54 107.647 12.54C107.095 12.54 106.663 12.666 106.351 12.918C106.039 13.158 105.883 13.482 105.883 13.89C105.883 14.286 106.081 14.598 106.477 14.826C106.873 15.054 107.353 15.222 107.917 15.33C108.493 15.438 109.063 15.57 109.627 15.726C110.203 15.882 110.689 16.17 111.085 16.59C111.481 16.998 111.679 17.55 111.679 18.246C111.679 19.11 111.313 19.812 110.581 20.352C109.861 20.892 108.931 21.162 107.791 21.162C106.651 21.162 105.727 20.886 105.019 20.334C104.311 19.782 103.921 18.996 103.849 17.976H105.973C106.009 18.468 106.189 18.852 106.513 19.128C106.837 19.404 107.275 19.542 107.827 19.542C108.391 19.542 108.835 19.422 109.159 19.182C109.495 18.93 109.663 18.6 109.663 18.192C109.663 17.784 109.465 17.466 109.069 17.238C108.673 17.01 108.187 16.842 107.611 16.734C107.047 16.614 106.477 16.482 105.901 16.338C105.337 16.182 104.857 15.906 104.461 15.51C104.065 15.114 103.867 14.586 103.867 13.926ZM113.482 13.926C113.482 13.086 113.836 12.378 114.544 11.802C115.252 11.214 116.182 10.92 117.334 10.92C118.486 10.92 119.398 11.208 120.07 11.784C120.754 12.348 121.12 13.122 121.168 14.106H119.062C119.026 13.614 118.852 13.23 118.54 12.954C118.24 12.678 117.814 12.54 117.262 12.54C116.71 12.54 116.278 12.666 115.966 12.918C115.654 13.158 115.498 13.482 115.498 13.89C115.498 14.286 115.696 14.598 116.092 14.826C116.488 15.054 116.968 15.222 117.532 15.33C118.108 15.438 118.678 15.57 119.242 15.726C119.818 15.882 120.304 16.17 120.7 16.59C121.096 16.998 121.294 17.55 121.294 18.246C121.294 19.11 120.928 19.812 120.196 20.352C119.476 20.892 118.546 21.162 117.406 21.162C116.266 21.162 115.342 20.886 114.634 20.334C113.926 19.782 113.536 18.996 113.464 17.976H115.588C115.624 18.468 115.804 18.852 116.128 19.128C116.452 19.404 116.89 19.542 117.442 19.542C118.006 19.542 118.45 19.422 118.774 19.182C119.11 18.93 119.278 18.6 119.278 18.192C119.278 17.784 119.08 17.466 118.684 17.238C118.288 17.01 117.802 16.842 117.226 16.734C116.662 16.614 116.092 16.482 115.516 16.338C114.952 16.182 114.472 15.906 114.076 15.51C113.68 15.114 113.482 14.586 113.482 13.926Z" fill="#324FC5"/>
<path d="M55.326 55.214H59.772V61.514C59.076 61.742 58.374 61.91 57.666 62.018C56.958 62.126 56.154 62.18 55.254 62.18C53.922 62.18 52.8 61.916 51.888 61.388C50.976 60.848 50.28 60.086 49.8 59.102C49.332 58.106 49.098 56.93 49.098 55.574C49.098 54.23 49.362 53.066 49.89 52.082C50.418 51.098 51.174 50.336 52.158 49.796C53.154 49.244 54.354 48.968 55.758 48.968C56.478 48.968 57.156 49.034 57.792 49.166C58.44 49.298 59.04 49.484 59.592 49.724L58.98 51.128C58.524 50.924 58.008 50.75 57.432 50.606C56.868 50.462 56.28 50.39 55.668 50.39C54.132 50.39 52.932 50.852 52.068 51.776C51.216 52.7 50.79 53.966 50.79 55.574C50.79 56.594 50.952 57.5 51.276 58.292C51.612 59.072 52.134 59.684 52.842 60.128C53.55 60.56 54.48 60.776 55.632 60.776C56.196 60.776 56.676 60.746 57.072 60.686C57.468 60.626 57.828 60.554 58.152 60.47V56.654H55.326V55.214ZM67.1257 52.172C67.3057 52.172 67.4977 52.184 67.7017 52.208C67.9177 52.22 68.1037 52.244 68.2597 52.28L68.0617 53.738C67.9057 53.702 67.7317 53.672 67.5397 53.648C67.3597 53.624 67.1857 53.612 67.0177 53.612C66.5257 53.612 66.0637 53.75 65.6317 54.026C65.1997 54.29 64.8517 54.668 64.5877 55.16C64.3357 55.64 64.2097 56.204 64.2097 56.852V62H62.6257V52.352H63.9217L64.1017 54.116H64.1737C64.4857 53.588 64.8877 53.132 65.3797 52.748C65.8717 52.364 66.4537 52.172 67.1257 52.172ZM78.0977 57.158C78.0977 58.754 77.6897 59.99 76.8737 60.866C76.0697 61.742 74.9777 62.18 73.5977 62.18C72.7457 62.18 71.9837 61.988 71.3117 61.604C70.6517 61.208 70.1297 60.638 69.7457 59.894C69.3617 59.138 69.1697 58.226 69.1697 57.158C69.1697 55.562 69.5717 54.332 70.3757 53.468C71.1797 52.604 72.2717 52.172 73.6517 52.172C74.5277 52.172 75.2957 52.37 75.9557 52.766C76.6277 53.15 77.1497 53.714 77.5217 54.458C77.9057 55.19 78.0977 56.09 78.0977 57.158ZM70.8077 57.158C70.8077 58.298 71.0297 59.204 71.4737 59.876C71.9297 60.536 72.6497 60.866 73.6337 60.866C74.6057 60.866 75.3197 60.536 75.7757 59.876C76.2317 59.204 76.4597 58.298 76.4597 57.158C76.4597 56.018 76.2317 55.124 75.7757 54.476C75.3197 53.828 74.5997 53.504 73.6157 53.504C72.6317 53.504 71.9177 53.828 71.4737 54.476C71.0297 55.124 70.8077 56.018 70.8077 57.158ZM88.6721 52.352V62H87.3761L87.1421 60.722H87.0701C86.7581 61.226 86.3261 61.598 85.7741 61.838C85.2221 62.066 84.6341 62.18 84.0101 62.18C82.8461 62.18 81.9701 61.904 81.3821 61.352C80.7941 60.788 80.5001 59.894 80.5001 58.67V52.352H82.1021V58.562C82.1021 60.098 82.8161 60.866 84.2441 60.866C85.3121 60.866 86.0501 60.566 86.4581 59.966C86.8781 59.366 87.0881 58.502 87.0881 57.374V52.352H88.6721ZM96.3791 52.172C97.5311 52.172 98.4011 52.454 98.9891 53.018C99.5771 53.57 99.8711 54.47 99.8711 55.718V62H98.3051V55.826C98.3051 54.278 97.5851 53.504 96.1451 53.504C95.0771 53.504 94.3391 53.804 93.9311 54.404C93.5231 55.004 93.3191 55.868 93.3191 56.996V62H91.7351V52.352H93.0131L93.2471 53.666H93.3371C93.6491 53.162 94.0811 52.79 94.6331 52.55C95.1851 52.298 95.7671 52.172 96.3791 52.172ZM106.282 62.18C105.082 62.18 104.122 61.766 103.402 60.938C102.682 60.098 102.322 58.85 102.322 57.194C102.322 55.538 102.682 54.29 103.402 53.45C104.134 52.598 105.1 52.172 106.3 52.172C107.044 52.172 107.65 52.31 108.118 52.586C108.598 52.862 108.988 53.198 109.288 53.594H109.396C109.384 53.438 109.36 53.21 109.324 52.91C109.3 52.598 109.288 52.352 109.288 52.172V48.32H110.872V62H109.594L109.36 60.704H109.288C109 61.112 108.616 61.46 108.136 61.748C107.656 62.036 107.038 62.18 106.282 62.18ZM106.534 60.866C107.554 60.866 108.268 60.59 108.676 60.038C109.096 59.474 109.306 58.628 109.306 57.5V57.212C109.306 56.012 109.108 55.094 108.712 54.458C108.316 53.81 107.584 53.486 106.516 53.486C105.664 53.486 105.022 53.828 104.59 54.512C104.17 55.184 103.96 56.09 103.96 57.23C103.96 58.382 104.17 59.276 104.59 59.912C105.022 60.548 105.67 60.866 106.534 60.866ZM120.448 62H118.828V49.148H126.01V50.57H120.448V55.124H125.668V56.546H120.448V62ZM129.53 62H127.946V48.32H129.53V62ZM140.975 57.158C140.975 58.754 140.567 59.99 139.751 60.866C138.947 61.742 137.855 62.18 136.475 62.18C135.623 62.18 134.861 61.988 134.189 61.604C133.529 61.208 133.007 60.638 132.623 59.894C132.239 59.138 132.047 58.226 132.047 57.158C132.047 55.562 132.449 54.332 133.253 53.468C134.057 52.604 135.149 52.172 136.529 52.172C137.405 52.172 138.173 52.37 138.833 52.766C139.505 53.15 140.027 53.714 140.399 54.458C140.783 55.19 140.975 56.09 140.975 57.158ZM133.685 57.158C133.685 58.298 133.907 59.204 134.351 59.876C134.807 60.536 135.527 60.866 136.511 60.866C137.483 60.866 138.197 60.536 138.653 59.876C139.109 59.204 139.337 58.298 139.337 57.158C139.337 56.018 139.109 55.124 138.653 54.476C138.197 53.828 137.477 53.504 136.493 53.504C135.509 53.504 134.795 53.828 134.351 54.476C133.907 55.124 133.685 56.018 133.685 57.158ZM151.873 57.158C151.873 58.754 151.465 59.99 150.649 60.866C149.845 61.742 148.753 62.18 147.373 62.18C146.521 62.18 145.759 61.988 145.087 61.604C144.427 61.208 143.905 60.638 143.521 59.894C143.137 59.138 142.945 58.226 142.945 57.158C142.945 55.562 143.347 54.332 144.151 53.468C144.955 52.604 146.047 52.172 147.427 52.172C148.303 52.172 149.071 52.37 149.731 52.766C150.403 53.15 150.925 53.714 151.297 54.458C151.681 55.19 151.873 56.09 151.873 57.158ZM144.583 57.158C144.583 58.298 144.805 59.204 145.249 59.876C145.705 60.536 146.425 60.866 147.409 60.866C148.381 60.866 149.095 60.536 149.551 59.876C150.007 59.204 150.235 58.298 150.235 57.158C150.235 56.018 150.007 55.124 149.551 54.476C149.095 53.828 148.375 53.504 147.391 53.504C146.407 53.504 145.693 53.828 145.249 54.476C144.805 55.124 144.583 56.018 144.583 57.158ZM158.884 52.172C159.064 52.172 159.256 52.184 159.46 52.208C159.676 52.22 159.862 52.244 160.018 52.28L159.82 53.738C159.664 53.702 159.49 53.672 159.298 53.648C159.118 53.624 158.944 53.612 158.776 53.612C158.284 53.612 157.822 53.75 157.39 54.026C156.958 54.29 156.61 54.668 156.346 55.16C156.094 55.64 155.968 56.204 155.968 56.852V62H154.384V52.352H155.68L155.86 54.116H155.932C156.244 53.588 156.646 53.132 157.138 52.748C157.63 52.364 158.212 52.172 158.884 52.172ZM162.547 59.912L162.673 60.11C162.517 60.746 162.289 61.442 161.989 62.198C161.701 62.966 161.413 63.674 161.125 64.322H159.955C160.123 63.638 160.291 62.888 160.459 62.072C160.639 61.256 160.771 60.536 160.855 59.912H162.547ZM177.745 58.562C177.745 59.702 177.331 60.59 176.503 61.226C175.675 61.862 174.559 62.18 173.155 62.18C172.435 62.18 171.769 62.126 171.157 62.018C170.545 61.91 170.035 61.76 169.627 61.568V60.02C170.059 60.212 170.593 60.386 171.229 60.542C171.877 60.698 172.543 60.776 173.227 60.776C174.187 60.776 174.907 60.59 175.387 60.218C175.879 59.846 176.125 59.342 176.125 58.706C176.125 58.286 176.035 57.932 175.855 57.644C175.675 57.356 175.363 57.092 174.919 56.852C174.487 56.6 173.881 56.336 173.101 56.06C172.009 55.664 171.181 55.178 170.617 54.602C170.065 54.026 169.789 53.24 169.789 52.244C169.789 51.56 169.963 50.978 170.311 50.498C170.659 50.006 171.139 49.628 171.751 49.364C172.375 49.1 173.089 48.968 173.893 48.968C174.601 48.968 175.249 49.034 175.837 49.166C176.425 49.298 176.959 49.472 177.439 49.688L176.935 51.074C176.491 50.882 176.005 50.72 175.477 50.588C174.961 50.456 174.421 50.39 173.857 50.39C173.053 50.39 172.447 50.564 172.039 50.912C171.631 51.248 171.427 51.698 171.427 52.262C171.427 52.694 171.517 53.054 171.697 53.342C171.877 53.63 172.171 53.888 172.579 54.116C172.987 54.344 173.539 54.59 174.235 54.854C174.991 55.13 175.627 55.43 176.143 55.754C176.671 56.066 177.067 56.444 177.331 56.888C177.607 57.332 177.745 57.89 177.745 58.562ZM183.34 60.884C183.58 60.884 183.826 60.866 184.078 60.83C184.33 60.782 184.534 60.734 184.69 60.686V61.892C184.522 61.976 184.282 62.042 183.97 62.09C183.658 62.15 183.358 62.18 183.07 62.18C182.566 62.18 182.098 62.096 181.666 61.928C181.246 61.748 180.904 61.442 180.64 61.01C180.376 60.578 180.244 59.972 180.244 59.192V53.576H178.876V52.82L180.262 52.19L180.892 50.138H181.828V52.352H184.618V53.576H181.828V59.156C181.828 59.744 181.966 60.182 182.242 60.47C182.53 60.746 182.896 60.884 183.34 60.884ZM194.686 52.352V62H193.39L193.156 60.722H193.084C192.772 61.226 192.34 61.598 191.788 61.838C191.236 62.066 190.648 62.18 190.024 62.18C188.86 62.18 187.984 61.904 187.396 61.352C186.808 60.788 186.514 59.894 186.514 58.67V52.352H188.116V58.562C188.116 60.098 188.83 60.866 190.258 60.866C191.326 60.866 192.064 60.566 192.472 59.966C192.892 59.366 193.102 58.502 193.102 57.374V52.352H194.686ZM201.169 62.18C199.969 62.18 199.009 61.766 198.289 60.938C197.569 60.098 197.209 58.85 197.209 57.194C197.209 55.538 197.569 54.29 198.289 53.45C199.021 52.598 199.987 52.172 201.187 52.172C201.931 52.172 202.537 52.31 203.005 52.586C203.485 52.862 203.875 53.198 204.175 53.594H204.283C204.271 53.438 204.247 53.21 204.211 52.91C204.187 52.598 204.175 52.352 204.175 52.172V48.32H205.759V62H204.481L204.247 60.704H204.175C203.887 61.112 203.503 61.46 203.023 61.748C202.543 62.036 201.925 62.18 201.169 62.18ZM201.421 60.866C202.441 60.866 203.155 60.59 203.563 60.038C203.983 59.474 204.193 58.628 204.193 57.5V57.212C204.193 56.012 203.995 55.094 203.599 54.458C203.203 53.81 202.471 53.486 201.403 53.486C200.551 53.486 199.909 53.828 199.477 54.512C199.057 55.184 198.847 56.09 198.847 57.23C198.847 58.382 199.057 59.276 199.477 59.912C199.909 60.548 200.557 60.866 201.421 60.866ZM212.549 52.172C213.377 52.172 214.085 52.352 214.673 52.712C215.273 53.072 215.729 53.582 216.041 54.242C216.365 54.89 216.527 55.652 216.527 56.528V57.482H209.921C209.945 58.574 210.221 59.408 210.749 59.984C211.289 60.548 212.039 60.83 212.999 60.83C213.611 60.83 214.151 60.776 214.619 60.668C215.099 60.548 215.591 60.38 216.095 60.164V61.55C215.603 61.766 215.117 61.922 214.637 62.018C214.157 62.126 213.587 62.18 212.927 62.18C212.015 62.18 211.205 61.994 210.497 61.622C209.801 61.25 209.255 60.698 208.859 59.966C208.475 59.222 208.283 58.316 208.283 57.248C208.283 56.192 208.457 55.286 208.805 54.53C209.165 53.774 209.663 53.192 210.299 52.784C210.947 52.376 211.697 52.172 212.549 52.172ZM212.531 53.468C211.775 53.468 211.175 53.714 210.731 54.206C210.299 54.686 210.041 55.358 209.957 56.222H214.871C214.859 55.406 214.667 54.746 214.295 54.242C213.923 53.726 213.335 53.468 212.531 53.468ZM223.627 52.172C224.779 52.172 225.649 52.454 226.237 53.018C226.825 53.57 227.119 54.47 227.119 55.718V62H225.553V55.826C225.553 54.278 224.833 53.504 223.393 53.504C222.325 53.504 221.587 53.804 221.179 54.404C220.771 55.004 220.567 55.868 220.567 56.996V62H218.983V52.352H220.261L220.495 53.666H220.585C220.897 53.162 221.329 52.79 221.881 52.55C222.433 52.298 223.015 52.172 223.627 52.172ZM233.332 60.884C233.572 60.884 233.818 60.866 234.07 60.83C234.322 60.782 234.526 60.734 234.682 60.686V61.892C234.514 61.976 234.274 62.042 233.962 62.09C233.65 62.15 233.35 62.18 233.062 62.18C232.558 62.18 232.09 62.096 231.658 61.928C231.238 61.748 230.896 61.442 230.632 61.01C230.368 60.578 230.236 59.972 230.236 59.192V53.576H228.868V52.82L230.254 52.19L230.884 50.138H231.82V52.352H234.61V53.576H231.82V59.156C231.82 59.744 231.958 60.182 232.234 60.47C232.522 60.746 232.888 60.884 233.332 60.884ZM249.57 62L248.022 58.022H242.928L241.398 62H239.76L244.782 49.094H246.24L251.244 62H249.57ZM247.536 56.582L246.096 52.694C246.06 52.598 246 52.424 245.916 52.172C245.832 51.92 245.748 51.662 245.664 51.398C245.592 51.122 245.532 50.912 245.484 50.768C245.4 51.14 245.304 51.506 245.196 51.866C245.088 52.214 244.998 52.49 244.926 52.694L243.468 56.582H247.536ZM256.656 62.18C255.804 62.18 255.042 62.006 254.37 61.658C253.71 61.31 253.188 60.77 252.804 60.038C252.432 59.306 252.246 58.37 252.246 57.23C252.246 56.042 252.444 55.076 252.84 54.332C253.236 53.588 253.77 53.042 254.442 52.694C255.126 52.346 255.9 52.172 256.764 52.172C257.256 52.172 257.73 52.226 258.186 52.334C258.642 52.43 259.014 52.55 259.302 52.694L258.816 54.008C258.528 53.9 258.192 53.798 257.808 53.702C257.424 53.606 257.064 53.558 256.728 53.558C254.832 53.558 253.884 54.776 253.884 57.212C253.884 58.376 254.112 59.27 254.568 59.894C255.036 60.506 255.726 60.812 256.638 60.812C257.166 60.812 257.628 60.758 258.024 60.65C258.432 60.542 258.804 60.41 259.14 60.254V61.658C258.816 61.826 258.456 61.952 258.06 62.036C257.676 62.132 257.208 62.18 256.656 62.18ZM264.656 60.884C264.896 60.884 265.142 60.866 265.394 60.83C265.646 60.782 265.85 60.734 266.006 60.686V61.892C265.838 61.976 265.598 62.042 265.286 62.09C264.974 62.15 264.674 62.18 264.386 62.18C263.882 62.18 263.414 62.096 262.982 61.928C262.562 61.748 262.22 61.442 261.956 61.01C261.692 60.578 261.56 59.972 261.56 59.192V53.576H260.192V52.82L261.578 52.19L262.208 50.138H263.144V52.352H265.934V53.576H263.144V59.156C263.144 59.744 263.282 60.182 263.558 60.47C263.846 60.746 264.212 60.884 264.656 60.884ZM268.748 48.734C268.988 48.734 269.198 48.818 269.378 48.986C269.57 49.142 269.666 49.394 269.666 49.742C269.666 50.078 269.57 50.33 269.378 50.498C269.198 50.666 268.988 50.75 268.748 50.75C268.484 50.75 268.262 50.666 268.082 50.498C267.902 50.33 267.812 50.078 267.812 49.742C267.812 49.394 267.902 49.142 268.082 48.986C268.262 48.818 268.484 48.734 268.748 48.734ZM269.522 52.352V62H267.938V52.352H269.522ZM274.703 62L271.049 52.352H272.741L274.793 58.04C274.889 58.304 274.991 58.598 275.099 58.922C275.207 59.246 275.303 59.558 275.387 59.858C275.471 60.146 275.531 60.392 275.567 60.596H275.639C275.687 60.392 275.753 60.14 275.837 59.84C275.933 59.54 276.035 59.228 276.143 58.904C276.263 58.58 276.365 58.292 276.449 58.04L278.501 52.352H280.193L276.521 62H274.703ZM282.529 48.734C282.769 48.734 282.979 48.818 283.159 48.986C283.351 49.142 283.447 49.394 283.447 49.742C283.447 50.078 283.351 50.33 283.159 50.498C282.979 50.666 282.769 50.75 282.529 50.75C282.265 50.75 282.043 50.666 281.863 50.498C281.683 50.33 281.593 50.078 281.593 49.742C281.593 49.394 281.683 49.142 281.863 48.986C282.043 48.818 282.265 48.734 282.529 48.734ZM283.303 52.352V62H281.719V52.352H283.303ZM289.582 60.884C289.822 60.884 290.068 60.866 290.32 60.83C290.572 60.782 290.776 60.734 290.932 60.686V61.892C290.764 61.976 290.524 62.042 290.212 62.09C289.9 62.15 289.6 62.18 289.312 62.18C288.808 62.18 288.34 62.096 287.908 61.928C287.488 61.748 287.146 61.442 286.882 61.01C286.618 60.578 286.486 59.972 286.486 59.192V53.576H285.118V52.82L286.504 52.19L287.134 50.138H288.07V52.352H290.86V53.576H288.07V59.156C288.07 59.744 288.208 60.182 288.484 60.47C288.772 60.746 289.138 60.884 289.582 60.884ZM291.352 52.352H293.044L295.132 57.842C295.312 58.322 295.474 58.784 295.618 59.228C295.762 59.66 295.87 60.074 295.942 60.47H296.014C296.086 60.17 296.2 59.78 296.356 59.3C296.512 58.808 296.674 58.316 296.842 57.824L298.804 52.352H300.514L296.356 63.332C296.02 64.244 295.582 64.97 295.042 65.51C294.514 66.05 293.782 66.32 292.846 66.32C292.558 66.32 292.306 66.302 292.09 66.266C291.874 66.242 291.688 66.212 291.532 66.176V64.916C291.664 64.94 291.82 64.964 292 64.988C292.192 65.012 292.39 65.024 292.594 65.024C293.146 65.024 293.59 64.868 293.926 64.556C294.274 64.244 294.544 63.83 294.736 63.314L295.24 62.036L291.352 52.352ZM312.44 50.39C311.06 50.39 309.974 50.852 309.182 51.776C308.39 52.7 307.994 53.966 307.994 55.574C307.994 57.17 308.36 58.436 309.092 59.372C309.836 60.296 310.946 60.758 312.422 60.758C312.986 60.758 313.52 60.71 314.024 60.614C314.528 60.518 315.02 60.398 315.5 60.254V61.658C315.02 61.838 314.522 61.97 314.006 62.054C313.502 62.138 312.896 62.18 312.188 62.18C310.88 62.18 309.788 61.91 308.912 61.37C308.036 60.83 307.376 60.062 306.932 59.066C306.5 58.07 306.284 56.9 306.284 55.556C306.284 54.26 306.518 53.12 306.986 52.136C307.466 51.14 308.168 50.366 309.092 49.814C310.016 49.25 311.138 48.968 312.458 48.968C313.814 48.968 314.996 49.22 316.004 49.724L315.356 51.092C314.96 50.912 314.516 50.75 314.024 50.606C313.544 50.462 313.016 50.39 312.44 50.39ZM321.815 52.172C322.643 52.172 323.351 52.352 323.939 52.712C324.539 53.072 324.995 53.582 325.307 54.242C325.631 54.89 325.793 55.652 325.793 56.528V57.482H319.187C319.211 58.574 319.487 59.408 320.015 59.984C320.555 60.548 321.305 60.83 322.265 60.83C322.877 60.83 323.417 60.776 323.885 60.668C324.365 60.548 324.857 60.38 325.361 60.164V61.55C324.869 61.766 324.383 61.922 323.903 62.018C323.423 62.126 322.853 62.18 322.193 62.18C321.281 62.18 320.471 61.994 319.763 61.622C319.067 61.25 318.521 60.698 318.125 59.966C317.741 59.222 317.549 58.316 317.549 57.248C317.549 56.192 317.723 55.286 318.071 54.53C318.431 53.774 318.929 53.192 319.565 52.784C320.213 52.376 320.963 52.172 321.815 52.172ZM321.797 53.468C321.041 53.468 320.441 53.714 319.997 54.206C319.565 54.686 319.307 55.358 319.223 56.222H324.137C324.125 55.406 323.933 54.746 323.561 54.242C323.189 53.726 322.601 53.468 321.797 53.468ZM332.893 52.172C334.045 52.172 334.915 52.454 335.503 53.018C336.091 53.57 336.385 54.47 336.385 55.718V62H334.819V55.826C334.819 54.278 334.099 53.504 332.659 53.504C331.591 53.504 330.853 53.804 330.445 54.404C330.037 55.004 329.833 55.868 329.833 56.996V62H328.249V52.352H329.527L329.761 53.666H329.851C330.163 53.162 330.595 52.79 331.147 52.55C331.699 52.298 332.281 52.172 332.893 52.172ZM342.598 60.884C342.838 60.884 343.084 60.866 343.336 60.83C343.588 60.782 343.792 60.734 343.948 60.686V61.892C343.78 61.976 343.54 62.042 343.228 62.09C342.916 62.15 342.616 62.18 342.328 62.18C341.824 62.18 341.356 62.096 340.924 61.928C340.504 61.748 340.162 61.442 339.898 61.01C339.634 60.578 339.502 59.972 339.502 59.192V53.576H338.134V52.82L339.52 52.19L340.15 50.138H341.086V52.352H343.876V53.576H341.086V59.156C341.086 59.744 341.224 60.182 341.5 60.47C341.788 60.746 342.154 60.884 342.598 60.884ZM350.38 52.172C350.56 52.172 350.752 52.184 350.956 52.208C351.172 52.22 351.358 52.244 351.514 52.28L351.316 53.738C351.16 53.702 350.986 53.672 350.794 53.648C350.614 53.624 350.44 53.612 350.272 53.612C349.78 53.612 349.318 53.75 348.886 54.026C348.454 54.29 348.106 54.668 347.842 55.16C347.59 55.64 347.464 56.204 347.464 56.852V62H345.88V52.352H347.176L347.356 54.116H347.428C347.74 53.588 348.142 53.132 348.634 52.748C349.126 52.364 349.708 52.172 350.38 52.172ZM356.69 52.172C357.518 52.172 358.226 52.352 358.814 52.712C359.414 53.072 359.87 53.582 360.182 54.242C360.506 54.89 360.668 55.652 360.668 56.528V57.482H354.062C354.086 58.574 354.362 59.408 354.89 59.984C355.43 60.548 356.18 60.83 357.14 60.83C357.752 60.83 358.292 60.776 358.76 60.668C359.24 60.548 359.732 60.38 360.236 60.164V61.55C359.744 61.766 359.258 61.922 358.778 62.018C358.298 62.126 357.728 62.18 357.068 62.18C356.156 62.18 355.346 61.994 354.638 61.622C353.942 61.25 353.396 60.698 353 59.966C352.616 59.222 352.424 58.316 352.424 57.248C352.424 56.192 352.598 55.286 352.946 54.53C353.306 53.774 353.804 53.192 354.44 52.784C355.088 52.376 355.838 52.172 356.69 52.172ZM356.672 53.468C355.916 53.468 355.316 53.714 354.872 54.206C354.44 54.686 354.182 55.358 354.098 56.222H359.012C359 55.406 358.808 54.746 358.436 54.242C358.064 53.726 357.476 53.468 356.672 53.468ZM53.364 94H48.72V93.064L50.232 92.722V82.444L48.72 82.084V81.148H53.364V82.084L51.852 82.444V92.722L53.364 93.064V94ZM59.4636 94H54.8196V93.064L56.3316 92.722V82.444L54.8196 82.084V81.148H59.4636V82.084L57.9516 82.444V92.722L59.4636 93.064V94ZM66.0132 94H64.3932V82.57H60.3792V81.148H70.0092V82.57H66.0132V94ZM80.169 81.148C81.765 81.148 82.941 81.454 83.697 82.066C84.465 82.666 84.849 83.578 84.849 84.802C84.849 85.486 84.723 86.056 84.471 86.512C84.219 86.968 83.895 87.334 83.499 87.61C83.115 87.874 82.707 88.084 82.275 88.24L85.803 94H83.913L80.799 88.69H78.243V94H76.623V81.148H80.169ZM80.079 82.552H78.243V87.322H80.169C81.213 87.322 81.975 87.118 82.455 86.71C82.935 86.29 83.175 85.678 83.175 84.874C83.175 84.034 82.923 83.44 82.419 83.092C81.915 82.732 81.135 82.552 80.079 82.552ZM95.9922 89.158C95.9922 90.754 95.5842 91.99 94.7682 92.866C93.9642 93.742 92.8722 94.18 91.4922 94.18C90.6402 94.18 89.8782 93.988 89.2062 93.604C88.5462 93.208 88.0242 92.638 87.6402 91.894C87.2562 91.138 87.0642 90.226 87.0642 89.158C87.0642 87.562 87.4662 86.332 88.2702 85.468C89.0742 84.604 90.1662 84.172 91.5462 84.172C92.4222 84.172 93.1902 84.37 93.8502 84.766C94.5222 85.15 95.0442 85.714 95.4162 86.458C95.8002 87.19 95.9922 88.09 95.9922 89.158ZM88.7022 89.158C88.7022 90.298 88.9242 91.204 89.3682 91.876C89.8242 92.536 90.5442 92.866 91.5282 92.866C92.5002 92.866 93.2142 92.536 93.6702 91.876C94.1262 91.204 94.3542 90.298 94.3542 89.158C94.3542 88.018 94.1262 87.124 93.6702 86.476C93.2142 85.828 92.4942 85.504 91.5102 85.504C90.5262 85.504 89.8122 85.828 89.3682 86.476C88.9242 87.124 88.7022 88.018 88.7022 89.158ZM106.891 89.158C106.891 90.754 106.483 91.99 105.667 92.866C104.863 93.742 103.771 94.18 102.391 94.18C101.539 94.18 100.777 93.988 100.105 93.604C99.4447 93.208 98.9227 92.638 98.5387 91.894C98.1547 91.138 97.9627 90.226 97.9627 89.158C97.9627 87.562 98.3647 86.332 99.1687 85.468C99.9727 84.604 101.065 84.172 102.445 84.172C103.321 84.172 104.089 84.37 104.749 84.766C105.421 85.15 105.943 85.714 106.315 86.458C106.699 87.19 106.891 88.09 106.891 89.158ZM99.6007 89.158C99.6007 90.298 99.8227 91.204 100.267 91.876C100.723 92.536 101.443 92.866 102.427 92.866C103.399 92.866 104.113 92.536 104.569 91.876C105.025 91.204 105.253 90.298 105.253 89.158C105.253 88.018 105.025 87.124 104.569 86.476C104.113 85.828 103.393 85.504 102.409 85.504C101.425 85.504 100.711 85.828 100.267 86.476C99.8227 87.124 99.6007 88.018 99.6007 89.158ZM113.901 84.172C114.081 84.172 114.273 84.184 114.477 84.208C114.693 84.22 114.879 84.244 115.035 84.28L114.837 85.738C114.681 85.702 114.507 85.672 114.315 85.648C114.135 85.624 113.961 85.612 113.793 85.612C113.301 85.612 112.839 85.75 112.407 86.026C111.975 86.29 111.627 86.668 111.363 87.16C111.111 87.64 110.985 88.204 110.985 88.852V94H109.401V84.352H110.697L110.877 86.116H110.949C111.261 85.588 111.663 85.132 112.155 84.748C112.647 84.364 113.229 84.172 113.901 84.172ZM118.403 80.32V87.466C118.403 87.658 118.391 87.91 118.367 88.222C118.355 88.534 118.343 88.804 118.331 89.032H118.403C118.475 88.936 118.583 88.798 118.727 88.618C118.871 88.438 119.015 88.258 119.159 88.078C119.315 87.886 119.447 87.73 119.555 87.61L122.633 84.352H124.487L120.581 88.474L124.757 94H122.849L119.501 89.5L118.403 90.454V94H116.837V80.32H118.403ZM130.178 84.172C131.006 84.172 131.714 84.352 132.302 84.712C132.902 85.072 133.358 85.582 133.67 86.242C133.994 86.89 134.156 87.652 134.156 88.528V89.482H127.55C127.574 90.574 127.85 91.408 128.378 91.984C128.918 92.548 129.668 92.83 130.628 92.83C131.24 92.83 131.78 92.776 132.248 92.668C132.728 92.548 133.22 92.38 133.724 92.164V93.55C133.232 93.766 132.746 93.922 132.266 94.018C131.786 94.126 131.216 94.18 130.556 94.18C129.644 94.18 128.834 93.994 128.126 93.622C127.43 93.25 126.884 92.698 126.488 91.966C126.104 91.222 125.912 90.316 125.912 89.248C125.912 88.192 126.086 87.286 126.434 86.53C126.794 85.774 127.292 85.192 127.928 84.784C128.576 84.376 129.326 84.172 130.178 84.172ZM130.16 85.468C129.404 85.468 128.804 85.714 128.36 86.206C127.928 86.686 127.67 87.358 127.586 88.222H132.5C132.488 87.406 132.296 86.746 131.924 86.242C131.552 85.726 130.964 85.468 130.16 85.468ZM140.338 84.172C141.166 84.172 141.874 84.352 142.462 84.712C143.062 85.072 143.518 85.582 143.83 86.242C144.154 86.89 144.316 87.652 144.316 88.528V89.482H137.71C137.734 90.574 138.01 91.408 138.538 91.984C139.078 92.548 139.828 92.83 140.788 92.83C141.4 92.83 141.94 92.776 142.408 92.668C142.888 92.548 143.38 92.38 143.884 92.164V93.55C143.392 93.766 142.906 93.922 142.426 94.018C141.946 94.126 141.376 94.18 140.716 94.18C139.804 94.18 138.994 93.994 138.286 93.622C137.59 93.25 137.044 92.698 136.648 91.966C136.264 91.222 136.072 90.316 136.072 89.248C136.072 88.192 136.246 87.286 136.594 86.53C136.954 85.774 137.452 85.192 138.088 84.784C138.736 84.376 139.486 84.172 140.338 84.172ZM140.32 85.468C139.564 85.468 138.964 85.714 138.52 86.206C138.088 86.686 137.83 87.358 137.746 88.222H142.66C142.648 87.406 142.456 86.746 142.084 86.242C141.712 85.726 141.124 85.468 140.32 85.468ZM148.572 91.912L148.698 92.11C148.542 92.746 148.314 93.442 148.014 94.198C147.726 94.966 147.438 95.674 147.15 96.322H145.98C146.148 95.638 146.316 94.888 146.484 94.072C146.664 93.256 146.796 92.536 146.88 91.912H148.572ZM160.026 81.148C161.622 81.148 162.798 81.454 163.554 82.066C164.322 82.666 164.706 83.578 164.706 84.802C164.706 85.486 164.58 86.056 164.328 86.512C164.076 86.968 163.752 87.334 163.356 87.61C162.972 87.874 162.564 88.084 162.132 88.24L165.66 94H163.77L160.656 88.69H158.1V94H156.48V81.148H160.026ZM159.936 82.552H158.1V87.322H160.026C161.07 87.322 161.832 87.118 162.312 86.71C162.792 86.29 163.032 85.678 163.032 84.874C163.032 84.034 162.78 83.44 162.276 83.092C161.772 82.732 160.992 82.552 159.936 82.552ZM175.85 89.158C175.85 90.754 175.442 91.99 174.626 92.866C173.822 93.742 172.73 94.18 171.35 94.18C170.498 94.18 169.736 93.988 169.064 93.604C168.404 93.208 167.882 92.638 167.498 91.894C167.114 91.138 166.922 90.226 166.922 89.158C166.922 87.562 167.324 86.332 168.128 85.468C168.932 84.604 170.024 84.172 171.404 84.172C172.28 84.172 173.048 84.37 173.708 84.766C174.38 85.15 174.902 85.714 175.274 86.458C175.658 87.19 175.85 88.09 175.85 89.158ZM168.56 89.158C168.56 90.298 168.782 91.204 169.226 91.876C169.682 92.536 170.402 92.866 171.386 92.866C172.358 92.866 173.072 92.536 173.528 91.876C173.984 91.204 174.212 90.298 174.212 89.158C174.212 88.018 173.984 87.124 173.528 86.476C173.072 85.828 172.352 85.504 171.368 85.504C170.384 85.504 169.67 85.828 169.226 86.476C168.782 87.124 168.56 88.018 168.56 89.158ZM186.748 89.158C186.748 90.754 186.34 91.99 185.524 92.866C184.72 93.742 183.628 94.18 182.248 94.18C181.396 94.18 180.634 93.988 179.962 93.604C179.302 93.208 178.78 92.638 178.396 91.894C178.012 91.138 177.82 90.226 177.82 89.158C177.82 87.562 178.222 86.332 179.026 85.468C179.83 84.604 180.922 84.172 182.302 84.172C183.178 84.172 183.946 84.37 184.606 84.766C185.278 85.15 185.8 85.714 186.172 86.458C186.556 87.19 186.748 88.09 186.748 89.158ZM179.458 89.158C179.458 90.298 179.68 91.204 180.124 91.876C180.58 92.536 181.3 92.866 182.284 92.866C183.256 92.866 183.97 92.536 184.426 91.876C184.882 91.204 185.11 90.298 185.11 89.158C185.11 88.018 184.882 87.124 184.426 86.476C183.97 85.828 183.25 85.504 182.266 85.504C181.282 85.504 180.568 85.828 180.124 86.476C179.68 87.124 179.458 88.018 179.458 89.158ZM193.759 84.172C193.939 84.172 194.131 84.184 194.335 84.208C194.551 84.22 194.737 84.244 194.893 84.28L194.695 85.738C194.539 85.702 194.365 85.672 194.173 85.648C193.993 85.624 193.819 85.612 193.651 85.612C193.159 85.612 192.697 85.75 192.265 86.026C191.833 86.29 191.485 86.668 191.221 87.16C190.969 87.64 190.843 88.204 190.843 88.852V94H189.259V84.352H190.555L190.735 86.116H190.807C191.119 85.588 191.521 85.132 192.013 84.748C192.505 84.364 193.087 84.172 193.759 84.172ZM198.26 80.32V87.466C198.26 87.658 198.248 87.91 198.224 88.222C198.212 88.534 198.2 88.804 198.188 89.032H198.26C198.332 88.936 198.44 88.798 198.584 88.618C198.728 88.438 198.872 88.258 199.016 88.078C199.172 87.886 199.304 87.73 199.412 87.61L202.49 84.352H204.344L200.438 88.474L204.614 94H202.706L199.358 89.5L198.26 90.454V94H196.694V80.32H198.26ZM210.035 84.172C210.863 84.172 211.571 84.352 212.159 84.712C212.759 85.072 213.215 85.582 213.527 86.242C213.851 86.89 214.013 87.652 214.013 88.528V89.482H207.407C207.431 90.574 207.707 91.408 208.235 91.984C208.775 92.548 209.525 92.83 210.485 92.83C211.097 92.83 211.637 92.776 212.105 92.668C212.585 92.548 213.077 92.38 213.581 92.164V93.55C213.089 93.766 212.603 93.922 212.123 94.018C211.643 94.126 211.073 94.18 210.413 94.18C209.501 94.18 208.691 93.994 207.983 93.622C207.287 93.25 206.741 92.698 206.345 91.966C205.961 91.222 205.769 90.316 205.769 89.248C205.769 88.192 205.943 87.286 206.291 86.53C206.651 85.774 207.149 85.192 207.785 84.784C208.433 84.376 209.183 84.172 210.035 84.172ZM210.017 85.468C209.261 85.468 208.661 85.714 208.217 86.206C207.785 86.686 207.527 87.358 207.443 88.222H212.357C212.345 87.406 212.153 86.746 211.781 86.242C211.409 85.726 210.821 85.468 210.017 85.468ZM220.195 84.172C221.023 84.172 221.731 84.352 222.319 84.712C222.919 85.072 223.375 85.582 223.687 86.242C224.011 86.89 224.173 87.652 224.173 88.528V89.482H217.567C217.591 90.574 217.867 91.408 218.395 91.984C218.935 92.548 219.685 92.83 220.645 92.83C221.257 92.83 221.797 92.776 222.265 92.668C222.745 92.548 223.237 92.38 223.741 92.164V93.55C223.249 93.766 222.763 93.922 222.283 94.018C221.803 94.126 221.233 94.18 220.573 94.18C219.661 94.18 218.851 93.994 218.143 93.622C217.447 93.25 216.901 92.698 216.505 91.966C216.121 91.222 215.929 90.316 215.929 89.248C215.929 88.192 216.103 87.286 216.451 86.53C216.811 85.774 217.309 85.192 217.945 84.784C218.593 84.376 219.343 84.172 220.195 84.172ZM220.177 85.468C219.421 85.468 218.821 85.714 218.377 86.206C217.945 86.686 217.687 87.358 217.603 88.222H222.517C222.505 87.406 222.313 86.746 221.941 86.242C221.569 85.726 220.981 85.468 220.177 85.468ZM59.52 113.148V121.464C59.52 122.352 59.34 123.156 58.98 123.876C58.62 124.584 58.068 125.148 57.324 125.568C56.592 125.976 55.656 126.18 54.516 126.18C52.92 126.18 51.702 125.748 50.862 124.884C50.034 124.008 49.62 122.856 49.62 121.428V113.148H51.24V121.482C51.24 122.526 51.516 123.336 52.068 123.912C52.632 124.488 53.478 124.776 54.606 124.776C55.77 124.776 56.61 124.47 57.126 123.858C57.654 123.234 57.918 122.436 57.918 121.464V113.148H59.52ZM65.918 124.884C66.158 124.884 66.404 124.866 66.656 124.83C66.908 124.782 67.112 124.734 67.268 124.686V125.892C67.1 125.976 66.86 126.042 66.548 126.09C66.236 126.15 65.936 126.18 65.648 126.18C65.144 126.18 64.676 126.096 64.244 125.928C63.824 125.748 63.482 125.442 63.218 125.01C62.954 124.578 62.822 123.972 62.822 123.192V117.576H61.454V116.82L62.84 116.19L63.47 114.138H64.406V116.352H67.196V117.576H64.406V123.156C64.406 123.744 64.544 124.182 64.82 124.47C65.108 124.746 65.474 124.884 65.918 124.884ZM72.4219 124.884C72.6619 124.884 72.9079 124.866 73.1599 124.83C73.4119 124.782 73.6159 124.734 73.7719 124.686V125.892C73.6039 125.976 73.3639 126.042 73.0519 126.09C72.7399 126.15 72.4399 126.18 72.1519 126.18C71.6479 126.18 71.1799 126.096 70.7479 125.928C70.3279 125.748 69.9859 125.442 69.7219 125.01C69.4579 124.578 69.3259 123.972 69.3259 123.192V117.576H67.9579V116.82L69.3439 116.19L69.9739 114.138H70.9099V116.352H73.6999V117.576H70.9099V123.156C70.9099 123.744 71.0479 124.182 71.3239 124.47C71.6119 124.746 71.9779 124.884 72.4219 124.884ZM80.2038 116.172C80.3838 116.172 80.5758 116.184 80.7798 116.208C80.9958 116.22 81.1818 116.244 81.3378 116.28L81.1398 117.738C80.9838 117.702 80.8098 117.672 80.6178 117.648C80.4378 117.624 80.2638 117.612 80.0958 117.612C79.6038 117.612 79.1418 117.75 78.7098 118.026C78.2778 118.29 77.9298 118.668 77.6658 119.16C77.4138 119.64 77.2878 120.204 77.2878 120.852V126H75.7038V116.352H76.9998L77.1798 118.116H77.2518C77.5638 117.588 77.9658 117.132 78.4578 116.748C78.9498 116.364 79.5318 116.172 80.2038 116.172ZM86.4418 116.19C87.6178 116.19 88.4878 116.448 89.0518 116.964C89.6158 117.48 89.8978 118.302 89.8978 119.43V126H88.7458L88.4398 124.632H88.3678C87.9478 125.16 87.5038 125.55 87.0358 125.802C86.5798 126.054 85.9438 126.18 85.1278 126.18C84.2518 126.18 83.5258 125.952 82.9498 125.496C82.3738 125.028 82.0858 124.302 82.0858 123.318C82.0858 122.358 82.4638 121.62 83.2198 121.104C83.9758 120.576 85.1398 120.288 86.7118 120.24L88.3498 120.186V119.61C88.3498 118.806 88.1758 118.248 87.8278 117.936C87.4798 117.624 86.9878 117.468 86.3518 117.468C85.8478 117.468 85.3678 117.546 84.9118 117.702C84.4558 117.846 84.0298 118.014 83.6338 118.206L83.1478 117.018C83.5678 116.79 84.0658 116.598 84.6418 116.442C85.2178 116.274 85.8178 116.19 86.4418 116.19ZM88.3318 121.284L86.9098 121.338C85.7098 121.386 84.8758 121.578 84.4078 121.914C83.9518 122.25 83.7238 122.724 83.7238 123.336C83.7238 123.876 83.8858 124.272 84.2098 124.524C84.5458 124.776 84.9718 124.902 85.4878 124.902C86.3038 124.902 86.9818 124.68 87.5218 124.236C88.0618 123.78 88.3318 123.084 88.3318 122.148V121.284ZM94.4437 112.32V119.466C94.4437 119.658 94.4317 119.91 94.4077 120.222C94.3957 120.534 94.3837 120.804 94.3717 121.032H94.4437C94.5157 120.936 94.6237 120.798 94.7677 120.618C94.9117 120.438 95.0557 120.258 95.1997 120.078C95.3557 119.886 95.4877 119.73 95.5957 119.61L98.6737 116.352H100.528L96.6217 120.474L100.798 126H98.8897L95.5417 121.5L94.4437 122.454V126H92.8777V112.32H94.4437ZM104.077 112.32V116.334C104.077 116.814 104.047 117.264 103.987 117.684H104.095C104.407 117.192 104.827 116.82 105.355 116.568C105.895 116.316 106.477 116.19 107.101 116.19C108.277 116.19 109.159 116.472 109.747 117.036C110.335 117.588 110.629 118.482 110.629 119.718V126H109.063V119.826C109.063 118.278 108.343 117.504 106.903 117.504C105.823 117.504 105.079 117.81 104.671 118.422C104.275 119.022 104.077 119.886 104.077 121.014V126H102.493V112.32H104.077ZM117.274 116.19C118.45 116.19 119.32 116.448 119.884 116.964C120.448 117.48 120.73 118.302 120.73 119.43V126H119.578L119.272 124.632H119.2C118.78 125.16 118.336 125.55 117.868 125.802C117.412 126.054 116.776 126.18 115.96 126.18C115.084 126.18 114.358 125.952 113.782 125.496C113.206 125.028 112.918 124.302 112.918 123.318C112.918 122.358 113.296 121.62 114.052 121.104C114.808 120.576 115.972 120.288 117.544 120.24L119.182 120.186V119.61C119.182 118.806 119.008 118.248 118.66 117.936C118.312 117.624 117.82 117.468 117.184 117.468C116.68 117.468 116.2 117.546 115.744 117.702C115.288 117.846 114.862 118.014 114.466 118.206L113.98 117.018C114.4 116.79 114.898 116.598 115.474 116.442C116.05 116.274 116.65 116.19 117.274 116.19ZM119.164 121.284L117.742 121.338C116.542 121.386 115.708 121.578 115.24 121.914C114.784 122.25 114.556 122.724 114.556 123.336C114.556 123.876 114.718 124.272 115.042 124.524C115.378 124.776 115.804 124.902 116.32 124.902C117.136 124.902 117.814 124.68 118.354 124.236C118.894 123.78 119.164 123.084 119.164 122.148V121.284ZM128.354 116.172C129.506 116.172 130.376 116.454 130.964 117.018C131.552 117.57 131.846 118.47 131.846 119.718V126H130.28V119.826C130.28 118.278 129.56 117.504 128.12 117.504C127.052 117.504 126.314 117.804 125.906 118.404C125.498 119.004 125.294 119.868 125.294 120.996V126H123.71V116.352H124.988L125.222 117.666H125.312C125.624 117.162 126.056 116.79 126.608 116.55C127.16 116.298 127.742 116.172 128.354 116.172ZM138.257 126.18C137.057 126.18 136.097 125.766 135.377 124.938C134.657 124.098 134.297 122.85 134.297 121.194C134.297 119.538 134.657 118.29 135.377 117.45C136.109 116.598 137.075 116.172 138.275 116.172C139.019 116.172 139.625 116.31 140.093 116.586C140.573 116.862 140.963 117.198 141.263 117.594H141.371C141.359 117.438 141.335 117.21 141.299 116.91C141.275 116.598 141.263 116.352 141.263 116.172V112.32H142.847V126H141.569L141.335 124.704H141.263C140.975 125.112 140.591 125.46 140.111 125.748C139.631 126.036 139.013 126.18 138.257 126.18ZM138.509 124.866C139.529 124.866 140.243 124.59 140.651 124.038C141.071 123.474 141.281 122.628 141.281 121.5V121.212C141.281 120.012 141.083 119.094 140.687 118.458C140.291 117.81 139.559 117.486 138.491 117.486C137.639 117.486 136.997 117.828 136.565 118.512C136.145 119.184 135.935 120.09 135.935 121.23C135.935 122.382 136.145 123.276 136.565 123.912C136.997 124.548 137.645 124.866 138.509 124.866ZM147.711 123.912L147.837 124.11C147.681 124.746 147.453 125.442 147.153 126.198C146.865 126.966 146.577 127.674 146.289 128.322H145.119C145.287 127.638 145.455 126.888 145.623 126.072C145.803 125.256 145.935 124.536 146.019 123.912H147.711ZM159.237 126H154.593V125.064L156.105 124.722V114.444L154.593 114.084V113.148H159.237V114.084L157.725 114.444V124.722L159.237 125.064V126ZM166.147 116.172C167.299 116.172 168.169 116.454 168.757 117.018C169.345 117.57 169.639 118.47 169.639 119.718V126H168.073V119.826C168.073 118.278 167.353 117.504 165.913 117.504C164.845 117.504 164.107 117.804 163.699 118.404C163.291 119.004 163.087 119.868 163.087 120.996V126H161.503V116.352H162.781L163.015 117.666H163.105C163.417 117.162 163.849 116.79 164.401 116.55C164.953 116.298 165.535 116.172 166.147 116.172ZM176.05 126.18C174.85 126.18 173.89 125.766 173.17 124.938C172.45 124.098 172.09 122.85 172.09 121.194C172.09 119.538 172.45 118.29 173.17 117.45C173.902 116.598 174.868 116.172 176.068 116.172C176.812 116.172 177.418 116.31 177.886 116.586C178.366 116.862 178.756 117.198 179.056 117.594H179.164C179.152 117.438 179.128 117.21 179.092 116.91C179.068 116.598 179.056 116.352 179.056 116.172V112.32H180.64V126H179.362L179.128 124.704H179.056C178.768 125.112 178.384 125.46 177.904 125.748C177.424 126.036 176.806 126.18 176.05 126.18ZM176.302 124.866C177.322 124.866 178.036 124.59 178.444 124.038C178.864 123.474 179.074 122.628 179.074 121.5V121.212C179.074 120.012 178.876 119.094 178.48 118.458C178.084 117.81 177.352 117.486 176.284 117.486C175.432 117.486 174.79 117.828 174.358 118.512C173.938 119.184 173.728 120.09 173.728 121.23C173.728 122.382 173.938 123.276 174.358 123.912C174.79 124.548 175.438 124.866 176.302 124.866ZM184.514 112.734C184.754 112.734 184.964 112.818 185.144 112.986C185.336 113.142 185.432 113.394 185.432 113.742C185.432 114.078 185.336 114.33 185.144 114.498C184.964 114.666 184.754 114.75 184.514 114.75C184.25 114.75 184.028 114.666 183.848 114.498C183.668 114.33 183.578 114.078 183.578 113.742C183.578 113.394 183.668 113.142 183.848 112.986C184.028 112.818 184.25 112.734 184.514 112.734ZM185.288 116.352V126H183.704V116.352H185.288ZM191.998 116.19C193.174 116.19 194.044 116.448 194.608 116.964C195.172 117.48 195.454 118.302 195.454 119.43V126H194.302L193.996 124.632H193.924C193.504 125.16 193.06 125.55 192.592 125.802C192.136 126.054 191.5 126.18 190.684 126.18C189.808 126.18 189.082 125.952 188.506 125.496C187.93 125.028 187.642 124.302 187.642 123.318C187.642 122.358 188.02 121.62 188.776 121.104C189.532 120.576 190.696 120.288 192.268 120.24L193.906 120.186V119.61C193.906 118.806 193.732 118.248 193.384 117.936C193.036 117.624 192.544 117.468 191.908 117.468C191.404 117.468 190.924 117.546 190.468 117.702C190.012 117.846 189.586 118.014 189.19 118.206L188.704 117.018C189.124 116.79 189.622 116.598 190.198 116.442C190.774 116.274 191.374 116.19 191.998 116.19ZM193.888 121.284L192.466 121.338C191.266 121.386 190.432 121.578 189.964 121.914C189.508 122.25 189.28 122.724 189.28 123.336C189.28 123.876 189.442 124.272 189.766 124.524C190.102 124.776 190.528 124.902 191.044 124.902C191.86 124.902 192.538 124.68 193.078 124.236C193.618 123.78 193.888 123.084 193.888 122.148V121.284ZM197.624 121.878V120.474H201.98V121.878H197.624ZM216.741 126H208.245V124.686L211.611 121.284C212.259 120.636 212.805 120.06 213.249 119.556C213.693 119.052 214.029 118.56 214.257 118.08C214.485 117.588 214.599 117.054 214.599 116.478C214.599 115.77 214.389 115.236 213.969 114.876C213.549 114.504 213.003 114.318 212.331 114.318C211.707 114.318 211.155 114.426 210.675 114.642C210.207 114.858 209.727 115.158 209.235 115.542L208.389 114.48C208.893 114.06 209.469 113.706 210.117 113.418C210.777 113.118 211.515 112.968 212.331 112.968C213.531 112.968 214.479 113.274 215.175 113.886C215.871 114.486 216.219 115.32 216.219 116.388C216.219 117.06 216.081 117.69 215.805 118.278C215.529 118.866 215.145 119.448 214.653 120.024C214.161 120.588 213.585 121.194 212.925 121.842L210.243 124.488V124.56H216.741V126ZM227.618 123.084H225.746V126H224.216V123.084H218.06V121.734L224.108 113.076H225.746V121.662H227.618V123.084ZM224.216 121.662V117.612C224.216 116.988 224.228 116.46 224.252 116.028C224.276 115.584 224.294 115.164 224.306 114.768H224.234C224.138 114.996 224.018 115.242 223.874 115.506C223.73 115.77 223.592 115.992 223.46 116.172L219.608 121.662H224.216ZM230.43 126L235.704 114.588H228.774V113.148H237.396V114.372L232.176 126H230.43ZM239.273 120.51C239.273 119.586 239.351 118.68 239.507 117.792C239.675 116.892 239.969 116.082 240.389 115.362C240.821 114.63 241.421 114.048 242.189 113.616C242.957 113.184 243.947 112.968 245.159 112.968C245.411 112.968 245.687 112.98 245.987 113.004C246.299 113.028 246.551 113.07 246.743 113.13V114.48C246.527 114.408 246.281 114.354 246.005 114.318C245.741 114.282 245.471 114.264 245.195 114.264C244.367 114.264 243.677 114.402 243.125 114.678C242.573 114.954 242.135 115.332 241.811 115.812C241.499 116.292 241.271 116.844 241.127 117.468C240.983 118.092 240.893 118.758 240.857 119.466H240.965C241.241 119.046 241.625 118.692 242.117 118.404C242.609 118.104 243.239 117.954 244.007 117.954C245.123 117.954 246.023 118.296 246.707 118.98C247.391 119.652 247.733 120.612 247.733 121.86C247.733 123.204 247.361 124.26 246.617 125.028C245.885 125.796 244.895 126.18 243.647 126.18C242.831 126.18 242.093 125.976 241.433 125.568C240.773 125.16 240.245 124.536 239.849 123.696C239.465 122.856 239.273 121.794 239.273 120.51ZM243.629 124.848C244.385 124.848 244.997 124.608 245.465 124.128C245.933 123.636 246.167 122.88 246.167 121.86C246.167 121.044 245.957 120.396 245.537 119.916C245.129 119.436 244.511 119.196 243.683 119.196C243.119 119.196 242.627 119.316 242.207 119.556C241.787 119.784 241.457 120.078 241.217 120.438C240.989 120.798 240.875 121.17 240.875 121.554C240.875 122.07 240.977 122.586 241.181 123.102C241.385 123.606 241.691 124.026 242.099 124.362C242.507 124.686 243.017 124.848 243.629 124.848ZM249.574 120.51C249.574 119.586 249.652 118.68 249.808 117.792C249.976 116.892 250.27 116.082 250.69 115.362C251.122 114.63 251.722 114.048 252.49 113.616C253.258 113.184 254.248 112.968 255.46 112.968C255.712 112.968 255.988 112.98 256.288 113.004C256.6 113.028 256.852 113.07 257.044 113.13V114.48C256.828 114.408 256.582 114.354 256.306 114.318C256.042 114.282 255.772 114.264 255.496 114.264C254.668 114.264 253.978 114.402 253.426 114.678C252.874 114.954 252.436 115.332 252.112 115.812C251.8 116.292 251.572 116.844 251.428 117.468C251.284 118.092 251.194 118.758 251.158 119.466H251.266C251.542 119.046 251.926 118.692 252.418 118.404C252.91 118.104 253.54 117.954 254.308 117.954C255.424 117.954 256.324 118.296 257.008 118.98C257.692 119.652 258.034 120.612 258.034 121.86C258.034 123.204 257.662 124.26 256.918 125.028C256.186 125.796 255.196 126.18 253.948 126.18C253.132 126.18 252.394 125.976 251.734 125.568C251.074 125.16 250.546 124.536 250.15 123.696C249.766 122.856 249.574 121.794 249.574 120.51ZM253.93 124.848C254.686 124.848 255.298 124.608 255.766 124.128C256.234 123.636 256.468 122.88 256.468 121.86C256.468 121.044 256.258 120.396 255.838 119.916C255.43 119.436 254.812 119.196 253.984 119.196C253.42 119.196 252.928 119.316 252.508 119.556C252.088 119.784 251.758 120.078 251.518 120.438C251.29 120.798 251.176 121.17 251.176 121.554C251.176 122.07 251.278 122.586 251.482 123.102C251.686 123.606 251.992 124.026 252.4 124.362C252.808 124.686 253.318 124.848 253.93 124.848ZM261.333 126L266.607 114.588H259.677V113.148H268.299V114.372L263.079 126H261.333Z" fill="#212121"/>
</svg>
