<svg width="23" height="23" viewBox="0 0 23 23" fill="none" xmlns="http://www.w3.org/2000/svg">
<circle cx="11.5" cy="11.5" r="11.5" fill="#F3F6FD"/>
<path d="M6.67188 7H15.6094C16.178 7 16.6406 7.50464 16.6406 8.12501V14.875C16.6406 15.4954 16.178 16 15.6094 16H6.67188C6.10321 16 5.64062 15.4954 5.64062 14.875V8.12501C5.64062 7.50464 6.10321 7 6.67188 7ZM6.67188 7.75C6.62518 7.75 6.58075 7.76057 6.54013 7.77903L11.1406 11.1288L15.7411 7.77903C15.7005 7.76059 15.6561 7.75 15.6094 7.75H6.67188ZM6.67188 15.25H15.6094C15.799 15.25 15.9531 15.0819 15.9531 14.875V8.57141L11.3659 11.9084C11.3011 11.9696 11.2209 12 11.1406 12C11.0604 12 10.9802 11.9696 10.9154 11.9084L6.32812 8.57141V14.875C6.32814 15.0819 6.48222 15.25 6.67188 15.25Z" fill="#324FC5"/>
</svg>
