<svg width="23" height="23" viewBox="0 0 23 23" fill="none" xmlns="http://www.w3.org/2000/svg">
<circle cx="11.5" cy="11.5" r="11.5" fill="#F3F6FD"/>
<path d="M15.4433 15.3882C15.5767 15.2396 15.6245 15.0987 15.625 14.9796C15.6254 14.861 15.5791 14.7229 15.4487 14.5785C15.0123 14.096 14.5735 13.6158 14.1339 13.1349C14.0057 12.9958 13.8967 12.9619 13.8235 12.9619C13.7504 12.9619 13.6421 12.9957 13.5152 13.1344L13.5149 13.1347C13.2406 13.4339 12.9688 13.7304 12.7019 14.0315C12.6466 14.0941 12.5469 14.1906 12.3951 14.224C12.2301 14.2603 12.0919 14.2046 12.0009 14.1487C11.9391 14.1117 11.8771 14.0782 11.807 14.0402C11.7872 14.0295 11.7668 14.0185 11.7455 14.0069C11.6531 13.9566 11.5493 13.8984 11.4477 13.8289L11.446 13.8278C10.6087 13.2485 9.91523 12.5091 9.30933 11.6917L9.30917 11.6915C9.00443 11.2797 8.724 10.8266 8.52605 10.3085L15.4433 15.3882ZM15.4433 15.3882C15.3682 15.4716 15.2864 15.559 15.202 15.6494C15.0293 15.8341 14.8453 16.0309 14.6833 16.2301L14.6829 16.2305C14.4295 16.5429 14.1278 16.646 13.7335 16.6217L13.7329 16.6216C13.0941 16.5832 12.4912 16.3497 11.8776 16.0221C10.5168 15.2945 9.35101 14.285 8.37079 13.0029L8.37066 13.0028C7.64217 12.0511 7.04746 11.021 6.65797 9.86717L6.65797 9.86716L6.65756 9.86594C6.46663 9.30671 6.34342 8.76651 6.38209 8.20804C6.40446 7.89522 6.50654 7.65026 6.69748 7.45138L6.69802 7.45082C6.86841 7.27261 7.04009 7.08195 7.20727 6.89627C7.31529 6.77631 7.42143 6.65843 7.52413 6.54734L7.52462 6.54681C7.65121 6.40935 7.75988 6.37512 7.83435 6.375C7.90903 6.37488 8.01829 6.40898 8.14599 6.54574C8.29303 6.70416 8.43663 6.86322 8.58222 7.02449C8.65583 7.10602 8.72995 7.18812 8.80528 7.27099C8.91274 7.39045 9.02009 7.50854 9.12667 7.62577L9.12709 7.62624C9.23425 7.7441 9.34062 7.8611 9.44688 7.97925L9.44746 7.97989C9.58711 8.13444 9.63398 8.27437 9.63412 8.38951C9.63427 8.50453 9.58787 8.64343 9.44975 8.79628L9.44946 8.79662C9.41053 8.8398 9.37175 8.88287 9.33308 8.92582C9.10266 9.18176 8.87616 9.43333 8.64457 9.67951L8.64453 9.67948L8.64023 9.6842C8.57542 9.75549 8.50766 9.85534 8.48615 9.98942C8.46528 10.1195 8.49642 10.2311 8.52596 10.3083L15.4433 15.3882ZM11.7008 16.3528C12.3361 16.6921 12.9945 16.9529 13.7104 16.9959C14.203 17.0263 14.6312 16.8896 14.9742 16.4667C15.1285 16.277 15.2958 16.0982 15.4629 15.9196C15.55 15.8264 15.6371 15.7333 15.7223 15.6387L11.7008 16.3528Z" stroke="#324FC5" stroke-width="0.75"/>
</svg>
