<svg width="57" height="42" viewBox="0 0 57 42" fill="none" xmlns="http://www.w3.org/2000/svg">
<path d="M15.5456 18.9202C15.0248 18.7926 14.6581 18.2991 14.8009 17.7823C15.7253 14.437 19.1017 11.3934 24.8727 8.71294L25.0225 8.6434C25.5501 8.39835 25.758 7.7564 25.4742 7.24858L21.8803 0.818009C21.6232 0.357895 21.0531 0.176374 20.5772 0.403122L20.3531 0.509919C6.84772 6.94565 0 16.0417 0 27.5455C0 31.5169 1.35109 34.9466 4.01557 37.7392C6.71326 40.5664 9.9646 42 13.6801 42C17.0254 42 19.8456 40.8742 22.0622 38.6537C24.2597 36.4524 25.374 33.7192 25.374 30.5299C25.374 27.513 24.231 24.8244 21.9768 22.5389C20.2094 20.7471 18.0525 19.5347 15.5456 18.9202Z" fill="#324FC5"/>
<path d="M45.8542 18.9202C45.3334 18.7926 44.9667 18.2991 45.1095 17.7823C46.0339 14.437 49.4103 11.3934 55.1813 8.71294L55.3311 8.6434C55.8587 8.39835 56.0666 7.7564 55.7828 7.24858L52.1889 0.818009C51.9318 0.357895 51.3616 0.176374 50.8858 0.403122L50.6617 0.509919C37.1563 6.94565 30.3086 16.0417 30.3086 27.5455C30.3086 31.5169 31.6597 34.9466 34.3242 37.7392C37.0219 40.5664 40.2732 42 43.9887 42C47.334 42 50.1542 40.8742 52.3708 38.6537C54.5683 36.4524 55.6826 33.7192 55.6826 30.5299C55.6826 27.513 54.5396 24.8244 52.2854 22.5389C50.518 20.7471 48.3611 19.5347 45.8542 18.9202Z" fill="#324FC5"/>
</svg>
