<svg width="428" height="290" viewBox="0 0 428 290" fill="none" xmlns="http://www.w3.org/2000/svg">
<g clip-path="url(#clip0)">
<circle opacity="0.3" cx="80" cy="66" r="52.5" stroke="#324FC5" stroke-dasharray="8 8"/>
<path opacity="0.3" d="M370.547 201.622C371.185 204.288 371.621 207.032 371.839 209.838L371.34 209.876C371.446 211.237 371.5 212.612 371.5 214C371.5 215.388 371.446 216.763 371.34 218.124L371.839 218.162C371.621 220.968 371.185 223.712 370.547 226.378L370.061 226.262C369.415 228.96 368.561 231.578 367.516 234.096L367.978 234.288C366.909 236.866 365.642 239.342 364.197 241.696L363.771 241.434C362.328 243.783 360.706 246.01 358.922 248.096L359.302 248.421C357.498 250.531 355.531 252.498 353.421 254.302L353.096 253.922C351.01 255.706 348.783 257.328 346.434 258.771L346.696 259.197C344.342 260.642 341.866 261.909 339.288 262.978L339.096 262.516C336.578 263.561 333.96 264.415 331.262 265.061L331.378 265.547C328.712 266.185 325.968 266.621 323.162 266.839L323.124 266.34C321.763 266.446 320.388 266.5 319 266.5C317.612 266.5 316.237 266.446 314.876 266.34L314.838 266.839C312.032 266.621 309.288 266.185 306.622 265.547L306.738 265.061C304.04 264.415 301.422 263.561 298.904 262.516L298.712 262.978C296.134 261.909 293.658 260.642 291.304 259.197L291.566 258.771C289.217 257.328 286.99 255.706 284.904 253.922L284.579 254.302C282.469 252.498 280.502 250.531 278.698 248.421L279.078 248.096C277.294 246.01 275.672 243.783 274.229 241.434L273.803 241.696C272.358 239.342 271.091 236.866 270.022 234.288L270.484 234.096C269.439 231.578 268.585 228.96 267.939 226.262L267.453 226.378C266.815 223.712 266.379 220.968 266.161 218.162L266.66 218.124C266.554 216.763 266.5 215.388 266.5 214C266.5 212.612 266.554 211.237 266.66 209.876L266.161 209.838C266.379 207.032 266.815 204.288 267.453 201.622L267.939 201.738C268.585 199.04 269.439 196.422 270.484 193.904L270.022 193.712C271.091 191.134 272.358 188.658 273.803 186.304L274.229 186.566C275.672 184.217 277.294 181.99 279.078 179.904L278.698 179.579C280.502 177.469 282.469 175.502 284.579 173.698L284.904 174.078C286.99 172.294 289.217 170.672 291.566 169.229L291.304 168.803C293.658 167.358 296.134 166.091 298.712 165.022L298.904 165.484C301.422 164.439 304.04 163.585 306.738 162.939L306.622 162.453C309.288 161.815 312.032 161.379 314.838 161.161L314.876 161.66C316.237 161.554 317.612 161.5 319 161.5C320.388 161.5 321.763 161.554 323.124 161.66L323.162 161.161C325.968 161.379 328.712 161.815 331.378 162.453L331.262 162.939C333.96 163.585 336.578 164.439 339.096 165.484L339.288 165.022C341.866 166.091 344.342 167.358 346.696 168.803L346.434 169.229C348.783 170.672 351.01 172.294 353.096 174.078L353.421 173.698C355.531 175.502 357.498 177.469 359.302 179.579L358.922 179.904C360.706 181.99 362.328 184.217 363.771 186.566L364.197 186.304C365.642 188.658 366.909 191.134 367.978 193.712L367.516 193.904C368.561 196.422 369.415 199.04 370.061 201.738L370.547 201.622Z" stroke="#324FC5" stroke-dasharray="8 8"/>
<path opacity="0.1" d="M232.57 42.4524C206.267 42.4108 180.925 34.2377 156.679 25.1423C132.433 16.0468 108.379 5.90418 82.553 1.55303C65.9227 -1.24441 47.0624 -1.0554 34.1097 8.8793C21.6483 18.4397 18.0804 34.3058 16.372 48.981C15.0907 60.012 14.5162 71.5986 19.4599 81.7072C22.8956 88.7273 28.754 94.5188 32.9002 101.214C47.327 124.501 38.7662 154.138 24.8723 177.886C18.3525 189.004 10.7139 199.676 5.7966 211.456C0.879315 223.235 -1.11254 236.602 3.96726 248.257C9.00927 259.813 20.3481 268.24 32.4769 273.99C57.154 285.709 85.83 288.287 113.739 289.334C175.528 291.655 237.411 287.519 299.133 283.361C321.973 281.826 344.915 280.276 367.275 275.691C379.691 273.147 392.47 269.355 401.254 260.978C412.404 250.347 414.641 232.939 406.474 220.4C392.769 199.347 356.802 195.28 346.937 172.53C341.506 160.005 346.117 145.689 352.932 133.645C367.555 107.829 392.784 84.7391 393.128 55.812C393.362 35.9426 380.152 16.5231 360.483 7.82837C339.862 -1.29734 311.802 0.948175 297.428 17.7631C282.627 35.0769 255.796 42.4902 232.57 42.4524Z" fill="#477DFC"/>
<path d="M325 229.529C325 229.529 320.982 226.719 317 228.718C317 228.718 318.226 231.223 323.267 230.984L325 229.529Z" fill="#6C63FF"/>
<path d="M324.834 230C324.834 230 325.677 234.761 323.565 238C323.565 238 322.294 236.034 323.565 231.227L324.834 230Z" fill="#6C63FF"/>
<path d="M330 225.55C330 225.55 329.71 222.084 321 223.234C321 223.234 320.959 225.47 324.017 226.528C327.075 227.586 328.474 226.693 330 225.55Z" fill="#6C63FF"/>
<path d="M330.956 226C330.956 226 335.227 227.14 331.421 235C331.421 235 328.604 234.476 328.099 231.35C327.593 228.225 329.106 227.14 330.956 226Z" fill="#6C63FF"/>
<path d="M335.995 219.531C335.995 219.531 336.525 213.416 327.014 214.045C327.014 214.045 326.334 219.567 334.314 221L335.995 219.531Z" fill="#6C63FF"/>
<path d="M342 212.323C342 212.323 340.791 205.295 332 207.39C332 207.39 331.965 213.468 340.562 214L342 212.323Z" fill="#6C63FF"/>
<path d="M346 204.624C346 204.624 343.932 197.189 335 199.416C335 199.416 337.123 206.1 345.406 205.999L346 204.624Z" fill="#6C63FF"/>
<path d="M351 197.69C351 197.69 348.91 190.171 340 192.42C340 192.42 342.973 199.564 350.413 198.964L351 197.69Z" fill="#6C63FF"/>
<path d="M353 190.631C353 190.631 351.54 181.227 344 183.298C344 183.298 346.193 191.865 352.452 192L353 190.631Z" fill="#6C63FF"/>
<path d="M356 181.734C356 181.734 354.135 172.909 346 175.464C346 175.464 349.19 183.8 355.426 182.937L356 181.734Z" fill="#6C63FF"/>
<path d="M357 174.128C357 174.128 354.116 164.752 348 165.005C348 165.005 350.95 174.91 356.473 176L357 174.128Z" fill="#6C63FF"/>
<path d="M358 166.276C358 166.276 354.906 155.193 350 156.047C350 156.047 352.141 164.519 357.827 168L358 166.276Z" fill="#6C63FF"/>
<path d="M359 156.603C359 156.603 356.002 147.366 351 147C351 147 353.042 156.086 358.898 159L359 156.603Z" fill="#6C63FF"/>
<path d="M360 148.478C360 148.478 355.749 139.207 352 139C352 139 353.844 148.124 359.636 150L360 148.478Z" fill="#6C63FF"/>
<path d="M360 140.227C360 140.227 357.527 129.844 354 129C354 129 354.486 137.477 359.647 141L360 140.227Z" fill="#6C63FF"/>
<path d="M361 129.072C361 129.072 358.627 121.2 356 120C356 120 356.521 129.281 360.394 131L361 129.072Z" fill="#6C63FF"/>
<path d="M362.412 122.451L363 108C363 108 357 118.903 361.971 125L362.412 122.451Z" fill="#6C63FF"/>
<path d="M366.122 108.676C366.122 108.676 370.045 98.5617 371 98C371 98 363.299 104.558 364.052 113L366.122 108.676Z" fill="#6C63FF"/>
<path d="M336.334 220.02C336.334 220.02 342.173 219.207 341.996 227.963C341.996 227.963 336.72 228.873 335 221.635L336.334 220.02Z" fill="#6C63FF"/>
<path d="M342.424 212C342.424 212 349.56 211.972 348.965 221.95C348.965 221.95 342.978 223.143 341 213.882L342.424 212Z" fill="#6C63FF"/>
<path d="M346.611 205.588C346.611 205.588 353.555 202.502 358 210.467C358 210.467 351.584 213.041 346 206.874L346.611 205.588Z" fill="#6C63FF"/>
<path d="M350.594 197.725C350.594 197.725 357.779 194.265 362 202.462C362 202.462 354.514 205.009 350 199.022L350.594 197.725Z" fill="#6C63FF"/>
<path d="M353.302 190.478C353.302 190.478 359.808 184.859 365 190.544C365 190.544 358.354 195.166 353 191.729L353.302 190.478Z" fill="#6C63FF"/>
<path d="M355.253 181.887C355.253 181.887 362.388 175.191 368 182.194C368 182.194 359.993 187.695 355 183.293L355.253 181.887Z" fill="#6C63FF"/>
<path d="M357 173.189C357 173.189 362.053 165.539 368 167.249C368 167.249 362.759 175.349 357.057 174.988L357 173.189Z" fill="#6C63FF"/>
<path d="M358.13 166.172C358.13 166.172 363.203 155.331 368 157.221C368 157.221 364.344 165.552 358 168L358.13 166.172Z" fill="#6C63FF"/>
<path d="M358.523 156.543C358.523 156.543 363.932 148.053 369 149.087C369 149.087 364.58 157.698 358 159L358.523 156.543Z" fill="#6C63FF"/>
<path d="M360 147.57C360 147.57 363.859 139.076 367 139C367 139 365.146 147.439 360.257 149L360 147.57Z" fill="#6C63FF"/>
<path d="M361 140.192C361 140.192 365.567 131.016 369 131C369 131 366.663 138.843 361.155 141L361 140.192Z" fill="#6C63FF"/>
<path d="M361 130.076C361 130.076 364.831 122.822 368 122C368 122 366.085 130.842 361.419 132L361 130.076Z" fill="#6C63FF"/>
<path d="M363.147 122.747L371 111C371 111 368.99 122.587 362 125L363.147 122.747Z" fill="#6C63FF"/>
<path d="M368.731 109.755C368.731 109.755 377.678 103.082 378 102C378 102 373.45 111.349 365 113L368.731 109.755Z" fill="#6C63FF"/>
<path d="M369.263 107C369.263 107 380.206 96.9868 383 97C383 97 373.975 97.3921 369 106.466L369.263 107Z" fill="#6C63FF"/>
<path d="M362 131.95L362.36 132C364.221 116.593 366.933 107.481 370 106.361L369.881 106C366.633 107.193 363.908 116.165 362 131.95Z" fill="#444053"/>
<path d="M359 167.95L359.512 168C359.618 166.563 359.701 165.09 359.757 163.626C360.245 150.882 361.005 139.185 362 130.414L361.706 130C360.708 138.787 359.736 150.843 359.247 163.6C359.188 165.057 359.106 166.52 359 167.95Z" fill="#444053"/>
<path d="M315.301 237C315.401 236.954 325.298 232.48 335.57 221.801C341.588 215.547 346.588 208.367 350.385 200.527C355.132 190.732 358.027 178.694 359 167L358.415 167.278C356.234 193.523 344.437 211.462 335.053 221.228C324.881 231.813 315.097 236.244 315 236.283L315.301 237Z" fill="#444053"/>
<path d="M355.19 40H39.8096C39.0644 40 38.3498 40.2961 37.8229 40.8233C37.296 41.3504 37 42.0653 37 42.8107V51H358V42.8107C358 42.0653 357.704 41.3504 357.177 40.8233C356.65 40.2961 355.936 40 355.19 40Z" fill="#3F3D56"/>
<path d="M37 51V235.331C37 236.835 37.5969 238.277 38.6593 239.34C39.7217 240.403 41.1626 241 42.6651 241H352.335C353.837 241 355.278 240.403 356.341 239.34C357.403 238.277 358 236.835 358 235.331V51H37Z" fill="white"/>
<path opacity="0.8" d="M42 47C42.5523 47 43 46.5523 43 46C43 45.4477 42.5523 45 42 45C41.4477 45 41 45.4477 41 46C41 46.5523 41.4477 47 42 47Z" fill="#FA5959"/>
<path opacity="0.8" d="M45.5 47C46.3284 47 47 46.5523 47 46C47 45.4477 46.3284 45 45.5 45C44.6716 45 44 45.4477 44 46C44 46.5523 44.6716 47 45.5 47Z" fill="#FED253"/>
<path opacity="0.8" d="M49.5 47C50.3284 47 51 46.5523 51 46C51 45.4477 50.3284 45 49.5 45C48.6716 45 48 45.4477 48 46C48 46.5523 48.6716 47 49.5 47Z" fill="#8CCF4D"/>
<g opacity="0.3">
<path opacity="0.3" d="M345.038 62.6289H48.3979V230.012H345.038V62.6289Z" stroke="#3F3D56" stroke-miterlimit="10"/>
<path opacity="0.3" d="M306.317 62.6289H87.1187V230.012H306.317V62.6289Z" stroke="#3F3D56" stroke-miterlimit="10"/>
<path opacity="0.3" d="M267.596 62.6289H125.839V230.012H267.596V62.6289Z" stroke="#3F3D56" stroke-miterlimit="10"/>
<path opacity="0.3" d="M228.875 62.6289H164.56V230.012H228.875V62.6289Z" stroke="#3F3D56" stroke-miterlimit="10"/>
<path opacity="0.3" d="M196.718 62.6289V230.012" stroke="#3F3D56" stroke-miterlimit="10"/>
<path opacity="0.3" d="M345.038 86.916H48.3979V205.725H345.038V86.916Z" stroke="#3F3D56" stroke-miterlimit="10"/>
<path opacity="0.3" d="M345.038 110.874H48.3979V181.766H345.038V110.874Z" stroke="#3F3D56" stroke-miterlimit="10"/>
<path opacity="0.3" d="M345.038 134.834H48.3979V157.808H345.038V134.834Z" stroke="#3F3D56" stroke-miterlimit="10"/>
</g>
<path opacity="0.1" d="M118 72H95V81H118V72Z" fill="#3F3D56"/>
<path opacity="0.1" d="M76 95H58V104H76V95Z" fill="#3F3D56"/>
<path opacity="0.1" d="M156 72H133V81H156V72Z" fill="#3F3D56"/>
<path opacity="0.1" d="M191 72H168V81H191V72Z" fill="#3F3D56"/>
<path opacity="0.1" d="M224 72H201V81H224V72Z" fill="#3F3D56"/>
<path opacity="0.1" d="M261 72H238V81H261V72Z" fill="#3F3D56"/>
<path opacity="0.1" d="M298 72H275V81H298V72Z" fill="#3F3D56"/>
<path opacity="0.1" d="M338 72H315V81H338V72Z" fill="#3F3D56"/>
<path d="M156 118H141V133H156V118Z" fill="url(#paint0_linear)"/>
<path d="M156 118H141V133H156V118Z" fill="#7CFCFF"/>
<path d="M187 115H172V130H187V115Z" fill="url(#paint1_linear)"/>
<path d="M187 115H172V129H187V115Z" fill="#FFFFA5"/>
<path d="M247 165H232V180H247V165Z" fill="url(#paint2_linear)"/>
<path d="M247 165H232V179H247V165Z" fill="#FFFFA5"/>
<path d="M114 92H99V107H114V92Z" fill="url(#paint3_linear)"/>
<path d="M114 92H99V107H114V92Z" fill="#FFFFA5"/>
<path d="M144 113H129V128H144V113Z" fill="url(#paint4_linear)"/>
<path d="M144 113H129V128H144V113Z" fill="#FF69B4"/>
<path d="M265 165H250V180H265V165Z" fill="url(#paint5_linear)"/>
<path d="M265 165H250V179H265V165Z" fill="#7CFCFF"/>
<path d="M292 92H276V107H292V92Z" fill="url(#paint6_linear)"/>
<path d="M291 93H277V107H291V93Z" fill="#7CFCFF"/>
<path d="M290 139H275V154H290V139Z" fill="url(#paint7_linear)"/>
<path d="M290 139H275V153H290V139Z" fill="#7CFCFF"/>
<path d="M301 142H286V157H301V142Z" fill="url(#paint8_linear)"/>
<path d="M301 142H287V157H301V142Z" fill="#7CFCFF"/>
<path d="M253 160H238V174H253V160Z" fill="url(#paint9_linear)"/>
<path d="M253 160H238V174H253V160Z" fill="#FF69B4"/>
<path d="M255 115H240V130H255V115Z" fill="url(#paint10_linear)"/>
<path d="M254 116H240V130H254V116Z" fill="#FF69B4"/>
<path opacity="0.1" d="M76 118H58V127H76V118Z" fill="#3F3D56"/>
<path opacity="0.1" d="M76 142H58V151H76V142Z" fill="#3F3D56"/>
<path opacity="0.1" d="M76 166H58V175H76V166Z" fill="#3F3D56"/>
<path opacity="0.1" d="M76 190H58V199H76V190Z" fill="#3F3D56"/>
<path opacity="0.1" d="M76 214H58V223H76V214Z" fill="#3F3D56"/>
<path d="M111.06 139.775C111.546 139.467 111.352 138.642 110.854 138.357C110.355 138.073 109.735 138.168 109.174 138.279C109.198 138.136 109.176 137.99 109.111 137.86C109.047 137.731 108.942 137.625 108.814 137.559V137.434C109.142 137.107 109.017 136.452 108.617 136.164C108.217 135.876 107.594 135.863 107.056 135.889C107.094 135.564 107.054 135.234 106.94 134.926C106.826 134.619 106.641 134.343 106.4 134.121C106.306 134.02 106.177 133.958 106.039 133.948C105.711 133.948 105.619 134.367 105.596 134.678C105.534 135.494 105.399 136.304 105.193 137.097L94.9992 154.121C93.8644 155.758 97.3902 150.847 96.2553 152.5C95.6806 153.4 95.0073 154.234 94.2481 154.985C93.5664 155.593 92.8037 156.103 91.9818 156.501C91.4329 156.517 90.8923 156.364 90.4337 156.062C89.8578 155.66 89.3544 155.163 88.9447 154.592C88.0561 153.465 87.2526 152.273 86.5406 151.027C86.2938 150.633 86.108 150.203 85.9896 149.754C85.8387 149.047 85.9896 148.28 85.7108 147.616C85.5922 147.368 85.4446 147.135 85.2713 146.922L84.5662 145.989V145.946C84.4874 144.565 83.3625 143.497 82.3129 142.587C81.4208 141.808 80.4533 140.996 79.2759 140.846C78.6461 140.764 78 140.885 77.3703 140.806C76.8554 140.741 76.3667 140.548 75.855 140.463C75.3626 140.395 74.864 140.386 74.3693 140.433L74.1594 140.24C75.2479 139.781 76.1726 139.005 76.8127 138.014C77.2981 137.231 77.5638 136.328 78.0131 135.522C78.5609 134.54 79.3742 133.728 79.981 132.785C81.4471 130.549 81.716 127.672 81.1224 125.066C80.5287 122.46 79.1381 120.093 77.5146 117.981C74.366 113.915 69.0855 112.415 64.1134 113.201C63.7854 113.254 63.4574 113.316 63.1294 113.388C62.2929 113.564 61.4765 113.823 60.6925 114.164C59.6319 114.597 58.7115 115.314 58.0326 116.236C57.8496 116.506 57.6947 116.793 57.5702 117.094C57.4786 117.324 57.404 117.56 57.3472 117.801C57.1947 118.528 57.1537 119.274 57.2258 120.014C57.2455 120.266 57.2717 120.518 57.3012 120.77L57.3504 121.15C57.3832 121.402 57.4193 121.654 57.4554 121.906C57.5079 122.286 57.5571 122.666 57.5931 123.039C57.622 123.303 57.6363 123.569 57.6358 123.835C57.6358 123.903 57.6358 123.969 57.6358 124.034C57.6242 124.232 57.5946 124.428 57.5472 124.62C57.5214 124.726 57.4885 124.83 57.4488 124.931C57.3307 125.232 57.1753 125.517 56.9864 125.779C56.7309 126.135 56.4538 126.475 56.1566 126.797L55.8713 127.125C55.7761 127.233 55.6843 127.344 55.5892 127.452C55.2142 127.889 54.8711 128.352 54.5626 128.837C54.4121 129.081 54.2773 129.335 54.1592 129.597C54.0694 129.795 53.9917 129.998 53.9263 130.206C53.8429 130.484 53.7836 130.768 53.7492 131.057C53.7492 131.129 53.7492 131.201 53.7295 131.273C53.7295 131.414 53.7295 131.558 53.7295 131.702C53.7367 131.844 53.7521 131.986 53.7755 132.127C53.7985 132.267 53.8314 132.405 53.8739 132.54C53.915 132.677 53.9665 132.81 54.028 132.939C54.028 132.975 54.0608 133.011 54.0805 133.047L54.133 133.155C54.169 133.227 54.2051 133.296 54.2379 133.368C54.2874 133.472 54.3238 133.582 54.3462 133.695C54.3462 133.731 54.3462 133.771 54.3462 133.81C54.3462 133.849 54.3462 133.895 54.3462 133.934C54.294 134.263 54.1209 134.561 53.8607 134.769C53.7951 134.832 53.7296 134.887 53.6607 134.946L53.5557 135.031L53.3425 135.198L53.1392 135.362C52.9605 135.511 52.7948 135.676 52.6439 135.853C50.7972 135.754 48.9461 135.935 47.1536 136.39C46.5167 136.597 45.8548 136.717 45.1857 136.747C45.0251 136.762 44.8634 136.737 44.7147 136.674C44.566 136.612 44.4349 136.515 44.3329 136.39C44.2193 136.144 44.1882 135.869 44.2444 135.604C44.3328 134.508 44.1527 133.407 43.7196 132.396C43.6149 132.1 43.4339 131.837 43.1949 131.633C43.073 131.534 42.9229 131.476 42.7661 131.468C42.6093 131.46 42.454 131.502 42.3224 131.587C42.8772 133.378 42.7973 135.305 42.0961 137.045C41.736 137.864 41.3139 138.656 40.8334 139.412C40.0856 140.685 39.6658 142.142 39 143.461C39.7445 145.979 39.5772 148.667 39.9839 151.266C40.348 153.686 41.1942 156.003 42.0436 158.298C42.6996 160.03 43.3818 161.837 44.7724 163.055C45.2206 163.507 45.8252 163.769 46.4615 163.789C46.9326 163.73 47.3826 163.56 47.7734 163.291C48.1791 163.07 48.5531 162.796 48.8853 162.476C49.0082 162.341 49.118 162.196 49.2133 162.04C49.254 162.26 49.3376 162.469 49.4593 162.656C50.2595 160.934 51.1385 159.251 52.0831 157.604C52.3644 157.455 52.6284 157.275 52.8702 157.067C52.8702 157.126 52.8998 157.185 52.9162 157.244C52.8735 157.401 52.8342 157.572 52.7915 157.719C52.7489 157.866 52.6997 158.023 52.6538 158.171C52.6079 158.318 52.5849 158.39 52.5488 158.498C52.5127 158.606 52.4603 158.76 52.4111 158.891C52.3619 159.022 52.3061 159.176 52.2504 159.317C52.1946 159.457 52.1749 159.52 52.1323 159.618C52.0306 159.867 51.9257 160.109 51.8043 160.351C51.8957 160.396 51.9899 160.434 52.0864 160.466L52.1487 160.485C52.2337 160.512 52.3202 160.534 52.4078 160.551H52.5029C52.567 160.561 52.6316 160.567 52.6964 160.57H52.7686H52.9818C53.2165 160.56 53.449 160.521 53.6738 160.453L53.8017 160.976C54.1289 162.153 54.3398 163.36 54.4314 164.578C54.4937 165.953 54.2543 167.351 54.52 168.703C54.6545 169.407 54.9267 170.081 55.0251 170.788C55.0885 171.454 55.0764 172.125 54.989 172.788C54.8359 174.395 54.6829 176.002 54.5298 177.611C54.5158 178.201 54.3748 178.782 54.1166 179.313C53.8903 179.706 53.5229 180.155 53.7525 180.544C54.1305 180.444 54.5152 180.37 54.9037 180.325C54.7627 180.836 54.6348 181.35 54.5134 181.867C54.3951 182.251 54.3637 182.657 54.4216 183.055C54.5036 183.428 54.7496 183.766 54.7758 184.145C54.8348 184.735 54.4249 185.255 54.1986 185.802C53.6213 187.197 54.2346 188.768 54.8545 190.15L56.665 194.249L58.1507 197.611C58.5902 198.593 59.033 199.608 59.4626 200.616C61.3989 205.207 62.98 209.94 64.1921 214.772C64.2326 214.992 64.3162 215.201 64.4381 215.388C64.6873 215.715 65.1432 215.82 65.5138 216.023C66.6257 216.635 66.7536 218.462 65.7369 219.221C65.9435 221.683 64.097 224.063 63.1458 226.342C60.9549 231.58 61.3518 237.493 60.6007 243.124L61.4502 242.629C61.5509 242.675 61.6439 242.735 61.7257 242.809C61.706 242.914 61.683 243.023 61.6568 243.137C61.5419 243.616 61.3585 244.075 61.1124 244.502C60.6171 245.35 59.8595 246.106 59.7447 247.082C59.6758 247.671 59.8562 248.26 59.8529 248.853C59.8529 248.909 59.8529 248.961 59.8529 249.017C59.7775 248.945 59.6627 248.951 59.4921 249.085C59.2252 249.365 59.0402 249.713 58.9575 250.09C58.8099 250.513 58.6919 250.942 58.5738 251.371L58.1343 252.883C57.9099 253.795 57.6126 254.687 57.2455 255.551C56.9315 256.13 56.6681 256.735 56.4583 257.358C56.3414 257.867 56.2962 258.389 56.3239 258.91C56.3153 259.41 56.3872 259.907 56.537 260.383C56.7339 260.853 57.0266 261.276 57.3965 261.626C57.7664 261.976 58.2053 262.245 58.6853 262.417C59.646 262.754 60.6523 262.943 61.6699 262.98C61.9308 263.013 62.1953 263.005 62.4538 262.957C62.7306 262.877 62.9883 262.742 63.2114 262.561C64.5955 261.546 65.3105 259.68 65.4351 257.977C65.4001 257.626 65.3376 257.278 65.2482 256.936C65.3335 255.073 65.0612 253.201 65.2023 251.344C65.2318 251.557 65.2613 251.767 65.2941 251.976L65.6221 254.062C65.6029 253.988 65.5644 253.92 65.5106 253.865C65.2678 254.638 65.2249 255.459 65.3859 256.252C65.5495 257.041 65.7799 257.816 66.0747 258.566L66.5207 259.811C66.6282 260.186 66.8088 260.536 67.0521 260.842C67.4424 261.271 68.036 261.431 68.6067 261.569C69.8334 261.926 71.0963 262.146 72.3719 262.223C72.5424 262.243 72.7151 262.211 72.8671 262.132C72.9452 262.074 73.0197 262.012 73.0902 261.945C73.2035 261.864 73.3243 261.794 73.4509 261.736C73.999 261.448 74.4131 260.958 74.6054 260.37C74.6977 260.078 74.7264 259.769 74.6897 259.465C74.6529 259.161 74.5515 258.868 74.3922 258.606C74.2431 258.385 74.0729 258.179 73.8839 257.99L71.6405 255.617C71.2975 255.21 70.9318 254.823 70.545 254.458C70.4989 254.411 70.442 254.375 70.3791 254.355C70.3163 254.334 70.2495 254.329 70.1843 254.34C69.5742 252.821 69.6529 251.046 69.7579 249.38C69.7907 248.882 70.0629 247.851 70.1712 247.003C70.6038 246.857 71.007 246.636 71.3617 246.348C71.7036 246.099 71.9464 245.737 72.0472 245.327C73.1787 239.559 74.999 233.967 76.7176 228.346C76.8882 227.792 77.0456 227.236 77.2194 226.682C77.2916 226.447 77.3572 226.208 77.426 225.969C77.4949 225.73 77.5408 225.582 77.5966 225.389C77.6884 225.062 77.7803 224.735 77.8688 224.407C77.8951 224.319 77.918 224.23 77.9443 224.142C77.9428 224.125 77.9428 224.107 77.9443 224.09C78.0525 223.687 78.1574 223.284 78.2722 222.882C78.3116 222.724 78.3542 222.574 78.3936 222.417C78.5215 221.906 78.6494 221.389 78.7708 220.875C78.7908 220.804 78.8061 220.732 78.8167 220.659C78.861 220.477 78.8484 220.286 78.7806 220.112C78.7479 220.044 78.7048 219.983 78.6527 219.929C78.6166 219.886 78.5773 219.843 78.5379 219.804C78.4985 219.765 78.4526 219.712 78.4133 219.663C78.3097 219.537 78.2318 219.391 78.1837 219.234C78.1837 219.077 78.1837 218.907 78.1837 218.763C78.1837 218.619 78.164 218.436 78.1542 218.265C78.1893 218.044 78.2386 217.826 78.3018 217.611C78.3411 217.483 78.3838 217.355 78.4231 217.228C78.4625 217.1 78.5215 216.9 78.574 216.753C78.7702 216.529 78.8765 216.241 78.8724 215.944C79.0758 215.438 79.2999 214.941 79.5448 214.455C79.8469 213.961 80.0507 213.414 80.145 212.844C80.1436 212.329 80.0797 211.815 79.9548 211.315C79.6268 209.187 80.6107 207.115 81.3356 205.095C81.8733 203.605 82.2815 202.071 82.5556 200.511C82.7688 199.316 82.9164 198.063 83.556 197.028C83.767 196.738 83.9473 196.426 84.0939 196.098C84.1932 195.756 84.2418 195.401 84.2382 195.044C84.3189 193.598 84.6693 192.181 85.2713 190.863C85.4047 190.608 85.4955 190.333 85.5403 190.048C85.542 190.03 85.542 190.011 85.5403 189.993V189.914L85.7075 189.888C85.9929 188.084 86.2815 186.074 86.0847 184.257C85.8288 182.152 84.8019 180.216 83.2018 178.822H83.2346C83.7987 178.537 84.0512 177.84 84.0611 177.225C84.0624 176.758 83.9588 176.297 83.7578 175.876C83.5569 175.455 83.2637 175.085 82.9 174.792C82.7374 174.691 82.6022 174.552 82.5064 174.386C82.452 174.216 82.4353 174.036 82.4573 173.859C82.4599 173.324 82.3032 172.801 82.0071 172.356C81.711 171.91 81.2889 171.563 80.7944 171.358C80.6917 171.329 80.5981 171.275 80.5222 171.201C80.4379 171.056 80.4121 170.885 80.45 170.723C80.4804 170.191 80.3648 169.661 80.1157 169.191C79.8666 168.72 79.4934 168.326 79.0364 168.051C79.1676 167.351 79.2988 166.617 79.0987 165.93C78.8987 165.242 78.2526 164.62 77.5441 164.718C78.1214 163.147 77.3014 161.399 77.5179 159.739C77.613 159.025 77.8983 158.341 77.9344 157.624C77.9672 156.969 77.8065 156.269 78.1246 155.699C78.4428 155.129 79.1939 154.684 79.0004 154.062C78.9184 153.797 78.6724 153.614 78.5576 153.355C78.4428 153.096 78.902 152.7 79.1381 152.844C79.2496 152.759 79.3611 152.671 79.4661 152.579C79.5003 152.912 79.5662 153.241 79.6629 153.561C79.8236 154.098 80.0696 154.602 80.2368 155.136C80.4927 155.951 80.5648 156.835 80.9781 157.581C81.634 158.776 83.0214 159.369 83.9594 160.361C84.5104 160.94 84.9073 161.67 85.4747 162.22C85.9056 162.622 86.3784 162.977 86.885 163.278L89.9155 165.242C90.2298 165.47 90.5801 165.644 90.9519 165.756C91.1878 165.801 91.4303 165.798 91.6648 165.746C91.8992 165.694 92.1206 165.595 92.3155 165.455C92.5103 165.315 92.6746 165.137 92.7983 164.931C92.9219 164.726 93.0023 164.498 93.0346 164.26C92.7559 164.162 92.5019 164.004 92.2901 163.798C92.3327 163.798 92.3753 163.798 92.418 163.779C93.1379 163.591 93.8039 163.238 94.3629 162.748C96.521 161.032 98.0723 158.691 99.5876 156.39C101.175 153.977 108.814 147.593 108.814 147.593V145.007C109.786 144.444 110.648 143.711 111.359 142.843C111.742 142.379 111.966 141.806 111.998 141.206C112.013 140.899 111.93 140.595 111.762 140.339C111.593 140.082 111.348 139.884 111.06 139.775ZM47.5307 145.979C47.3842 146.92 47.2039 147.854 46.9896 148.781C46.7535 149.854 46.4512 150.912 46.0844 151.947L45.9663 152.275C45.858 152.072 45.7498 151.872 45.6383 151.666C45.3923 151.152 45.1922 150.618 44.9823 150.084L43.7163 146.68C43.5524 146.238 43.3884 145.727 43.6343 145.321C43.8147 145.072 44.0662 144.884 44.3559 144.781C45.246 144.373 46.1758 144.058 47.1306 143.841C47.4325 143.781 47.7304 143.702 48.0227 143.605C47.7873 144.38 47.6227 145.175 47.5307 145.979ZM48.9312 141.723C48.889 141.647 48.8668 141.562 48.8668 141.476C48.8668 141.389 48.889 141.304 48.9312 141.229C49.026 141.133 49.137 141.056 49.2592 140.999L49.3543 140.934C49.2231 141.206 49.0755 141.468 48.9312 141.733V141.723ZM51.555 138.02C51.1827 138.329 50.8441 138.675 50.5449 139.055C50.2238 139.478 49.9343 139.925 49.679 140.39C49.7177 140.209 49.7043 140.021 49.6405 139.847C49.5767 139.674 49.465 139.521 49.3182 139.408C49.2021 139.345 49.0923 139.27 48.9902 139.186C48.8806 139.04 48.8336 138.856 48.8594 138.676C48.8853 138.495 48.9819 138.333 49.128 138.223C49.4298 138.017 49.7826 137.897 50.148 137.876L51.66 137.654C51.6141 137.781 51.5846 137.906 51.5518 138.03L51.555 138.02ZM65.7106 247.579C65.7373 247.127 65.7075 246.673 65.6221 246.227C65.809 246.227 65.996 246.227 66.1796 246.227C66.0255 246.663 65.8681 247.124 65.7106 247.579Z" fill="url(#paint11_linear)"/>
<path d="M64.4977 114.202C61.8427 114.62 58.889 115.616 57.8602 118.042C57.0935 119.876 57.6876 121.94 57.8834 123.91C57.9576 124.431 57.9386 124.959 57.827 125.473C57.6079 126.304 57.0039 126.977 56.4198 127.621C55.6083 128.438 54.9271 129.37 54.3986 130.384C53.9207 131.419 53.7681 132.648 54.2626 133.683C54.4308 133.949 54.5436 134.245 54.5945 134.554C54.6276 135.226 53.9041 135.653 53.3731 136.084C51.3819 137.701 51.4648 140.613 51.4482 143.146C51.4176 148.311 50.2413 153.408 48 158.088C48.84 158.503 49.7887 158.661 50.7224 158.542C51.656 158.423 52.5312 158.033 53.2337 157.422C52.9578 158.572 52.5596 159.691 52.0456 160.76C53.7316 161.556 55.766 160.249 56.6123 158.619C57.4586 156.988 57.5581 155.093 58.1588 153.362C58.7595 151.631 59.8182 150.127 60.2862 148.383C60.4355 147.807 60.5285 147.193 60.8902 146.714C61.195 146.368 61.5533 146.07 61.9522 145.831C63.7028 144.599 65.015 142.865 65.7058 140.872C67.7701 141.315 69.8775 141.761 71.9816 141.574C74.0858 141.386 76.2363 140.457 77.3481 138.704C77.8393 137.931 78.1048 137.041 78.5595 136.245C79.1171 135.275 79.9368 134.473 80.5508 133.544C82.031 131.335 82.3031 128.498 81.7024 125.923C81.1017 123.348 79.7111 121.018 78.0517 118.932C74.8723 114.907 69.529 113.416 64.4977 114.202Z" fill="#303D5C"/>
<path d="M47.807 147.311C47.6531 148.249 47.465 149.187 47.2461 150.115C46.998 151.189 46.6827 152.247 46.3022 153.284C46.0784 153.738 45.9762 154.239 46.0047 154.74C46.0721 155.047 46.1961 155.341 46.3706 155.606C47.6189 157.735 49.3084 159.792 49.4487 162.232C49.4829 162.839 49.4487 163.498 49.7907 164C50.7551 162.008 51.8199 160.066 52.985 158.175C54.2026 156.207 55.5569 154.193 55.9058 151.916C56.0449 150.848 56.0299 149.766 55.8613 148.702C55.7005 147.504 55.4201 146.278 54.6609 145.32C53.8332 144.283 51.5828 142.719 50.1019 143.044C48.3816 143.421 48.0259 145.976 47.807 147.311Z" fill="#6C63FF"/>
<path d="M90.0665 158.597C91.6183 157.955 93.2026 157.28 94.433 156.121C95.1845 155.365 95.8509 154.527 96.4198 153.622L100.072 148.278C100.936 147.007 101.828 145.674 102.02 144.143C104.159 141.853 105.447 138.881 105.666 135.734C105.692 135.421 105.796 135.01 106.104 135C106.24 135.01 106.368 135.073 106.461 135.174C106.7 135.397 106.883 135.674 106.996 135.983C107.109 136.291 107.148 136.622 107.11 136.949C107.643 136.923 108.221 136.91 108.656 137.226C109.091 137.542 109.208 138.325 108.74 138.585C108.897 138.634 109.03 138.738 109.116 138.88C109.201 139.021 109.233 139.189 109.204 139.353C109.763 139.241 110.376 139.148 110.87 139.432C111.363 139.715 111.552 140.544 111.074 140.854C111.353 140.963 111.591 141.157 111.756 141.408C111.922 141.66 112.007 141.957 112 142.26C111.97 142.864 111.748 143.441 111.366 143.906C109.964 145.816 107.49 146.586 105.864 148.305C105.329 148.906 104.85 149.555 104.432 150.244L99.7215 157.514C98.2249 159.818 96.6893 162.179 94.5531 163.898C93.9998 164.391 93.3406 164.746 92.628 164.935C92.2711 165.026 91.8969 165.021 91.5423 164.922C91.1877 164.822 90.8648 164.63 90.6054 164.365C90.1347 163.822 90.0633 163.048 90.0178 162.321C89.9399 161.096 90.1477 159.831 90.0665 158.597Z" fill="#EE8E9E"/>
<path d="M74.2145 258.945C74.396 259.124 74.5589 259.322 74.7008 259.534C74.853 259.785 74.95 260.065 74.9851 260.356C75.0203 260.647 74.9929 260.942 74.9047 261.221C74.7228 261.783 74.3274 262.252 73.8036 262.526C73.6811 262.581 73.5644 262.648 73.4553 262.726C73.3886 262.792 73.3174 262.853 73.242 262.908C73.0956 262.981 72.9314 263.012 72.7683 262.996C71.5496 262.919 70.343 262.708 69.1701 262.369C68.6305 262.234 68.0596 262.08 67.6831 261.673C67.4504 261.38 67.2777 261.044 67.1749 260.685L66.7483 259.497C66.4682 258.778 66.2488 258.038 66.0926 257.283C65.937 256.524 65.978 255.738 66.2119 255C66.3176 255.132 66.3732 255.298 66.3687 255.467C66.4943 256.267 66.8082 257.026 67.2847 257.681C67.3843 257.845 67.5045 257.996 67.6424 258.129C67.9542 258.369 68.3228 258.523 68.7121 258.578C69.4614 258.741 70.2234 258.838 70.9896 258.869C71.0957 258.884 71.2037 258.871 71.3033 258.832C71.4263 258.764 71.5193 258.652 71.5637 258.518C71.6734 258.214 71.6734 257.881 71.5637 257.578C71.3566 256.997 70.7888 256.618 70.519 256.066C70.3151 255.658 70.5943 255.21 71.0084 255.555C71.3802 255.904 71.7311 256.275 72.0594 256.665L74.2145 258.945Z" fill="#303D5C"/>
<path d="M70.0221 250.337C69.8836 252.257 69.7876 254.33 70.9743 255.942C71.4041 256.52 71.9761 257.007 72.4628 257.551C72.742 257.822 72.9269 258.159 72.9957 258.521C73.0632 259.225 72.3172 259.828 71.532 259.96C70.7469 260.092 69.944 259.872 69.1837 259.646C68.4643 259.488 67.7871 259.206 67.1906 258.817C66.1568 258.044 65.8832 256.756 65.6772 255.574L65.194 252.828C64.828 251.44 64.9826 249.985 65.6345 248.681L66.4303 246.62C66.4824 246.42 66.6072 246.24 66.7856 246.108C66.9707 246.018 67.1837 245.983 67.3931 246.008C68.1534 246.042 70.0754 246.287 70.4449 247.001C70.7575 247.619 70.0754 249.599 70.0221 250.337Z" fill="#EE8E9E"/>
<path opacity="0.05" d="M70.0221 250.337C69.8836 252.257 69.7876 254.33 70.9743 255.942C71.4041 256.52 71.9761 257.007 72.4628 257.551C72.742 257.822 72.9269 258.159 72.9957 258.521C73.0632 259.225 72.3172 259.828 71.532 259.96C70.7469 260.092 69.944 259.872 69.1837 259.646C68.4643 259.488 67.7871 259.206 67.1906 258.817C66.1568 258.044 65.8832 256.756 65.6772 255.574L65.194 252.828C64.828 251.44 64.9826 249.985 65.6345 248.681L66.4303 246.62C66.4824 246.42 66.6072 246.24 66.7856 246.108C66.9707 246.018 67.1837 245.983 67.3931 246.008C68.1534 246.042 70.0754 246.287 70.4449 247.001C70.7575 247.619 70.0754 249.599 70.0221 250.337Z" fill="black"/>
<path d="M85.9989 190.963C86.0004 190.982 86.0004 191 85.9989 191.019C85.9562 191.302 85.8629 191.575 85.7232 191.827C85.1061 193.139 84.7459 194.552 84.6609 195.993C84.6646 196.349 84.6148 196.704 84.513 197.046C84.3622 197.372 84.1775 197.682 83.9617 197.972C83.3061 199.008 83.1548 200.261 82.9363 201.448C82.6546 203 82.2362 204.525 81.6857 206.007C80.9361 208.028 79.9275 210.095 80.2704 212.22C80.3985 212.72 80.464 213.233 80.4654 213.747C80.3696 214.317 80.1607 214.862 79.8502 215.353C79.5992 215.837 79.3751 216.333 79.1779 216.841C78.9594 217.384 78.7644 217.94 78.5929 218.502C78.3912 219.186 78.2567 219.997 78.7207 220.546C78.8648 220.681 78.9923 220.831 79.1005 220.994C79.1879 221.245 79.1879 221.516 79.1005 221.766C78.8338 222.856 78.5492 223.946 78.2467 225.036C78.0113 225.887 77.7626 226.73 77.5071 227.574C75.6178 233.745 73.4729 239.854 72.2089 246.176C72.0274 247.085 70.8272 247.736 69.8994 247.935C69.4321 248.032 68.9479 248.02 68.4863 247.9C68.0247 247.78 67.5988 247.556 67.2436 247.245C67.1797 247.189 67.1192 247.127 67.062 247.068C66.0871 246.048 65.9426 244.482 66.0165 243.069C66.3527 236.564 69.7145 230.609 71.3147 224.288C71.8934 222.002 72.2425 219.667 72.3568 217.315C72.73 209.467 72.8813 201.167 70.5986 193.622C70.1246 192.052 69.5632 190.28 70.4171 188.874C70.955 187.984 71.9534 187.458 72.9418 187.078C74.9575 186.314 77.1097 185.949 79.2723 186.006C81.4349 186.062 83.5641 186.538 85.535 187.405C85.5383 187.563 85.5315 187.72 85.5148 187.876C85.4292 188.607 85.5166 189.348 85.7703 190.041C85.9008 190.333 85.9782 190.645 85.9989 190.963Z" fill="#303D5C"/>
<path d="M59.204 252.385L58.7926 253.898C58.5735 254.807 58.281 255.698 57.918 256.559C57.6079 257.138 57.3478 257.742 57.1406 258.366C57.0251 258.875 56.9804 259.397 57.0078 259.918C56.9993 260.416 57.0704 260.912 57.2184 261.388C57.4123 261.856 57.7009 262.279 58.0657 262.628C58.4304 262.978 58.8634 263.247 59.3368 263.417C60.2855 263.755 61.2795 263.943 62.2846 263.977C62.542 264.013 62.8035 264.007 63.0588 263.957C63.3321 263.878 63.5867 263.743 63.807 263.561C65.174 262.55 65.8769 260.684 66 258.978C65.9647 258.58 65.8876 258.188 65.77 257.806C65.6631 257.662 64.6298 258.252 65.0736 258.746C65.7214 259.473 63.8135 259.096 62.8417 259.034C62.4149 258.997 61.9914 258.927 61.5752 258.824L60.0009 258.497C59.4858 258.386 58.8931 258.206 58.7052 257.708C58.5173 257.21 58.919 256.615 59.2299 256.13C60.0527 254.844 60.2665 253.269 60.4576 251.75C60.4933 251.452 60.8625 249.517 60.1013 250.113C59.84 250.395 59.6577 250.742 59.5733 251.118C59.434 251.527 59.3174 251.956 59.204 252.385Z" fill="#303D5C"/>
<path opacity="0.05" d="M78.5635 220.86C78.1055 220.317 78.2316 219.515 78.4407 218.839C78.5138 218.587 78.5967 218.338 78.683 218.089L72.3496 216C72.3263 216.556 72.2998 217.106 72.2732 217.656C72.1628 219.982 71.8193 222.292 71.2475 224.553C69.6641 230.801 66.3414 236.69 66.0161 243.119C65.9397 244.6 66.1024 246.255 67.2277 247.251C67.5778 247.559 67.9976 247.781 68.4527 247.9C68.9079 248.019 69.3856 248.032 69.8467 247.937C70.7662 247.74 71.9479 247.093 72.1305 246.194C73.3852 239.943 75.4931 233.905 77.3619 227.797C77.9439 225.902 78.4684 223.992 78.9353 222.067C79.0216 221.82 79.0216 221.553 78.9353 221.307C78.8314 221.143 78.7064 220.993 78.5635 220.86Z" fill="black"/>
<path d="M61.5994 245.561C61.1294 246.393 60.4134 247.129 60.3044 248.083C60.239 248.656 60.4103 249.232 60.4071 249.811C60.3842 250.29 60.3015 250.765 60.1612 251.222C59.5822 253.371 58.916 255.489 58.1627 257.578C58.0389 257.847 57.9842 258.145 58.0039 258.442C58.0786 258.932 58.5425 259.255 58.9845 259.45C60.4009 260.071 61.9948 260.03 63.5326 259.966C63.9798 259.984 64.4231 259.873 64.812 259.646C65.363 259.258 65.5 258.493 65.5342 257.809C65.64 255.824 65.3132 253.831 65.5342 251.859C65.612 251.139 65.7583 250.432 65.8673 249.718C66.0198 248.726 66.0976 247.683 65.7801 246.732C65.5172 246.05 65.1494 245.416 64.6906 244.854C64.2858 244.245 63.7737 243.72 63.1808 243.305C63.0003 243.196 62.4866 242.857 62.3029 243.068C62.2096 243.177 62.25 243.468 62.2376 243.602C62.2134 243.809 62.1781 244.014 62.1317 244.217C62.018 244.689 61.8387 245.141 61.5994 245.561Z" fill="#EE8E9E"/>
<path opacity="0.05" d="M73.2798 193.503C72.9826 193.898 73.0427 194.447 73.1629 194.924C73.3733 195.786 73.7273 196.612 74.0145 197.452C74.4845 198.959 74.8505 200.496 75.1099 202.051C75.377 203.456 75.9447 205.021 75.7143 206.435C77.4561 209.678 78.6012 213.195 79.0972 216.826C79.2274 217.757 77.1135 218.959 77.1536 219.897C77.2338 221.765 78.7566 221.916 77.6345 223.405C77.5777 223.48 78.0553 225.15 77.9918 225.221C77.5343 225.76 76.9533 226.201 76.4623 226.695C75.8292 227.396 75.2874 228.172 74.8494 229.004C71.944 234.139 67.7429 239.96 69.0387 245.693C69.0651 245.9 69.0261 246.109 68.9269 246.293C68.8278 246.477 68.6733 246.627 68.4843 246.722C68.1008 246.903 67.681 246.998 67.2554 247H67.055C66.0866 245.981 65.943 244.416 66.0164 243.005C66.3504 236.508 69.6899 230.559 71.2795 224.245C71.8544 221.962 72.2011 219.629 72.3147 217.28C72.6854 209.44 72.8357 201.15 70.5681 193.614C70.0973 192.046 69.5396 190.275 70.3878 188.87C70.9221 187.982 71.914 187.456 72.8958 187.077C74.8981 186.314 77.0361 185.95 79.1843 186.006C81.3326 186.062 83.4477 186.537 85.4055 187.404C85.4088 187.561 85.4021 187.718 85.3855 187.874C85.3004 188.604 85.3873 189.344 85.6393 190.037C85.7793 190.333 85.8641 190.652 85.8897 190.977C85.8897 190.977 86.0033 189.713 85.9999 189.733C83.4118 190.095 80.6801 191.752 78.0686 192.127C76.7147 192.269 75.3809 192.556 74.0913 192.983C73.7771 193.08 73.4963 193.26 73.2798 193.503Z" fill="black"/>
<path d="M55.4458 179.348C55.1044 180.441 54.8032 181.544 54.5422 182.659C54.4261 183.044 54.3949 183.45 54.4509 183.848C54.5324 184.222 54.7771 184.556 54.8032 184.936C54.8619 185.526 54.4541 186.047 54.2291 186.595C53.6549 187.988 54.2682 189.561 54.8815 190.941L56.6821 195.038L58.163 198.4C58.6034 199.4 59.0405 200.4 59.4678 201.406C61.3924 205.997 62.9639 210.729 64.1683 215.561C64.2089 215.78 64.2908 215.99 64.4097 216.178C64.6609 216.505 65.1143 216.61 65.4797 216.814C66.5887 217.423 66.716 219.252 65.7015 220.012C65.9102 222.474 64.0705 224.85 63.1278 227.131C60.9488 232.375 61.3435 238.275 60.5965 243.912L61.4413 243.414C62.2536 243.787 62.2242 244.944 62.6613 245.728C63.3137 246.904 64.9186 247.068 66.2495 246.98C66.6642 246.978 67.0733 246.883 67.4466 246.701C67.6316 246.606 67.7827 246.456 67.8796 246.271C67.9765 246.086 68.0144 245.876 67.9881 245.669C66.7257 239.917 70.8261 234.076 73.6673 228.924C74.094 228.089 74.6221 227.311 75.2395 226.607C75.7223 226.095 76.2866 225.666 76.7368 225.129C77.9894 223.618 78.1492 221.487 78.0644 219.521C77.8655 214.897 76.6513 210.374 74.5089 206.276C74.7372 204.86 74.1827 203.29 73.9217 201.881C73.6674 200.321 73.3066 198.78 72.842 197.27C72.5614 196.421 72.2189 195.595 72.0102 194.73C71.896 194.251 71.834 193.7 72.1243 193.304C72.3388 193.059 72.6166 192.879 72.9268 192.783C74.1864 192.354 75.4893 192.066 76.8118 191.924L85.5637 190.662C85.8443 188.856 86.1313 186.844 85.9356 185.028C85.7253 183.346 85.0281 181.762 83.9304 180.474C82.8327 179.186 81.3829 178.25 79.7607 177.782C79.379 177.68 78.9321 177.614 78.619 177.857C70.8961 176.334 62.9121 176.847 55.4458 179.348Z" fill="#303D5C"/>
<path d="M63.3475 132.188C63.4765 133.033 63.342 133.897 62.9615 134.667C62.7045 135.087 62.3687 135.456 61.9717 135.755C61.1158 136.428 60.1207 136.912 59.0552 137.172C58.4284 137.327 57.7355 137.43 57.3099 137.918C56.6897 138.651 57.1054 139.761 57.6399 140.562C58.557 141.956 59.8305 143.219 61.4636 143.654C62.7833 144.003 64.1591 143.79 65.492 144.016C66.4587 144.181 67.3692 144.571 68.3227 144.794C69.6795 145.098 71.0923 145.065 72.4329 144.699C73.7736 144.333 74.9997 143.646 76 142.699C74.5813 141.634 73.1099 140.5 72.3709 138.906C71.8507 137.764 71.7527 136.481 72.0937 135.277C72.4236 134.096 73.199 132.946 72.9614 131.726C72.7239 130.506 71.5098 129.689 70.322 129.282C69.2316 128.958 68.111 128.741 66.9766 128.633C66.3531 128.549 62.394 127.694 62.1466 128.117C62.008 128.356 62.8295 129.77 62.9318 130.083C63.173 130.761 63.313 131.47 63.3475 132.188Z" fill="#EE8E9E"/>
<path d="M69 135C73.4183 135 77 131.418 77 127C77 122.582 73.4183 119 69 119C64.5817 119 61 122.582 61 127C61 131.418 64.5817 135 69 135Z" fill="#EE8E9E"/>
<path d="M64.2701 139.72L69.7722 140.649C71.1246 140.925 72.5012 141.064 73.8813 141.063C74.6348 140.988 75.394 140.988 76.1475 141.063C76.6674 141.15 77.1639 141.347 77.6838 141.414C78.327 141.494 78.9802 141.371 79.6234 141.454C80.8165 141.608 81.7996 142.436 82.7061 143.228C83.7692 144.156 84.9122 145.232 84.9955 146.652C85.0105 146.813 84.9877 146.975 84.9289 147.126C84.8245 147.296 84.6847 147.442 84.519 147.554C83.5192 148.385 82.9427 149.625 82.2228 150.72C81.4817 151.851 80.5582 152.85 79.4901 153.677C79.2501 153.523 78.7936 153.927 78.8969 154.194C79.0002 154.462 79.2635 154.645 79.3501 154.916C79.5467 155.541 78.7769 156.002 78.457 156.586C78.1371 157.171 78.3004 157.882 78.267 158.547C78.227 159.279 77.9338 159.977 77.8438 160.702C77.6205 162.395 78.457 164.179 77.8671 165.779C78.5903 165.689 79.2435 166.314 79.4468 167.012C79.6501 167.71 79.5201 168.462 79.3834 169.176C79.8479 169.455 80.2275 169.856 80.4812 170.335C80.735 170.814 80.8532 171.354 80.8231 171.895C80.7948 171.959 80.7811 172.029 80.7832 172.099C80.7852 172.169 80.8029 172.237 80.8348 172.3C80.8668 172.362 80.9123 172.416 80.968 172.458C81.0236 172.5 81.088 172.53 81.1564 172.544C81.658 172.753 82.0864 173.107 82.3871 173.561C82.6879 174.015 82.8476 174.548 82.846 175.092C82.8237 175.274 82.8408 175.459 82.896 175.633C82.9931 175.801 83.1292 175.942 83.2926 176.044C83.6622 176.342 83.9602 176.72 84.1645 177.149C84.3687 177.578 84.4739 178.048 84.4723 178.523C84.4723 179.168 84.2057 179.859 83.6359 180.15C82.4694 180.744 81.2197 180.975 79.94 181.252C78.7608 181.531 77.567 181.744 76.3641 181.89C75.2557 181.981 74.1434 182.016 73.0315 181.994L65.6731 181.964C63.6036 181.964 61.534 181.964 59.4711 181.807C57.5449 181.676 55.5753 181.436 53.7091 181.944C53.4758 181.546 53.849 181.088 54.079 180.691C54.3426 180.149 54.4858 179.556 54.4989 178.954L54.9654 174.04C55.0542 173.364 55.0665 172.681 55.0021 172.002C54.9021 171.277 54.6289 170.593 54.4889 169.875C54.2223 168.498 54.4656 167.075 54.4022 165.672C54.3071 164.429 54.0917 163.199 53.759 161.998L52.2994 155.985C52.0661 155.02 51.9428 153.897 51.5829 152.979C50.4609 150.084 49.2845 147.22 48.0536 144.387C48.0091 144.263 47.992 144.13 48.0035 143.999C48.015 143.867 48.0548 143.74 48.1203 143.625L49.3367 141.441C49.6621 140.82 50.0342 140.225 50.4498 139.66C51.4771 138.358 52.9319 137.463 54.5555 137.135C56.1814 136.816 57.867 137.066 59.3312 137.843C59.8977 138.147 60.4243 138.511 60.9975 138.812C61.9806 139.279 63.1803 139.794 64.2701 139.72Z" fill="#6C63FF"/>
<path d="M83.7637 145L85.5671 147.589C85.7328 147.808 85.8739 148.049 85.9873 148.304C86.257 148.979 86.1096 149.775 86.2539 150.501C86.3663 150.966 86.5451 151.408 86.7839 151.814C87.4619 153.097 88.2282 154.323 89.0765 155.482C89.4685 156.071 89.9511 156.584 90.5035 156.998C90.7803 157.204 91.0949 157.343 91.426 157.406C91.7572 157.47 92.0972 157.456 92.4229 157.366C92.1505 157.48 91.927 157.699 91.7957 157.98C91.1088 159.445 91.0587 161.179 91.3503 162.786C91.4324 163.337 91.6021 163.869 91.8521 164.358C92.1026 164.852 92.5101 165.232 93 165.428C92.9692 165.673 92.8923 165.908 92.774 166.12C92.6557 166.332 92.4986 166.515 92.3122 166.659C92.1258 166.803 91.914 166.905 91.6898 166.958C91.4657 167.011 91.2338 167.014 91.0085 166.967C90.6534 166.853 90.3193 166.673 90.0205 166.437L87.1226 164.412C86.6389 164.101 86.1869 163.735 85.7741 163.322C85.2315 162.742 84.8551 162.006 84.3282 161.409C83.4313 160.396 82.114 159.775 81.4805 158.547C81.0822 157.777 81.0132 156.859 80.7686 156.029C80.6086 155.479 80.3734 154.959 80.2197 154.406C79.743 152.698 80.088 150.825 80.8125 149.222C81.537 147.619 82.6911 146.363 83.7637 145Z" fill="#6C63FF"/>
<path d="M76.1575 122.164C75.4266 121.029 74.4835 120.047 73.3801 119.27C71.9037 118.169 70.2067 117.253 68.367 117.15C67.5978 117.11 66.8291 117.235 66.1119 117.517C66.0762 115.286 65.5246 113.798 64.1294 114.022C61.5337 114.441 58.6459 115.441 57.64 117.877C56.8905 119.718 57.4713 121.79 57.6627 123.768C57.7353 124.29 57.7167 124.821 57.6076 125.336C57.3934 126.171 56.8029 126.846 56.2318 127.493C55.4385 128.313 54.7724 129.248 54.2558 130.266C53.7885 131.305 53.6393 132.539 54.1228 133.578C54.2872 133.845 54.3975 134.142 54.4472 134.452C54.4797 135.127 53.7723 135.556 53.2532 135.988C51.3064 137.612 51.3875 140.534 51.3712 143.077C51.3413 148.262 50.1913 153.379 48 158.077C48.8212 158.493 49.7488 158.652 50.6616 158.533C51.5744 158.413 52.4301 158.021 53.1169 157.408C52.8471 158.563 52.4578 159.686 51.9553 160.759C53.6036 161.558 55.5926 160.246 56.42 158.61C57.2474 156.973 57.3447 155.07 57.932 153.333C58.5193 151.595 59.5544 150.085 60.0119 148.335C60.1579 147.757 60.2487 147.14 60.6024 146.659C60.9004 146.311 61.2507 146.012 61.6407 145.772C63.3409 144.551 60.836 135.299 61.5012 133.312C62.4746 133.53 64.3079 128.766 65.3429 123.894C66.0648 124.144 66.8348 124.22 67.5915 124.119C67.8546 124.061 68.1245 124.043 68.3929 124.063C68.6422 124.115 68.8798 124.211 69.0938 124.349C69.8597 124.82 70.6602 125.231 71.4884 125.58C73.2016 126.229 75.0835 126.135 76.9103 126.044C77.1578 124.702 76.8889 123.316 76.1575 122.164Z" fill="#303D5C"/>
<g opacity="0.1">
<path opacity="0.1" d="M48.9492 158.529C51.1721 153.787 52.3409 148.62 52.375 143.383C52.3914 140.823 52.3061 137.849 54.2782 136.218C54.8033 135.781 55.5186 135.348 55.4858 134.665C55.4342 134.353 55.3228 134.053 55.1577 133.783C54.6687 132.739 54.8295 131.485 55.2889 130.435C55.8115 129.405 56.4863 128.46 57.2906 127.632C57.8648 126.976 58.4653 126.296 58.6786 125.453C58.7886 124.932 58.8086 124.396 58.7377 123.868C58.5408 121.869 57.9567 119.775 58.7147 117.914C59.6991 115.531 62.4522 114.511 65.0117 114.064C64.7892 113.993 64.5527 113.977 64.3226 114.018C61.6975 114.442 58.7771 115.452 57.7598 117.914C57.0018 119.775 57.5892 121.869 57.7828 123.868C57.8562 124.395 57.8373 124.932 57.727 125.453C57.5104 126.296 56.9132 126.979 56.3357 127.632C55.5334 128.461 54.8598 129.406 54.3373 130.435C53.8648 131.485 53.7138 132.732 54.2028 133.783C54.3691 134.052 54.4806 134.352 54.5309 134.665C54.5637 135.348 53.8484 135.781 53.3233 136.218C51.3545 137.859 51.4365 140.813 51.4201 143.383C51.388 148.618 50.225 153.785 48.0107 158.529C48.7915 158.933 49.6734 159.098 50.5473 159.005C49.9888 158.951 49.4461 158.79 48.9492 158.529Z" fill="black"/>
<path opacity="0.1" d="M52.9495 161.227C53.4543 160.141 53.8447 159.006 54.1144 157.84C53.7775 158.148 53.3944 158.402 52.979 158.591C52.723 159.492 52.3938 160.37 51.9946 161.217C52.4746 161.445 53.015 161.514 53.5369 161.414C53.334 161.377 53.1367 161.314 52.9495 161.227Z" fill="black"/>
<path opacity="0.1" d="M67.2663 117.537C67.7544 117.347 68.2671 117.228 68.7889 117.183H68.6084C68.1564 117.16 67.7032 117.194 67.2598 117.285C67.263 117.357 67.2663 117.445 67.2663 117.537Z" fill="black"/>
<path opacity="0.1" d="M72.7036 125.675C71.8671 125.323 71.0586 124.907 70.2852 124.432C70.0676 124.292 69.8262 124.194 69.5731 124.143C69.325 124.12 69.075 124.136 68.8315 124.189C69.0094 124.254 69.1807 124.335 69.3434 124.432C70.118 124.907 70.9276 125.323 71.7651 125.675C73.0694 126.106 74.4436 126.284 75.8144 126.201C74.7554 126.2 73.704 126.023 72.7036 125.675Z" fill="black"/>
<path opacity="0.1" d="M66.4883 123.973C66.4883 124.045 66.4588 124.117 66.4424 124.189C66.8356 124.248 67.2344 124.259 67.6303 124.222C67.2415 124.182 66.8585 124.098 66.4883 123.973Z" fill="black"/>
</g>
<path d="M49.6426 161.282C49.6882 161.713 49.6415 162.149 49.5057 162.56C49.3699 162.971 49.1483 163.347 48.8562 163.661C48.5241 163.989 48.1505 164.269 47.7454 164.495C47.3546 164.768 46.9051 164.942 46.4348 165C45.8009 164.979 45.1986 164.712 44.7506 164.254C43.3613 163.009 42.6666 161.165 42.0244 159.394C41.1757 157.052 40.3303 154.686 39.9666 152.213C39.5767 149.562 39.7438 146.818 39 144.244C39.6553 142.906 40.0813 141.413 40.8317 140.114C41.3078 139.341 41.7294 138.533 42.0932 137.698C42.79 135.92 42.8686 133.952 42.316 132.123C42.4474 132.035 42.6026 131.993 42.7593 132.001C42.9159 132.009 43.0659 132.068 43.1876 132.17C43.4258 132.379 43.6065 132.647 43.7119 132.949C44.1445 133.982 44.3245 135.106 44.2361 136.226C44.18 136.495 44.2111 136.776 44.3246 137.026C44.4261 137.154 44.5569 137.254 44.7055 137.318C44.8541 137.383 45.0159 137.408 45.1765 137.394C45.8446 137.36 46.5055 137.237 47.1425 137.029C49.122 136.513 51.1721 136.34 53.2077 136.517C53.6178 136.529 54.0208 136.63 54.3905 136.811C54.5733 136.904 54.7271 137.048 54.8348 137.225C54.9424 137.402 54.9996 137.607 55 137.815L50.1505 138.542C49.7855 138.562 49.433 138.685 49.1315 138.896C48.9864 139.008 48.8905 139.174 48.8648 139.358C48.839 139.541 48.8854 139.728 48.9939 139.877C49.0963 139.962 49.206 140.039 49.3215 140.104C49.4459 140.201 49.546 140.326 49.6137 140.469C49.6814 140.613 49.7147 140.77 49.7109 140.93C49.707 141.089 49.6662 141.245 49.5916 141.385C49.5171 141.525 49.411 141.644 49.2822 141.734C49.1602 141.792 49.0492 141.871 48.9545 141.968C48.7579 142.24 49.0201 142.598 49.1053 142.926C49.142 143.168 49.1059 143.415 49.0018 143.636C48.8976 143.856 48.7303 144.039 48.522 144.161C48.1014 144.396 47.6432 144.554 47.1687 144.626C46.2165 144.85 45.2889 145.172 44.4 145.586C44.1106 145.692 43.8592 145.884 43.6791 146.138C43.4399 146.553 43.5972 147.075 43.761 147.527L45.0258 151.001C45.2224 151.547 45.4223 152.092 45.6811 152.617C46.0088 153.287 46.3987 153.936 46.7297 154.625C47.0606 155.315 47.2769 155.914 47.5194 156.57C48.1518 158.34 49.4264 159.411 49.6426 161.282Z" fill="#EE8E9E"/>
<path d="M109 139H94V154H109V139Z" fill="url(#paint12_linear)"/>
<path d="M109 139H94V153H109V139Z" fill="#7CFCFF"/>
<path d="M105.703 137.947C105.37 138.174 105.128 138.497 105.018 138.864C104.993 138.939 104.994 139.021 105.023 139.095C105.051 139.17 105.105 139.235 105.176 139.279C105.266 139.306 105.362 139.306 105.452 139.279C105.901 139.207 106.32 139.026 106.668 138.756C106.53 138.823 106.407 138.914 106.307 139.023C106.258 139.079 106.227 139.146 106.218 139.217C106.209 139.288 106.223 139.36 106.258 139.424C106.308 139.48 106.37 139.525 106.44 139.557C106.509 139.59 106.586 139.609 106.664 139.614C107.242 139.71 107.837 139.684 108.403 139.539C108.139 139.629 107.895 139.761 107.681 139.929C107.575 140.015 107.491 140.121 107.434 140.239C107.377 140.358 107.349 140.487 107.353 140.616C107.353 140.665 107.365 140.713 107.387 140.757C107.41 140.801 107.442 140.84 107.482 140.872C107.541 140.906 107.608 140.928 107.677 140.935C108.213 141.022 108.762 141.022 109.298 140.935C109.437 140.93 109.571 140.894 109.69 140.829C109.809 140.764 109.908 140.673 109.979 140.564C110.007 140.441 110.007 140.314 109.98 140.191C109.953 140.068 109.899 139.951 109.821 139.847C109.534 139.281 109.395 138.66 109.416 138.036C109.433 137.91 109.414 137.781 109.359 137.665C109.27 137.551 109.143 137.467 108.998 137.423C108.427 137.193 107.649 136.874 107.012 137.052C106.516 137.268 106.071 137.572 105.703 137.947Z" fill="#EE8E9E"/>
</g>
<defs>
<linearGradient id="paint0_linear" x1="148.502" y1="133" x2="148.502" y2="118" gradientUnits="userSpaceOnUse">
<stop stop-color="#808080" stop-opacity="0.25"/>
<stop offset="0.54" stop-color="#808080" stop-opacity="0.12"/>
<stop offset="1" stop-color="#808080" stop-opacity="0.1"/>
</linearGradient>
<linearGradient id="paint1_linear" x1="7925.5" y1="4927" x2="7925.5" y2="4257.1" gradientUnits="userSpaceOnUse">
<stop stop-color="#808080" stop-opacity="0.25"/>
<stop offset="0.54" stop-color="#808080" stop-opacity="0.12"/>
<stop offset="1" stop-color="#808080" stop-opacity="0.1"/>
</linearGradient>
<linearGradient id="paint2_linear" x1="10730.5" y1="7257" x2="10730.5" y2="6587.1" gradientUnits="userSpaceOnUse">
<stop stop-color="#808080" stop-opacity="0.25"/>
<stop offset="0.54" stop-color="#808080" stop-opacity="0.12"/>
<stop offset="1" stop-color="#808080" stop-opacity="0.1"/>
</linearGradient>
<linearGradient id="paint3_linear" x1="4503.45" y1="3855.35" x2="4503.45" y2="3185.45" gradientUnits="userSpaceOnUse">
<stop stop-color="#808080" stop-opacity="0.25"/>
<stop offset="0.54" stop-color="#808080" stop-opacity="0.12"/>
<stop offset="1" stop-color="#808080" stop-opacity="0.1"/>
</linearGradient>
<linearGradient id="paint4_linear" x1="5908.35" y1="4836.35" x2="5908.35" y2="4166.45" gradientUnits="userSpaceOnUse">
<stop stop-color="#808080" stop-opacity="0.25"/>
<stop offset="0.54" stop-color="#808080" stop-opacity="0.12"/>
<stop offset="1" stop-color="#808080" stop-opacity="0.1"/>
</linearGradient>
<linearGradient id="paint5_linear" x1="11557.9" y1="7252.2" x2="11557.9" y2="6582.3" gradientUnits="userSpaceOnUse">
<stop stop-color="#808080" stop-opacity="0.25"/>
<stop offset="0.54" stop-color="#808080" stop-opacity="0.12"/>
<stop offset="1" stop-color="#808080" stop-opacity="0.1"/>
</linearGradient>
<linearGradient id="paint6_linear" x1="13633.8" y1="3864.2" x2="13633.8" y2="3194.3" gradientUnits="userSpaceOnUse">
<stop stop-color="#808080" stop-opacity="0.25"/>
<stop offset="0.54" stop-color="#808080" stop-opacity="0.12"/>
<stop offset="1" stop-color="#808080" stop-opacity="0.1"/>
</linearGradient>
<linearGradient id="paint7_linear" x1="12722.9" y1="6041.2" x2="12722.9" y2="5371.3" gradientUnits="userSpaceOnUse">
<stop stop-color="#808080" stop-opacity="0.25"/>
<stop offset="0.54" stop-color="#808080" stop-opacity="0.12"/>
<stop offset="1" stop-color="#808080" stop-opacity="0.1"/>
</linearGradient>
<linearGradient id="paint8_linear" x1="13258.9" y1="6194.2" x2="13258.9" y2="5524.3" gradientUnits="userSpaceOnUse">
<stop stop-color="#808080" stop-opacity="0.25"/>
<stop offset="0.54" stop-color="#808080" stop-opacity="0.12"/>
<stop offset="1" stop-color="#808080" stop-opacity="0.1"/>
</linearGradient>
<linearGradient id="paint9_linear" x1="10997.4" y1="6556.46" x2="10997.4" y2="5931.22" gradientUnits="userSpaceOnUse">
<stop stop-color="#808080" stop-opacity="0.25"/>
<stop offset="0.54" stop-color="#808080" stop-opacity="0.12"/>
<stop offset="1" stop-color="#808080" stop-opacity="0.1"/>
</linearGradient>
<linearGradient id="paint10_linear" x1="11074.4" y1="4943.35" x2="11074.4" y2="4273.45" gradientUnits="userSpaceOnUse">
<stop stop-color="#808080" stop-opacity="0.25"/>
<stop offset="0.54" stop-color="#808080" stop-opacity="0.12"/>
<stop offset="1" stop-color="#808080" stop-opacity="0.1"/>
</linearGradient>
<linearGradient id="paint11_linear" x1="8965.44" y1="84833" x2="25219.6" y2="84833" gradientUnits="userSpaceOnUse">
<stop stop-color="#808080" stop-opacity="0.25"/>
<stop offset="0.54" stop-color="#808080" stop-opacity="0.12"/>
<stop offset="1" stop-color="#808080" stop-opacity="0.1"/>
</linearGradient>
<linearGradient id="paint12_linear" x1="4261.9" y1="6041.2" x2="4261.9" y2="5371.3" gradientUnits="userSpaceOnUse">
<stop stop-color="#808080" stop-opacity="0.25"/>
<stop offset="0.54" stop-color="#808080" stop-opacity="0.12"/>
<stop offset="1" stop-color="#808080" stop-opacity="0.1"/>
</linearGradient>
<clipPath id="clip0">
<rect width="428" height="290" fill="white"/>
</clipPath>
</defs>
</svg>
