<svg width="1366" height="755" viewBox="0 0 1366 755" fill="none" xmlns="http://www.w3.org/2000/svg">
<mask id="mask0" mask-type="alpha" maskUnits="userSpaceOnUse" x="-1" y="-1" width="1368" height="756">
<path d="M0 754V2V0.5L1366 0V639H1144.92C1138.25 639.167 1119.61 639.5 1098.4 639.5C1071.89 639.5 1026.88 644.5 986.361 651C953.949 656.2 910.5 669.5 892.827 675.5C881.156 679.667 853.813 690.2 837.807 699C821.801 707.8 797.459 718 787.288 722C717.263 748.4 641.735 754.333 612.724 754H0Z" fill="#C4C4C4" stroke="black"/>
</mask>
<g mask="url(#mask0)">
<path d="M482.285 747.014C482.285 747.014 679.85 768.983 808.388 712.344C892.806 675.162 957.481 636.176 1166.05 638.37C1603.81 643.004 1583.96 604.868 1583.96 604.868V528.594H482.285V747.014Z" fill="#E5EAFB"/>
<path d="M482.285 732.328C482.285 732.328 679.85 754.262 808.388 697.658C892.806 660.441 957.481 621.491 1166.05 623.684C1603.81 628.319 1583.96 590.182 1583.96 590.182V514.05H482.285V732.328Z" fill="url(#paint0_linear)"/>
<path d="M482.285 732.328C482.285 732.328 679.85 754.262 808.388 697.658C892.806 660.441 957.481 621.491 1166.05 623.684C1603.81 628.319 1583.96 590.182 1583.96 590.182V514.05H482.285V732.328Z" fill="#8C9AD6"/>
<path d="M482.285 712.942C482.285 712.942 679.85 734.911 808.388 678.272C892.806 641.091 957.481 602.105 1166.05 604.298C1603.81 608.933 1583.96 570.654 1583.96 570.654V470.891H482.285V712.942Z" fill="#BAC4EE"/>
<path opacity="0.62" d="M482.285 729.851C482.285 729.851 679.85 751.785 808.388 695.182C892.806 657.965 957.481 619.014 1166.05 621.208C1603.81 625.842 1583.96 587.706 1583.96 587.706V487.906H482.285V729.851Z" fill="url(#paint1_linear)"/>
<path d="M1410.57 474.148H651.087L482.676 570.658V572.922L506.204 559.408H678.578L632.583 599.172H482.711V601.117H630.319L584.324 640.846H482.676V642.792H581.989L535.994 682.591H482.923V684.537H533.871L500.012 713.759L502.772 713.971L536.879 684.537H783.233L781.111 688.075L783.658 687.403L785.25 684.643H791.3L796.466 682.697H786.347L809.167 642.933H888.561L893.727 640.988H810.3L833.191 601.259H1031.32V609.325L1033.27 609.113V601.259H1231.4L1232.96 603.912H1235.26L1233.66 601.259H1392.06C1406.8 600.693 1420.47 600.044 1433.07 599.313H1431.94L1384.92 559.691H1557.22L1582.76 574.195C1583.24 573.737 1583.64 573.213 1583.97 572.639L1410.81 474.255L1410.57 474.148ZM1030.72 557.639H858.169L880.955 517.91H1030.3L1030.72 557.639ZM855.905 557.639H683.85L729.844 517.91H878.69L855.905 557.639ZM1029.87 476.271L1030.3 516.035H882.087L904.907 476.306L1029.87 476.271ZM902.501 476.271L879.681 516H732.179L778.174 476.271H902.501ZM651.476 476.271H775.202L729.207 516H582.343L651.476 476.271ZM509.494 557.639L578.769 517.91H727.049L681.054 557.639H509.494ZM783.976 682.874H538.754L584.749 643.11H806.691L783.976 682.874ZM807.894 641.164H587.084L633.078 601.436H830.679L807.894 641.164ZM831.811 599.419H635.52L681.514 559.655H854.702L831.811 599.419ZM834.075 599.419L856.896 559.655H1030.61L1031.04 599.419H834.075ZM1283.41 476.236L1330.29 516.035H1182.72L1159.05 476.236H1283.41ZM1332.59 518.016L1379.5 557.816H1207.55L1183.88 518.016H1332.59ZM1031.85 476.236H1156.82L1180.49 516.035H1032.24L1031.85 476.236ZM1032.31 517.946H1181.62L1205.29 557.745H1032.7L1032.31 517.946ZM1033.16 599.313L1032.74 559.549H1206.46L1230.13 599.349L1033.16 599.313ZM1428.82 599.313H1232.39L1208.76 559.514H1381.91L1428.82 599.313ZM1553.82 557.603H1382.62L1335.59 517.91H1483.56L1553.82 557.603ZM1333.44 515.752L1286.52 475.953H1410.11L1480.23 515.787L1333.44 515.752Z" fill="#BAC4EE"/>
<path d="M987.238 552.191L998.241 496.012H777.183L669.945 599.561L482.676 597.615V714.36C482.676 714.36 680.241 736.294 808.778 679.69C893.196 642.509 957.872 603.523 1166.44 605.717C1604.2 610.351 1584.36 572.214 1584.36 572.214V552.12L987.238 552.191Z" fill="url(#paint2_linear)" fill-opacity="0.6"/>
<path d="M776.043 472.414L1146.65 472.414V17.3917L776.043 17.3917V472.414Z" fill="#D1D8F6"/>
<path d="M986.85 209.524H929.569C925.944 209.524 922.467 208.087 919.9 205.527C917.333 202.967 915.886 199.494 915.877 195.869V138.557C915.886 134.933 917.333 131.459 919.9 128.899C922.467 126.339 925.944 124.902 929.569 124.902H986.85C990.476 124.902 993.953 126.339 996.52 128.899C999.087 131.459 1000.53 134.933 1000.54 138.557V195.869C1000.53 199.494 999.087 202.967 996.52 205.527C993.953 208.087 990.476 209.524 986.85 209.524ZM929.569 136.223C929.261 136.218 928.955 136.275 928.67 136.391C928.385 136.506 928.125 136.678 927.907 136.896C927.69 137.114 927.518 137.373 927.402 137.658C927.286 137.944 927.229 138.25 927.234 138.557V195.869C927.234 196.488 927.48 197.082 927.918 197.52C928.356 197.958 928.95 198.204 929.569 198.204H986.85C987.473 198.204 988.071 197.959 988.514 197.522C988.958 197.085 989.212 196.491 989.221 195.869V138.557C989.221 138.248 989.159 137.941 989.04 137.656C988.92 137.37 988.745 137.111 988.524 136.894C988.304 136.677 988.042 136.505 987.755 136.39C987.467 136.275 987.16 136.218 986.85 136.223H929.569Z" fill="#8C9AD6"/>
<path d="M982.314 140.969H952.453C952.131 140.969 951.821 141.094 951.59 141.319C951.359 141.543 951.224 141.849 951.215 142.172V149.672H973.505C973.827 149.671 974.137 149.797 974.368 150.022C974.599 150.246 974.734 150.552 974.743 150.874V173.162H982.314C982.637 173.162 982.946 173.037 983.178 172.812C983.409 172.587 983.543 172.282 983.553 171.959V142.065C983.518 141.762 983.372 141.482 983.144 141.28C982.915 141.078 982.62 140.967 982.314 140.969Z" fill="#F9FBFC"/>
<path d="M1435.61 17.3945H1145.24V476.238H1435.61V17.3945Z" fill="#E5EAFB"/>
<path d="M1150.76 17.3945H1145.24V476.238H1150.76V17.3945Z" fill="#D1D8F6"/>
<path d="M630.677 476.234H779.027V17.3913H630.677V476.234Z" fill="#E5EAFB"/>
<path d="M779.017 17.395H773.498V476.238H779.017V17.395Z" fill="#D1D8F6"/>
<path d="M1583.96 -219.316L1363.61 -19.1872H702.671L482.285 -219.316V-62.1352L630.636 17.3929H1438.55L1583.96 -62.1352V-219.316Z" fill="#BAC4EE"/>
<path d="M630.636 17.3914L482.285 -62.1367V565.031L630.636 476.234V17.3914Z" fill="#D1D8F6"/>
<path d="M630.636 17.3914L482.285 -62.1367V565.031L630.636 476.234V17.3914Z" fill="url(#paint3_linear)"/>
<path d="M1166.79 382.168C1166.79 382.168 1170.33 313.855 1182.96 304.338C1195.59 294.822 1228.67 298.112 1235.28 304.727C1241.9 311.343 1258.6 393.17 1258.6 393.17C1258.6 393.17 1164.59 410.788 1166.79 382.168Z" fill="#BAC4EE"/>
<path d="M1185.73 310.034C1197.9 300.695 1230.3 303.949 1236.74 310.388C1238.4 313.72 1239.83 317.159 1241.02 320.683C1239.92 315.789 1238.03 311.106 1235.43 306.815C1229 300.376 1196.52 297.157 1184.38 306.461C1172.25 315.765 1168.64 382.381 1168.64 382.381C1168.49 383.862 1168.67 385.358 1169.17 386.759C1169.67 388.161 1170.48 389.433 1171.54 390.482C1171.86 384.822 1174.12 318.879 1185.73 310.034Z" fill="#D1D8F6"/>
<path d="M1537.69 401.234H1007.87V536.376H1537.69V401.234Z" fill="#A3B0E3"/>
<path d="M1538.74 401.234H1008.92V536.376H1538.74V401.234Z" fill="url(#paint4_linear)"/>
<path opacity="0.13" d="M1537.69 401.234H1007.87V414.713H1537.69V401.234Z" fill="#5D71AF"/>
<path d="M1537.69 389.523H989.041V401.269H1537.69V389.523Z" fill="url(#paint5_linear)"/>
<path d="M1537.69 389.523H989.041V392.176H1537.69V389.523Z" fill="url(#paint6_linear)"/>
<path d="M1383.46 370.529L1342.13 359.031V370.6L1383.46 370.529Z" fill="#1D262D"/>
<path d="M1433.59 359.031H1342.13L1383.46 370.529H995.653L989.072 389.491H1537.68L1433.59 359.031Z" fill="url(#paint7_linear)"/>
<path d="M1342.71 307.238L1334.32 367.769L1273.86 367.274V371.696L1333.33 374.986L1408.8 373.358L1417.61 310.387L1342.71 307.238Z" fill="#8C9AD6"/>
<path d="M1346.38 309.465L1337.18 372.613L1406.95 371.517L1416.15 311.658L1346.38 309.465Z" fill="#8C9AD6"/>
<path d="M1330.99 370.916L1327.27 370.668V369.395L1330.99 369.643V370.916Z" fill="white"/>
<path d="M649.212 399.261H768.409C768.409 399.261 774.07 398.836 774.07 409.52V478.223C772.25 481.787 769.336 484.676 765.756 486.466C760.838 488.093 644.082 486.466 644.082 486.466V407.928C644.082 403.93 645.603 402.975 648.328 400.251L649.212 399.261Z" fill="#BAC4EE"/>
<path d="M757.335 405.973L644.472 404.594C644.205 405.754 644.075 406.941 644.082 408.131V486.457C644.082 486.457 744.492 487.872 762.996 486.74V414.747C762.996 404.028 757.335 405.973 757.335 405.973Z" fill="#BAC4EE"/>
<path d="M757.327 405.973L644.463 404.594C644.251 405.514 644.145 405.018 644.109 405.973L755.806 407.353C755.806 407.353 761.467 406.929 761.467 417.613V486.846H762.988V414.747C762.988 404.028 757.327 405.973 757.327 405.973Z" fill="#E5EAFB"/>
<path d="M649.205 476.445L753.86 458.084C753.86 458.084 760.936 456.705 760.936 463.32V487.66L665.126 571.539L549.467 569.629V532.058L649.205 476.445Z" fill="url(#paint8_linear)"/>
<path d="M649.217 436.862H753.943C753.943 436.862 761.019 436.154 761.019 442.735V458.548L665.067 533.442H549.373V483.135L649.217 436.862Z" fill="url(#paint9_linear)"/>
<path d="M757.229 440.574L657.88 508.852L551.739 511.966V485.433L549.51 486.459V536.765H665.204L761.05 461.836V446.058C761.159 444.84 760.836 443.624 760.137 442.621C759.438 441.618 758.409 440.894 757.229 440.574Z" fill="#BAC4EE"/>
<path d="M757.229 437.284L657.88 505.527L551.739 508.675V482.213L549.51 483.239V533.546H665.204L761.05 458.652V442.838C761.177 441.61 760.862 440.376 760.161 439.358C759.461 438.341 758.422 437.605 757.229 437.284Z" fill="#BAC4EE"/>
<path d="M760.695 441.11C759.634 436.298 753.937 436.864 753.937 436.864H747.074L656.287 499.305L666.194 505.178L760.695 441.11Z" fill="url(#paint10_linear)"/>
<path d="M670.428 426.637C670.428 420.764 647.749 374.102 643.327 367.486C642.375 365.714 640.791 364.366 638.889 363.71C636.987 363.055 634.908 363.14 633.067 363.949L503.078 400.529L485.105 414.467C483.763 415.503 482.824 416.973 482.45 418.626C482.075 420.279 482.289 422.011 483.053 423.524L521.972 500.257C522.586 501.472 523.656 502.396 524.948 502.827C526.24 503.257 527.65 503.16 528.871 502.557L657.019 439.762C659.72 438.816 662.356 437.693 664.909 436.401C670.711 431.236 670.428 431.837 670.428 426.637Z" fill="#BAC4EE"/>
<path d="M482.921 423.519L521.839 500.252C522.454 501.467 523.523 502.391 524.815 502.821C526.108 503.252 527.517 503.155 528.738 502.551L553.505 490.452L503.087 400.523L485.114 414.462C483.748 415.478 482.781 416.94 482.381 418.594C481.98 420.248 482.171 421.991 482.921 423.519Z" fill="#BAC4EE"/>
<path d="M551.66 491.408L553.571 490.452L503.083 400.523L501.385 401.832L551.66 491.408Z" fill="#E5EAFB"/>
<path d="M495.367 455.429H668.909C668.909 455.429 677.152 454.863 677.152 469.191V561.172C677.152 561.172 672.199 569.98 665.052 572.174C657.905 574.367 487.689 572.174 487.689 572.174V467.139C487.689 461.761 489.918 460.488 493.846 456.844L495.367 455.429Z" fill="#BAC4EE"/>
<path d="M668.917 455.429H495.553L494.031 456.844H666.335C666.335 456.844 674.614 456.313 674.614 470.606V564.851C675.554 563.678 676.405 562.436 677.161 561.136V469.155C677.161 454.863 668.917 455.429 668.917 455.429Z" fill="#E5EAFB"/>
<path d="M652.74 464.523L488.256 462.684C487.872 464.174 487.682 465.708 487.69 467.247V572.282C487.69 572.282 634.024 574.193 661.054 572.707V476.162C661.019 461.835 652.74 464.523 652.74 464.523Z" fill="#BAC4EE"/>
<path d="M1309.8 -74.1641H1306.51V53.4064H1309.8V-74.1641Z" fill="#A5B7C6"/>
<path d="M1240.24 -53.7571H1236.98V104.875H1240.24V-53.7571Z" fill="#A5B7C6"/>
<path d="M1317.12 -91.3594H1313.87V148.251H1317.12V-91.3594Z" fill="#A5B7C6"/>
<path d="M1257.43 159.715H1220.21C1217.86 159.715 1215.6 158.779 1213.93 157.114C1212.27 155.449 1211.33 153.19 1211.33 150.835V113.583C1211.33 111.228 1212.27 108.969 1213.93 107.304C1215.6 105.639 1217.86 104.703 1220.21 104.703H1257.43C1259.79 104.712 1262.04 105.651 1263.7 107.314C1265.37 108.977 1266.31 111.231 1266.32 113.583V150.835C1266.31 153.187 1265.37 155.44 1263.7 157.104C1262.04 158.767 1259.79 159.705 1257.43 159.715ZM1220.21 112.062C1219.81 112.062 1219.42 112.222 1219.14 112.507C1218.85 112.792 1218.69 113.179 1218.69 113.583V150.835C1218.69 151.239 1218.85 151.625 1219.14 151.911C1219.42 152.196 1219.81 152.356 1220.21 152.356H1257.43C1257.84 152.356 1258.23 152.196 1258.51 151.911C1258.8 151.625 1258.96 151.239 1258.96 150.835V113.583C1258.96 113.383 1258.92 113.185 1258.84 113.001C1258.76 112.816 1258.65 112.648 1258.51 112.507C1258.37 112.366 1258.2 112.254 1258.02 112.177C1257.83 112.101 1257.63 112.062 1257.43 112.062H1220.21Z" fill="#8C9AD6"/>
<path d="M1327.35 107.387H1290.09C1287.74 107.387 1285.48 106.452 1283.81 104.786C1282.15 103.121 1281.21 100.862 1281.21 98.5074V61.2198C1281.22 58.8676 1282.16 56.6144 1283.82 54.9512C1285.49 53.2879 1287.74 52.3494 1290.09 52.3401H1327.35C1329.7 52.3494 1331.95 53.2879 1333.62 54.9512C1335.28 56.6144 1336.22 58.8676 1336.23 61.2198V98.5074C1336.23 100.862 1335.29 103.121 1333.63 104.786C1331.96 106.452 1329.7 107.387 1327.35 107.387ZM1290.09 59.7693C1289.89 59.7693 1289.69 59.8087 1289.51 59.8851C1289.32 59.9616 1289.16 60.0736 1289.02 60.2149C1288.87 60.3561 1288.76 60.5238 1288.69 60.7084C1288.61 60.893 1288.57 61.0908 1288.57 61.2905V98.5074C1288.57 98.9109 1288.73 99.2978 1289.02 99.5831C1289.3 99.8684 1289.69 100.029 1290.09 100.029H1327.35C1327.75 100.029 1328.14 99.8684 1328.42 99.5831C1328.71 99.2978 1328.87 98.9109 1328.87 98.5074V61.2198C1328.87 60.8163 1328.71 60.4294 1328.42 60.1441C1328.14 59.8588 1327.75 59.6986 1327.35 59.6986L1290.09 59.7693Z" fill="#8C9AD6"/>
<path d="M1328.87 203.687H1291.65C1289.29 203.687 1287.04 202.752 1285.37 201.086C1283.71 199.421 1282.77 197.163 1282.77 194.808V157.591C1282.78 155.238 1283.72 152.985 1285.38 151.322C1287.04 149.659 1289.3 148.72 1291.65 148.711H1328.87C1330.04 148.711 1331.19 148.941 1332.27 149.387C1333.35 149.833 1334.33 150.487 1335.15 151.312C1335.97 152.136 1336.63 153.115 1337.07 154.193C1337.52 155.27 1337.75 156.425 1337.75 157.591V194.808C1337.75 197.163 1336.82 199.421 1335.15 201.086C1333.48 202.752 1331.23 203.687 1328.87 203.687ZM1291.65 156.069C1291.45 156.069 1291.25 156.109 1291.07 156.185C1290.88 156.262 1290.72 156.374 1290.57 156.515C1290.43 156.656 1290.32 156.824 1290.24 157.008C1290.17 157.193 1290.13 157.391 1290.13 157.591V194.808C1290.13 195.211 1290.29 195.598 1290.57 195.883C1290.86 196.168 1291.25 196.329 1291.65 196.329H1328.87C1329.07 196.329 1329.27 196.289 1329.45 196.213C1329.64 196.136 1329.8 196.024 1329.95 195.883C1330.09 195.742 1330.2 195.574 1330.28 195.39C1330.35 195.205 1330.39 195.007 1330.39 194.808V157.591C1330.39 157.391 1330.35 157.193 1330.28 157.008C1330.2 156.824 1330.09 156.656 1329.95 156.515C1329.8 156.374 1329.64 156.262 1329.45 156.185C1329.27 156.109 1329.07 156.069 1328.87 156.069H1291.65Z" fill="#8C9AD6"/>
<path d="M828.338 403.426H790.445V482.954H828.338V403.426Z" fill="#BAC4EE"/>
<path d="M836.334 396.215H798.477L790.445 403.432H828.338L836.334 396.215Z" fill="#F9FBFC"/>
<path d="M827.322 402.404L832.629 397.628H799.372L794.064 402.404H827.322Z" fill="#E5EAFB"/>
<path d="M799.372 402.404V397.628L794.064 402.404H799.372Z" fill="#D1D8F6"/>
<path d="M828.338 482.959L836.334 475.742V396.214L828.338 403.431V482.959Z" fill="#A3B0E3"/>
<path d="M814.112 402.398C813.793 393.554 810.928 299.486 831.59 280.205L830.705 279.285C821.436 287.917 815.633 311.408 813.44 349.084C811.954 374.45 812.697 398.011 812.838 402.398H814.112Z" fill="#94D062"/>
<path d="M826.118 327.689C816.989 335.259 816.53 394.905 816.494 402.405H817.768C817.768 395.33 818.369 335.79 826.931 328.679C827.17 328.444 827.462 328.27 827.782 328.171C828.102 328.073 828.442 328.053 828.771 328.113L828.983 326.839C828.473 326.763 827.952 326.8 827.456 326.947C826.961 327.093 826.504 327.347 826.118 327.689Z" fill="#94D062"/>
<path d="M810.893 402.406C810.893 395.861 809.69 350.437 791.61 333.42C789.378 331.21 786.697 329.504 783.749 328.418C780.801 327.331 777.655 326.89 774.521 327.123V329.316C777.352 329.12 780.193 329.53 782.853 330.518C785.513 331.506 787.932 333.05 789.947 335.048C807.142 351.18 808.451 396.109 808.558 402.264L810.893 402.406Z" fill="#94D062"/>
<path d="M824.202 331.609C824.202 331.609 824.202 324.888 826.573 324.039C828.943 323.19 826.573 321.845 826.573 321.845L829.615 320.183C829.615 320.183 826.077 315.23 828.519 316.326C830.96 317.423 836.09 315.371 836.656 317.317C837.222 319.263 841.609 326.268 840.194 328.885C838.779 331.503 830.677 339.499 828.908 337.836C827.493 336.262 826.302 334.5 825.37 332.6C825.37 332.6 824.061 334.793 824.202 331.609Z" fill="#49AD31"/>
<path d="M827 328.673C827.385 325.729 828.851 323.033 831.114 321.111C833.377 319.188 836.274 318.176 839.242 318.272C850.245 318.272 851.129 334.793 853.394 338.826C855.658 342.859 861.39 347.458 856.437 347.458C851.483 347.458 855.517 349.934 852.899 352.128C850.28 354.321 853.783 347.281 846.105 345.052C837.862 342.505 826.363 339.604 827 328.673Z" fill="#CADFEA"/>
<path d="M853.819 344.563C852.025 342.031 850.718 339.188 849.963 336.179C849.29 332.181 844.196 315.518 834.82 319.799C825.444 324.08 833.582 335.896 841.896 339.752C845.809 341.289 849.407 343.531 852.51 346.367C852.51 346.367 852.51 344.032 848.654 341.414C844.797 338.797 848.052 338.089 853.819 344.563Z" fill="#F9FBFC"/>
<path d="M835.214 296.593C835.214 296.593 828.669 298.291 827.289 296.416C825.909 294.541 825.131 296.876 825.131 296.876L822.725 294.4C822.725 294.4 818.869 299.07 819.187 296.523C819.506 293.975 816.215 289.447 817.913 288.457C819.612 287.466 825.166 281.381 828.032 281.7C830.898 282.018 840.805 287.961 839.708 290.119C838.593 291.934 837.223 293.578 835.639 295.001C835.639 295.001 838.293 295.85 835.214 296.593Z" fill="#49AD31"/>
<path d="M831.597 294.712C828.664 295.143 825.675 294.47 823.21 292.823C820.746 291.175 818.981 288.671 818.258 285.797C815.251 275.183 830.924 269.841 834.109 266.41C837.293 262.978 840.23 256.363 841.609 261.139C842.989 265.915 844.228 261.351 847.093 263.367C849.959 265.384 842.175 263.863 842.069 271.858C841.928 280.561 842.282 292.341 831.597 294.712Z" fill="#CADFEA"/>
<path d="M839.553 264.57C837.591 267 835.19 269.04 832.476 270.584C828.938 272.318 814.185 281.764 820.836 289.617C827.488 297.471 836.687 286.398 838.173 277.554C838.608 273.407 839.807 269.377 841.711 265.667C841.711 265.667 839.411 266.162 838.173 270.726C836.934 275.29 834.918 271.893 839.553 264.57Z" fill="#F9FBFC"/>
<path d="M777.004 317.282C777.004 317.282 781.639 322.2 780.542 324.358C779.445 326.516 781.993 326.02 781.993 326.02L781.002 329.346C781.002 329.346 786.911 330.442 784.54 331.292C782.17 332.141 779.835 337.306 778.101 336.315C776.367 335.325 768.265 333.414 767.487 330.69C766.708 327.966 766.815 316.539 769.256 316.539C771.377 316.654 773.472 317.059 775.483 317.742C775.483 317.742 774.881 314.947 777.004 317.282Z" fill="#49AD31"/>
<path d="M777.074 321.351C778.872 323.714 779.723 326.662 779.461 329.62C779.2 332.577 777.844 335.331 775.659 337.341C767.84 345.054 755.598 333.804 750.892 332.742C746.187 331.681 739.146 332.176 742.684 328.709C746.222 325.242 741.587 326.304 742.012 322.801C742.437 319.299 744.807 326.87 751.883 323.12C759.667 319.087 769.892 313.108 777.074 321.351Z" fill="#F9FBFC"/>
<path opacity="0.1" d="M1090.45 302.918H1088.36V304.58H1090.69L1090.45 302.918ZM1090.45 302.918H1088.36V304.58H1090.69L1090.45 302.918Z" fill="#3A65F0"/>
<path opacity="0.17" d="M1346.39 309.464L1416.16 311.657L1406.96 371.516L1346.39 309.464Z" fill="#E5EAFB"/>
<path d="M0 0H1366.5V754H0V0Z" fill="url(#paint11_radial)"/>
<path opacity="0.5" d="M0 0H1366.5V754H0V0Z" fill="url(#paint12_radial)"/>
</g>
<defs>
<linearGradient id="paint0_linear" x1="482.285" y1="625.206" x2="1584.11" y2="625.206" gradientUnits="userSpaceOnUse">
<stop offset="0.08" stop-color="#217FCD"/>
<stop offset="1" stop-color="#006CC6"/>
</linearGradient>
<linearGradient id="paint1_linear" x1="295.122" y1="615.866" x2="1791.05" y2="585.117" gradientUnits="userSpaceOnUse">
<stop stop-color="#F9FBFC"/>
<stop offset="1" stop-color="#F9FBFC" stop-opacity="0"/>
</linearGradient>
<linearGradient id="paint2_linear" x1="145261" y1="19014.9" x2="147499" y2="71387.2" gradientUnits="userSpaceOnUse">
<stop stop-color="#F9FBFC"/>
<stop offset="1" stop-color="#F9FBFC" stop-opacity="0"/>
</linearGradient>
<linearGradient id="paint3_linear" x1="10481.1" y1="38251.6" x2="2260.26" y2="41971.1" gradientUnits="userSpaceOnUse">
<stop stop-color="#F9FBFC"/>
<stop offset="1" stop-color="#F9FBFC" stop-opacity="0"/>
</linearGradient>
<linearGradient id="paint4_linear" x1="747.631" y1="1002.97" x2="1181.67" y2="562.302" gradientUnits="userSpaceOnUse">
<stop stop-color="#8C9AD6"/>
<stop offset="1" stop-color="#8C9AD6" stop-opacity="0"/>
</linearGradient>
<linearGradient id="paint5_linear" x1="989.041" y1="395.361" x2="1537.69" y2="395.361" gradientUnits="userSpaceOnUse">
<stop offset="0.08" stop-color="#BAC4EE"/>
<stop offset="1" stop-color="#8C9AD6"/>
</linearGradient>
<linearGradient id="paint6_linear" x1="989.041" y1="390.832" x2="1537.69" y2="390.832" gradientUnits="userSpaceOnUse">
<stop stop-color="#E5EAFB" stop-opacity="0.9"/>
<stop offset="1" stop-color="#E5EAFB" stop-opacity="0.1"/>
</linearGradient>
<linearGradient id="paint7_linear" x1="85502.6" y1="5734.88" x2="170576" y2="5734.88" gradientUnits="userSpaceOnUse">
<stop offset="0.08" stop-color="#BAC4EE"/>
<stop offset="1" stop-color="#8C9AD6"/>
</linearGradient>
<linearGradient id="paint8_linear" x1="549.467" y1="514.759" x2="760.972" y2="514.759" gradientUnits="userSpaceOnUse">
<stop offset="0.08" stop-color="white"/>
<stop offset="1" stop-color="#E5EAFB"/>
</linearGradient>
<linearGradient id="paint9_linear" x1="6682.89" y1="20725.2" x2="19418.7" y2="18772.1" gradientUnits="userSpaceOnUse">
<stop offset="0.08" stop-color="white"/>
<stop offset="1" stop-color="#E5EAFB"/>
</linearGradient>
<linearGradient id="paint10_linear" x1="6919.72" y1="14365.4" x2="10001.8" y2="14365.4" gradientUnits="userSpaceOnUse">
<stop offset="0.08" stop-color="white"/>
<stop offset="1" stop-color="#E5EAFB"/>
</linearGradient>
<radialGradient id="paint11_radial" cx="0" cy="0" r="1" gradientUnits="userSpaceOnUse" gradientTransform="translate(1366.5 406) rotate(176.608) scale(801.197 1248.88)">
<stop stop-color="white" stop-opacity="0"/>
<stop offset="0.668693" stop-color="white" stop-opacity="0"/>
<stop offset="0.815292" stop-color="white" stop-opacity="0.49"/>
<stop offset="1" stop-color="white"/>
</radialGradient>
<radialGradient id="paint12_radial" cx="0" cy="0" r="1" gradientUnits="userSpaceOnUse" gradientTransform="translate(1366.5 406) rotate(175.359) scale(618.253 934.394)">
<stop stop-color="#E5E5F5" stop-opacity="0"/>
<stop offset="0.470452" stop-color="#E7EBFB" stop-opacity="0.11"/>
<stop offset="1" stop-color="#E7EDFB"/>
</radialGradient>
</defs>
</svg>
