<svg width="239" height="366" viewBox="0 0 239 366" fill="none" xmlns="http://www.w3.org/2000/svg">
<path d="M238.627 136.419C237.293 124.713 232.015 113.543 232.015 113.543L232.416 109.596C232.416 109.596 232.502 107.622 232.373 104.662C232.387 102.813 232.629 100.974 233.095 99.1848C234.176 95.7618 231.743 91.5555 231.471 91.1669C231.2 90.7783 231.607 83.2724 229.174 79.5903C226.742 75.9082 210.541 69.0622 210.541 69.0622C210.541 69.0622 209.67 67.2427 208.441 65.1149L208.553 64.899C207.547 63.0774 206.301 61.3991 204.848 59.9094C203.854 58.8486 202.897 58.2442 202.125 58.5402C201.811 57.5165 201.572 56.4715 201.409 55.4132C201.57 55.4564 201.736 55.4996 201.897 55.5304C202.565 55.6854 203.259 55.7021 203.934 55.5798C205.441 55.2405 206.441 53.8898 207.281 52.6193C211.467 46.2667 215.073 39.2973 215.807 31.7789C216.005 30.2444 215.932 28.6872 215.591 27.1779C215.244 26.0045 214.759 24.8762 214.146 23.8166C213.064 21.6423 211.694 19.6238 210.071 17.8155C207.188 14.781 203.212 12.9246 199.124 11.8267C194.52 10.5898 189.723 10.232 184.986 10.7721C183.751 10.9139 182.516 11.1174 181.281 11.1976C179.715 11.2665 178.146 11.2398 176.582 11.1174L168.5 10.6487L168.463 10.5254L167.117 10.4452C166.586 11.4998 167.117 12.7519 167.778 13.7387C168.439 14.7255 169.198 15.7555 169.143 16.9212C169.087 18.0868 168.241 19.0243 167.58 20.005C166.92 20.9856 166.42 22.2685 167.08 23.2306C167.173 23.3637 167.283 23.484 167.408 23.5884C168.105 24.31 169.322 24.3901 170.377 24.3778H170.563C167.904 27.8759 166.466 32.1481 166.469 36.5403C166.487 40.2937 167.539 43.9698 169.509 47.1659C171.479 50.3621 174.291 52.955 177.638 54.6608C177.756 55.0617 177.873 55.4749 177.984 55.8943C179.208 60.2265 179.647 64.7422 179.281 69.2287L179.139 69.5371L179.052 69.2102C179.052 69.2102 169.531 75.6615 166.704 77.3699C163.876 79.0784 161.036 84.8698 160.9 86.4487C160.764 88.0276 156.306 111.841 156.306 111.841C155.4 114.24 154.654 116.696 154.071 119.193L148.385 124.182C148.385 124.182 136.654 125.237 133.258 124.447L133.357 125.101C130.362 124.418 127.312 124.005 124.244 123.868C122.568 123.652 120.865 123.88 119.304 124.528L119.187 124.583L119.094 124.626C117.307 124.87 115.561 125.36 113.908 126.082C113.71 126.162 113.531 126.242 113.359 126.322L113.396 125.514L100.701 124.861L94.2185 123.547C94.2185 123.547 91.9217 121.697 90.5695 121.968C89.2173 122.239 86.3834 120.389 86.3834 120.389C85.7369 119.883 85.0371 119.449 84.2965 119.094C84.0804 117.601 83.9446 116.695 83.9446 116.695C83.9446 116.695 78.9002 96.6992 75.1216 84.9438C72.5902 77.0924 68.9474 73.2253 66.7988 71.5415C65.8418 69.8763 65.212 68.8031 65.212 68.8031C64.7984 67.3599 62.5262 64.1096 61.9459 64.0294C61.8532 63.8814 61.7853 63.8074 61.7483 63.8074C61.6241 63.7941 61.4986 63.8132 61.384 63.8629C60.322 58.5834 59.7046 51.9655 61.3284 46.1988C63.5513 44.374 65.3427 42.0808 66.5745 39.4834C67.8063 36.886 68.4479 34.0486 68.4535 31.1745C68.4535 31.0882 68.4535 31.0018 68.4535 30.9155C68.4535 30.8291 68.4535 30.7366 68.4535 30.6503C68.4522 26.0667 66.8271 21.6314 63.866 18.13L63.6561 17.8957C63.7123 17.8559 63.7659 17.8126 63.8166 17.7661C64.2806 17.3903 64.634 16.8959 64.8395 16.3356C65.0449 15.7753 65.0947 15.1699 64.9836 14.5836C64.7057 13.3995 63.7796 12.4682 63.3042 11.3456C63.0187 10.4815 62.7897 9.59975 62.6188 8.70591C62.2551 7.43638 61.5876 6.2743 60.674 5.31989L60.7666 5.56659C58.3463 2.84667 54.1849 1.49597 50.4371 2.10039C47.6525 2.54446 45.0594 3.83966 42.2625 4.24056C40.2559 4.52427 38.2122 4.33924 36.1932 4.54277C34.32 4.73518 32.4965 5.26159 30.8093 6.097C30.3686 6.28431 29.9775 6.57148 29.6671 6.9358C29.3799 7.42391 29.1872 7.96162 29.099 8.52088C28.4137 11.0188 26.2404 12.8012 24.666 14.8859C22.8675 17.2676 21.8264 20.1339 21.6777 23.1135C21.6162 23.8707 21.6893 24.6328 21.8938 25.3646C22.0296 25.8025 22.2395 26.2158 22.3383 26.6598C22.647 28.0167 21.937 29.3674 21.5912 30.712C21.1557 32.4271 21.3101 34.2388 22.0296 35.8557C24.4684 41.3079 32.4763 43.1273 34.1434 48.8509C35.4189 49.4366 36.7662 49.8513 38.1504 50.0844C38.2616 50.6518 38.3604 51.2254 38.4406 51.8052C38.4031 51.821 38.3678 51.8418 38.3357 51.8669C36.1747 53.97 35.6376 58.0345 35.6376 58.0345L35.3782 58.2442C34.4953 58.9719 31.4761 61.4143 28.7471 63.2954C25.5057 65.5343 20.1032 73.0341 16.3246 75.273C12.546 77.5118 9.43418 91.3087 10.2492 96.323C11.0642 101.337 14.4353 115.399 13.0831 120.531C11.731 125.662 15.1083 149.081 15.1083 149.081C17.3746 149.512 19.5919 150.169 21.727 151.042L21.6591 152.066L21.4554 155.15C21.4554 155.15 15.3367 177.254 17.6768 194.271C20.0168 211.287 16.5963 213.039 16.5963 213.039C16.5963 213.039 17.3125 220.582 15.5158 223.215C13.7191 225.849 13.3548 231.634 13.3548 231.634C13.3548 231.634 13.1758 244.617 13.5339 248.287C13.892 251.957 14.071 258.642 12.8115 260.221C11.552 261.8 9.21192 272.143 9.39097 275.301C9.57002 278.459 4.88998 285.656 7.40905 294.951C9.92813 304.246 0 304.424 0 304.424C0 304.424 1.2657 318.61 3.96383 322.668L4.35899 323.248C4.29108 323.482 4.22316 323.729 4.14907 323.994C3.13033 327.695 1.73494 333.536 2.70429 334.948C4.14288 337.057 4.86526 336.7 4.86526 336.7L5.40244 346.173C5.40244 346.173 16.2073 355.295 24.4931 354.949C32.7789 354.604 31.1551 346.173 31.1551 346.173L24.0979 327.892L23.8571 327.275L31.6984 312.473C31.6984 312.473 33.8594 305.985 34.3965 303.703C34.9337 301.421 37.8664 293.335 37.8664 293.335C37.8664 293.335 45.2755 275.794 45.4298 273.685C45.5842 271.576 46.1522 260.184 47.5908 257.896C49.0294 255.608 52.9933 242.477 52.9933 242.477L53.092 242.563C53.7645 243.223 54.2448 244.053 54.4819 244.965C54.7189 245.876 54.7038 246.834 54.438 247.738C53.5304 251.068 54.0737 257.908 54.0737 257.908C54.0737 257.908 53.7156 263.7 52.9933 266.685C52.2709 269.67 52.098 294.051 53.3575 299.836C54.3639 304.468 54.3331 313.139 54.2837 316.42C53.4378 319.905 52.6969 324.235 54.0737 324.747C56.4199 325.629 68.3053 325.45 68.3053 325.45C68.3053 325.45 73.3435 323.692 80.1907 329.835C87.0378 335.978 108.098 328.083 108.098 328.083C108.098 328.083 114.581 326.326 101.794 321.243C92.8725 317.697 87.1119 315.335 83.3457 312.806C83.4321 312.64 83.5247 312.473 83.605 312.294C83.605 312.294 78.3816 307.36 82.7036 298.615C87.0255 289.869 86.8465 282.474 86.8465 282.474L87.5688 252.999L85.4079 213.872L83.7346 172.808L84.031 172.709C84.315 180.258 85.7907 198.23 93.5146 194.746C103.239 190.361 94.9532 178.957 94.9532 178.957L90.588 170.458L91.8908 170.014L87.007 154.249C86.5383 151.172 86.476 148.048 86.8217 144.955C86.9184 143.145 86.8813 141.331 86.7106 139.527C93.1071 138.411 99.2319 137.227 100.331 137.498C101.628 137.813 108.882 137.874 111.735 137.887C110.802 138.614 110.055 139.336 110.055 139.336L121.669 147.144C121.669 147.144 125.608 144.992 126.429 142.71C127.237 142.505 127.983 142.107 128.603 141.55C128.726 144.245 129.442 147.163 131.937 147.23C132.561 147.244 133.18 147.122 133.752 146.873L152.744 143.117L151.114 153.287L152.25 155.304C151.676 163.883 151.015 172.993 150.435 181.004L150.169 182.756L150.305 182.787C149.404 195.122 148.681 204.466 148.681 204.466C149.745 202.441 151.395 200.784 153.417 199.711L153.54 218.016C153.54 218.016 154.491 246.961 154.491 250.908C154.491 254.855 154.621 263.669 154.621 263.669C154.621 263.669 156.652 274.456 157.862 278.009C159.072 281.561 160.023 297.745 160.023 297.745C160.023 297.745 162.863 302.216 161.647 303.913C160.431 305.609 166.376 309.303 166.376 309.303C166.376 309.303 162.592 314.434 162.32 317.857C162.289 318.252 162.678 318.672 163.382 319.091C163.16 319.27 162.931 319.449 162.678 319.621C160.925 320.793 158.356 321.607 154.491 321.274C143.952 320.349 136.524 330.088 143.007 332.061C149.49 334.035 168.939 334.43 168.939 334.43C168.939 334.43 174.829 330.76 179.435 332.413C179.367 336.274 179.558 339.814 179.589 340.283L179.534 340.326C176.78 342.793 171.507 347.036 166.358 348.77C158.949 351.267 157.307 361.401 166.895 362.715C176.484 364.028 190.53 361.136 190.53 361.136C190.53 361.136 197.822 355.745 203.36 354.561C208.898 353.377 213.628 350.743 212.683 347.585C212.066 345.569 210.479 340.283 209.405 336.73C209.343 336.517 209.281 336.311 209.219 336.114C209.386 335.744 209.553 335.361 209.707 334.966C209.707 334.966 206.873 320.232 209.17 316.55C211.467 312.868 210.25 276.023 210.25 276.023C210.25 276.023 206.33 266.685 208.361 261.029C210.392 255.373 205.12 247.343 205.12 247.343C205.12 247.343 205.694 231.252 207.237 222.284C207.307 221.902 207.375 221.532 207.441 221.174C210.026 220.408 212.544 219.436 214.974 218.269C214.974 218.269 216.326 198.002 217.135 193.401C217.215 192.969 217.326 192.273 217.462 191.366L218.079 188.116L218.808 184.415L221.278 171.802L225.735 166.042L237.219 154.323C237.219 154.323 239.979 148.131 238.627 136.419ZM61.526 64.0541L61.4396 64.1157C61.4264 64.0712 61.416 64.0259 61.4087 63.9801C61.4446 64.0095 61.484 64.0344 61.526 64.0541ZM174.99 78.4184L174.545 79.3867L176.169 77.7708L173.965 80.2379L174.706 78.6836L174.99 78.4184ZM164.024 101.054C163.598 102.182 163.141 103.403 162.666 104.674L163.536 102.077L164.024 101.054Z" fill="url(#paint0_linear)"/>
<path d="M127.924 136.55C127.924 136.55 126.396 146.727 130.981 146.858C135.566 146.989 138.629 139.008 138.629 139.008L136.757 132.625L127.924 136.55Z" fill="#585B8A"/>
<path opacity="0.2" d="M127.924 136.55C127.924 136.55 126.396 146.727 130.981 146.858C135.566 146.989 138.629 139.008 138.629 139.008L136.757 132.625L127.924 136.55Z" fill="#36305E"/>
<path d="M25.2305 356.838C17.0712 357.194 6.42903 347.971 6.42903 347.971L5.89879 338.393C5.89879 338.393 5.19389 338.749 3.77161 336.621C2.81719 335.192 4.18956 329.271 5.19389 325.546C5.68046 323.724 6.07968 322.426 6.07968 322.426L23.9829 327.218L24.8375 329.483L31.7867 347.965C31.7867 347.965 33.3837 356.483 25.2305 356.838Z" fill="#636992"/>
<path d="M107.484 329.701C107.484 329.701 86.7423 337.682 80.0363 331.473C73.3304 325.264 68.3338 327.036 68.3338 327.036C68.3338 327.036 56.6311 327.217 54.3231 326.325C52.9632 325.807 53.6993 321.371 54.5476 317.839C55.1215 315.399 55.7453 313.384 55.7453 313.384C55.7453 313.384 76.1313 306.464 79.3252 310.719C80.2845 311.97 81.4313 313.064 82.7249 313.964C86.4179 316.635 92.1881 319.056 101.314 322.781C113.865 327.923 107.484 329.701 107.484 329.701Z" fill="#636992"/>
<path d="M88.867 167.605L94.5374 178.956C94.5374 178.956 102.697 190.487 93.1213 194.917C83.5459 199.347 83.7268 169.384 83.7268 169.384L88.867 167.605Z" fill="#FFD6D6"/>
<path d="M65.1094 69.1758C65.1094 69.1758 71.3163 72.0149 75.0404 83.8954C78.7645 95.7759 83.73 115.999 83.73 115.999C83.73 115.999 87.0986 138.874 86.5621 144.552C86.2208 147.679 86.2816 150.838 86.743 153.949L91.5276 169.911L81.9522 173.28L67.2366 116.885L65.1094 69.1758Z" fill="#DCE6F2"/>
<path opacity="0.05" d="M65.1094 69.1758C65.1094 69.1758 71.3163 72.0149 75.0404 83.8954C78.7645 95.7759 83.73 115.999 83.73 115.999C83.73 115.999 87.0986 138.874 86.5621 144.552C86.2208 147.679 86.2816 150.838 86.743 153.949L91.5276 169.911L81.9522 173.28L67.2366 116.885L65.1094 69.1758Z" fill="#E6E6FF"/>
<path opacity="0.1" d="M23.9757 327.22L24.8303 329.485L23.7823 331.488C19.7026 333.26 9.59699 331.843 9.59699 331.843C9.59699 331.843 7.72557 329.466 5.16797 325.553C5.65454 323.731 6.05376 322.434 6.05376 322.434L23.9757 327.22Z" fill="black"/>
<path opacity="0.1" d="M83.3705 314.8C78.1991 326.519 60.6203 322.169 55.7359 320.703C54.9312 320.46 54.4883 320.297 54.4883 320.297C54.4883 320.297 54.5195 319.343 54.5319 317.839C55.1058 315.399 55.7296 313.384 55.7296 313.384C55.7296 313.384 76.1156 306.464 79.3095 310.719C80.2688 311.97 81.4156 313.064 82.7092 313.964C82.9044 314.262 83.1258 314.542 83.3705 314.8Z" fill="black"/>
<path d="M82.4841 299.91C78.2297 308.771 83.3761 313.744 83.3761 313.744C78.2048 325.456 60.6259 321.113 55.7415 319.64C54.9368 319.403 54.4939 319.241 54.4939 319.241C54.4939 319.241 54.8495 306.999 53.6081 301.146C52.3667 295.293 52.5414 270.646 53.2525 267.632C53.9637 264.618 54.313 258.759 54.313 258.759C54.313 258.759 53.7828 251.845 54.6686 248.476C54.9351 247.566 54.953 246.601 54.7205 245.681C54.4879 244.761 54.0133 243.921 53.3461 243.247L53.2525 243.153C53.2525 243.153 49.3537 256.457 47.9314 258.753C46.5092 261.049 45.9852 272.586 45.8043 274.714C45.6234 276.842 38.356 294.582 38.356 294.582C38.356 294.582 35.5239 302.737 34.9937 305.039C34.4635 307.342 32.3301 313.912 32.3301 313.912L23.7839 330.41C19.7042 332.182 9.59857 330.766 9.59857 330.766C9.59857 330.766 7.65228 328.27 4.98863 324.202C2.32498 320.133 1.08984 305.763 1.08984 305.763C1.08984 305.763 10.8399 305.582 8.35718 296.185C5.87443 286.788 10.4844 279.513 10.3097 276.318C10.135 273.123 12.4369 262.665 13.6782 261.068C14.9196 259.47 14.7387 252.731 14.3832 249.006C14.0276 245.281 14.2085 232.159 14.2085 232.159C14.2085 232.159 14.5641 226.306 16.3357 223.648C18.1073 220.99 17.4024 213.359 17.4024 213.359C17.4024 213.359 20.7647 211.586 18.4629 194.383C16.161 177.18 22.2057 154.836 22.2057 154.836L22.4115 151.716L22.7359 146.662C22.7359 146.662 73.4451 143.467 77.5248 147.367C78.5912 148.449 79.4665 149.704 80.1136 151.079C81.5094 154.081 82.4955 157.256 83.0455 160.52L85.1727 214.257L87.2999 253.805L86.5887 283.6C86.5887 283.6 86.7447 291.037 82.4841 299.91Z" fill="#565988"/>
<path opacity="0.1" d="M67.4453 193.851L62.1242 309.124L55.7364 319.632C54.9317 319.395 54.4888 319.233 54.4888 319.233C54.4888 319.233 54.8443 306.99 53.603 301.137C52.3616 295.284 52.5363 270.637 53.2474 267.623C53.9585 264.61 54.3079 258.75 54.3079 258.75C54.3079 258.75 53.7776 251.837 54.6634 248.467C54.93 247.557 54.9479 246.592 54.7153 245.672C54.4828 244.753 54.0082 243.912 53.341 243.238L53.4283 242.614L67.4453 193.851Z" fill="black"/>
<path opacity="0.1" d="M10.1501 317.637C10.1501 317.637 23.9799 312.14 26.1071 313.893C28.2342 315.646 9.80078 318.323 9.80078 318.323L10.1501 317.637Z" fill="black"/>
<path opacity="0.1" d="M78.4064 303.098C77.8761 303.279 64.4019 308.089 65.6432 313.206C66.8846 318.323 78.4064 303.098 78.4064 303.098Z" fill="black"/>
<path d="M36.2969 40.7141C36.2969 40.7141 40.8132 51.6213 38.4241 57.2121C36.0349 62.8029 64.2185 72.3747 64.2185 72.3747C64.2185 72.3747 55.978 51.0909 63.9565 39.1168C71.935 27.1427 36.2969 40.7141 36.2969 40.7141Z" fill="#FFD6D6"/>
<path d="M201.324 356.48C195.872 357.678 188.692 363.131 188.692 363.131C188.692 363.131 174.863 366.058 165.418 364.729C155.974 363.399 157.577 353.154 164.888 350.627C169.959 348.879 175.156 344.568 177.869 342.097C179.067 340.992 179.778 340.225 179.778 340.225L206.246 334.902C206.246 334.902 206.677 336.381 207.275 338.422C208.336 342.022 209.902 347.363 210.501 349.397C211.43 352.623 206.776 355.281 201.324 356.48Z" fill="#505484"/>
<path d="M194.542 335.995C194.542 335.995 183.369 337.193 178.716 334.535C174.062 331.877 167.412 336.132 167.412 336.132C167.412 336.132 148.261 335.733 141.88 333.736C135.498 331.74 142.809 321.881 153.183 322.829C156.963 323.172 159.521 322.343 161.249 321.157C163.054 319.919 164.312 318.033 164.761 315.891L187.218 317.22L190.337 325.182L194.542 335.995Z" fill="#505484"/>
<path opacity="0.1" d="M190.681 328.813C190.681 328.813 164.581 324.545 161.25 321.157C163.055 319.919 164.313 318.033 164.762 315.891L187.219 317.22L190.338 325.182L190.681 328.813Z" fill="black"/>
<path d="M151.984 179.447L152.253 218.415C152.253 218.415 153.182 247.679 153.182 251.672C153.182 255.666 153.313 264.57 153.313 264.57C153.313 264.57 155.309 275.477 156.507 279.071C157.705 282.665 158.634 299.039 158.634 299.039C158.634 299.039 161.429 303.562 160.231 305.278C159.033 306.994 164.885 310.732 164.885 310.732C164.885 310.732 161.142 315.923 160.899 319.38C160.655 322.837 190.679 327.748 190.679 327.748L178.983 207.776L169.669 177.719L151.984 179.447Z" fill="#36305E"/>
<path opacity="0.1" d="M152.332 182.178L152.6 221.145C152.6 221.145 153.53 250.409 153.53 254.403C153.53 258.396 153.661 267.301 153.661 267.301C153.661 267.301 155.657 278.208 156.855 281.802C158.052 285.396 158.982 301.769 158.982 301.769C158.982 301.769 161.776 306.293 160.579 308.009C159.381 309.725 165.232 313.462 165.232 313.462C165.232 313.462 161.489 318.654 161.246 322.111C161.003 325.567 191.027 330.478 191.027 330.478L179.33 210.506L170.017 180.449L152.332 182.178Z" fill="black"/>
<path opacity="0.1" d="M207.273 338.453C198.584 359.175 177.917 343.182 177.917 343.182C177.917 343.182 177.917 342.783 177.867 342.097C179.065 340.992 179.776 340.225 179.776 340.225L206.244 334.902C206.244 334.902 206.675 336.412 207.273 338.453Z" fill="black"/>
<path d="M207.574 336.658C199.059 358.497 177.918 342.112 177.918 342.112C177.918 342.112 177.25 330.805 178.585 325.62C179.92 320.435 177.119 304.867 177.119 304.867C177.119 304.867 175.522 291.033 174.063 287.844C172.603 284.656 172.734 278.266 172.734 277.736C172.734 277.206 173.264 272.944 172.067 270.017C170.869 267.091 170.195 259.909 170.195 259.909C170.195 259.909 170.195 249.801 168.997 243.817L164.874 223.225L157.426 181.057L159.753 180.658L201.442 173.345C201.442 173.345 209.289 213.279 206.625 217.373C206.051 218.271 205.546 220.237 205.128 222.77C203.606 231.83 203.038 248.097 203.038 248.097C203.038 248.097 208.222 256.209 206.232 261.931C204.242 267.653 208.104 277.093 208.104 277.093C208.104 277.093 209.302 314.339 207.037 318.064C204.773 321.789 207.574 336.658 207.574 336.658Z" fill="#36305E"/>
<path d="M203.584 64.3923C203.584 64.3923 165.819 90.9924 174.328 77.6893C178.913 70.526 178.071 61.4035 176.274 54.5147C175.366 51.011 174.112 47.6061 172.531 44.3502C172.531 44.3502 204.62 30.6976 200.366 42.9337C199.369 45.7844 198.945 48.8041 199.118 51.8192C199.373 56.3515 200.923 60.7153 203.584 64.3923Z" fill="#D28690"/>
<path d="M135.588 125.309C135.588 125.309 119.631 120.698 116.973 125.222C114.316 129.745 117.772 139.673 122.588 141.27C127.403 142.868 138.457 135.86 138.457 135.86L135.588 125.309Z" fill="#D28690"/>
<path d="M153.859 117.465L147.21 123.586C147.21 123.586 135.638 124.647 132.313 123.848C132.313 123.848 135.376 144.333 130.984 146.86L157.845 141.407L153.859 117.465Z" fill="#36305E"/>
<path opacity="0.1" d="M154.98 116.652L148.331 122.774C148.331 122.774 136.759 123.834 133.434 123.036C133.434 123.036 136.497 143.521 132.105 146.048L158.967 140.594L154.98 116.652Z" fill="#36305E"/>
<path opacity="0.1" d="M68.4783 29.5416C68.4783 34.8372 66.3752 39.916 62.6316 43.6606C58.888 47.4052 53.8107 49.5089 48.5165 49.5089C38.2736 44.5857 28.5547 40.5797 28.5547 29.5416C28.4484 26.8551 28.8857 24.1748 29.8402 21.6615C30.7948 19.1482 32.2469 16.8536 34.1095 14.9152C35.9722 12.9769 38.207 11.4349 40.6799 10.3815C43.1529 9.32812 45.813 8.78516 48.5009 8.78516C51.1887 8.78516 53.8489 9.32812 56.3218 10.3815C58.7948 11.4349 61.0296 12.9769 62.8922 14.9152C64.7549 16.8536 66.207 19.1482 67.1615 21.6615C68.116 24.1748 68.5533 26.8551 68.4471 29.5416H68.4783Z" fill="black"/>
<path d="M68.4776 28.9992C68.4806 33.6951 66.8258 38.2412 63.805 41.8358C60.7843 45.4304 56.5916 47.8426 51.9665 48.6471C47.3413 49.4515 42.5807 48.5965 38.5242 46.2328C34.4677 43.8691 31.3759 40.1486 29.7941 35.7273C28.2122 31.3061 28.2419 26.4681 29.8779 22.0666C31.5139 17.6651 34.6511 13.9828 38.7363 11.6691C42.8214 9.35541 47.5922 8.5589 52.2071 9.42007C56.8221 10.2812 60.9848 12.7448 63.9612 16.3762C66.8762 19.9374 68.4716 24.3966 68.4776 28.9992Z" fill="#FFD6D6"/>
<path opacity="0.1" d="M80.1154 151.091C78.1404 152.318 76.0736 153.39 73.9335 154.298C73.9335 154.298 63.8278 152.832 62.3681 154.56C60.9084 156.289 48.0205 156.956 48.0205 156.956C48.0205 156.956 28.3394 156.027 25.4138 153.5C24.5092 152.767 23.5026 152.17 22.4258 151.728L22.7502 146.673C22.7502 146.673 73.4593 143.479 77.539 147.378C78.601 148.462 79.472 149.717 80.1154 151.091Z" fill="black"/>
<path d="M82.5772 147.526C82.178 149.785 73.9312 153.242 73.9312 153.242C73.9312 153.242 63.8256 151.782 62.3659 153.51C60.9062 155.238 48.0183 155.906 48.0183 155.906C48.0183 155.906 28.3372 154.97 25.4115 152.443C22.4859 149.916 15.9671 148.699 15.9671 148.699C15.9671 148.699 12.6422 125.025 13.9772 119.84C15.3121 114.655 11.981 100.416 11.1825 95.3616C10.384 90.3074 13.4407 76.3428 17.1648 74.084C20.889 71.8252 26.21 64.2376 29.3977 61.9788C32.0863 60.0757 35.0556 57.611 35.9227 56.8684L36.1784 56.6563C36.1784 56.6563 36.7149 52.5318 38.8421 50.4165C40.9693 48.3013 60.5132 63.8507 60.5132 63.8507C60.5132 63.8507 60.6504 65.0488 61.9791 62.79C62.2785 62.2846 64.8548 66.0035 65.304 67.5759C65.304 67.5759 75.9399 86.2016 76.6074 90.039C77.2748 93.8765 80.0633 106.4 80.5935 109.457C80.7307 110.243 80.9553 113.001 81.2173 116.695C81.2672 117.419 81.3109 118.187 81.367 118.985C81.76 125.113 82.1842 132.937 82.44 138.853C82.44 139.527 82.4961 140.176 82.5148 140.8C82.6495 143.039 82.6703 145.284 82.5772 147.526Z" fill="#E6E6FF"/>
<path opacity="0.04" d="M15.0469 99.5C15.0469 99.5 22.3579 108.41 24.7533 108.41C27.1487 108.41 15.0469 99.5 15.0469 99.5Z" fill="black"/>
<path opacity="0.04" d="M30.4464 118.656C30.4464 118.656 18.4755 131.691 20.0724 134.087C21.6694 136.483 30.4464 118.656 30.4464 118.656Z" fill="black"/>
<path opacity="0.04" d="M21.668 144.592C21.668 144.592 35.3918 129.56 36.0156 124.375L21.668 144.592Z" fill="black"/>
<path opacity="0.03" d="M38.9609 145.647C38.9609 145.647 54.7869 137.267 56.1156 130.616C57.4443 123.964 38.9609 145.647 38.9609 145.647Z" fill="black"/>
<path opacity="0.1" d="M59.0395 64.7893L56.8438 70.1056L60.4992 71.834L64.0924 81.8801C64.0924 81.8801 73.9984 101.698 73.5992 112.006C73.1999 122.314 75.3957 137.807 75.3957 137.807L81.1098 136.746L78.415 106.427C77.9953 101.733 76.8199 97.1374 74.9341 92.8184C70.3679 82.3605 61.8716 63.0547 61.3352 63.0547C60.6053 63.0547 61.1168 63.323 61.1168 63.323L59.0395 64.7893Z" fill="black"/>
<path d="M59.5708 64.2479L57.375 69.5705L61.0367 71.2989L64.6236 81.3449C64.6236 81.3449 74.5297 101.162 74.1305 111.47C73.7312 121.779 75.927 137.272 75.927 137.272L81.6473 136.211L78.9462 105.892C78.5315 101.198 77.3581 96.6017 75.4716 92.2832C70.9054 81.8191 62.4091 62.5195 61.8789 62.5195C61.1428 62.5195 61.6543 62.7878 61.6543 62.7878L59.5708 64.2479Z" fill="#575989"/>
<path d="M124.325 142.425C121.543 142.213 114.868 138.837 112.217 137.433L111.094 136.809L111.231 126.507C111.887 126.121 112.566 125.777 113.265 125.477C116.808 123.93 124.075 121.827 127.718 128.597C132.634 137.676 127.849 142.662 124.325 142.425Z" fill="#FFD6D6"/>
<path opacity="0.1" d="M63.9581 16.3809C63.6723 16.56 63.3579 16.6887 63.0286 16.7615C60.7143 17.267 58.0818 15.2765 56.0981 16.5556C54.8879 17.3418 54.6072 18.9704 54.445 20.4056C54.1622 22.9015 53.8794 25.3807 53.5967 27.8434C53.5373 28.7201 53.3525 29.5838 53.0477 30.4079C52.0683 32.648 49.3797 33.7025 46.9282 33.6651C45.9678 33.7334 45.0194 33.4194 44.2895 32.7915C43.8591 32.3547 43.6283 31.7432 43.1542 31.3439C40.0351 28.7294 39.0869 35.1376 39.9104 36.9597C41.2328 39.936 45.9301 42.8063 43.9589 46.5876C43.6273 47.2022 43.1246 47.7072 42.5116 48.0415C39.5411 47.1109 36.8292 45.4984 34.5928 43.3326C32.3563 41.1669 30.6572 38.5079 29.6311 35.5682C28.6051 32.6285 28.2806 29.4896 28.6836 26.4021C29.0865 23.3146 30.2057 20.3642 31.9518 17.7865C33.6979 15.2088 36.0225 13.0753 38.7399 11.5564C41.4572 10.0375 44.492 9.17532 47.6019 9.03875C50.7117 8.90218 53.8104 9.495 56.6503 10.7698C59.4903 12.0447 61.9929 13.9662 63.9581 16.3809Z" fill="black"/>
<path d="M42.6225 31.322C43.0903 31.7151 43.3274 32.3266 43.7578 32.7634C44.4881 33.3908 45.4363 33.7047 46.3965 33.637C48.8481 33.6744 51.5367 32.6261 52.5098 30.3736C52.8201 29.5529 53.0072 28.6908 53.065 27.8153L53.9134 20.3775C54.0756 18.9423 54.35 17.3138 55.5665 16.5276C57.5502 15.2796 60.1826 17.2389 62.4969 16.7335C63.3312 16.5214 64.0534 15.9996 64.5169 15.274C64.9803 14.5485 65.1503 13.6737 64.9922 12.8274C64.7239 11.6356 63.8132 10.6934 63.3453 9.55774C63.0617 8.68514 62.8346 7.79517 62.6654 6.89336C61.3741 2.05131 55.6912 -0.669223 50.7507 0.141946C48.0059 0.597449 45.4546 1.9078 42.7036 2.30714C40.7323 2.59417 38.7175 2.40698 36.7275 2.61913C34.8787 2.80996 33.0811 3.34093 31.4252 4.18531C30.9905 4.37776 30.6061 4.6682 30.3023 5.03392C30.0197 5.52786 29.8295 6.06915 29.7409 6.63129C29.0734 9.1272 26.9275 10.9679 25.3742 13.0707C23.5976 15.4902 22.5696 18.3778 22.4174 21.3759C22.3562 22.1416 22.428 22.9121 22.6295 23.6534C22.7605 24.0901 22.9663 24.5145 23.0661 24.9637C23.3718 26.3302 22.6732 27.6967 22.3301 29.057C21.9038 30.7928 22.0571 32.6205 22.7667 34.261C25.1621 39.7707 33.0533 41.6114 34.6939 47.3957C36.1508 48.0944 37.7243 48.5175 39.335 48.6436C40.9444 48.6748 42.6786 47.9822 43.4272 46.5533C45.3922 42.8094 40.7012 39.9017 39.3787 36.9316C38.549 35.1033 39.4785 28.7013 42.6225 31.322Z" fill="#353045"/>
<path opacity="0.1" d="M200.395 42.9337C199.398 45.7844 198.974 48.8041 199.147 51.8192C198.187 52.6366 197.139 50.1906 196.028 50.8208C192.984 52.5804 189.466 56.7673 185.698 56.7673C182.431 56.7695 179.209 55.9975 176.298 54.5148C175.389 51.011 174.136 47.6061 172.555 44.3502C172.555 44.3502 204.649 30.6976 200.395 42.9337Z" fill="black"/>
<path d="M206.421 34.9537C206.421 39.0583 205.205 43.0708 202.925 46.4837C200.645 49.8965 197.405 52.5566 193.613 54.1273C189.822 55.6981 185.651 56.1091 181.626 55.3083C177.601 54.5076 173.904 52.531 171.003 49.6286C168.101 46.7262 166.125 43.0282 165.324 39.0025C164.524 34.9767 164.935 30.8039 166.505 27.0117C168.075 23.2195 170.735 19.9782 174.147 17.6978C177.559 15.4174 181.57 14.2002 185.674 14.2002C188.398 14.1994 191.097 14.7356 193.614 15.7783C196.132 16.821 198.42 18.3496 200.346 20.2769C202.273 22.2042 203.801 24.4924 204.844 27.0107C205.886 29.529 206.422 32.228 206.421 34.9537Z" fill="#D28690"/>
<path d="M205.539 69.0027C205.539 69.0027 201.634 73.2582 201.103 73.6076C200.573 73.957 189.251 121.654 189.051 122.209C188.852 122.764 175.571 165.831 175.571 165.831L154.293 176.295L156.071 123.619L171.666 80.1781C171.666 80.1781 176.812 74.3252 178.403 72.1974C179.994 70.0697 199.856 57.2969 199.856 57.2969L203.249 64.2916L205.539 69.0027Z" fill="#F0F3F7"/>
<path opacity="0.1" d="M202.718 65.3541L178.252 82.8754L177.859 73.2537C179.456 71.1259 199.312 58.3594 199.312 58.3594L202.718 65.3541Z" fill="black"/>
<path d="M203.256 64.2917L178.791 81.8129L178.41 72.1975C180.007 70.0635 199.863 57.2969 199.863 57.2969L203.256 64.2917Z" fill="#F0F3F7"/>
<path d="M177.589 67.915L178.406 72.1955L172.936 77.7552L177.302 67.9774C177.302 67.9774 167.945 74.498 165.138 76.2264C162.331 77.9548 159.524 83.8077 159.418 85.4051C159.312 87.0025 154.895 111.076 154.895 111.076C154.895 111.076 151.57 119.986 152.506 122.513C153.442 125.04 147.453 204.716 147.453 204.716C148.254 203.168 149.385 201.817 150.768 200.756C152.15 199.696 153.749 198.954 155.45 198.582L153.317 151.497C153.317 151.497 155.912 120.173 156.043 119.774C156.174 119.374 162.094 101.217 162.094 101.217L177.589 67.915Z" fill="#36305E"/>
<path opacity="0.1" d="M178.945 72.7227L178.52 81.4583C178.52 81.4583 172.6 100.146 170.611 103.204C168.621 106.261 162.563 124.488 162.563 124.488L159.151 156.148L153.3 158.813L150.418 153.503L155.209 122.928C155.209 122.928 164.248 97.1264 165.583 94.462L172.251 80.41L178.945 72.7227Z" fill="black"/>
<path d="M178.405 72.1953L177.987 80.931C177.987 80.931 172.067 99.6191 170.071 102.677C168.075 105.734 162.03 123.96 162.03 123.96L158.636 155.615L152.785 158.273L149.859 152.957L154.65 122.382C154.65 122.382 163.689 96.5741 165.018 93.9159L171.736 79.8827L178.405 72.1953Z" fill="#663D5C"/>
<path d="M109.438 138.865L120.872 146.784C120.872 146.784 128.938 142.26 124.24 139.333C119.543 136.407 115.376 135.964 113.867 135.964C112.357 135.964 109.438 138.865 109.438 138.865Z" fill="#D28690"/>
<path d="M117.974 124.236C117.719 124.395 117.509 124.616 117.364 124.88C117.218 125.143 117.143 125.439 117.145 125.74C117.145 128.167 117.419 134.594 119.453 131.692C121.948 128.142 121.493 124.953 125.304 127.256C127.673 128.732 129.746 130.636 131.417 132.872L130.357 125.247C130.357 125.247 122.522 121.378 117.974 124.236Z" fill="#D28690"/>
<path opacity="0.1" d="M206.64 217.352C206.066 218.251 205.561 220.216 205.143 222.749C181.825 229.744 164.764 214.956 164.764 214.956C162.7 207.959 161.013 200.856 159.711 193.678C159.293 191.22 159.386 186.453 159.773 180.637L201.462 173.324C201.462 173.324 209.303 213.228 206.64 217.352Z" fill="black"/>
<path d="M231.282 98.7175C230.222 102.181 230.621 109.225 230.621 109.225L221.046 154.451C221.046 154.451 216.392 189.3 215.594 193.955C214.795 198.61 213.467 219.095 213.467 219.095C186.337 232.398 165.433 214.309 165.433 214.309C163.37 207.31 161.683 200.205 160.381 193.025C159.046 185.126 162.976 153.478 164.835 139.419C165.39 135.257 165.764 132.637 165.764 132.637L172.744 106.698C172.744 106.698 181.322 84.8153 184.516 78.432C187.71 72.0487 200.535 57.7097 200.535 57.7097C202.126 56.6989 204.671 60.268 206.561 63.5189C207.99 65.9774 209.056 68.2612 209.056 68.2612C209.056 68.2612 225.013 75.1748 227.402 78.8688C229.792 82.5627 229.399 90.1752 229.667 90.5746C229.935 90.9739 232.349 95.2606 231.282 98.7175Z" fill="#36305E"/>
<path opacity="0.1" d="M192.944 82.2119C192.944 82.2119 194.142 89.2628 191.073 91.3906C188.11 93.4497 166.052 136.835 164.68 139.543C165.235 135.375 165.609 132.754 165.609 132.754L172.59 106.822C172.59 106.822 181.173 84.9387 184.361 78.5492C187.548 72.1596 200.386 57.8269 200.386 57.8269C201.977 56.8161 204.516 60.3852 206.406 63.6361C203.555 69.5577 197.61 80.7518 192.944 82.2119Z" fill="black"/>
<path d="M192.418 81.6738C192.418 81.6738 193.609 88.7248 190.546 90.8525C187.483 92.9803 165.532 136.29 164.141 138.999C164.696 134.837 165.07 132.216 165.07 132.216L172.05 106.277C172.05 106.277 180.628 84.3944 183.822 78.0111C187.016 71.6278 199.841 57.2888 199.841 57.2888C201.432 56.278 203.977 59.8471 205.867 63.098C203.029 69.0133 197.078 80.2137 192.418 81.6738Z" fill="#36305E"/>
<path d="M224.065 145.39L216.56 184.445V184.451L215.843 188.189V188.195L214.227 196.6L207.334 195.14L204.122 194.46L159.663 185.038L156.394 184.345L148.934 182.767L150.393 173.07L150.998 169.039L156.382 133.285L224.065 145.39Z" fill="#F9B738"/>
<path d="M182.575 177.312C182.575 177.312 164.89 183.696 168.745 191.277C172.6 198.858 197.334 185.424 197.334 185.424L182.575 177.312Z" fill="#D28690"/>
<path opacity="0.1" d="M195.203 231.715C195.203 232.245 195.871 239.034 198.528 241.424C201.186 243.814 195.203 231.715 195.203 231.715Z" fill="black"/>
<path opacity="0.1" d="M177.387 255.789C177.387 255.789 180.574 264.568 193.206 268.163C205.839 271.757 177.387 255.789 177.387 255.789Z" fill="black"/>
<path opacity="0.1" d="M206.417 34.952C206.418 38.6003 205.457 42.1844 203.631 45.3427C201.805 48.5011 199.179 51.122 196.018 52.9413C194.826 52.2743 193.769 51.3921 192.899 50.3393C191.994 49.2411 191.289 47.7435 191.832 46.4332C192.269 45.3787 193.423 44.711 193.703 43.619C193.836 42.9513 193.801 42.2612 193.604 41.6098C193.373 40.5803 193.154 39.5507 192.93 38.5274C192.737 37.6538 192.393 36.6243 191.526 36.4121C190.659 36.2 189.936 36.9238 189.256 37.4604C187.59 38.777 184.396 39.6693 182.394 38.5898C180.391 37.5103 180.953 33.8975 180.628 31.9444C180.624 31.7748 180.583 31.6081 180.508 31.4561C180.432 31.304 180.324 31.1704 180.192 31.0646C179.9 30.9679 179.589 30.9464 179.287 31.0022C178.208 31.0022 177.341 30.0351 177.029 28.9993C176.808 27.9418 176.687 26.8659 176.667 25.7858C176.549 24.7063 176.156 23.5644 175.233 23.0091C174.495 22.6657 173.677 22.5318 172.868 22.6222L168.957 22.6659C171.552 19.157 175.186 16.5557 179.344 15.2318C183.502 13.9079 187.971 13.9287 192.116 15.2915C196.261 16.6542 199.871 19.2894 202.433 22.8224C204.995 26.3554 206.378 30.6063 206.385 34.9707L206.417 34.952Z" fill="black"/>
<path d="M189.813 37.4555C190.493 36.9189 191.242 36.2075 192.084 36.4134C192.926 36.6194 193.288 37.6614 193.481 38.5225L194.155 41.5987C194.354 42.2518 194.391 42.9438 194.261 43.6141C193.943 44.7123 192.795 45.3738 192.352 46.4283C191.809 47.7386 192.521 49.2362 193.419 50.3281C195.057 52.3033 197.323 53.6576 199.838 54.1656C200.495 54.3234 201.177 54.3383 201.84 54.2093C203.325 53.8661 204.336 52.4996 205.134 51.2204C209.257 44.7935 212.807 37.7488 213.53 30.1487C213.729 28.5986 213.657 27.0257 213.318 25.5001C212.98 24.3143 212.503 23.1728 211.896 22.0994C210.834 19.9066 209.485 17.8649 207.885 16.0281C205.047 12.9706 201.129 11.0925 197.106 9.98178C192.58 8.72567 187.855 8.35491 183.188 8.88982C181.941 9.03333 180.743 9.23925 179.514 9.32036C177.971 9.39212 176.425 9.36712 174.886 9.24549L165.703 8.69639C165.179 9.76339 165.703 11.0301 166.327 12.0284C166.951 13.0268 167.724 14.0626 167.674 15.2481C167.624 16.4337 166.782 17.3697 166.134 18.368C165.485 19.3664 164.992 20.658 165.641 21.6314C166.289 22.6048 167.612 22.6672 168.76 22.6548L173.388 22.6048C174.195 22.5219 175.008 22.6622 175.74 23.0104C176.663 23.5658 177.056 24.7139 177.175 25.7871C177.201 26.8668 177.322 27.9422 177.537 29.0006C177.855 30.0364 178.716 31.0161 179.795 31.0036C180.097 30.9433 180.41 30.967 180.699 31.0722C180.832 31.1767 180.94 31.3092 181.015 31.4602C181.091 31.6112 181.132 31.777 181.136 31.9458C181.46 33.8988 180.862 37.5054 182.901 38.5911C184.941 39.6769 188.148 38.7721 189.813 37.4555Z" fill="#663D5C"/>
<path opacity="0.1" d="M216.184 78.4514C213.891 78.2078 211.582 78.7513 209.638 79.9929C207.694 81.2344 206.23 83.1002 205.486 85.284C202.991 92.3911 198.83 105.214 199.872 110.28C201.338 117.462 203.066 129.437 203.066 129.437C203.066 129.437 210.645 133.804 206.808 138.21C202.972 142.615 201.887 148.855 201.887 148.855C201.887 148.855 196.965 150.982 195.904 155.506C194.844 160.03 187.658 166.276 187.658 166.276L176.891 177.052C176.891 177.052 194.707 195.147 198.3 196.071L209.335 183.167L222.366 165.877L233.67 154.021C233.67 154.021 236.327 147.781 234.998 135.926C233.67 124.07 228.48 112.783 228.48 112.783L228.879 108.789C228.879 108.789 230.101 80.1799 216.184 78.4514Z" fill="black"/>
<path d="M217.248 78.4502C214.957 78.2095 212.651 78.7544 210.71 79.9958C208.768 81.2371 207.306 83.1013 206.562 85.2827C204.067 92.3898 199.906 105.213 200.948 110.279C202.408 117.461 204.136 129.435 204.136 129.435C204.136 129.435 211.715 133.803 207.879 138.208C204.042 142.614 202.963 148.853 202.963 148.853C202.963 148.853 198.041 150.981 196.975 155.505C195.908 160.029 188.734 166.275 188.734 166.275L177.961 177.051C177.961 177.051 195.777 195.146 199.37 196.07L210.405 183.166L223.405 165.876L234.709 154.02C234.709 154.02 237.372 147.78 236.037 135.925C234.702 124.069 229.525 112.781 229.525 112.781L229.924 108.788C229.924 108.788 231.165 80.1786 217.248 78.4502Z" fill="#36305E"/>
<path opacity="0.1" d="M206.109 118.926C206.109 118.926 217.413 132.753 222.204 129.696C226.994 126.638 206.109 118.926 206.109 118.926Z" fill="black"/>
<path opacity="0.1" d="M210.363 108.276C211.561 108.676 221.405 122.378 226.457 120.756C231.51 119.134 210.363 108.276 210.363 108.276Z" fill="black"/>
<path opacity="0.1" d="M213.156 131.816C213.156 131.816 213.824 139.666 221.933 138.599C230.043 137.532 213.156 131.816 213.156 131.816Z" fill="black"/>
<path opacity="0.1" d="M177.319 68.5068L172.934 78.2846L178.411 72.7249L177.319 68.5068Z" fill="black"/>
<path d="M177.319 67.9766L172.934 77.7542L178.411 72.1946L177.319 67.9766Z" fill="#F0F3F7"/>
<path d="M159.657 185.034L156.388 184.341L150.387 173.066L150.992 169.035L159.657 185.034Z" fill="#E7902E"/>
<path d="M216.556 184.453L215.838 188.191V188.197L207.33 195.142L204.117 194.462L216.556 184.453Z" fill="#E7902E"/>
<path opacity="0.04" d="M82.4924 140.82C80.8456 141.095 79.2487 141.344 77.789 141.532C69.6795 142.599 50.3914 133.021 50.3914 133.021C50.3914 133.021 26.8552 113.334 20.0744 94.7147C13.2937 76.0952 28.1839 73.2998 28.1839 73.2998C33.7982 70.105 46.006 79.0154 47.734 80.4818C49.4619 81.9481 50.9279 85.667 50.7906 88.0631C50.6534 90.4591 54.783 93.5166 54.783 93.5166C54.783 93.5166 61.832 105.753 63.5599 107.082C65.2879 108.411 65.6871 109.609 66.2173 111.874C66.7476 114.139 71.4012 115.998 73.3974 115.861C75.3935 115.724 77.764 116.529 77.764 117.59C77.764 118.444 79.7165 118.869 81.3197 119.006C81.7938 125.826 82.2616 134.761 82.4924 140.82Z" fill="black"/>
<path opacity="0.04" d="M82.4174 138.873C81.1697 139.073 79.9721 139.254 78.8492 139.404C70.7397 140.471 51.4578 130.893 51.4578 130.893C51.4578 130.893 27.9216 111.206 21.1409 92.5868C14.3601 73.9673 29.2503 71.1719 29.2503 71.1719C34.8646 67.9771 47.0663 76.8875 48.7942 78.3539C50.5221 79.8202 51.9881 83.5391 51.8571 85.9352C51.7261 88.3312 55.8432 91.3887 55.8432 91.3887C55.8432 91.3887 62.8922 103.625 64.6202 104.954C66.3481 106.283 66.7473 107.481 67.2838 109.746C67.8203 112.011 72.4676 113.864 74.4638 113.733C76.46 113.602 78.8305 114.401 78.8305 115.462C78.8305 116.086 79.9409 116.504 81.176 116.71C81.2259 117.434 81.2696 118.201 81.3257 119C81.7374 125.133 82.1616 132.958 82.4174 138.873Z" fill="black"/>
<path opacity="0.1" d="M113.269 125.473L112.763 137.428H112.221L111.098 136.804L111.235 126.502C111.89 126.117 112.57 125.773 113.269 125.473Z" fill="black"/>
<path d="M28.1839 72.2314C28.1839 72.2314 13.2937 75.0268 20.0744 93.6462C26.8552 112.266 50.3914 131.958 50.3914 131.958C50.3914 131.958 69.6733 141.53 77.789 140.469C85.9047 139.409 98.2623 136.613 99.8592 137.013C101.456 137.412 112.229 137.412 112.229 137.412L112.76 124.932L100.283 124.265L93.9018 122.936C93.9018 122.936 91.6375 121.064 90.3088 121.338C88.98 121.613 86.1916 119.741 86.1916 119.741C86.1916 119.741 84.0582 118.012 82.4488 118.012C80.8394 118.012 77.7952 117.613 77.7952 116.552C77.7952 115.492 75.3998 114.68 73.4286 114.824C71.4573 114.967 66.7476 113.096 66.1986 110.806C65.6497 108.516 65.2692 107.349 63.5412 106.02C61.8133 104.691 54.7643 92.4482 54.7643 92.4482C54.7643 92.4482 50.6409 89.3907 50.7719 87.0009C50.9029 84.611 49.4432 80.8797 47.7153 79.4133C45.9873 77.947 33.7607 69.0429 28.1839 72.2314Z" fill="#E6E6FF"/>
<path opacity="0.04" d="M66.4873 115.055C66.4873 115.055 60.767 120.777 62.2267 121.837L66.4873 115.055Z" fill="black"/>
<path opacity="0.04" d="M72.5966 119.59C72.5966 119.59 65.1484 125.312 67.1446 125.711C69.1407 126.11 72.5966 119.59 72.5966 119.59Z" fill="black"/>
<path opacity="0.04" d="M59.9609 128.07C61.0276 128.607 76.8473 138.054 82.8359 137.917L59.9609 128.07Z" fill="black"/>
<path opacity="0.1" d="M61.0358 64.9244C61.0358 64.9244 58.2411 74.1031 57.1744 74.1031C56.3385 74.1031 42.3029 62.7342 36.4453 57.9545L36.7011 57.7424C36.7011 57.7424 37.2313 53.6179 39.3585 51.5026C41.4857 49.3873 61.0358 64.9244 61.0358 64.9244Z" fill="black"/>
<path d="M60.5044 63.8501C60.5044 63.8501 57.716 73.0289 56.6493 73.0289C55.8072 73.0289 41.7716 61.66 35.9141 56.8803L36.1698 56.6682C36.1698 56.6682 36.7063 52.5437 38.8335 50.4284C40.9606 48.3131 60.5044 63.8501 60.5044 63.8501Z" fill="#E6E6FF"/>
<g opacity="0.15">
<path opacity="0.15" d="M22.8398 34.1924C24.7113 38.4666 29.8639 40.5382 32.8519 43.9451C31.0741 39.7582 25.8778 37.7053 22.8398 34.1924Z" fill="black"/>
<path opacity="0.15" d="M41.9077 44.0363C41.1654 45.4652 39.4125 46.1578 37.8155 46.1266C36.3958 46.0247 35.0057 45.6697 33.7109 45.0783C34.1807 45.771 34.5385 46.5332 34.7714 47.3371C36.2277 48.0372 37.8015 48.4604 39.4125 48.5851C41.0281 48.6225 42.7623 47.9299 43.5046 46.4948C44.6961 44.2172 43.4547 42.2704 42.0012 40.4297C42.2721 40.9953 42.4049 41.6172 42.3887 42.2442C42.3724 42.8713 42.2075 43.4854 41.9077 44.0363Z" fill="black"/>
<path opacity="0.15" d="M65.056 12.7604C64.7878 11.5624 63.877 10.6202 63.4091 9.49079C63.1226 8.61692 62.8954 7.72467 62.7292 6.82016C62.3747 5.54117 61.7179 4.36624 60.8141 3.39453C60.9397 3.70166 61.0459 4.01634 61.1322 4.33673C61.3071 5.24523 61.5404 6.14147 61.8309 7.01984C62.2988 8.14924 63.2095 9.09144 63.4778 10.2895C63.6359 11.1358 63.4659 12.0106 63.0024 12.7361C62.539 13.4617 61.8168 13.9835 60.9825 14.1956C58.6745 14.701 56.042 12.7043 54.0583 13.9897C52.8419 14.7696 52.5611 16.3982 52.399 17.8334C52.1203 20.3293 51.8375 22.8106 51.5506 25.2774C51.4943 26.1525 51.3093 27.0146 51.0016 27.8357C50.0223 30.082 47.3336 31.1366 44.8821 31.0991C43.9242 31.1631 42.9793 30.8496 42.2496 30.2255C41.8949 29.7232 41.5139 29.2399 41.108 28.7779C37.989 26.1572 37.0408 32.5655 37.8642 34.3937C38.2766 35.2161 38.7877 35.9852 39.3863 36.6837C38.7001 34.6246 39.6608 28.6968 42.705 31.2364C43.1107 31.6969 43.4898 32.1802 43.8403 32.684C44.5729 33.3072 45.5194 33.6206 46.479 33.5576C48.9306 33.595 51.6192 32.5405 52.5986 30.2942C52.9068 29.471 53.0918 28.6069 53.1475 27.7296C53.4303 25.2337 53.7131 22.7545 53.9959 20.2918C54.1581 18.8567 54.4388 17.2281 55.649 16.4481C57.6389 15.1627 60.2714 17.1595 62.5795 16.6478C63.4072 16.4332 64.1229 15.9128 64.5824 15.1915C65.0419 14.4702 65.2111 13.6015 65.056 12.7604Z" fill="black"/>
</g>
<path opacity="0.1" d="M203.175 52.6215C202.511 52.7453 201.829 52.7283 201.172 52.5716C198.66 52.064 196.398 50.712 194.76 48.7404C193.855 47.6422 193.144 46.1446 193.693 44.8343C194.13 43.7798 195.277 43.1183 195.564 42.0201C195.694 41.3498 195.658 40.6578 195.458 40.0047L194.785 36.9285C194.591 36.0549 194.254 35.0254 193.387 34.8194C192.52 34.6135 191.797 35.3249 191.117 35.8615C189.451 37.1781 186.251 38.0766 184.255 36.9909C182.259 35.9052 182.814 32.2986 182.489 30.3455C182.484 30.177 182.442 30.0117 182.367 29.8609C182.291 29.7101 182.184 29.5774 182.053 29.472C181.76 29.3702 181.446 29.3465 181.142 29.4033C180.063 29.4033 179.202 28.4362 178.884 27.4004C178.668 26.3423 178.549 25.2667 178.528 24.1869C178.403 23.1137 178.017 21.9655 177.087 21.4102C176.354 21.065 175.542 20.9249 174.735 21.0046L170.107 21.0545C168.965 21.0545 167.612 20.9796 166.988 20.0312C166.364 19.0828 166.826 17.735 167.481 16.7678C168.136 15.8006 168.965 14.8397 169.021 13.6479C169.077 12.4561 168.304 11.4266 167.674 10.4282C167.313 9.88224 167.047 9.27877 166.888 8.64362L165.559 8.5625C165.041 9.62326 165.559 10.8899 166.183 11.8945C166.807 12.8991 167.587 13.9287 167.53 15.108C167.474 16.2873 166.645 17.2358 165.99 18.2279C165.335 19.22 164.854 20.5179 165.503 21.4913C166.152 22.4647 167.468 22.5333 168.622 22.5209L173.251 22.4647C174.057 22.3866 174.87 22.5289 175.603 22.8765C176.532 23.4319 176.925 24.58 177.044 25.6532C177.063 26.7334 177.184 27.8093 177.405 28.8667C177.717 29.8963 178.584 30.8822 179.664 30.8634C179.966 30.8099 180.277 30.8335 180.568 30.9321C180.7 31.0384 180.807 31.1722 180.883 31.3241C180.958 31.476 181 31.6424 181.005 31.8119C181.329 33.7587 180.73 37.3715 182.77 38.4572C184.81 39.543 187.991 38.6444 189.632 37.3278C190.312 36.7912 191.067 36.0799 191.909 36.2796C192.751 36.4792 193.113 37.5275 193.3 38.3886L193.98 41.471C194.177 42.1246 194.212 42.8166 194.08 43.4865C193.768 44.5785 192.614 45.2461 192.177 46.2944C191.634 47.6047 192.339 49.1085 193.244 50.2005C194.893 52.1807 197.172 53.5334 199.7 54.0317C200.357 54.1884 201.039 54.2054 201.703 54.0816C202.775 53.7547 203.695 53.0554 204.298 52.1099C203.957 52.3462 203.577 52.5195 203.175 52.6215Z" fill="black"/>
<defs>
<linearGradient id="paint0_linear" x1="119.514" y1="363.06" x2="119.514" y2="1.94621" gradientUnits="userSpaceOnUse">
<stop stop-color="#808080" stop-opacity="0.25"/>
<stop offset="0.54" stop-color="#808080" stop-opacity="0.12"/>
<stop offset="1" stop-color="#808080" stop-opacity="0.1"/>
</linearGradient>
</defs>
</svg>
