<svg width="24" height="24" viewBox="0 0 24 24" fill="none" xmlns="http://www.w3.org/2000/svg">
<path d="M24 0H0V24H24V0Z" fill="#102886"/>
<path d="M6.98606 5.45313C7.81914 5.4538 8.50622 6.14188 8.50442 6.97911C8.50243 7.85577 7.77491 8.51651 6.9758 8.49748C6.16527 8.51388 5.45297 7.8369 5.45313 6.97333C5.45313 6.13578 6.14288 5.45249 6.98606 5.45313Z" fill="white"/>
<path d="M7.8723 18.1136H6.0874C5.85575 18.1136 5.66797 17.9258 5.66797 17.6942V10.0797C5.66797 9.84806 5.85575 9.66028 6.0874 9.66028H7.8723C8.10395 9.66028 8.29173 9.84806 8.29173 10.0797V17.6942C8.29169 17.9258 8.10395 18.1136 7.8723 18.1136Z" fill="white"/>
<path d="M18.146 12.3357C18.146 10.7394 16.8519 9.44531 15.2556 9.44531H14.7978C13.9244 9.44531 13.1529 9.88107 12.6888 10.5471C12.6382 10.6197 12.5913 10.6951 12.5483 10.7729C12.5334 10.7707 12.5246 10.7695 12.5244 10.7699V9.83529C12.5244 9.73914 12.4464 9.66116 12.3502 9.66116H10.1234C10.0272 9.66116 9.94922 9.7391 9.94922 9.83529V17.9405C9.94922 18.0366 10.0271 18.1146 10.1233 18.1146L12.3987 18.1152C12.4949 18.1152 12.5729 18.0372 12.5729 17.941V13.2584C12.5729 12.449 13.2184 11.777 14.0278 11.7678C14.441 11.7632 14.8155 11.9287 15.0855 12.1988C15.3519 12.4651 15.5166 12.8332 15.5166 13.2397V17.9416C15.5166 18.0378 15.5946 18.1157 15.6907 18.1158L17.9717 18.1163C18.0679 18.1164 18.1459 18.0384 18.1459 17.9422V12.3357H18.146Z" fill="white"/>
</svg>
