<svg width="24" height="24" viewBox="0 0 24 24" fill="none" xmlns="http://www.w3.org/2000/svg">
<path d="M24 0H0V24H24V0Z" fill="#102886"/>
<path d="M17.6211 8H7.12109C6.70709 8 6.37109 8.36151 6.37109 8.80694V9.26609L12.3711 12L18.3711 9.26528V8.80694C18.3711 8.36151 18.0351 8 17.6211 8Z" fill="white"/>
<path d="M12.5287 13.0481C12.4793 13.0707 12.426 13.0817 12.3734 13.0817C12.3208 13.0817 12.2674 13.0707 12.218 13.0481L6 10.2715V16.4421C6 16.9058 6.35691 17.2822 6.79667 17.2822H17.9501C18.3899 17.2822 18.7468 16.9058 18.7468 16.4421V10.2715L12.5287 13.0481Z" fill="white"/>
</svg>
