<svg width="560" height="564" viewBox="0 0 560 564" fill="none" xmlns="http://www.w3.org/2000/svg">
<circle opacity="0.7" cx="389.651" cy="171.803" r="55.3311" transform="rotate(-120.802 389.651 171.803)" stroke="#324FC5" stroke-width="0.3" stroke-dasharray="1.99 1.99"/>
<circle opacity="0.7" cx="402.536" cy="154.824" r="77.2182" transform="rotate(-120.802 402.536 154.824)" stroke="#324FC5" stroke-width="0.3" stroke-dasharray="1.99 1.99"/>
<path fill-rule="evenodd" clip-rule="evenodd" d="M91.0749 205.624C123.371 178.17 155.146 171.128 194.397 154.024C233.648 136.92 244.97 75.2947 287.834 66.1447C333.531 56.3898 384.267 89.5115 405.911 134.869C427.556 180.226 413.506 204.641 418.881 250.517C423.311 288.325 464.56 302.245 462.935 367.484C461.311 432.722 440.318 451.696 400.984 473.999C361.65 496.302 322.399 469.751 258.399 465.818C194.398 461.885 164.469 477.158 127.118 451.351C88.0663 424.369 61.0507 380.099 54.1619 333.135C47.579 288.256 58.7793 233.079 91.0749 205.624Z" fill="#F3F6FD"/>
<path d="M299.696 463.183C368.668 463.183 424.581 453.498 424.581 441.55C424.581 429.602 368.668 419.916 299.696 419.916C230.724 419.916 174.812 429.602 174.812 441.55C174.812 453.498 230.724 463.183 299.696 463.183Z" fill="#EEF2FB"/>
<path d="M333.124 172.363C333.124 172.363 328.433 163.105 329.066 160.353C329.699 157.601 325.766 151.723 325.766 151.723L326.02 141.971C326.02 141.971 325.477 142.969 322.645 143.841C322.406 143.527 322.147 143.218 321.878 142.924C320.852 141.856 319.712 140.904 318.478 140.087L313.493 129.328L308.672 121.945C308.672 121.945 301.07 106.49 293.218 103.08L291.982 100.662C292.023 100.638 292.053 100.6 292.067 100.555C292.08 100.509 292.077 100.461 292.057 100.418L290.8 97.9601C290.778 97.9176 290.741 97.8849 290.695 97.8684C290.65 97.8518 290.601 97.8525 290.556 97.8704L289.355 95.5173C288.896 92.4678 287.698 89.577 285.865 87.0969C285.741 86.9224 285.606 86.7629 285.476 86.5984L287.43 86.5286C289.145 86.4638 291.06 86.3142 292.211 85.0329C292.624 84.5554 292.928 83.9941 293.104 83.3877C293.252 82.9125 293.349 82.4228 293.393 81.927C293.393 81.8522 293.393 81.7775 293.393 81.7077C293.393 81.5382 293.393 81.372 293.393 81.2091C293.393 81.0745 293.393 80.9449 293.393 80.8103C293.393 80.6757 293.393 80.5959 293.393 80.4912C293.393 80.3865 293.338 80.1472 293.308 79.9927C293.308 79.9279 293.308 79.863 293.268 79.7982C293.226 79.6029 293.175 79.4099 293.114 79.2199C293.099 79.1827 293.087 79.1443 293.079 79.1053C293.009 78.9058 292.934 78.7064 292.849 78.512C292.836 78.4864 292.824 78.4597 292.814 78.4322C292.725 78.2378 292.625 78.0484 292.52 77.8639L292.49 77.8041C292.454 77.7267 292.412 77.6518 292.366 77.5797C291.015 75.4559 288.642 74.2146 286.384 73.0928C284.276 71.9848 282.113 70.9864 279.903 70.1016C271.685 67.0194 262.607 67.1476 254.479 70.4605C253.676 70.7645 252.915 71.17 252.215 71.667C251.24 72.4928 250.406 73.473 249.748 74.5685L245.884 80.2768C245.344 80.9712 244.922 81.7493 244.633 82.5801C243.91 85.2922 246.178 88.0092 245.924 90.8061C245.795 92.197 245.047 93.4733 244.902 94.8642C244.718 96.6589 245.55 98.3889 246.363 100.009L251.891 110.977C251.597 112.418 251.273 113.894 250.919 115.319C248.372 117.952 247.514 119.387 247.28 120.165L247.205 120.205C246.701 120.531 246.267 120.955 245.929 121.451L240.675 126.557C240.675 126.557 231.542 128.93 229.643 131.936C229.643 131.936 215.311 131.308 215.435 151.324C215.435 151.324 214.802 158.832 214.438 159.834C214.074 160.836 214.438 170.967 214.438 170.967L214.269 191.487C214.269 191.487 213.72 202.37 214.269 206.249C214.817 210.127 215.45 224.889 215.45 224.889C215.45 224.889 218.875 239.277 217.609 244.407C216.392 249.318 217.609 260.056 219.603 260.101C219.982 260.884 220.415 261.268 220.889 261.048C221.095 260.959 221.306 260.882 221.522 260.819V273.078C221.522 273.078 219.054 290.253 221.821 293.518C219.987 296.131 217.833 300.588 217.285 301.759L197.892 300.717L195.425 301.41L193.162 302.043L191.791 333.586L192.339 333.626L192.299 334.588L193.595 334.683L191.791 366.45L218.636 368.659C217.454 371.306 216.083 374.143 215.55 374.417C214.553 374.915 212.379 373.42 211.871 374.038C211.362 374.656 209.842 375.414 208.067 375.035C206.292 374.656 205.151 376.66 205.151 376.66C205.151 376.66 205.41 376.89 205.799 377.313C202.917 376.964 199.273 378.51 197.294 379.507C196.407 379.956 195.854 380.29 195.854 380.29H190.619L193.496 398.641L195.525 400.027L196.023 414.485C196.023 414.485 204.139 439.507 207.858 439.342C208.099 439.333 208.336 439.273 208.552 439.164C208.768 439.056 208.958 438.902 209.109 438.714C211.103 436.411 209.722 428.499 209.722 428.499V415.327C209.722 415.327 212.763 413.991 212.424 412.989C212.085 411.987 217.33 401.024 217.798 400.027C217.812 400.019 217.822 400.007 217.829 399.993C217.836 399.979 217.839 399.963 217.838 399.947C217.838 398.82 220.121 397.569 219.992 397.071C219.862 396.572 225.575 393.441 225.974 390.689C226.373 387.937 230.156 389.438 230.156 389.438L234.972 383.904C235.116 390.649 235.391 395.371 235.864 396.567C238.147 402.325 239.035 411.334 239.035 411.334C239.035 411.334 237.639 418.214 239.035 420.467C239.892 421.843 241.886 423.319 243.272 424.54C241.831 428.908 242.036 438.19 242.036 438.19V443.525L252.689 446.516C252.689 446.516 253.023 443.849 253.532 443.849C254.04 443.849 260.805 449.019 260.805 449.019C260.805 449.019 286.847 449.353 293.438 449.019C295.93 448.894 296.608 447.822 296.224 446.526C295.591 444.367 292.037 441.57 288.876 441.356C283.801 441.022 277.375 435.688 277.375 435.688C277.375 435.688 277.874 434.516 275.177 432.851C273.313 431.704 268.153 427.063 264.962 424.346C265.112 424.141 265.267 423.937 265.411 423.718C265.411 423.718 261.099 417.735 261.991 415.083C262.884 412.431 261.607 408.602 261.607 408.602C261.607 408.602 259.2 401.218 259.2 397.464C259.2 395.086 258.841 381.561 258.581 371.969L260.805 372.153L260.85 371.196L261.847 371.286L271.274 372.153L270.984 362.078C275.526 360.084 279.305 358.234 280.87 357.053C286.194 353.064 290.761 352.8 290.761 352.8C290.761 352.8 301.538 347.047 303.188 344.669C304.839 342.291 304.684 325.026 304.684 325.026L303.797 288.024V287.995C303.797 287.995 303.039 270.107 301.513 266.228C300.955 264.792 299.574 260.006 298.064 254.542C298.932 254.453 299.808 254.49 300.666 254.652C300.721 255.988 300.756 256.905 300.756 257.219C300.756 259.343 303.797 261.148 303.797 261.148L301.643 213.288V180.728C308.283 182.842 324.34 183.5 324.34 183.5C335.911 182.892 333.124 172.363 333.124 172.363ZM270.491 131.243H270.456C270.692 129.988 271 128.748 271.378 127.529L270.491 131.243ZM226.911 295.398C230.844 296.046 235.386 295.857 235.73 295.094C235.765 295.019 235.809 294.884 235.869 294.71C235.994 294.929 236.113 295.154 236.238 295.383L235.854 302.602V302.766L222.893 302.068C223.8 298.205 225.515 296.32 226.911 295.398ZM270.117 331.821L269.783 320.131C270.361 317.977 270.88 316.023 271.323 314.347C271.523 315.738 271.692 317.02 271.822 318.201C273.048 329.294 271.239 331.457 270.117 331.821ZM307.007 156.544C306.264 156.828 303.438 155.048 300.756 153.204C300.756 152.865 300.781 152.531 300.796 152.207C301.174 144.574 288.747 139.823 284.943 138.945C284.02 138.707 283.124 138.373 282.271 137.948C280.244 136.944 278.274 135.831 276.368 134.613L276.418 134.468C276.418 134.468 271.513 131.362 271.408 127.489C272.526 123.965 273.937 120.542 275.626 117.254C275.72 117.059 275.825 116.855 275.925 116.66C278.243 115.939 280.407 114.793 282.306 113.28C283.068 123.251 297.495 131.831 297.495 131.831L299.036 134.324L299.4 134.912C298.622 135.371 298.248 135.74 298.512 135.954C299.609 136.831 302.261 141.797 303.358 143.896C303.657 144.464 303.856 144.818 303.856 144.818C303.856 144.818 306.214 151.234 307.565 156.604C307.386 156.529 307.188 156.508 306.997 156.544H307.007Z" fill="url(#paint0_linear)"/>
<path d="M312.584 130.686L312.415 130.91L311.836 131.683L300.744 139.52L298.391 135.651L296.896 133.159C296.896 133.159 274.787 119.897 284.293 107.115C293.8 94.3322 307.848 123.317 307.848 123.317L312.584 130.686Z" fill="#FFC5D3"/>
<path d="M290.278 99.4627C290.231 99.3693 290.117 99.3317 290.024 99.3787C289.93 99.4257 289.893 99.5396 289.94 99.633L291.173 102.082C291.22 102.175 291.334 102.213 291.427 102.166C291.52 102.119 291.558 102.005 291.511 101.911L290.278 99.4627Z" fill="#3A3768"/>
<path d="M277.619 102.883L277.615 102.885C277.563 102.911 277.543 102.974 277.569 103.026L277.936 103.755C277.962 103.807 278.025 103.828 278.077 103.802L278.081 103.799C278.133 103.773 278.153 103.711 278.127 103.659L277.76 102.929C277.734 102.878 277.671 102.857 277.619 102.883Z" fill="#3A3768"/>
<path d="M278.627 104.616C278.597 104.557 278.525 104.533 278.466 104.563C278.407 104.593 278.383 104.665 278.413 104.723L279.11 106.107C279.14 106.166 279.212 106.19 279.271 106.16C279.33 106.131 279.353 106.059 279.324 106L278.627 104.616Z" fill="#3A3768"/>
<path d="M279.703 106.77C279.674 106.713 279.605 106.69 279.549 106.719C279.492 106.747 279.469 106.816 279.498 106.873L280.206 108.279C280.234 108.335 280.303 108.358 280.36 108.33C280.416 108.301 280.439 108.232 280.411 108.176L279.703 106.77Z" fill="#3A3768"/>
<path d="M286.409 94.6484L277.095 99.3395C276.544 99.6169 276.323 100.288 276.6 100.839L287.17 121.829C287.447 122.38 288.119 122.602 288.67 122.324L297.984 117.633C298.535 117.356 298.756 116.684 298.479 116.133L287.909 95.1436C287.632 94.5927 286.96 94.371 286.409 94.6484Z" fill="#3A3768"/>
<path d="M285.216 95.9803C285.162 96.0067 285.115 96.0435 285.076 96.0886C285.037 96.1336 285.007 96.1859 284.988 96.2426C284.97 96.2992 284.963 96.3589 284.967 96.4183C284.972 96.4777 284.989 96.5356 285.016 96.5885L285.056 96.6732C285.084 96.7265 285.1 96.7847 285.105 96.8445C285.11 96.9043 285.103 96.9644 285.084 97.0214C285.066 97.0785 285.036 97.1312 284.997 97.1767C284.958 97.2222 284.91 97.2595 284.857 97.2864L280.061 99.6994C280.008 99.7268 279.95 99.7433 279.891 99.7481C279.831 99.7529 279.772 99.7458 279.715 99.7272C279.658 99.7086 279.606 99.679 279.561 99.64C279.516 99.601 279.479 99.5534 279.453 99.5L279.408 99.4152C279.381 99.3619 279.345 99.3142 279.3 99.2751C279.255 99.2359 279.203 99.206 279.146 99.187C279.09 99.1681 279.03 99.1604 278.971 99.1645C278.911 99.1685 278.853 99.1843 278.8 99.2108L277.867 99.6844C277.765 99.7347 277.674 99.8049 277.599 99.8908C277.525 99.9767 277.468 100.077 277.432 100.185C277.396 100.293 277.382 100.407 277.391 100.521C277.4 100.634 277.432 100.745 277.484 100.846L287.673 121.072C287.778 121.277 287.959 121.432 288.178 121.504C288.396 121.576 288.634 121.558 288.84 121.456L297.205 117.243C297.41 117.139 297.565 116.957 297.637 116.739C297.709 116.52 297.691 116.282 297.589 116.077L287.394 95.8407C287.343 95.7388 287.272 95.648 287.185 95.5735C287.099 95.4991 286.999 95.4424 286.89 95.4067C286.782 95.3711 286.668 95.3572 286.554 95.3657C286.44 95.3743 286.329 95.4053 286.228 95.4568L285.216 95.9803Z" fill="#969BA5"/>
<path d="M292.394 173.56L289.278 257.176C289.278 257.176 299.747 253.686 301.367 256.303C302.987 258.921 299.623 214.426 299.623 214.426L292.394 173.56Z" fill="#5F5570"/>
<path opacity="0.15" d="M292.394 173.56L289.278 257.176C289.278 257.176 299.747 253.686 301.367 256.303C302.987 258.921 299.623 214.426 299.623 214.426L292.394 173.56Z" fill="black"/>
<path d="M292.896 449.171C286.415 449.505 260.826 449.171 260.826 449.171C260.826 449.171 254.176 444.021 253.678 444.021C253.179 444.021 252.85 446.678 252.85 446.678L242.381 443.687V438.372C242.381 438.372 242.047 423.242 245.203 422.583C248.358 421.925 262.322 422.583 262.322 422.583C262.82 422.419 272.292 431.393 274.949 433.053C277.606 434.713 277.108 435.88 277.108 435.88C277.108 435.88 283.424 441.194 288.409 441.528C291.515 441.737 295.009 444.519 295.633 446.678C296.011 447.979 295.338 449.046 292.896 449.171Z" fill="#BC8487"/>
<path opacity="0.1" d="M292.89 449.17C286.41 449.504 260.821 449.17 260.821 449.17C260.821 449.17 254.171 444.02 253.672 444.02C253.174 444.02 252.845 446.678 252.845 446.678L242.376 443.686V438.477L252.177 442.026L259.988 446.678H295.627C296.006 447.979 295.333 449.046 292.89 449.17Z" fill="black"/>
<g opacity="0.1">
<path d="M263.796 441.366C263.796 441.366 271.772 433.723 277.106 435.882L263.796 441.366Z" fill="black"/>
<path d="M263.796 441.366C263.796 441.366 271.772 433.723 277.106 435.882" stroke="black" stroke-width="1.09913" stroke-miterlimit="10"/>
</g>
<path d="M213.304 413.277C213.638 414.274 210.647 415.605 210.647 415.605V428.731C210.647 428.731 212.003 436.613 210.044 438.912C209.897 439.098 209.711 439.25 209.499 439.358C209.288 439.466 209.055 439.526 208.818 439.535C205.164 439.699 197.187 414.772 197.187 414.772L196.689 400.369L194.695 398.988L191.868 380.707H197.023C197.023 380.707 197.566 380.373 198.439 379.924C200.931 378.653 206.151 376.434 208.987 378.548L218.623 400.26C218.623 400.26 212.975 412.279 213.304 413.277Z" fill="#BC8487"/>
<path opacity="0.1" d="M210.032 438.914C209.885 439.101 209.699 439.253 209.488 439.361C209.276 439.468 209.043 439.529 208.806 439.537C205.152 439.702 197.176 414.775 197.176 414.775L196.677 400.372L194.683 398.991L191.856 380.709H197.011C197.011 380.709 197.554 380.375 198.427 379.927L199.668 398.657L200.331 414.775C200.331 414.775 206.593 432.324 210.032 438.914Z" fill="black"/>
<path d="M302.494 345.182C300.874 347.55 290.28 353.283 290.28 353.283C290.28 353.283 285.794 353.532 280.559 357.52C277.852 359.584 268.446 363.677 259.996 367.152C252.104 370.398 245.04 373.1 245.04 373.1L236.905 382.572L230.708 389.786C230.708 389.786 226.969 388.291 226.595 391.032C226.221 393.774 220.613 396.89 220.738 397.389C220.862 397.887 218.619 399.134 218.619 400.256C218.619 401.377 210.269 392.154 210.394 386.546C210.518 380.937 206.156 377.073 206.156 377.073C206.156 377.073 207.278 375.079 209.023 375.453C210.768 375.827 212.263 375.079 212.762 374.456C213.26 373.833 215.379 375.328 216.376 374.83C217.373 374.331 221.361 364.485 221.361 364.485L236.9 354.061L267.807 333.341L269.233 332.384C269.233 332.384 273.346 334.268 271.676 318.829C271.352 315.837 270.808 312.203 269.981 307.776C264.871 280.481 283.192 277.365 283.192 277.365L299.269 282.724L303.132 288.707V288.737L304.005 325.599C304.005 325.599 304.114 342.813 302.494 345.182Z" fill="#433A59"/>
<path opacity="0.1" d="M259.864 362.634C259.864 362.634 259.914 364.403 259.989 367.155C252.097 370.401 245.033 373.103 245.033 373.103L236.898 382.575C236.763 374.723 236.793 364.523 236.898 354.069L267.806 333.349C263.982 347.523 259.864 362.634 259.864 362.634Z" fill="black"/>
<path opacity="0.1" d="M303.119 288.725V288.755L278.941 289.224C278.941 289.224 274.704 305.8 274.081 309.29C273.926 310.147 272.989 313.812 271.663 318.847C271.339 315.856 270.796 312.221 269.968 307.794C264.858 280.499 283.179 277.383 283.179 277.383L299.256 282.743L303.119 288.725Z" fill="black"/>
<path d="M239.43 243.482L236.314 303.308C236.314 303.308 234.071 391.176 236.314 396.909C238.558 402.642 239.43 411.616 239.43 411.616C239.43 411.616 238.059 418.471 239.43 420.714C240.801 422.958 245.163 425.45 245.038 426.697C244.914 427.943 258.374 434.673 265.353 423.955C265.353 423.955 261.115 417.972 261.988 415.355C262.86 412.738 261.614 408.874 261.614 408.874C261.614 408.874 259.246 401.52 259.246 397.766C259.246 394.012 258.374 362.619 258.374 362.619C258.374 362.619 271.958 312.765 272.581 309.275C273.204 305.785 277.442 289.209 277.442 289.209L303.115 288.71C303.115 288.71 302.367 270.887 300.872 267.024C299.376 263.16 292.023 234.868 292.023 234.868L239.43 243.482Z" fill="#433A59"/>
<path d="M196.59 302.13L194.361 302.768L194.271 304.972L261.082 305.834V304.967L196.59 302.13Z" fill="#7B728F"/>
<path d="M275.39 118.654C265.669 138.372 271.706 142.495 272.668 143.003C270.609 142.046 243.849 129.473 247.368 126.282C249.657 124.203 251.616 115.16 252.767 108.679C253.45 104.81 253.849 101.854 253.849 101.854L281.93 107.003C279.208 111.391 277.045 115.254 275.39 118.654Z" fill="#FFC5D3"/>
<path opacity="0.1" d="M312.435 130.914L311.856 131.687L300.745 139.524L298.392 135.655C301.816 133.661 312.086 130.171 312.086 130.171L312.435 130.914Z" fill="black"/>
<path d="M322.683 148.884C321.686 152.374 304.861 148.884 304.861 148.884L303.116 146.142C303.116 146.142 302.942 145.793 302.647 145.225C301.571 143.136 298.963 138.19 297.887 137.313C296.516 136.191 312.593 130.707 312.593 130.707L317.518 141.426C318.732 142.242 319.852 143.19 320.858 144.252C322.104 145.603 323.136 147.294 322.683 148.884Z" fill="#E5E8EF"/>
<path d="M294.764 150.487C294.764 150.487 304.734 158.354 306.229 157.785C307.725 157.217 331.903 173.544 331.903 173.544C331.903 173.544 334.645 184.014 323.304 184.637C323.304 184.637 299.25 183.64 298.253 180.15C297.256 176.66 294.764 150.487 294.764 150.487Z" fill="#5F5570"/>
<path opacity="0.1" d="M267.596 134.673L256.753 145.89L271.958 242.608L277.94 239.118C277.94 239.118 293.394 245.973 294.64 239.616C295.886 233.26 295.542 208.208 295.542 208.208L293.518 162.95C293.518 162.95 286.414 147.122 286.414 146.623C286.414 146.125 276.17 138.397 276.17 138.397L271.334 134.658L267.596 134.673Z" fill="black"/>
<path d="M267.596 133.179L256.753 144.396L271.958 241.113L277.94 237.624C277.94 237.624 293.394 244.479 294.64 238.122C295.886 231.766 295.542 206.714 295.542 206.714L293.518 161.456C293.518 161.456 286.414 145.628 286.414 145.129C286.414 144.631 276.17 136.903 276.17 136.903L271.334 133.164L267.596 133.179Z" fill="#E5E8EF"/>
<path opacity="0.1" d="M268.224 134.803L265.232 140.91L268.224 144.066C268.224 144.066 278.942 165.713 276.823 178.55L279.066 220.802L286.295 227.906L292.028 221.285L289.286 182.898C289.286 182.898 281.933 151.24 274.206 141.394L271.962 132.669L268.224 134.803Z" fill="black"/>
<path d="M268.224 133.804L265.232 139.911L268.224 143.067C268.224 143.067 278.942 164.713 276.823 177.551L279.066 219.802L286.295 226.906L292.028 220.286L289.286 181.898C289.286 181.898 281.933 150.241 274.206 140.394L271.962 131.67L268.224 133.804Z" fill="#BC8487"/>
<path opacity="0.1" d="M281.928 107.008C279.206 111.395 277.062 115.259 275.387 118.659C273.623 119.179 271.793 119.443 269.953 119.442C263.792 119.442 260.242 115.179 256.753 110.652C255.955 109.625 253.333 109.865 252.765 108.658C253.448 104.789 253.846 101.833 253.846 101.833L281.928 107.008Z" fill="black"/>
<path d="M289.06 99.8255C289.06 104.377 287.435 108.778 284.479 112.238C281.523 115.698 277.429 117.989 272.934 118.699C268.439 119.41 263.838 118.492 259.959 116.112C256.08 113.732 253.178 110.046 251.775 105.717C250.372 101.388 250.559 96.6996 252.305 92.4965C254.05 88.2934 257.238 84.8512 261.294 82.7892C265.351 80.7273 270.011 80.181 274.435 81.2487C278.858 82.3163 282.756 84.9278 285.426 88.6133C287.788 91.8744 289.06 95.7985 289.06 99.8255Z" fill="#FFC5D3"/>
<path opacity="0.1" d="M263.854 142.402L248.151 123.457C248.151 123.457 246.7 122.874 251.601 117.744C251.601 117.744 269.597 131.773 270.714 134.156C271.83 136.539 263.854 142.402 263.854 142.402Z" fill="black"/>
<path d="M263.355 141.403L247.652 122.458C247.652 122.458 246.201 121.875 251.102 116.745C251.102 116.745 269.098 130.774 270.215 133.157C271.331 135.54 263.355 141.403 263.355 141.403Z" fill="#E5E8EF"/>
<path d="M303.118 261.978C303.118 261.978 300.127 260.183 300.127 258.065C300.127 255.946 298.632 226.033 298.632 226.033C298.632 226.033 296.438 208.18 294.145 193.992C292.799 185.631 291.418 178.537 290.441 177.131L290.401 177.071C287.784 173.706 288.282 157.254 271.956 133.2C272.175 133.349 277.804 137.298 281.926 139.282C282.765 139.704 283.646 140.038 284.553 140.279C288.292 141.151 300.506 145.888 300.132 153.49C299.758 161.093 301.004 178.542 301.004 178.542V214.303L303.118 261.978Z" fill="#5F5570"/>
<path d="M303.112 146.147C303.112 146.147 308.347 160.604 307.599 164.219C306.851 167.833 319.688 182.042 319.688 182.042L331.901 173.567C331.901 173.567 327.29 164.343 327.913 161.601C328.536 158.86 324.673 153.002 324.673 153.002L324.922 143.29C324.922 143.29 322.679 147.503 303.112 146.147Z" fill="#5F5570"/>
<path opacity="0.1" d="M285.434 88.6204L275.963 88.9794C275.038 88.9733 274.116 89.089 273.221 89.3234C269.836 90.3653 268.276 93.9648 268.151 97.2003C268.026 100.436 266.157 104.06 262.533 104.344C262.172 104.406 261.802 104.323 261.501 104.115C261.271 103.871 261.118 103.564 261.062 103.233C260.542 101.347 259.739 99.552 258.679 97.9083C257.184 98.1775 256.077 99.5983 255.688 101.084C255.299 102.57 255.404 104.135 255.409 105.676C255.413 107.632 255.225 109.584 254.846 111.504C253.3 109.497 252.169 107.204 251.518 104.756C250.866 102.309 250.708 99.7565 251.052 97.2474C251.396 94.7383 252.235 92.3226 253.521 90.1407C254.806 87.9588 256.513 86.0542 258.541 84.5377C260.569 83.0212 262.879 81.923 265.335 81.3069C267.791 80.6908 270.345 80.5692 272.849 80.9491C275.353 81.329 277.756 82.2028 279.919 83.5198C282.082 84.8367 283.962 86.5705 285.449 88.6204H285.434Z" fill="black"/>
<path d="M272.719 88.8193C273.614 88.5849 274.536 88.4692 275.461 88.4753L286.962 88.0465C288.647 87.9817 290.526 87.8322 291.658 86.5808C292.064 86.103 292.363 85.5437 292.535 84.9406C292.831 83.977 292.918 82.9613 292.79 81.9614C292.662 80.9614 292.322 80.0004 291.792 79.1426C290.461 77.0238 288.128 75.7924 285.905 74.6557C283.836 73.5501 281.711 72.5517 279.539 71.6644C271.472 68.6006 262.539 68.729 254.563 72.0234C253.775 72.3259 253.028 72.7262 252.34 73.2149C251.379 74.0387 250.56 75.0157 249.917 76.1065L246.134 81.8098C245.612 82.5062 245.209 83.2846 244.942 84.113C244.229 86.8201 246.438 89.5272 246.208 92.3141C246.079 93.7 245.346 94.9713 245.211 96.3572C245.032 98.147 245.849 99.847 246.652 101.477L253.302 114.893C254.376 111.765 254.92 108.479 254.912 105.171C254.912 103.631 254.783 102.066 255.192 100.58C255.6 99.0942 256.687 97.6734 258.183 97.4042C259.245 99.0472 260.05 100.843 260.571 102.729C260.626 103.06 260.778 103.367 261.009 103.611C261.31 103.82 261.68 103.902 262.041 103.84C265.685 103.556 267.525 99.9667 267.659 96.6962C267.794 93.4258 269.334 89.8612 272.719 88.8193Z" fill="#8F7080"/>
<path d="M194.355 302.772L199.012 301.441L269.217 305.265L261.49 306.262L194.355 302.772Z" fill="#7B728F"/>
<path opacity="0.1" d="M194.355 302.772L199.012 301.441L269.217 305.265L261.49 306.262L194.355 302.772Z" fill="black"/>
<path d="M271.122 372.568L261.86 371.705L258.609 371.406V319.887L259.467 307.927L259.656 305.265H269.213L271.122 372.568Z" fill="#7B728F"/>
<path opacity="0.1" d="M268.59 370.734L261.202 369.917L258.609 369.632V320.785L259.292 309.449L259.442 306.921H267.064L268.59 370.734Z" fill="black"/>
<path d="M217.925 302.768C217.925 302.768 222.536 292.652 224.47 292.338C226.405 292.024 229.954 292.338 229.954 292.338L229.64 295.27C229.64 295.27 224.904 295.644 223.408 303.556L217.925 302.768Z" fill="#7B728F"/>
<path opacity="0.1" d="M217.925 302.768C217.925 302.768 222.536 292.652 224.47 292.338C226.405 292.024 229.954 292.338 229.954 292.338L229.64 295.27C229.64 295.27 224.904 295.644 223.408 303.556L217.925 302.768Z" fill="black"/>
<path d="M235.814 291.28C235.814 291.28 248.212 297.447 246.592 304.676L239.862 304.302C239.862 304.302 236.622 293.523 234.07 292.96C231.517 292.397 235.814 291.28 235.814 291.28Z" fill="#7B728F"/>
<path d="M281.93 193.628V193.992L281.681 235.505C281.681 235.505 275.325 270.403 273.58 271.774C271.835 273.145 233.574 269.406 233.574 269.406L216.251 152.623C216.126 132.681 230.209 133.304 230.209 133.304C232.079 130.313 241.052 127.945 241.052 127.945L246.037 123.084L246.197 122.86C246.528 122.366 246.955 121.944 247.453 121.618C248.48 121.025 249.133 121.808 249.507 122.581C249.675 122.943 249.805 123.323 249.896 123.712C270.09 138.524 281.93 193.628 281.93 193.628Z" fill="#5F5570"/>
<path opacity="0.1" d="M281.429 194.123V194.487C275.163 183.021 251.02 139.578 244.414 137.414L246.957 135.669C246.957 135.669 248.652 134.672 245.536 133.675C245.536 133.675 240.675 134.298 240.551 128.44L245.695 123.355L246.952 122.114L249.006 123.076C249.174 123.439 249.304 123.818 249.394 124.208C269.589 139.019 281.429 194.123 281.429 194.123Z" fill="black"/>
<path d="M281.93 193.622V193.986C275.664 182.519 251.521 139.076 244.915 136.913L247.458 135.168C247.458 135.168 249.153 134.171 246.037 133.174C246.037 133.174 241.176 133.797 241.052 127.939L246.196 122.854L247.453 121.612L249.507 122.574C249.675 122.937 249.805 123.317 249.895 123.706C270.09 138.518 281.93 193.622 281.93 193.622Z" fill="#433A59"/>
<path opacity="0.1" d="M290.942 177.605L290.902 177.545C288.285 174.18 288.783 157.728 272.457 133.673C272.676 133.823 278.305 137.771 282.427 139.756L281.276 143.554L283.768 144.886L290.942 177.605Z" fill="black"/>
<path d="M290.441 177.117L290.401 177.057C287.784 173.692 288.282 157.24 271.956 133.185C272.175 133.335 277.804 137.283 281.926 139.267L280.775 143.066L283.267 144.397L290.441 177.117Z" fill="#433A59"/>
<path opacity="0.1" d="M271.24 129.343L270.218 133.66C270.218 133.66 270.966 137.983 275.447 138.356L276.17 136.297C276.17 136.297 271.334 133.197 271.24 129.343Z" fill="black"/>
<path d="M271.24 128.842L270.218 133.16C270.218 133.16 270.966 137.482 275.447 137.856L276.17 135.797C276.17 135.797 271.334 132.696 271.24 128.842Z" fill="#E5E8EF"/>
<path opacity="0.1" d="M264.784 305.96L261.853 371.703L258.603 371.404V319.884L259.46 307.924L264.784 305.96Z" fill="black"/>
<path d="M195.013 331.351L193.019 366.912L260.816 372.565L263.788 305.96L195.013 331.351Z" fill="#7B728F"/>
<path opacity="0.1" d="M193.52 335.176L194.846 303.768L264.288 306.959L260.983 340.162L193.52 335.176Z" fill="black"/>
<path d="M193.019 334.18L194.345 302.772L263.788 305.963L260.482 339.165L193.019 334.18Z" fill="#7B728F"/>
<path d="M230.574 334.216H222.224V343.937H230.574V334.216Z" fill="#C3BBC8"/>
<path d="M223.48 270.525L222.234 273.89C222.234 273.89 219.617 292.336 222.857 294.58C226.097 296.823 235.694 296.948 236.192 295.826C236.691 294.704 240.18 281.991 240.18 281.991C240.18 281.991 243.296 291.339 244.916 290.591C246.536 289.843 241.177 272.075 241.177 272.075L223.48 270.525Z" fill="#FFC5D3"/>
<path opacity="0.1" d="M222.237 256.568V274.391C222.237 274.391 235.448 276.883 241.181 272.576C241.181 272.576 235.822 255.321 237.816 250.959C239.81 246.597 222.237 256.568 222.237 256.568Z" fill="black"/>
<path d="M222.224 256.07V273.893C222.224 273.893 235.434 276.386 241.167 272.078C241.167 272.078 235.808 254.824 237.802 250.462C239.796 246.099 222.224 256.07 222.224 256.07Z" fill="#E5E8EF"/>
<path opacity="0.1" d="M220.74 151.75L217.251 153.619C217.251 153.619 216.627 161.097 216.254 162.094C215.88 163.092 216.254 173.187 216.254 173.187L216.084 193.627C216.084 193.627 215.546 204.471 216.084 208.334C216.622 212.198 217.226 226.905 217.226 226.905C217.226 226.905 220.596 241.238 219.349 246.348C218.103 251.458 219.474 262.925 221.593 261.928C223.711 260.93 243.278 257.067 244.275 256.319C245.272 255.571 244.773 248.592 244.275 247.719C243.776 246.847 240.785 235.006 241.035 232.264C241.284 229.522 240.162 205.468 240.162 205.468C240.162 205.468 242.032 179.793 242.779 173.81C243.527 167.828 241.284 150.254 239.29 150.005C237.296 149.756 231.458 136.17 220.74 151.75Z" fill="black"/>
<path d="M219.733 150.751L216.244 152.62C216.244 152.62 215.621 160.098 215.247 161.095C214.873 162.092 215.247 172.188 215.247 172.188L215.077 192.628C215.077 192.628 214.539 203.472 215.077 207.335C215.616 211.199 216.219 225.906 216.219 225.906C216.219 225.906 219.589 240.239 218.342 245.349C217.096 250.459 218.467 261.926 220.586 260.929C222.704 259.931 242.271 256.068 243.268 255.32C244.265 254.572 243.767 247.592 243.268 246.72C242.77 245.848 239.779 234.007 240.028 231.265C240.277 228.523 239.155 204.469 239.155 204.469C239.155 204.469 241.025 178.794 241.773 172.811C242.52 166.829 240.277 149.255 238.283 149.006C236.289 148.756 230.451 135.171 219.733 150.751Z" fill="#5F5570"/>
<g opacity="0.1">
<path opacity="0.1" d="M257.431 95.5366C255.936 95.8058 254.829 97.2267 254.44 98.7123C254.051 100.198 254.156 101.763 254.161 103.304C254.171 106.611 253.628 109.897 252.556 113.025L245.901 99.6097C245.771 99.3455 245.636 99.0713 245.507 98.7971C245.815 99.7203 246.197 100.617 246.648 101.479L253.304 114.895C254.376 111.766 254.918 108.481 254.909 105.173C254.909 103.633 254.784 102.068 255.188 100.582C255.592 99.0962 256.684 97.6754 258.179 97.4062C258.662 98.1623 259.093 98.9502 259.47 99.7643C258.964 98.2779 258.279 96.8583 257.431 95.5366Z" fill="black"/>
<path opacity="0.1" d="M291.914 79.3569C292.206 80.5834 292.165 81.8659 291.794 83.0711C291.62 83.6745 291.319 84.2337 290.911 84.7113C289.78 85.9626 287.92 86.1122 286.216 86.177L274.72 86.6057C273.793 86.5996 272.87 86.7153 271.973 86.9497C268.593 87.9917 267.028 91.5912 266.903 94.8267C266.778 98.0622 264.909 101.687 261.285 101.971C260.924 102.032 260.554 101.95 260.253 101.741C260.368 102.066 260.477 102.395 260.572 102.739C260.623 103.07 260.775 103.378 261.006 103.621C261.307 103.829 261.677 103.912 262.038 103.85C265.687 103.566 267.521 99.9766 267.656 96.7062C267.79 93.4358 269.346 89.8712 272.726 88.8292C273.622 88.5948 274.546 88.4791 275.473 88.4852L286.968 88.0565C288.653 87.9917 290.533 87.8421 291.664 86.5908C292.072 86.1132 292.373 85.554 292.547 84.9506C292.829 84.0245 292.919 83.0502 292.81 82.0881C292.701 81.126 292.396 80.1964 291.914 79.3569Z" fill="black"/>
</g>
<path opacity="0.1" d="M273.193 283.834C273.193 283.834 277.51 281.591 279.176 281.715C280.841 281.84 295.791 300.854 295.791 300.854L273.193 283.834Z" fill="black"/>
<path opacity="0.1" d="M228.906 155.151C228.906 155.151 221.014 158.521 221.224 160.849C221.433 163.177 228.906 155.151 228.906 155.151Z" fill="black"/>
<path opacity="0.1" d="M225.069 166.169C225.069 166.169 216.789 176.758 218.618 177.112C220.448 177.466 225.069 166.169 225.069 166.169Z" fill="black"/>
<path opacity="0.1" d="M252.765 182.036C252.765 182.036 253.523 205.717 247.451 208.708L252.765 182.036Z" fill="black"/>
<path opacity="0.1" d="M221.211 245.273C221.211 245.273 227.054 241.952 228.395 242.615C229.736 243.278 221.211 245.273 221.211 245.273Z" fill="black"/>
<path opacity="0.1" d="M222.224 249.858C222.224 249.858 225.913 250.122 227.662 249.36C229.412 248.598 222.224 249.858 222.224 249.858Z" fill="black"/>
<path opacity="0.1" d="M310.288 162.657C310.288 162.657 314.864 175.804 317.502 175.804L310.288 162.657Z" fill="black"/>
<path opacity="0.1" d="M245.221 414.443C245.221 414.443 253.805 412.115 255.071 414.443C256.338 416.772 245.221 414.443 245.221 414.443Z" fill="black"/>
<path opacity="0.1" d="M217.922 379.927C217.922 379.927 215.783 383.202 218.61 384.199C221.436 385.196 217.922 379.927 217.922 379.927Z" fill="black"/>
<path opacity="0.1" d="M274.954 334.216C274.954 334.216 281.435 339.989 284.496 340.158C287.556 340.328 274.954 334.216 274.954 334.216Z" fill="black"/>
<path d="M406.882 380.813C406.882 406.882 391.473 415.984 372.465 415.984C353.457 415.984 338.048 406.882 338.048 380.813C338.048 354.745 372.465 321.583 372.465 321.583C372.465 321.583 406.882 354.745 406.882 380.813Z" fill="#D2D9F6"/>
<path d="M371.857 413.368L372.217 391.221L387.214 363.821L372.273 387.747L372.435 377.788L382.771 357.965L372.478 375.153L372.769 357.242L383.838 341.46L372.815 354.426L372.997 321.584L371.853 365.061L371.947 363.267L360.694 346.066L371.767 366.71L370.718 386.713L370.687 386.182L357.714 368.08L370.648 388.058L370.517 390.559L370.493 390.597L370.504 390.802L367.844 441.552H371.398L371.824 415.339L384.726 395.41L371.857 413.368Z" fill="#3F3D56"/>
<path d="M442.282 420.005C442.282 432.258 434.336 436.536 424.533 436.536C424.306 436.536 424.08 436.534 423.853 436.529C423.399 436.52 422.949 436.501 422.505 436.473C413.658 435.899 406.785 431.401 406.785 420.005C406.785 408.213 423.225 393.332 424.46 392.231L424.462 392.229C424.51 392.186 424.533 392.166 424.533 392.166C424.533 392.166 442.282 407.753 442.282 420.005Z" fill="#9FAAD9"/>
<path d="M424.164 438.919L431.906 429.771L424.144 439.923L424.124 440.973C423.582 440.963 423.046 440.942 422.515 440.911L423.35 427.425L423.343 427.32L423.358 427.3L423.436 426.026L415.655 415.85L423.461 425.071L423.479 425.342L424.11 415.152L417.448 404.636L424.191 413.363L424.847 392.238L424.85 392.166V392.235L424.74 408.894L431.372 402.29L424.713 410.329L424.538 419.453L430.73 410.697L424.512 420.795L424.414 425.867L433.404 413.681L424.38 427.637L424.164 438.919Z" fill="#3F3D56"/>
<circle opacity="0.7" cx="166.812" cy="376.173" r="61.3463" transform="rotate(-172.525 166.812 376.173)" stroke="#324FC5" stroke-width="0.276206" stroke-dasharray="2.21 2.21"/>
<circle opacity="0.7" cx="135.287" cy="388.252" r="85.6017" transform="rotate(-172.525 135.287 388.252)" stroke="#324FC5" stroke-width="0.276206" stroke-dasharray="2.21 2.21"/>
<defs>
<linearGradient id="paint0_linear" x1="262.021" y1="449.168" x2="262.021" y2="67.8681" gradientUnits="userSpaceOnUse">
<stop stop-color="#808080" stop-opacity="0.25"/>
<stop offset="0.54" stop-color="#808080" stop-opacity="0.12"/>
<stop offset="1" stop-color="#808080" stop-opacity="0.1"/>
</linearGradient>
</defs>
</svg>
