<svg width="516" height="460" viewBox="0 0 516 460" fill="none" xmlns="http://www.w3.org/2000/svg">
<circle opacity="0.7" cx="135.341" cy="135.579" r="95.451" transform="rotate(-40.5181 135.341 135.579)" stroke="#324FC5" stroke-width="0.3" stroke-dasharray="2.43 2.43"/>
<circle opacity="0.7" cx="151.417" cy="141.183" r="73.3892" transform="rotate(-40.5181 151.417 141.183)" stroke="#324FC5" stroke-width="0.3" stroke-dasharray="2.43 2.43"/>
<path fill-rule="evenodd" clip-rule="evenodd" d="M280.823 28.7778C334.421 24.8982 378.855 45.8108 418.701 70.9639C461.242 97.8176 494.95 122.971 509.368 173.047C523.685 222.774 510.263 276.399 490.523 323.87C465.433 384.204 460.334 394.075 423.073 420.048C381.798 448.818 347.015 459.15 293.819 459.15C250.045 459.15 225.487 459.494 162.393 431.453C118.403 411.902 90.9411 376.005 70.1679 331.998C48.7744 286.677 33.5575 231.474 62.3325 183.796C99.1397 122.808 152.926 144.236 191.451 117.005C239.184 67.6993 241.134 32.8093 280.823 28.7778Z" fill="#F3F6FD"/>
<g clip-path="url(#clip0)">
<path d="M403.316 394.118C403.316 409.757 348.374 422.437 280.598 422.437C212.821 422.437 157.879 409.757 157.879 394.118C157.879 383.045 185.419 373.453 225.556 368.8C242.108 366.876 260.808 365.798 280.598 365.798C288.733 365.798 296.682 365.981 304.369 366.328C360.769 368.886 403.316 380.354 403.316 394.118Z" fill="#EEF2FB"/>
<path d="M262.651 394.742C300.83 394.742 331.78 361.729 331.78 321.005C331.78 280.28 300.83 247.267 262.651 247.267C224.472 247.267 193.521 280.28 193.521 321.005C193.521 361.729 224.472 394.742 262.651 394.742Z" fill="#CBD3F2"/>
<path d="M340.686 374.156L338.229 387.675L354.205 390.133L364.651 383.988L364.037 374.156H340.686Z" fill="#575A89"/>
<path opacity="0.7" d="M450.339 413.951C449.716 414.461 449.085 414.964 448.445 415.461L448.353 415.343C448.034 415.591 447.713 415.838 447.39 416.083C447.067 416.327 446.743 416.57 446.417 416.81L446.507 416.931C445.855 417.412 445.2 417.883 444.54 418.345L444.454 418.222C443.792 418.686 443.126 419.14 442.456 419.585L442.539 419.71C441.865 420.158 441.186 420.596 440.504 421.024L440.424 420.897C439.74 421.327 439.053 421.747 438.361 422.157L438.438 422.286C437.742 422.7 437.042 423.103 436.339 423.496L436.266 423.366C435.561 423.76 434.853 424.145 434.141 424.52L434.211 424.653C433.495 425.03 432.776 425.397 432.054 425.754L431.987 425.62C431.263 425.978 430.536 426.327 429.806 426.665L429.869 426.801C429.136 427.141 428.399 427.471 427.659 427.792L427.599 427.654C426.858 427.975 426.115 428.286 425.368 428.586L425.424 428.725C424.674 429.028 423.921 429.32 423.166 429.602L423.114 429.461C422.357 429.744 421.599 430.016 420.837 430.279L420.886 430.42C420.122 430.684 419.356 430.937 418.587 431.18L418.542 431.037C417.772 431.281 417 431.514 416.226 431.738L416.268 431.882C415.491 432.106 414.713 432.32 413.933 432.523L413.895 432.378C413.114 432.582 412.331 432.776 411.547 432.959L411.581 433.105C410.794 433.289 410.006 433.463 409.217 433.627L409.186 433.48C408.396 433.644 407.604 433.798 406.811 433.941L406.838 434.089C406.043 434.233 405.247 434.366 404.45 434.489L404.427 434.341C403.629 434.465 402.831 434.578 402.031 434.681L402.051 434.83C401.25 434.933 400.448 435.026 399.646 435.109L399.63 434.96C398.828 435.042 398.024 435.115 397.221 435.177L397.232 435.327C396.427 435.39 395.622 435.442 394.816 435.484L394.808 435.334C394.002 435.376 393.197 435.408 392.391 435.43L392.395 435.58C391.588 435.602 390.78 435.613 389.973 435.614L389.973 435.464C389.167 435.466 388.36 435.457 387.554 435.438L387.551 435.588C386.743 435.569 385.937 435.54 385.13 435.5L385.138 435.351C384.332 435.311 383.527 435.262 382.724 435.202L382.712 435.352C381.907 435.292 381.103 435.223 380.299 435.143L380.314 434.993C379.512 434.914 378.711 434.824 377.911 434.724L377.892 434.873C377.091 434.772 376.291 434.662 375.493 434.542L375.515 434.394C374.718 434.274 373.922 434.143 373.128 434.003L373.102 434.151C372.307 434.011 371.514 433.86 370.722 433.7L370.752 433.553C369.962 433.393 369.174 433.223 368.388 433.043L368.354 433.189C367.567 433.009 366.783 432.819 366 432.619L366.038 432.474C365.257 432.274 364.478 432.064 363.702 431.845L363.661 431.989C362.884 431.77 362.11 431.54 361.339 431.301L361.383 431.158C360.614 430.919 359.846 430.671 359.082 430.412L359.034 430.554C358.27 430.296 357.508 430.028 356.75 429.75L356.802 429.609C356.045 429.332 355.291 429.044 354.541 428.748L354.485 428.887C353.736 428.59 352.989 428.284 352.246 427.968L352.304 427.83C351.563 427.515 350.824 427.19 350.09 426.855L350.028 426.992C349.294 426.657 348.564 426.314 347.837 425.96L347.903 425.825C347.178 425.473 346.458 425.111 345.741 424.739L345.672 424.872C344.956 424.501 344.244 424.121 343.537 423.731L343.609 423.6C342.904 423.211 342.202 422.812 341.505 422.405L341.43 422.534C340.734 422.127 340.042 421.711 339.355 421.285L339.434 421.158C338.75 420.734 338.07 420.3 337.395 419.858L337.312 419.983C336.638 419.541 335.969 419.09 335.304 418.63L335.39 418.507C334.728 418.048 334.071 417.581 333.419 417.104L333.33 417.225C332.68 416.749 332.034 416.265 331.394 415.771L331.485 415.652C330.848 415.161 330.216 414.66 329.589 414.151L329.495 414.267C328.869 413.759 328.249 413.242 327.634 412.716L327.732 412.602C327.121 412.079 326.515 411.547 325.915 411.006L325.815 411.118C325.216 410.578 324.623 410.03 324.036 409.474L324.139 409.365C323.555 408.811 322.977 408.249 322.405 407.679L322.299 407.785C321.729 407.216 321.164 406.639 320.606 406.053L320.715 405.949C320.16 405.367 319.611 404.777 319.069 404.178L318.958 404.279C318.417 403.682 317.882 403.076 317.354 402.463L317.468 402.365C316.943 401.756 316.425 401.139 315.913 400.513L315.797 400.608C315.287 399.985 314.783 399.354 314.286 398.715L314.405 398.623C314.156 398.303 313.91 397.982 313.665 397.659C313.42 397.336 313.178 397.012 312.937 396.687L312.817 396.776C312.336 396.124 311.864 395.469 311.402 394.809L311.525 394.723C311.061 394.061 310.607 393.395 310.163 392.726L310.038 392.809C309.59 392.134 309.152 391.456 308.723 390.774L308.85 390.694C308.421 390.01 308 389.322 307.59 388.63L307.461 388.707C307.048 388.011 306.645 387.311 306.251 386.608L306.382 386.535C305.987 385.83 305.603 385.122 305.228 384.41L305.095 384.48C304.718 383.764 304.35 383.045 303.993 382.323L304.127 382.256C303.769 381.533 303.421 380.806 303.083 380.076L302.947 380.139C302.606 379.405 302.276 378.668 301.956 377.928L302.094 377.869C301.773 377.128 301.462 376.384 301.161 375.637L301.022 375.693C300.72 374.943 300.428 374.191 300.146 373.436L300.286 373.383C300.004 372.627 299.731 371.868 299.469 371.107L299.327 371.155C299.064 370.391 298.81 369.625 298.567 368.856L298.71 368.811C298.467 368.041 298.233 367.269 298.01 366.495L297.866 366.537C297.642 365.761 297.428 364.982 297.224 364.202L297.369 364.164C297.165 363.383 296.972 362.6 296.788 361.816L296.642 361.85C296.458 361.063 296.284 360.275 296.12 359.486L296.267 359.455C296.103 358.665 295.95 357.873 295.806 357.08L295.659 357.107C295.515 356.312 295.381 355.516 295.258 354.719L295.406 354.696C295.283 353.899 295.17 353.1 295.067 352.301L294.918 352.32C294.815 351.519 294.721 350.717 294.639 349.915L294.788 349.9C294.705 349.097 294.632 348.294 294.57 347.49L294.42 347.501C294.358 346.696 294.306 345.891 294.264 345.085L294.413 345.077C294.371 344.272 294.339 343.466 294.318 342.66L294.168 342.664C294.146 341.857 294.134 341.05 294.133 340.243L294.283 340.242C294.282 339.436 294.29 338.629 294.309 337.824L294.159 337.82C294.178 337.013 294.208 336.206 294.247 335.4L294.397 335.407C294.436 334.601 294.486 333.797 294.545 332.993L294.396 332.982C294.455 332.176 294.525 331.372 294.605 330.569L294.754 330.583C294.834 329.781 294.924 328.98 295.024 328.18L294.875 328.161C294.975 327.36 295.085 326.56 295.206 325.762L295.354 325.784C295.474 324.987 295.604 324.191 295.744 323.397L295.596 323.371C295.737 322.576 295.887 321.783 296.047 320.992L296.194 321.021C296.354 320.231 296.524 319.443 296.704 318.657L296.558 318.624C296.738 317.837 296.928 317.052 297.128 316.27L297.274 316.307C297.473 315.526 297.683 314.747 297.902 313.971L297.758 313.93C297.978 313.154 298.207 312.38 298.446 311.608L298.589 311.653C298.828 310.883 299.077 310.116 299.335 309.351L299.193 309.303C299.452 308.539 299.72 307.778 299.998 307.019L300.139 307.071C300.416 306.314 300.703 305.56 301 304.81L300.86 304.755C301.157 304.005 301.463 303.258 301.779 302.515L301.917 302.574C302.233 301.832 302.558 301.094 302.892 300.359L302.756 300.297C303.09 299.563 303.434 298.833 303.787 298.107L303.922 298.172C304.275 297.448 304.637 296.727 305.008 296.01L304.875 295.941C305.246 295.225 305.627 294.514 306.017 293.806L306.148 293.879C306.537 293.173 306.935 292.472 307.343 291.775L307.213 291.699C307.62 291.003 308.036 290.312 308.462 289.625L308.59 289.704C309.014 289.019 309.447 288.339 309.89 287.664L309.764 287.582C310.206 286.907 310.657 286.238 311.118 285.573L311.241 285.659C311.699 284.997 312.167 284.34 312.644 283.688L312.522 283.6C312.998 282.949 313.483 282.303 313.977 281.663L314.095 281.755C314.587 281.117 315.087 280.485 315.597 279.858L315.48 279.764C315.988 279.138 316.506 278.518 317.031 277.904L317.145 278.001C317.669 277.39 318.2 276.784 318.741 276.184L318.63 276.084C319.169 275.485 319.717 274.892 320.274 274.305L320.383 274.408C320.936 273.824 321.498 273.246 322.068 272.675L321.962 272.569C322.531 271.998 323.109 271.434 323.695 270.875L323.798 270.984C324.38 270.429 324.971 269.881 325.569 269.338L325.469 269.227C326.066 268.686 326.671 268.152 327.285 267.623L327.382 267.737C327.992 267.212 328.609 266.694 329.234 266.182L329.139 266.066C329.762 265.556 330.394 265.052 331.033 264.555L331.125 264.674C331.444 264.426 331.765 264.179 332.088 263.934C332.411 263.689 332.736 263.447 333.061 263.207L332.972 263.086C333.623 262.605 334.279 262.134 334.938 261.671L335.024 261.794C335.686 261.331 336.352 260.877 337.022 260.432L336.939 260.307C337.613 259.859 338.292 259.421 338.974 258.992L339.054 259.12C339.738 258.69 340.426 258.27 341.117 257.859L341.04 257.73C341.737 257.317 342.436 256.914 343.139 256.52L343.213 256.651C343.917 256.257 344.626 255.872 345.337 255.497L345.267 255.364C345.983 254.987 346.702 254.62 347.425 254.262L347.491 254.397C348.215 254.038 348.942 253.69 349.672 253.352L349.609 253.216C350.343 252.876 351.079 252.545 351.819 252.225L351.879 252.363C352.62 252.042 353.364 251.731 354.11 251.43L354.054 251.291C354.804 250.989 355.557 250.697 356.312 250.415L356.364 250.555C357.121 250.273 357.88 250 358.641 249.738L358.592 249.596C359.356 249.333 360.123 249.08 360.891 248.836L360.936 248.979C361.706 248.736 362.478 248.502 363.252 248.279L363.21 248.135C363.987 247.911 364.765 247.697 365.545 247.494L365.583 247.639C366.364 247.435 367.147 247.241 367.932 247.057L367.897 246.911C368.684 246.727 369.472 246.553 370.262 246.39L370.292 246.537C371.082 246.373 371.874 246.219 372.667 246.076L372.641 245.928C373.435 245.784 374.231 245.651 375.028 245.527L375.051 245.676C375.849 245.552 376.647 245.439 377.447 245.336L377.428 245.187C378.228 245.084 379.03 244.991 379.832 244.908L379.848 245.057C380.651 244.974 381.454 244.902 382.258 244.839L382.246 244.69C383.051 244.627 383.857 244.575 384.662 244.533L384.67 244.683C385.476 244.64 386.282 244.609 387.087 244.587L387.083 244.437C387.891 244.415 388.698 244.404 389.505 244.402L389.505 244.552C390.312 244.551 391.118 244.56 391.924 244.579L391.927 244.429C392.735 244.448 393.542 244.477 394.348 244.516L394.341 244.666C395.146 244.705 395.951 244.755 396.755 244.814L396.766 244.665C397.571 244.724 398.375 244.794 399.179 244.874L399.164 245.023C399.966 245.103 400.767 245.193 401.567 245.293L401.586 245.144C402.387 245.244 403.187 245.355 403.986 245.475L403.963 245.623C404.76 245.743 405.556 245.873 406.35 246.013L406.376 245.866C407.171 246.006 407.965 246.156 408.756 246.317L408.726 246.464C409.516 246.624 410.304 246.794 411.09 246.974L411.124 246.827C411.911 247.008 412.695 247.198 413.478 247.398L413.441 247.543C414.222 247.743 415 247.952 415.776 248.172L415.817 248.027C416.594 248.247 417.368 248.476 418.139 248.715L418.095 248.859C418.865 249.098 419.632 249.346 420.396 249.605L420.444 249.462C421.208 249.721 421.97 249.989 422.728 250.267L422.676 250.408C423.433 250.685 424.187 250.972 424.938 251.269L424.993 251.13C425.743 251.426 426.489 251.733 427.232 252.049L427.174 252.187C427.916 252.502 428.654 252.827 429.388 253.162L429.451 253.025C430.184 253.359 430.915 253.703 431.641 254.056L431.575 254.191C432.3 254.544 433.021 254.906 433.737 255.277L433.806 255.144C434.522 255.515 435.234 255.896 435.941 256.286L435.869 256.417C436.575 256.806 437.276 257.204 437.973 257.612L438.048 257.482C438.744 257.889 439.436 258.306 440.123 258.731L440.044 258.859C440.728 259.283 441.408 259.716 442.084 260.159L442.166 260.034C442.84 260.476 443.51 260.927 444.174 261.387L444.089 261.51C444.751 261.969 445.407 262.436 446.059 262.913L446.148 262.792C446.799 263.267 447.444 263.752 448.084 264.246L447.993 264.365C448.63 264.856 449.262 265.357 449.889 265.866L449.984 265.749C450.609 266.258 451.229 266.775 451.844 267.301L451.746 267.415C452.358 267.938 452.963 268.47 453.563 269.01L453.664 268.899C454.262 269.438 454.856 269.986 455.443 270.543L455.34 270.652C455.923 271.205 456.501 271.767 457.073 272.338L457.179 272.231C457.749 272.801 458.314 273.378 458.872 273.964L458.764 274.068C459.318 274.65 459.867 275.24 460.409 275.839L460.52 275.738C461.061 276.335 461.596 276.94 462.124 277.554L462.011 277.652C462.535 278.261 463.053 278.878 463.565 279.503L463.681 279.408C464.191 280.032 464.695 280.663 465.192 281.302L465.074 281.394C465.322 281.713 465.568 282.034 465.813 282.358C466.058 282.681 466.301 283.005 466.541 283.33L466.661 283.241C467.142 283.892 467.614 284.548 468.076 285.208L467.953 285.294C468.417 285.955 468.871 286.621 469.316 287.291L469.44 287.208C469.888 287.883 470.326 288.561 470.755 289.243L470.628 289.323C471.058 290.007 471.478 290.695 471.888 291.386L472.017 291.31C472.43 292.006 472.834 292.705 473.227 293.409L473.096 293.482C473.491 294.187 473.876 294.895 474.251 295.606L474.383 295.536C474.76 296.252 475.128 296.972 475.485 297.694L475.351 297.76C475.709 298.484 476.057 299.211 476.396 299.941L476.532 299.878C476.872 300.612 477.202 301.349 477.522 302.088L477.385 302.148C477.705 302.889 478.016 303.633 478.317 304.379L478.456 304.323C478.758 305.073 479.05 305.826 479.333 306.581L479.192 306.634C479.475 307.39 479.747 308.149 480.009 308.91L480.151 308.861C480.415 309.625 480.668 310.392 480.911 311.16L480.768 311.206C481.012 311.976 481.245 312.747 481.468 313.521L481.612 313.48C481.836 314.256 482.05 315.034 482.254 315.814L482.109 315.852C482.313 316.634 482.506 317.416 482.69 318.201L482.836 318.167C483.02 318.953 483.194 319.741 483.358 320.531L483.211 320.561C483.375 321.352 483.528 322.144 483.672 322.937L483.819 322.91C483.963 323.705 484.097 324.5 484.22 325.297L484.072 325.32C484.195 326.118 484.309 326.917 484.412 327.716L484.561 327.697C484.664 328.498 484.757 329.299 484.84 330.102L484.69 330.117C484.773 330.92 484.846 331.723 484.908 332.527L485.058 332.515C485.12 333.32 485.173 334.126 485.215 334.932L485.065 334.939C485.107 335.745 485.139 336.551 485.161 337.357L485.311 337.353C485.332 338.16 485.344 338.967 485.345 339.774L485.195 339.774C485.197 340.581 485.188 341.387 485.169 342.193L485.319 342.197C485.3 343.004 485.271 343.811 485.231 344.617L485.081 344.61C485.042 345.415 484.993 346.22 484.933 347.024L485.083 347.035C485.023 347.84 484.953 348.645 484.873 349.448L484.724 349.433C484.644 350.236 484.554 351.037 484.454 351.837L484.603 351.855C484.503 352.657 484.393 353.456 484.273 354.255L484.124 354.232C484.004 355.03 483.874 355.825 483.734 356.619L483.882 356.645C483.741 357.44 483.591 358.234 483.431 359.025L483.284 358.995C483.124 359.785 482.954 360.574 482.774 361.36L482.92 361.393C482.74 362.18 482.55 362.965 482.35 363.747L482.204 363.71C482.005 364.491 481.795 365.27 481.576 366.046L481.72 366.087C481.501 366.863 481.271 367.637 481.032 368.408L480.889 368.364C480.65 369.134 480.401 369.901 480.143 370.665L480.285 370.713C480.027 371.478 479.758 372.239 479.481 372.997L479.34 372.946C479.062 373.703 478.775 374.456 478.478 375.207L478.618 375.262C478.321 376.012 478.015 376.759 477.699 377.502L477.561 377.443C477.245 378.185 476.92 378.923 476.586 379.658L476.722 379.72C476.388 380.454 476.044 381.184 475.691 381.91L475.556 381.844C475.204 382.569 474.842 383.29 474.47 384.006L474.603 384.076C474.232 384.791 473.852 385.503 473.462 386.211L473.33 386.138C472.941 386.844 472.543 387.545 472.136 388.242L472.265 388.318C471.858 389.014 471.442 389.705 471.016 390.392L470.889 390.313C470.464 390.998 470.031 391.678 469.588 392.353L469.714 392.435C469.272 393.109 468.821 393.779 468.361 394.443L468.237 394.358C467.779 395.02 467.311 395.677 466.835 396.329L466.956 396.417C466.48 397.068 465.995 397.713 465.502 398.354L465.383 398.262C464.891 398.9 464.391 399.532 463.882 400.158L463.998 400.253C463.49 400.878 462.973 401.499 462.447 402.113L462.333 402.016C461.81 402.627 461.278 403.233 460.737 403.833L460.849 403.933C460.309 404.532 459.761 405.125 459.204 405.712L459.096 405.609C458.542 406.192 457.98 406.77 457.41 407.342L457.516 407.448C456.947 408.018 456.369 408.583 455.783 409.141L455.68 409.033C455.098 409.587 454.507 410.136 453.909 410.679L454.009 410.79C453.412 411.331 452.807 411.865 452.194 412.394L452.096 412.28C451.487 412.804 450.869 413.323 450.244 413.834L450.339 413.951Z" stroke="#324FC5" stroke-width="0.3" stroke-dasharray="2.43 2.43"/>
<circle opacity="0.7" cx="383.197" cy="355.726" r="73.3892" transform="rotate(52.8443 383.197 355.726)" stroke="#324FC5" stroke-width="0.3" stroke-dasharray="2.43 2.43"/>
<path d="M260.191 120.375C260.191 120.375 258.962 134.508 255.89 135.123C252.817 135.737 262.649 160.317 262.649 160.317H277.397L289.072 157.244L283.541 143.726C283.541 143.726 276.168 133.894 281.698 125.906C287.228 117.917 260.191 120.375 260.191 120.375Z" fill="#A0616A"/>
<path opacity="0.1" d="M260.191 120.375C260.191 120.375 258.962 134.508 255.89 135.123C252.817 135.737 262.649 160.317 262.649 160.317H277.397L289.072 157.244L283.541 143.726C283.541 143.726 276.168 133.894 281.698 125.906C287.228 117.917 260.191 120.375 260.191 120.375Z" fill="black"/>
<path d="M229.464 228.521C229.464 228.521 213.488 259.245 226.392 265.39C239.296 271.535 242.368 270.92 242.368 272.764C242.368 274.607 239.91 273.993 241.139 277.065C242.368 280.137 238.681 292.427 242.368 299.801C246.055 307.175 244.826 312.705 244.826 312.705C244.826 312.705 244.826 313.32 246.055 315.777C247.284 318.235 247.899 320.079 247.284 321.308C246.67 322.537 242.983 330.525 246.67 332.369C250.357 334.212 269.406 335.441 271.249 332.369C273.092 329.296 269.406 327.453 271.249 325.609C273.092 323.766 274.321 323.151 273.092 321.922C271.863 320.693 270.635 305.331 270.635 305.331C270.635 305.331 273.707 287.511 272.478 285.053C271.249 282.595 269.406 280.137 270.635 278.294C271.863 276.451 273.092 277.065 273.707 274.607C274.321 272.149 275.55 266.619 275.55 266.619L282.31 266.004L298.286 269.077C298.286 269.077 316.106 288.74 335.77 294.885C335.77 294.885 341.3 300.415 343.144 300.415C344.987 300.415 344.987 300.415 344.373 301.644C343.758 302.873 341.915 302.873 343.144 304.102C344.373 305.331 346.216 303.488 344.987 305.331C343.758 307.175 342.529 307.175 343.758 308.404C344.987 309.633 343.144 316.392 343.144 317.006C343.144 317.621 337.613 375.382 339.457 376.611C341.3 377.84 367.108 381.527 368.952 376.611C370.795 371.695 367.723 365.551 367.723 365.551C367.723 365.551 376.94 291.813 374.482 286.897C372.024 281.981 363.421 259.86 317.335 245.726C317.335 245.726 304.431 243.269 304.431 241.425C304.431 239.582 303.202 227.906 300.744 227.292C298.286 226.677 284.153 226.063 284.153 226.063L266.333 231.593L241.754 227.292L229.464 228.521Z" fill="#2F2E41"/>
<path d="M250.972 331.758L247.9 342.818C247.9 342.818 245.442 360.638 248.514 364.94C250.927 368.318 255.236 372.455 263.228 373.181C265.467 373.387 267.71 372.821 269.585 371.579C271.459 370.337 272.854 368.492 273.538 366.35C273.629 366.093 273.687 365.826 273.708 365.554C273.708 364.325 271.864 349.578 271.864 349.578L268.792 334.215L268.178 329.914L250.972 331.758Z" fill="#2F2E41"/>
<path d="M340.685 384.599C340.685 384.599 337.613 381.526 336.998 384.599C336.384 387.671 333.926 400.575 338.227 401.189C342.528 401.804 383.699 407.949 388 405.491C392.302 403.033 400.29 399.346 395.374 397.503C390.458 395.659 376.325 390.129 376.325 390.129C376.325 390.129 368.337 379.683 367.108 379.068C365.879 378.454 359.12 379.683 356.047 382.141C352.975 384.599 340.685 384.599 340.685 384.599Z" fill="#2F2E41"/>
<path d="M274.938 133.278C285.458 133.278 293.987 124.75 293.987 114.229C293.987 103.709 285.458 95.1802 274.938 95.1802C264.417 95.1802 255.889 103.709 255.889 114.229C255.889 124.75 264.417 133.278 274.938 133.278Z" fill="#A0616A"/>
<path d="M273.096 157.244L265.723 149.256L257.549 133.279C257.549 133.279 251.59 131.436 250.361 134.508C249.132 137.581 227.01 147.413 227.01 147.413C227.01 147.413 232.541 199.029 230.083 203.945C227.625 208.861 223.323 228.524 227.01 230.368C230.697 232.211 247.903 230.368 253.433 232.826C258.963 235.284 274.94 235.284 279.241 232.211C283.543 229.139 284.772 226.681 289.073 228.524C292.735 230.094 301.296 176.44 303.76 160.451C303.968 159.108 303.795 157.734 303.262 156.484C302.729 155.234 301.857 154.158 300.744 153.379C295.231 149.511 285.301 142.847 283.543 143.726C281.085 144.955 273.096 157.244 273.096 157.244Z" fill="#575A89"/>
<path d="M299.517 154.784C300.96 155.145 302.258 155.939 303.236 157.058C304.215 158.178 304.828 159.571 304.992 161.049L309.963 205.786C309.963 205.786 297.673 232.209 291.528 214.389C285.384 196.569 299.517 154.784 299.517 154.784Z" fill="#575A89"/>
<path d="M298.291 210.087L311.81 206.4C311.81 206.4 314.268 223.605 316.725 223.605C319.183 223.605 308.123 233.437 302.592 232.208C297.062 230.979 289.074 226.678 288.459 223.605C287.845 220.533 293.99 207.629 293.99 207.629L298.291 210.087Z" fill="#575A89"/>
<path d="M260.559 122.448C261.854 119.592 261.629 116.26 262.7 113.313C263.273 111.734 264.204 110.31 265.419 109.151C266.634 107.991 268.1 107.129 269.704 106.63C271.307 106.132 273.004 106.011 274.663 106.276C276.321 106.542 277.895 107.188 279.262 108.163C280.64 109.145 282.021 110.525 283.702 110.337C285.513 110.135 287.128 108.115 288.793 108.856C290.638 109.676 290.139 112.983 292.009 113.747C292.993 114.149 294.155 113.53 294.723 112.631C295.219 111.687 295.49 110.64 295.513 109.573C295.771 106.953 296.004 104.179 294.868 101.803C294.389 100.998 293.973 100.158 293.621 99.2901C293.422 98.4796 293.343 97.6445 293.384 96.811C293.374 93.7305 293.149 90.5174 291.599 87.8554C289.879 84.9015 286.699 83.0127 283.381 82.1885C280.064 81.3643 276.588 81.4907 273.182 81.779C267.551 82.2557 261.679 83.2775 257.243 86.7778C256.64 87.2183 256.121 87.7635 255.711 88.3875C255.322 89.1287 255.046 89.9246 254.895 90.748C253.936 94.6538 252.498 98.426 250.613 101.979C249.707 103.485 248.966 105.085 248.404 106.751C247.934 108.443 247.965 110.372 248.95 111.827C249.752 113.011 251.034 113.642 252.041 114.611C253.038 115.57 253.505 117.416 254.611 118.142C255.576 118.776 256.731 118.329 257.716 119.001C258.979 119.864 259.07 121.756 260.559 122.448Z" fill="#2F2E41"/>
<path d="M276.164 166.461L278.008 162.774C278.008 162.774 305.045 170.763 310.575 178.136C310.575 178.136 324.094 169.534 331.468 170.763L338.841 171.992L316.105 192.27L287.225 189.812L276.164 166.461Z" fill="#F2F2F2"/>
<path d="M274.94 162.774L249.746 197.8L286.001 215.62C286.001 215.62 289.39 217.463 291.997 215.62L316.11 204.559L338.846 171.992L316.11 183.667C316.11 183.667 313.652 178.751 308.736 181.209L274.94 162.774Z" fill="#F9B738"/>
<path d="M313.651 224.837L318.566 211.933C318.566 211.933 329.627 197.8 323.482 191.04C317.337 184.281 310.578 210.704 310.578 210.704L313.651 224.837Z" fill="#A0616A"/>
<path d="M256.928 222.779L267.654 214.083C267.654 214.083 284.313 207.407 282.389 198.477C280.464 189.547 261.361 209.012 261.361 209.012L256.928 222.779Z" fill="#A0616A"/>
<path opacity="0.1" d="M230.388 160.627H229.774C229.774 160.627 220.249 149.259 218.406 164.621C216.562 179.983 210.418 230.985 226.394 232.828C242.371 234.672 253.739 225.147 253.739 225.147C253.739 225.147 265.414 207.327 261.112 207.327C259.031 207.327 253.371 206.393 248.208 206.713C242.701 207.055 237.752 208.606 238.069 207.02C238.684 203.948 247.594 164.928 230.388 160.627Z" fill="black"/>
<path d="M229.465 148.643L227.007 147.414C227.007 147.414 217.175 149.258 215.332 164.62C213.488 179.982 207.343 230.984 223.32 232.827C239.297 234.671 260.803 230.369 260.803 230.369C260.803 230.369 265.105 207.019 260.803 207.019C256.502 207.019 234.381 210.091 234.995 207.019C235.61 203.946 246.67 152.944 229.465 148.643Z" fill="#575A89"/>
<path d="M304.738 217.774L311.514 207.388L315.799 224.533L304.738 229.449V217.774Z" fill="#575A89"/>
<path d="M399.675 118.033C399.564 121.406 398.726 124.11 397.161 126.144C395.596 128.178 393.738 129.195 391.584 129.195C389.831 129.195 388.294 128.2 386.973 126.209C385.652 124.218 384.992 121.155 384.992 117.021C384.992 116.107 385.014 115.237 385.059 114.41C385.103 113.583 385.159 112.8 385.225 112.06L386.391 101.322H378.7C377.368 114.9 376.275 122.978 375.42 125.556C374.566 128.135 373.117 129.424 371.075 129.424C370.154 129.402 369.274 129.041 368.612 128.412C368.227 128.078 367.924 127.665 367.722 127.202C367.521 126.739 367.426 126.239 367.446 125.736C367.446 124.735 368.251 123.337 369.86 121.542C371.469 119.747 372.363 118.109 372.54 116.63L374.538 101.322H371.309C370.398 101.327 369.502 101.546 368.695 101.958C367.952 102.293 367.306 102.803 366.814 103.444L365.382 105.532H364.217C365.304 102.225 366.641 99.7392 368.229 98.0745C369.815 96.4099 371.641 95.5776 373.706 95.5776H399.142V101.322H390.552C390.286 103.933 390.081 106.544 389.936 109.155C389.792 111.766 389.72 114.388 389.72 117.021C389.72 118.806 390.142 120.253 390.985 121.362C391.829 122.472 392.883 123.027 394.148 123.027C394.925 123.027 395.741 122.717 396.595 122.096C397.001 121.817 397.341 121.456 397.591 121.036C397.841 120.616 397.995 120.149 398.044 119.665C398.11 119.187 398.16 118.811 398.193 118.539C398.227 118.267 398.243 118.098 398.243 118.033L399.675 118.033Z" fill="#324FC5"/>
<path d="M282.34 372.519H239.326V411.846H282.34V372.519Z" fill="#A6B2E4"/>
</g>
<defs>
<clipPath id="clip0">
<rect x="97.0449" y="0.788086" width="402.017" height="419.147" fill="white"/>
</clipPath>
</defs>
</svg>
