<svg width="48" height="48" viewBox="0 0 48 48" fill="none" xmlns="http://www.w3.org/2000/svg">
<circle cx="24" cy="24" r="24" fill="#324FC5"/>
<g clip-path="url(#clip0)">
<path d="M35.9719 13.7917C35.9199 12.8383 35.1617 12.0802 34.2084 12.0282C32.2847 11.9231 28.5204 12.0253 24.921 13.887C23.0861 14.8362 21.1455 16.4453 19.5968 18.302C19.5777 18.3248 19.5591 18.3479 19.5402 18.3708L16.0255 18.6423C15.447 18.687 14.9317 18.9902 14.6117 19.4742L12.2139 23.101C11.9712 23.468 11.9326 23.9273 12.1106 24.3297C12.2886 24.732 12.6544 25.0124 13.0892 25.0798L16.0503 25.5384C16.0399 25.596 16.0294 25.6535 16.0198 25.7111C15.9212 26.3008 16.1166 26.907 16.5425 27.3329L20.6671 31.4576C21.0202 31.8107 21.4974 32.0054 21.9863 32.0054C22.0869 32.0054 22.1882 31.9971 22.289 31.9802C22.3465 31.9706 22.4041 31.9601 22.4616 31.9497L22.9202 34.9109C22.9876 35.3456 23.268 35.7115 23.6703 35.8895C23.8377 35.9635 24.0148 36.0001 24.1912 36.0001C24.4388 36 24.6847 35.9279 24.899 35.7862L28.5258 33.3884C29.0098 33.0683 29.313 32.553 29.3576 31.9746L29.6291 28.4599C29.6521 28.441 29.6751 28.4224 29.698 28.4033C31.5547 26.8546 33.1639 24.914 34.113 23.079C35.9748 19.4795 36.0768 15.7152 35.9719 13.7917ZM27.7503 32.2153L24.281 34.509L23.834 31.6231C25.3003 31.192 26.7507 30.5016 28.1326 29.5766L27.9557 31.8662C27.9447 32.009 27.8698 32.1363 27.7503 32.2153ZM21.6615 30.4632L17.5368 26.3385C17.4316 26.2333 17.3829 26.0854 17.4068 25.9429C17.5294 25.2097 17.7199 24.5116 17.9558 23.8541L24.1446 30.0429C23.3549 30.3258 22.6475 30.4945 22.0571 30.5932C21.9144 30.617 21.7667 30.5684 21.6615 30.4632ZM16.1338 20.0444L18.4234 19.8675C17.4984 21.2493 16.8079 22.6998 16.3768 24.166L13.491 23.7191L15.7847 20.2498C15.8638 20.1302 15.991 20.0554 16.1338 20.0444ZM28.7973 27.3234C27.6614 28.2709 26.5588 28.9562 25.5424 29.4521L18.5477 22.4573C19.1973 21.1306 19.9901 20.0258 20.6766 19.2028C22.1098 17.4846 23.8923 16.0023 25.5671 15.1361C28.8706 13.4273 32.3511 13.3353 34.1318 13.4323C34.3675 13.4451 34.5549 13.6326 34.5678 13.8683C34.6649 15.649 34.5727 19.1294 32.8639 22.433C31.9977 24.1077 30.5155 25.8902 28.7973 27.3234Z" fill="white"/>
<path d="M28.4413 23.0707C29.3414 23.0706 30.2419 22.7279 30.9271 22.0427C31.5912 21.3787 31.9568 20.4958 31.9568 19.5568C31.9568 18.6178 31.5911 17.735 30.9271 17.071C29.5564 15.7002 27.3261 15.7003 25.9555 17.071C25.2915 17.735 24.9258 18.6178 24.9258 19.5568C24.9258 20.4958 25.2915 21.3787 25.9555 22.0427C26.6409 22.7281 27.5409 23.0708 28.4413 23.0707ZM26.9497 18.0653C27.3609 17.6541 27.9011 17.4485 28.4412 17.4485C28.9814 17.4485 29.5215 17.6541 29.9327 18.0653C30.3311 18.4637 30.5505 18.9934 30.5505 19.5568C30.5505 20.1202 30.3311 20.6499 29.9327 21.0483C29.1104 21.8707 27.7721 21.8707 26.9497 21.0483C26.5513 20.6499 26.3319 20.1202 26.3319 19.5568C26.3319 18.9934 26.5514 18.4637 26.9497 18.0653Z" fill="white"/>
<path d="M12.7187 31.78C12.8987 31.78 13.0786 31.7114 13.2159 31.574L15.5115 29.2784C15.7861 29.0038 15.7861 28.5587 15.5115 28.2841C15.2369 28.0095 14.7917 28.0095 14.5171 28.2841L12.2216 30.5797C11.947 30.8543 11.947 31.2994 12.2216 31.574C12.3588 31.7113 12.5388 31.78 12.7187 31.78Z" fill="white"/>
<path d="M17.6138 30.3851C17.3392 30.1106 16.894 30.1106 16.6194 30.3851L12.2059 34.7987C11.9314 35.0733 11.9314 35.5184 12.2059 35.793C12.3432 35.9303 12.5231 35.9989 12.7031 35.9989C12.8831 35.9989 13.063 35.9303 13.2003 35.793L17.6137 31.3795C17.8884 31.1049 17.8884 30.6597 17.6138 30.3851Z" fill="white"/>
<path d="M18.7242 32.4911L16.4286 34.7867C16.154 35.0613 16.154 35.5065 16.4286 35.7811C16.5659 35.9184 16.7459 35.987 16.9258 35.987C17.1057 35.987 17.2857 35.9184 17.4229 35.7811L19.7185 33.4855C19.9931 33.2109 19.9931 32.7657 19.7185 32.4911C19.444 32.2165 18.9988 32.2165 18.7242 32.4911Z" fill="white"/>
</g>
<defs>
<clipPath id="clip0">
<rect x="12" y="12" width="24" height="24" fill="white"/>
</clipPath>
</defs>
</svg>
