<svg width="68" height="87" viewBox="0 0 68 87" fill="none" xmlns="http://www.w3.org/2000/svg">
<path d="M6.4717 76.9229C7.55886 80.6944 10.7332 83.3345 14.0445 85.5772C14.5069 85.8904 14.9694 86.1965 15.432 86.4952C15.4351 86.4966 15.4384 86.4995 15.4415 86.5009C15.4638 86.5152 15.4861 86.5296 15.5068 86.544C15.6023 86.6055 15.6978 86.6671 15.7925 86.7279L15.7405 86.7513C15.7405 86.7513 15.6894 86.7785 15.7453 86.7557C15.7619 86.7487 15.7794 86.7425 15.796 86.7355C17.7196 85.9596 19.6774 85.1266 21.1516 83.6732C22.6808 82.164 23.5745 79.7968 22.7464 77.814C22.6376 77.5543 22.5001 77.3076 22.3366 77.0783C22.2694 76.9822 22.197 76.8902 22.1217 76.7999C21.665 76.2425 21.0679 75.8167 20.3921 75.5664C19.7162 75.3162 18.9859 75.2504 18.2762 75.376C17.5665 75.5016 16.9031 75.8139 16.3541 76.2808C15.8051 76.7478 15.3904 77.3526 15.1527 78.0329C14.9094 75.7679 16.7771 73.8706 18.5745 72.4707C20.3727 71.0714 22.4159 69.5476 22.7635 67.2952C22.9577 66.0419 22.5219 64.8274 21.728 63.8525C21.7034 63.8228 21.6789 63.7932 21.6535 63.7644C20.6872 62.6289 19.328 61.8997 17.8474 61.7225C15.0902 61.436 12.4119 62.8955 10.4088 64.8125C7.18484 67.897 5.23581 72.6347 6.4717 76.9229Z" fill="#F2F2F2"/>
<path d="M11.6539 71.9901C11.1248 72.8134 10.7185 73.7094 10.4479 74.65C10.2191 75.4907 10.1173 76.3608 10.1458 77.2316C10.2196 79.0234 10.7226 80.7713 11.6126 82.3283C12.2829 83.5095 13.0999 84.6012 14.0441 85.5775C14.5064 85.8907 14.9689 86.1967 15.4315 86.4955C15.4347 86.4969 15.4379 86.4998 15.4411 86.5012C15.4633 86.5155 15.4856 86.5298 15.5064 86.5442C15.6019 86.6057 15.6974 86.6673 15.7921 86.7282C15.7921 86.7282 15.689 86.7787 15.7449 86.7559C15.7615 86.7489 15.7789 86.7427 15.7955 86.7357C15.6231 85.3222 15.792 83.8879 16.2881 82.5531C16.7841 81.2183 17.5929 80.0219 18.6466 79.064C19.7028 78.1207 20.967 77.4404 22.3361 77.0786C22.2689 76.9825 22.1966 76.8905 22.1213 76.8002C21.5925 76.9485 21.0779 77.1432 20.5834 77.3821C18.8158 78.231 17.3685 79.6263 16.4557 81.3617C15.6365 82.9376 15.284 84.7144 15.4394 86.4835C15.3604 86.4119 15.2813 86.3387 15.2045 86.2663C13.7428 84.9034 12.4444 83.3391 11.5657 81.5338C10.8034 80.005 10.4288 78.3121 10.4748 76.6044C10.5465 74.7423 11.2884 73.0175 12.3626 71.516C13.54 69.914 14.9308 68.4806 16.4965 67.2555C18.0744 65.9917 19.801 64.9257 21.6379 64.0814C21.6793 64.062 21.7117 64.0275 21.7284 63.9849C21.7451 63.9424 21.7448 63.895 21.7275 63.8527C21.7153 63.8147 21.6885 63.7831 21.6531 63.7647C21.6349 63.7568 21.6151 63.7532 21.5953 63.754C21.5754 63.7549 21.556 63.7602 21.5385 63.7696C21.3117 63.874 21.0865 63.9798 20.8631 64.0902C19.0023 65.0099 17.263 66.1573 15.6851 67.5058C14.161 68.8053 12.7261 70.2899 11.6539 71.9901Z" fill="white"/>
<path d="M43.6033 19.4299C46.7117 17.7307 47.8094 13.7516 46.055 10.5424C44.3007 7.33308 40.3586 6.10892 37.2503 7.80811C34.1419 9.5073 33.0442 13.4864 34.7986 16.6957C36.5529 19.9049 40.495 21.1291 43.6033 19.4299Z" fill="#2F2E41"/>
<path d="M40.4269 20.6047C43.3459 20.6047 45.7122 18.2384 45.7122 15.3195C45.7122 12.4005 43.3459 10.0342 40.4269 10.0342C37.5079 10.0342 35.1416 12.4005 35.1416 15.3195C35.1416 18.2384 37.5079 20.6047 40.4269 20.6047Z" fill="#FFB8B8"/>
<path d="M37.5928 23.4053L36.9131 25.3278L37.9128 31.1141L42.0329 34.5373L45.3047 29.4782L43.7294 24.6916L42.5479 23.3587C42.5595 23.2388 42.5462 23.1179 42.5088 23.0035C42.4715 22.8891 42.4109 22.7836 42.3308 22.6937C42.2508 22.6038 42.153 22.5314 42.0437 22.481C41.9343 22.4307 41.8158 22.4035 41.6954 22.4012L39.1151 22.3509C38.7828 22.3444 38.4568 22.4428 38.1836 22.6321C37.9103 22.8213 37.7036 23.0919 37.5928 23.4053Z" fill="#CCCCCC"/>
<path d="M48.5414 84.3521L51.1796 84.3517L51.5439 74.1758L48.5405 74.1762L48.5414 84.3521Z" fill="#FFB8B8"/>
<path d="M56.2681 86.8008L47.9766 86.8015L47.9763 83.598L53.0643 83.5976C53.9139 83.5975 54.7287 83.9349 55.3296 84.5356C55.9304 85.1364 56.268 85.9511 56.2681 86.8008L56.2681 86.8008Z" fill="#2F2E41"/>
<path d="M30.0604 84.3521L32.6987 84.3517L33.9532 74.1758L30.0596 74.1762L30.0604 84.3521Z" fill="#FFB8B8"/>
<path d="M37.7866 86.8008L29.4952 86.8015L29.4949 83.598L34.5828 83.5976C35.4324 83.5975 36.2473 83.9349 36.8481 84.5356C37.449 85.1364 37.7865 85.9511 37.7866 86.8008L37.7866 86.8008Z" fill="#2F2E41"/>
<path d="M53.2575 12.8897C53.5282 13.0535 53.7597 13.2746 53.9357 13.5374C54.1117 13.8003 54.2279 14.0986 54.2761 14.4112C54.3244 14.7239 54.3035 15.0433 54.215 15.347C54.1264 15.6507 53.9724 15.9313 53.7636 16.169L55.9457 20.6064L53.5725 22.5901L50.579 16.2803C50.2029 15.9032 49.9782 15.4013 49.9475 14.8695C49.9167 14.3378 50.0821 13.8133 50.4123 13.3954C50.7424 12.9774 51.2144 12.6951 51.7388 12.6019C52.2632 12.5087 52.8036 12.6111 53.2575 12.8897H53.2575Z" fill="#FFB8B8"/>
<path d="M37.5276 47.6371C36.2415 47.6204 34.9576 47.5257 33.6829 47.3535C33.4648 47.326 33.2552 47.2521 33.0681 47.1366C32.881 47.0212 32.7208 46.867 32.5983 46.6844C32.4759 46.5019 32.3941 46.2951 32.3583 46.0782C32.3226 45.8613 32.3338 45.6393 32.3912 45.4271L35.2471 34.8526L32.9472 28.4002C32.6994 27.7033 32.7271 26.9382 33.0248 26.2612C33.3224 25.5841 33.8675 25.0464 34.5485 24.7579L37.7076 23.4223L38.6571 29.2998L40.9192 32.152C40.9943 32.2467 41.0916 32.3214 41.2024 32.3696C41.3133 32.4177 41.4343 32.4378 41.5548 32.428C41.6753 32.4183 41.7915 32.379 41.8932 32.3136C41.9949 32.2482 42.0789 32.1588 42.1377 32.0532L43.8555 28.9742L42.4524 23.3164L44.5444 23.5639C45.2197 23.646 45.8584 23.9162 46.3877 24.3436C46.917 24.771 47.3156 25.3386 47.5381 25.9815C48.181 27.8511 48.237 29.8726 47.6987 31.775L46.8318 34.8548L48.3541 44.6936C48.3957 44.9617 48.3825 45.2355 48.3152 45.4983C48.2479 45.7612 48.1279 46.0076 47.9626 46.2227C47.7972 46.4378 47.5899 46.6171 47.3533 46.7497C47.1166 46.8823 46.8554 46.9655 46.5857 46.9942C45.613 47.1063 44.6335 47.1472 43.6549 47.1168C42.7669 47.079 42.1432 46.5375 41.8512 45.5508C41.8353 45.4931 41.801 45.4421 41.7535 45.4057C41.7059 45.3692 41.6478 45.3494 41.5879 45.3491C41.528 45.3487 41.4697 45.368 41.4217 45.404C41.3738 45.4399 41.339 45.4905 41.3225 45.5481C41.2417 45.8346 41.1528 46.1537 41.0558 46.5053C40.8206 47.3588 39.3478 47.6371 37.5276 47.6371Z" fill="#2F2E41"/>
<path d="M46.7067 28.5498C46.4444 28.5505 46.1846 28.4991 45.9423 28.3988C45.6577 28.2808 45.4065 28.0948 45.2107 27.857C45.0148 27.6191 44.8805 27.3369 44.8193 27.0349C44.7271 26.556 44.7913 26.0601 45.0024 25.6205C45.2135 25.1808 45.5603 24.8206 45.9917 24.5931L52.1562 21.2461L51.819 19.913C51.7724 19.7085 51.7867 19.4948 51.8604 19.2985C51.934 19.1021 52.0637 18.9317 52.2333 18.8083L53.8228 17.6275C53.9436 17.5349 54.0836 17.4704 54.2325 17.439C54.3814 17.4075 54.5355 17.4098 54.6835 17.4457C54.8138 17.4785 54.9353 17.54 55.0388 17.6258C55.1423 17.7116 55.2252 17.8195 55.2816 17.9416L56.1074 19.7246C56.7608 21.1352 56.2022 22.8725 54.808 23.7657L47.894 28.1947C47.5402 28.424 47.1282 28.5472 46.7067 28.5498Z" fill="#2F2E41"/>
<path d="M33.7193 79.6215C33.6979 79.6215 33.6763 79.6208 33.6546 79.6194L30.2957 79.4845C30.1655 79.4763 30.0382 79.442 29.9215 79.3834C29.8049 79.3248 29.7013 79.2433 29.6169 79.1436C29.5326 79.044 29.4693 78.9283 29.4308 78.8036C29.3923 78.6789 29.3794 78.5477 29.3929 78.4179L32.8019 45.6206L41.7486 42.3672L47.0173 45.3486L52.7812 77.1278C52.8265 77.371 52.777 77.6223 52.6429 77.8302C52.5088 78.038 52.3002 78.1867 52.06 78.2457L52.046 78.2491L48.6076 78.1647C48.3706 78.2183 48.1222 78.1811 47.9112 78.0605C47.7003 77.9399 47.5422 77.7446 47.4682 77.5132L40.1455 51.8166C40.1235 51.7495 40.0802 51.6915 40.0221 51.6514C39.964 51.6113 39.8943 51.5914 39.8238 51.5947C39.7533 51.5979 39.6858 51.6242 39.6316 51.6695C39.5775 51.7148 39.5397 51.7766 39.524 51.8454L34.6628 78.8632C34.6156 79.0782 34.4963 79.2707 34.3247 79.4086C34.1531 79.5465 33.9395 79.6216 33.7193 79.6215Z" fill="#2F2E41"/>
<path d="M35.8105 11.9839C34.9697 13.0846 35.6096 14.9582 36.948 15.3147C38.2865 15.6712 39.7735 14.3641 39.5916 12.9909C39.3028 14.4316 40.5357 15.9392 41.9995 16.0673C43.4632 16.1954 44.8864 15.0486 45.2066 13.6146C45.5268 12.1806 44.8121 10.6138 43.5955 9.79003C42.3788 8.96623 40.7496 8.85922 39.3729 9.37282C37.9676 9.89845 36.7348 10.802 35.8105 11.9839Z" fill="#2F2E41"/>
<path d="M42.1815 7.28518C41.3986 5.64221 40.5942 3.96774 39.3289 2.65962C38.0635 1.35151 36.2331 0.450561 34.4394 0.759029C32.6458 1.0675 31.1012 2.87777 31.4984 4.65385C31.7002 5.55601 30.9278 6.44991 30.0373 6.69841C29.1469 6.94692 28.198 6.71452 27.3177 6.43211C26.4374 6.1497 25.5457 5.81248 24.6221 5.85224C22.7701 5.93196 21.2218 7.68493 21.1567 9.53746C21.0916 11.39 22.3518 13.1534 24.0425 13.9133C25.7333 14.6733 27.7556 14.503 29.4233 13.6937C31.091 12.8844 32.4244 11.4891 33.3995 9.91262C34.8403 7.5831 38.461 7.00854 40.5523 8.77756C40.7762 8.95337 41.0582 9.03836 41.342 9.0156C41.6258 8.99285 41.8906 8.86401 42.0837 8.65476C42.4535 8.22325 42.3999 7.49521 42.1815 7.28518Z" fill="#2F2E41"/>
<path d="M36.3412 42.5314L35.9675 41.6628C34.657 38.5417 33.7813 36.5044 34.5538 34.8224C34.8341 34.1827 35.357 33.6807 36.0075 33.4266C36.658 33.1725 37.3828 33.1872 38.0224 33.4675C38.0457 33.4777 38.0689 33.4883 38.0919 33.4992C38.4687 33.6747 38.8028 33.93 39.071 34.2476C39.3391 34.5652 39.535 34.9373 39.6449 35.3382C40.0206 35.1603 40.4305 35.0664 40.8461 35.0629C41.2618 35.0594 41.6732 35.1464 42.0518 35.3179C42.3677 35.4586 42.6528 35.6601 42.8907 35.911C43.1287 36.1619 43.315 36.4572 43.4388 36.78C43.5627 37.1029 43.6217 37.4469 43.6126 37.7926C43.6035 38.1383 43.5264 38.4788 43.3857 38.7946C43.3753 38.8179 43.3646 38.841 43.3536 38.864C42.5811 40.546 40.465 41.2092 37.2436 42.2489L36.3412 42.5314Z" fill="#6C63FF"/>
<path d="M37.7812 38.2641C37.6805 37.9642 37.5153 37.69 37.2972 37.4609C37.0792 37.2317 36.8135 37.0531 36.5189 36.9378C36.2244 36.8224 35.9081 36.773 35.5924 36.7931C35.2767 36.8131 34.9692 36.9022 34.6916 37.054L30.8238 34.1484L29.8901 36.8063L33.8874 40.1373C34.1732 40.5867 34.614 40.9157 35.1262 41.0618C35.6384 41.2079 36.1863 41.1611 36.6663 40.9302C37.1463 40.6993 37.5248 40.3004 37.7303 39.809C37.9358 39.3176 37.9539 38.7679 37.7812 38.2641H37.7812Z" fill="#FFB8B8"/>
<path d="M32.235 39.1809C32.0646 39.1808 31.8977 39.1324 31.7538 39.0412L30.0928 37.9914C28.7785 37.1609 28.3053 35.3984 28.9919 33.8917L32.3969 26.42C32.5336 26.1068 32.744 25.8314 33.0102 25.6172C33.2764 25.4029 33.5905 25.2563 33.9257 25.1898C34.2287 25.1344 34.5408 25.1544 34.8343 25.2479C35.1278 25.3414 35.3939 25.5057 35.609 25.7262C35.9463 26.0785 36.1614 26.5299 36.2226 27.0137C36.2838 27.4976 36.1879 27.9883 35.9489 28.4135L32.5863 34.5695L33.5929 35.5063C33.743 35.6528 33.8469 35.8401 33.8915 36.045C33.9362 36.2499 33.9198 36.4634 33.8443 36.6591L33.1496 38.5134C33.0984 38.6568 33.0157 38.7868 32.9076 38.894C32.7996 39.0012 32.6689 39.083 32.5252 39.1332C32.4317 39.1647 32.3337 39.1808 32.235 39.1809Z" fill="#2F2E41"/>
<path d="M67.7848 86.9997H0.21519C0.158118 86.9997 0.103387 86.977 0.0630308 86.9367C0.0226748 86.8963 0 86.8416 0 86.7845C0 86.7275 0.0226748 86.6727 0.0630308 86.6324C0.103387 86.592 0.158118 86.5693 0.21519 86.5693H67.7848C67.8419 86.5693 67.8966 86.592 67.937 86.6324C67.9773 86.6727 68 86.7275 68 86.7845C68 86.8416 67.9773 86.8963 67.937 86.9367C67.8966 86.977 67.8419 86.9997 67.7848 86.9997Z" fill="#CCCCCC"/>
</svg>
