<svg width="159" height="126" viewBox="0 0 159 126" fill="none" xmlns="http://www.w3.org/2000/svg">
<g opacity="0.9" clip-path="url(#clip0)">
<path d="M118.217 0H0V68.9184H118.217V0Z" fill="url(#paint0_linear)"/>
<path d="M116.853 1.1377H1.59082V4.66323H116.853V1.1377Z" fill="#F5F5F5"/>
<path d="M116.853 4.66211H1.59082V67.0981H116.853V4.66211Z" fill="white"/>
<path d="M4.22784 3.84339C4.78029 3.84339 5.22814 3.39532 5.22814 2.84259C5.22814 2.28987 4.78029 1.8418 4.22784 1.8418C3.67539 1.8418 3.22754 2.28987 3.22754 2.84259C3.22754 3.39532 3.67539 3.84339 4.22784 3.84339Z" fill="url(#paint1_linear)"/>
<path d="M6.50225 3.84339C7.0547 3.84339 7.50255 3.39532 7.50255 2.84259C7.50255 2.28987 7.0547 1.8418 6.50225 1.8418C5.9498 1.8418 5.50195 2.28987 5.50195 2.84259C5.50195 3.39532 5.9498 3.84339 6.50225 3.84339Z" fill="url(#paint2_linear)"/>
<path d="M8.77569 3.84339C9.32814 3.84339 9.77599 3.39532 9.77599 2.84259C9.77599 2.28987 9.32814 1.8418 8.77569 1.8418C8.22324 1.8418 7.77539 2.28987 7.77539 2.84259C7.77539 3.39532 8.22324 3.84339 8.77569 3.84339Z" fill="url(#paint3_linear)"/>
<path d="M4.22858 3.66208C4.68059 3.66208 5.04701 3.29548 5.04701 2.84325C5.04701 2.39102 4.68059 2.02441 4.22858 2.02441C3.77658 2.02441 3.41016 2.39102 3.41016 2.84325C3.41016 3.29548 3.77658 3.66208 4.22858 3.66208Z" fill="#FF5252"/>
<path d="M6.47956 3.66208C6.93157 3.66208 7.29799 3.29548 7.29799 2.84325C7.29799 2.39102 6.93157 2.02441 6.47956 2.02441C6.02756 2.02441 5.66113 2.39102 5.66113 2.84325C5.66113 3.29548 6.02756 3.66208 6.47956 3.66208Z" fill="#FFFF00"/>
<path d="M8.73054 3.66208C9.18254 3.66208 9.54896 3.29548 9.54896 2.84325C9.54896 2.39102 9.18254 2.02441 8.73054 2.02441C8.27853 2.02441 7.91211 2.39102 7.91211 2.84325C7.91211 3.29548 8.27853 3.66208 8.73054 3.66208Z" fill="#69F0AE"/>
<path d="M94.2627 9.58008H26.4434V43.1531H94.2627V9.58008Z" fill="url(#paint4_linear)"/>
<path d="M93.5559 10.2861H27.1494V42.0922H93.5559V10.2861Z" fill="#536DFE"/>
<path d="M30.6826 14.5283V37.4994" stroke="white" stroke-linecap="round" stroke-linejoin="round"/>
<path d="M30.5049 39.0889H89.1404" stroke="white" stroke-linecap="round" stroke-linejoin="round"/>
<path opacity="0.3" d="M37.2168 15.7646H82.7829" stroke="white" stroke-linecap="round" stroke-linejoin="round"/>
<path opacity="0.3" d="M37.2168 21.0664H82.7829" stroke="white" stroke-linecap="round" stroke-linejoin="round"/>
<path opacity="0.3" d="M37.2168 26.3662H82.7829" stroke="white" stroke-linecap="round" stroke-linejoin="round"/>
<path opacity="0.3" d="M37.2168 31.668H82.7829" stroke="white" stroke-linecap="round" stroke-linejoin="round"/>
<path opacity="0.2" d="M40.2191 39.0895V26.3671C40.2191 26.3671 39.1594 20.8893 49.9328 21.066C59.7307 19.6751 59.7307 15.6289 59.7307 15.6289C59.7307 15.6289 68.7419 14.6481 69.1989 24.2405C69.2313 25.0311 69.4428 25.8041 69.8174 26.501C70.192 27.1979 70.72 27.8006 71.3614 28.2636C75.0741 30.8831 78.2981 25.6634 79.7804 21.066V39.0895H40.2191Z" fill="white"/>
<path d="M49.0506 22.3028C49.8309 22.3028 50.4635 21.6699 50.4635 20.8892C50.4635 20.1085 49.8309 19.4756 49.0506 19.4756C48.2703 19.4756 47.6377 20.1085 47.6377 20.8892C47.6377 21.6699 48.2703 22.3028 49.0506 22.3028Z" fill="#536DFE"/>
<path opacity="0.5" d="M49.0506 22.3028C49.8309 22.3028 50.4635 21.6699 50.4635 20.8892C50.4635 20.1085 49.8309 19.4756 49.0506 19.4756C48.2703 19.4756 47.6377 20.1085 47.6377 20.8892C47.6377 21.6699 48.2703 22.3028 49.0506 22.3028Z" fill="white"/>
<path d="M40.2192 28.3104C41.1947 28.3104 41.9854 27.5193 41.9854 26.5434C41.9854 25.5675 41.1947 24.7764 40.2192 24.7764C39.2438 24.7764 38.4531 25.5675 38.4531 26.5434C38.4531 27.5193 39.2438 28.3104 40.2192 28.3104Z" fill="url(#paint5_linear)"/>
<path d="M49.0493 22.6561C50.0247 22.6561 50.8155 21.865 50.8155 20.8891C50.8155 19.9132 50.0247 19.1221 49.0493 19.1221C48.0739 19.1221 47.2832 19.9132 47.2832 20.8891C47.2832 21.865 48.0739 22.6561 49.0493 22.6561Z" fill="url(#paint6_linear)"/>
<path d="M59.7896 17.6658C60.765 17.6658 61.5557 16.8747 61.5557 15.8988C61.5557 14.923 60.765 14.1318 59.7896 14.1318C58.8142 14.1318 58.0234 14.923 58.0234 15.8988C58.0234 16.8747 58.8142 17.6658 59.7896 17.6658Z" fill="url(#paint7_linear)"/>
<path d="M69.5366 28.3104C70.512 28.3104 71.3028 27.5193 71.3028 26.5434C71.3028 25.5675 70.512 24.7764 69.5366 24.7764C68.5612 24.7764 67.7705 25.5675 67.7705 26.5434C67.7705 27.5193 68.5612 28.3104 69.5366 28.3104Z" fill="url(#paint8_linear)"/>
<path d="M79.7798 23.3621C80.7552 23.3621 81.5459 22.571 81.5459 21.5951C81.5459 20.6192 80.7552 19.8281 79.7798 19.8281C78.8044 19.8281 78.0137 20.6192 78.0137 21.5951C78.0137 22.571 78.8044 23.3621 79.7798 23.3621Z" fill="url(#paint9_linear)"/>
<path d="M40.2195 27.9571C40.9999 27.9571 41.6324 27.3242 41.6324 26.5435C41.6324 25.7628 40.9999 25.1299 40.2195 25.1299C39.4392 25.1299 38.8066 25.7628 38.8066 26.5435C38.8066 27.3242 39.4392 27.9571 40.2195 27.9571Z" fill="#536DFE"/>
<path opacity="0.2" d="M40.2195 27.9571C40.9999 27.9571 41.6324 27.3242 41.6324 26.5435C41.6324 25.7628 40.9999 25.1299 40.2195 25.1299C39.4392 25.1299 38.8066 25.7628 38.8066 26.5435C38.8066 27.3242 39.4392 27.9571 40.2195 27.9571Z" fill="black"/>
<path d="M59.7889 17.3135C60.5692 17.3135 61.2018 16.6806 61.2018 15.8999C61.2018 15.1192 60.5692 14.4863 59.7889 14.4863C59.0086 14.4863 58.376 15.1192 58.376 15.8999C58.376 16.6806 59.0086 17.3135 59.7889 17.3135Z" fill="#536DFE"/>
<path opacity="0.2" d="M59.7889 17.3135C60.5692 17.3135 61.2018 16.6806 61.2018 15.8999C61.2018 15.1192 60.5692 14.4863 59.7889 14.4863C59.0086 14.4863 58.376 15.1192 58.376 15.8999C58.376 16.6806 59.0086 17.3135 59.7889 17.3135Z" fill="black"/>
<path d="M69.5369 27.9571C70.3173 27.9571 70.9498 27.3242 70.9498 26.5435C70.9498 25.7628 70.3173 25.1299 69.5369 25.1299C68.7566 25.1299 68.124 25.7628 68.124 26.5435C68.124 27.3242 68.7566 27.9571 69.5369 27.9571Z" fill="#536DFE"/>
<path opacity="0.5" d="M69.5369 27.9571C70.3173 27.9571 70.9498 27.3242 70.9498 26.5435C70.9498 25.7628 70.3173 25.1299 69.5369 25.1299C68.7566 25.1299 68.124 25.7628 68.124 26.5435C68.124 27.3242 68.7566 27.9571 69.5369 27.9571Z" fill="white"/>
<path d="M79.7811 23.0098C80.5614 23.0098 81.194 22.3769 81.194 21.5962C81.194 20.8155 80.5614 20.1826 79.7811 20.1826C79.0007 20.1826 78.3682 20.8155 78.3682 21.5962C78.3682 22.3769 79.0007 23.0098 79.7811 23.0098Z" fill="#536DFE"/>
<path opacity="0.2" d="M79.7811 23.0098C80.5614 23.0098 81.194 22.3769 81.194 21.5962C81.194 20.8155 80.5614 20.1826 79.7811 20.1826C79.0007 20.1826 78.3682 20.8155 78.3682 21.5962C78.3682 22.3769 79.0007 23.0098 79.7811 23.0098Z" fill="black"/>
<path d="M93.952 47.0645H26.7549V49.2432H93.952V47.0645Z" fill="url(#paint10_linear)"/>
<path d="M93.952 50.1777H26.7549V52.3565H93.952V50.1777Z" fill="url(#paint11_linear)"/>
<path d="M93.952 53.29H26.7549V55.4688H93.952V53.29Z" fill="url(#paint12_linear)"/>
<path d="M93.952 56.4023H26.7549V58.5811H93.952V56.4023Z" fill="url(#paint13_linear)"/>
<path d="M93.6404 47.376H27.0654V48.9322H93.6404V47.376Z" fill="#E0E0E0"/>
<path d="M93.6404 50.4883H27.0654V52.0445H93.6404V50.4883Z" fill="#E0E0E0"/>
<path d="M93.6404 53.6016H27.0654V55.1578H93.6404V53.6016Z" fill="#E0E0E0"/>
<path d="M93.6404 56.7129H27.0654V58.2691H93.6404V56.7129Z" fill="#E0E0E0"/>
<path d="M129.791 7.41895C129.791 7.41895 130.129 8.54669 128.213 9.56166C126.297 10.5766 125.733 14.4109 127.988 15.5387C130.242 16.6664 130.918 18.1325 129.791 19.1474C128.664 20.1624 126.635 22.869 129.34 23.5456C132.045 24.2223 132.384 25.5756 131.595 26.1394C130.806 26.7033 133.398 25.1245 133.398 25.1245C133.398 25.1245 133.849 27.831 136.216 27.1544C138.583 26.4777 145.233 13.6215 141.852 11.8171C138.47 10.0127 129.791 7.41895 129.791 7.41895Z" fill="#2F2E41"/>
<path d="M138.526 103.026L137.793 109.87L140.968 111.825L143.9 111.336L142.434 103.026H138.526Z" fill="#9F616A"/>
<path d="M136.083 20.9089C139.86 20.9089 142.923 17.8452 142.923 14.0658C142.923 10.2864 139.86 7.22266 136.083 7.22266C132.305 7.22266 129.243 10.2864 129.243 14.0658C129.243 17.8452 132.305 20.9089 136.083 20.9089Z" fill="#9F616A"/>
<path d="M133.762 17.3656C133.762 17.3656 133.151 27.7525 132.418 27.7525C131.685 27.7525 140.968 27.2637 140.968 27.2637C140.968 27.2637 137.059 20.4206 139.014 18.221C140.968 16.0214 133.762 17.3656 133.762 17.3656Z" fill="#9F616A"/>
<path d="M143.899 72.2324L140.724 84.4522L143.166 105.226L137.548 104.737L135.35 72.2324H143.899Z" fill="#2F2E41"/>
<path opacity="0.2" d="M143.899 72.2324L140.724 84.4522L143.166 105.226L137.548 104.737L135.35 72.2324H143.899Z" fill="black"/>
<path d="M139.014 108.648C139.014 108.648 138.77 107.181 136.327 108.648C133.885 110.114 123.625 114.758 128.999 115.735C134.373 116.713 145.366 114.513 145.366 113.78C145.366 113.047 145.61 108.403 144.633 108.892C143.656 109.381 140.48 112.558 139.014 108.648Z" fill="#2F2E41"/>
<path d="M142.189 106.937C142.189 106.937 146.098 113.047 146.342 114.758C146.586 116.469 150.251 110.848 150.251 110.848L146.831 104.493L142.189 106.937Z" fill="#9F616A"/>
<path d="M129.243 73.2105L133.64 87.8743C133.64 87.8743 141.457 108.648 141.946 108.404C142.434 108.159 148.297 106.693 148.541 105.96C148.785 105.227 141.213 85.4304 141.213 85.4304L140.236 72.7217L129.243 73.2105Z" fill="#2F2E41"/>
<path d="M150.984 109.87C150.317 109.824 149.652 109.988 149.083 110.338C148.513 110.689 148.068 111.209 147.808 111.825C146.831 114.025 145.609 114.269 145.365 114.513C145.121 114.758 146.098 119.89 145.365 120.379C144.632 120.868 143.9 126 146.342 126C148.785 126 152.694 123.312 152.449 122.823C152.205 122.334 152.205 118.913 152.938 117.446C153.671 115.98 154.892 113.536 152.938 112.069C150.984 110.603 150.984 109.87 150.984 109.87Z" fill="#2F2E41"/>
<path d="M127.778 50.4819L127.289 54.8811C127.289 54.8811 123.625 58.547 122.404 62.9462C121.182 67.3454 111.167 74.6773 114.098 75.6549C117.03 76.6325 120.45 77.1213 128.999 75.6549C137.549 74.1885 150.984 77.3657 150.984 69.3005C150.984 69.3005 152.694 67.101 153.916 70.2781C154.776 72.4482 155.754 74.5695 156.847 76.6325C156.847 76.6325 159.778 71.5001 158.801 69.3005C157.824 67.101 158.801 67.3454 157.58 64.9014C156.358 62.4574 150.251 53.4147 147.809 52.9259C145.366 52.4371 140.725 46.0828 140.969 45.3496C141.213 44.6164 127.778 50.4819 127.778 50.4819Z" fill="#536DFE"/>
<path d="M140.968 23.1084C140.968 23.1084 130.953 25.308 130.464 26.7744C130.189 27.5992 128.91 29.12 127.843 30.2928C126.041 32.2434 124.844 34.6747 124.395 37.2922C124.14 38.8514 125.211 40.2534 125.701 42.0492C127.167 47.426 128.266 46.0818 126.8 49.9921C125.334 53.9025 134.128 55.3689 137.548 53.6581C140.968 51.9473 144.754 41.8048 144.754 40.5828C144.754 39.3608 148.052 25.5524 145.365 24.5748C142.678 23.5972 140.968 23.1084 140.968 23.1084Z" fill="#575A88"/>
<path d="M127.045 34.8398L124.113 47.7929L114.464 52.0699C114.464 52.0699 107.136 50.3591 106.892 53.0475C106.732 54.8026 115.197 55.4915 115.197 55.4915L129.243 49.9925L132.419 38.017L127.045 34.8398Z" fill="#9F616A"/>
<path d="M130.464 29.9512C130.464 29.9512 124.357 33.6171 125.823 35.5723C127.288 37.5275 130.953 40.7047 131.93 40.7047C132.907 40.7047 133.64 34.8391 133.64 33.1283C133.64 31.4176 130.464 29.9512 130.464 29.9512Z" fill="#575A88"/>
<path d="M136.575 5.17969C136.575 5.17969 136.95 6.429 134.827 7.55338C132.704 8.67775 132.08 12.9254 134.577 14.1747C137.075 15.424 137.824 17.0481 136.575 18.1725C135.326 19.2969 133.079 22.2952 136.076 23.0448C139.072 23.7944 139.447 25.2936 138.573 25.9182C137.699 26.5429 140.571 24.7939 140.571 24.7939C140.571 24.7939 141.07 27.7922 143.693 27.0426C146.315 26.293 148.931 12.6673 146.008 9.15788C143.29 5.89474 136.575 5.17969 136.575 5.17969Z" fill="#2F2E41"/>
<path d="M135.777 3.89332C135.778 2.06301 141.251 3.37817 143.598 5.93368C145.223 7.70334 147.691 10.3657 145.623 12.2425C143.554 14.1192 149.168 16.5794 150.673 17.3253C152.179 18.0712 155.151 20.3522 152.467 21.8824C149.783 23.4126 149.826 24.9573 150.837 25.3231C151.847 25.6888 148.61 24.7793 148.61 24.7793C148.61 24.7793 148.937 27.8013 146.209 27.7869C143.482 27.7724 135.658 12.7774 137.527 8.6094C139.265 4.73393 135.777 3.89332 135.777 3.89332Z" fill="#2F2E41"/>
<path d="M136.963 3.49191C129.644 3.05096 128.909 8.56299 128.909 8.56299C128.96 11.7528 134.023 10.1986 135.429 10.6741C137.126 9.45304 140.396 7.1427 142.735 5.49393C141.037 4.29776 139.036 3.60395 136.963 3.49191Z" fill="#2F2E41"/>
</g>
<defs>
<linearGradient id="paint0_linear" x1="59.1086" y1="68.9184" x2="59.1086" y2="0" gradientUnits="userSpaceOnUse">
<stop stop-color="#808080" stop-opacity="0.25"/>
<stop offset="0.53514" stop-color="#808080" stop-opacity="0.12"/>
<stop offset="1" stop-color="#808080" stop-opacity="0.1"/>
</linearGradient>
<linearGradient id="paint1_linear" x1="52.6427" y1="46.7627" x2="52.6427" y2="23.3719" gradientUnits="userSpaceOnUse">
<stop stop-color="#808080" stop-opacity="0.25"/>
<stop offset="0.53514" stop-color="#808080" stop-opacity="0.12"/>
<stop offset="1" stop-color="#808080" stop-opacity="0.1"/>
</linearGradient>
<linearGradient id="paint2_linear" x1="81.4844" y1="46.7627" x2="81.4844" y2="23.3719" gradientUnits="userSpaceOnUse">
<stop stop-color="#808080" stop-opacity="0.25"/>
<stop offset="0.53514" stop-color="#808080" stop-opacity="0.12"/>
<stop offset="1" stop-color="#808080" stop-opacity="0.1"/>
</linearGradient>
<linearGradient id="paint3_linear" x1="110.325" y1="46.7627" x2="110.325" y2="23.3719" gradientUnits="userSpaceOnUse">
<stop stop-color="#808080" stop-opacity="0.25"/>
<stop offset="0.53514" stop-color="#808080" stop-opacity="0.12"/>
<stop offset="1" stop-color="#808080" stop-opacity="0.1"/>
</linearGradient>
<linearGradient id="paint4_linear" x1="23935.5" y1="8468.17" x2="23935.5" y2="1887.41" gradientUnits="userSpaceOnUse">
<stop stop-color="#808080" stop-opacity="0.25"/>
<stop offset="0.53514" stop-color="#808080" stop-opacity="0.12"/>
<stop offset="1" stop-color="#808080" stop-opacity="0.1"/>
</linearGradient>
<linearGradient id="paint5_linear" x1="868.291" y1="608.903" x2="868.291" y2="535.986" gradientUnits="userSpaceOnUse">
<stop stop-color="#808080" stop-opacity="0.25"/>
<stop offset="0.53514" stop-color="#808080" stop-opacity="0.12"/>
<stop offset="1" stop-color="#808080" stop-opacity="0.1"/>
</linearGradient>
<linearGradient id="paint6_linear" x1="1059.33" y1="486.581" x2="1059.33" y2="413.664" gradientUnits="userSpaceOnUse">
<stop stop-color="#808080" stop-opacity="0.25"/>
<stop offset="0.53514" stop-color="#808080" stop-opacity="0.12"/>
<stop offset="1" stop-color="#808080" stop-opacity="0.1"/>
</linearGradient>
<linearGradient id="paint7_linear" x1="1291.65" y1="378.638" x2="1291.65" y2="305.721" gradientUnits="userSpaceOnUse">
<stop stop-color="#808080" stop-opacity="0.25"/>
<stop offset="0.53514" stop-color="#808080" stop-opacity="0.12"/>
<stop offset="1" stop-color="#808080" stop-opacity="0.1"/>
</linearGradient>
<linearGradient id="paint8_linear" x1="1502.53" y1="608.903" x2="1502.53" y2="535.986" gradientUnits="userSpaceOnUse">
<stop stop-color="#808080" stop-opacity="0.25"/>
<stop offset="0.53514" stop-color="#808080" stop-opacity="0.12"/>
<stop offset="1" stop-color="#808080" stop-opacity="0.1"/>
</linearGradient>
<linearGradient id="paint9_linear" x1="1724.12" y1="501.871" x2="1724.12" y2="428.954" gradientUnits="userSpaceOnUse">
<stop stop-color="#808080" stop-opacity="0.25"/>
<stop offset="0.53514" stop-color="#808080" stop-opacity="0.12"/>
<stop offset="1" stop-color="#808080" stop-opacity="0.1"/>
</linearGradient>
<linearGradient id="paint10_linear" x1="23716.4" y1="673.47" x2="23716.4" y2="645.755" gradientUnits="userSpaceOnUse">
<stop stop-color="#808080" stop-opacity="0.25"/>
<stop offset="0.53514" stop-color="#808080" stop-opacity="0.12"/>
<stop offset="1" stop-color="#808080" stop-opacity="0.1"/>
</linearGradient>
<linearGradient id="paint11_linear" x1="23716.4" y1="716.176" x2="23716.4" y2="688.461" gradientUnits="userSpaceOnUse">
<stop stop-color="#808080" stop-opacity="0.25"/>
<stop offset="0.53514" stop-color="#808080" stop-opacity="0.12"/>
<stop offset="1" stop-color="#808080" stop-opacity="0.1"/>
</linearGradient>
<linearGradient id="paint12_linear" x1="23716.4" y1="758.879" x2="23716.4" y2="731.164" gradientUnits="userSpaceOnUse">
<stop stop-color="#808080" stop-opacity="0.25"/>
<stop offset="0.53514" stop-color="#808080" stop-opacity="0.12"/>
<stop offset="1" stop-color="#808080" stop-opacity="0.1"/>
</linearGradient>
<linearGradient id="paint13_linear" x1="23716.4" y1="801.586" x2="23716.4" y2="773.871" gradientUnits="userSpaceOnUse">
<stop stop-color="#808080" stop-opacity="0.25"/>
<stop offset="0.53514" stop-color="#808080" stop-opacity="0.12"/>
<stop offset="1" stop-color="#808080" stop-opacity="0.1"/>
</linearGradient>
<clipPath id="clip0">
<rect width="159" height="126" fill="white"/>
</clipPath>
</defs>
</svg>
