<svg width="48" height="48" viewBox="0 0 48 48" fill="none" xmlns="http://www.w3.org/2000/svg">
<circle cx="24" cy="24" r="24" fill="#324FC5"/>
<path d="M38.9802 13.4741C38.9554 13.3884 38.908 13.311 38.843 13.25C38.7779 13.1889 38.6976 13.1465 38.6105 13.1272L35.5605 12.4381L34.8714 9.38801C34.8518 9.30115 34.8093 9.22114 34.7482 9.15633C34.6872 9.09152 34.6098 9.04429 34.5243 9.01956C34.4388 8.99484 34.3482 8.99353 34.262 9.01576C34.1757 9.038 34.0971 9.08298 34.0342 9.14599L30.5262 12.6545C27.5578 10.8632 24.0363 10.2205 20.6265 10.8475C17.2166 11.4745 14.1542 13.3279 12.0171 16.0579C9.87998 18.788 8.81605 22.2059 9.02608 25.6665C9.23611 29.1272 10.7056 32.3913 13.1571 34.8429C15.6087 37.2944 18.8728 38.7639 22.3335 38.9739C25.7941 39.1839 29.212 38.12 31.942 35.9829C34.6721 33.8458 36.5255 30.7834 37.1525 27.3735C37.7795 23.9637 37.1367 20.4422 35.3455 17.4737L38.8548 13.9644C38.9176 13.9013 38.9624 13.8226 38.9845 13.7364C39.0065 13.6501 39.0051 13.5596 38.9802 13.4741ZM36.3906 24.8084C36.3902 27.7139 35.431 30.5381 33.6618 32.8428C31.8925 35.1475 29.4122 36.804 26.6055 37.5552C23.7988 38.3064 20.8226 38.1104 18.1386 36.9976C15.4547 35.8848 13.213 33.9173 11.7613 31.4005C10.3096 28.8836 9.72905 25.9581 10.1097 23.0776C10.4903 20.1972 11.8109 17.5228 13.8666 15.4695C15.9222 13.4161 18.598 12.0985 21.4789 11.7211C24.3598 11.3436 27.2847 11.9275 29.7999 13.382L28.1888 14.993C28.175 15.0088 28.1622 15.0254 28.1505 15.0428C25.8242 13.8585 23.1518 13.5427 20.6136 14.1523C18.0755 14.7619 15.8379 16.2568 14.3032 18.3684C12.7685 20.4799 12.0373 23.0696 12.241 25.6721C12.4447 28.2745 13.5699 30.7189 15.4145 32.5659C17.259 34.413 19.7019 35.5416 22.304 35.7488C24.9061 35.956 27.4969 35.2283 29.6105 33.6965C31.7241 32.1647 33.2221 29.9292 33.8351 27.3918C34.4482 24.8545 34.1361 22.1816 32.9549 19.8538C32.9732 19.8409 32.9906 19.8267 33.007 19.8114L34.618 18.2004C35.7814 20.2081 36.393 22.4879 36.3906 24.8084ZM31.7738 19.7708C32.9961 21.8572 33.4161 24.3176 32.9553 26.6913C32.4944 29.0651 31.1844 31.1896 29.2703 32.6672C27.3562 34.1448 24.9692 34.8743 22.5562 34.719C20.1431 34.5638 17.8692 33.5346 16.1602 31.8239C14.4512 30.1132 13.4241 27.8384 13.2712 25.4252C13.1183 23.0119 13.8501 20.6257 15.3295 18.713C16.809 16.8003 18.9347 15.4923 21.309 15.0338C23.6832 14.5753 26.1431 14.9976 28.2284 16.2219L28.7525 18.5436L28.2497 19.0464C26.7503 17.7297 24.7976 17.0478 22.8045 17.1447C20.8114 17.2416 18.9341 18.1099 17.5696 19.5659C16.205 21.0218 15.4601 22.9514 15.4925 24.9466C15.5248 26.9418 16.3318 28.8462 17.7428 30.2572C19.1538 31.6682 21.0582 32.4752 23.0534 32.5075C25.0486 32.5399 26.9782 31.795 28.4341 30.4304C29.8901 29.0659 30.7583 27.1886 30.8553 25.1955C30.9522 23.2024 30.2702 21.2497 28.9536 19.7503L29.4564 19.2475L31.7738 19.7708ZM25.3316 24.8084C25.3334 25.2842 25.1771 25.747 24.8874 26.1244C24.5977 26.5018 24.1909 26.7723 23.7308 26.8935C23.2707 27.0147 22.7835 26.9797 22.3454 26.794C21.9074 26.6084 21.5434 26.2826 21.3105 25.8677C21.0777 25.4528 20.9891 24.9724 21.0588 24.5017C21.1285 24.0311 21.3524 23.5969 21.6955 23.2673C22.0386 22.9377 22.4814 22.7314 22.9545 22.6806C23.4275 22.6299 23.904 22.7376 24.3092 22.9869L22.8395 24.4566C22.792 24.5025 22.7541 24.5575 22.728 24.6182C22.7019 24.6789 22.6882 24.7442 22.6877 24.8103C22.6871 24.8764 22.6997 24.9419 22.7247 25.0031C22.7498 25.0642 22.7867 25.1198 22.8335 25.1665C22.8802 25.2132 22.9358 25.2502 22.997 25.2752C23.0581 25.3002 23.1237 25.3128 23.1897 25.3122C23.2558 25.3116 23.3211 25.2979 23.3818 25.2718C23.4426 25.2457 23.4975 25.2077 23.5434 25.1602L25.0131 23.6905C25.2212 24.0262 25.3315 24.4134 25.3316 24.8084ZM25.0256 22.2705C24.3844 21.8061 23.5917 21.6003 22.8056 21.6942C22.0194 21.788 21.2975 22.1747 20.7837 22.777C20.2698 23.3794 20.0018 24.1533 20.0331 24.9444C20.0643 25.7355 20.3925 26.4858 20.9523 27.0458C21.512 27.6057 22.2622 27.9342 23.0533 27.9658C23.8444 27.9974 24.6184 27.7297 25.2209 27.2161C25.8235 26.7025 26.2105 25.9808 26.3046 25.1947C26.3988 24.4085 26.1934 23.6158 25.7292 22.9744L28.2483 20.4553C29.377 21.7666 29.9535 23.4644 29.8565 25.1919C29.7595 26.9194 28.9967 28.542 27.7283 29.7188C26.4599 30.8955 24.7848 31.5348 23.0549 31.5023C21.325 31.4697 19.6751 30.7678 18.4519 29.5441C17.2287 28.3204 16.5275 26.6702 16.4956 24.9403C16.4638 23.2104 17.1037 21.5355 18.281 20.2676C19.4583 18.9997 21.0812 18.2375 22.8088 18.1413C24.5363 18.045 26.2338 18.6222 27.5447 19.7514L25.0256 22.2705ZM34.366 17.0446L32.4982 18.9122L32.2181 18.8491L32.2073 18.8465L29.7146 18.2854L29.0864 15.5032L34.1007 10.488L34.6601 12.9639C34.6808 13.0557 34.7272 13.1397 34.7937 13.2063C34.8602 13.2728 34.9443 13.3191 35.0361 13.3399L37.5119 13.8993L34.366 17.0446Z" fill="white"/>
</svg>
