<svg width="572" height="352" viewBox="0 0 572 352" fill="none" xmlns="http://www.w3.org/2000/svg">
<g clip-path="url(#clip0)">
<path d="M572 226.081C572.01 235.618 570.857 245.121 568.566 254.378C567.796 257.498 566.901 260.552 565.881 263.542C564.633 267.232 563.187 270.852 561.549 274.387C560.723 276.175 559.851 277.927 558.931 279.644C558.946 289.424 556.934 299.1 553.021 308.063C545.948 324.142 533.335 337.144 517.482 344.697C507.569 349.429 496.737 351.917 485.755 351.985H108.585C91.8038 352.021 75.3126 347.611 60.7879 339.202L60.5645 339.076C58.4956 337.864 56.4786 336.582 54.5134 335.228C50.0917 332.172 45.9374 328.745 42.0955 324.985C36.8954 319.901 32.3132 314.221 28.4441 308.063C19.3567 293.626 14.5426 276.91 14.5595 259.849C5.35659 243.694 -0.00976562 224.342 -0.00976562 203.547C-0.00976562 177.309 8.51812 153.375 22.5289 135.257C25.4499 131.472 28.6495 127.91 32.1009 124.602C35.5064 121.328 39.1668 118.331 43.0473 115.638C46.1521 113.481 49.3969 111.533 52.7602 109.807C54.1637 109.093 55.5721 108.418 57.0047 107.791C58.2625 107.232 59.5349 106.712 60.8219 106.221C62.3662 105.635 63.93 105.096 65.5132 104.603C67.0964 104.111 68.6585 103.68 70.1996 103.311C72.466 102.757 74.7711 102.307 77.1152 101.96C79.0578 101.674 81.0003 101.474 82.9429 101.324C84.4873 101.207 86.0462 101.144 87.6148 101.125H88.4647C90.1936 101.125 91.9127 101.193 93.6173 101.309C93.797 100.95 93.9913 100.585 94.171 100.231C94.8509 98.9333 95.555 97.6409 96.2641 96.3776C96.2625 96.3663 96.2625 96.3549 96.2641 96.3436C96.3855 96.1201 96.5069 95.9015 96.6332 95.6877C97.2062 94.6528 97.8036 93.6276 98.4155 92.6121C98.6972 92.1262 98.974 91.6695 99.2605 91.2128C99.3211 91.0993 99.3876 90.989 99.4596 90.8824C99.751 90.3965 100.047 89.9107 100.348 89.4248C101.847 87.0278 103.406 84.6729 105.025 82.3602L105.438 81.7674C105.69 81.4079 105.924 81.0581 106.205 80.6985C106.875 79.7608 107.565 78.8182 108.259 77.895C108.745 77.2342 109.231 76.5783 109.755 75.9515C111.018 74.332 112.313 72.7124 113.64 71.0928C114.968 69.4732 116.347 67.8747 117.778 66.2973C117.972 66.0786 118.167 65.8648 118.371 65.651L120.444 63.3869C120.546 63.28 120.634 63.1828 120.731 63.0856C120.978 62.8184 121.216 62.5512 121.484 62.2937C122.596 61.113 123.737 59.9566 124.883 58.8051C130.716 52.9928 136.93 47.5763 143.483 42.5915C143.741 42.3875 144.003 42.1931 144.26 41.9988C145.494 41.0708 146.747 40.1525 148 39.2487C154.891 34.3023 162.096 29.8067 169.567 25.7901C170.082 25.4937 170.606 25.2167 171.136 24.9446C177.834 21.3993 184.723 18.2266 191.771 15.441C195.612 13.9202 199.541 12.4917 203.494 11.1847C206.126 10.3199 208.768 9.49876 211.444 8.72622C215.627 7.52126 219.839 6.441 224.08 5.48545C236.576 2.68044 249.287 0.947681 262.077 0.306052C265.962 0.108464 269.891 0.00643215 273.864 -4.61457e-05C293.032 -0.0254349 312.126 2.39096 330.684 7.19086C330.876 7.48097 331.138 7.71748 331.447 7.87813C331.755 8.03877 332.099 8.11828 332.447 8.10916H334.079C334.788 8.30351 335.492 8.49786 336.201 8.70193C340.16 9.84211 344.063 11.0876 347.91 12.4383L348.881 12.7881C358.374 16.1654 367.611 20.2249 376.519 24.9349C384.549 29.1705 392.281 33.9497 399.66 39.239C400.796 40.0553 401.916 40.878 403.02 41.7072C404.361 40.8489 405.724 40.0261 407.11 39.239C412.461 36.1899 418.145 33.7657 424.049 32.0141C436.393 28.3594 449.454 27.8484 462.046 30.5273C478.193 33.9527 492.811 42.4555 504.617 54.5489C509.424 59.4969 513.703 64.9324 517.385 70.7673C517.652 71.1851 517.919 71.6078 518.176 72.0354C521.34 77.1997 524.06 82.6238 526.306 88.249C526.388 88.4579 526.471 88.6523 526.544 88.8563C528.617 94.1237 530.289 99.5404 531.546 105.06C531.604 105.342 531.672 105.619 531.73 105.901C532.906 111.243 533.704 116.66 534.12 122.114C534.12 122.309 534.12 122.508 534.159 122.712C534.363 125.533 534.466 128.384 534.469 131.263C534.469 133.838 534.382 136.394 534.222 138.93C534.222 139.207 534.183 139.494 534.159 139.781C534.115 140.514 534.052 141.238 533.989 141.977C537.698 144.97 541.169 148.247 544.372 151.777C545.787 153.322 547.156 154.925 548.48 156.587C552.514 161.644 556.059 167.073 559.067 172.801C567.279 188.31 572 206.554 572 226.081Z" fill="#F3F6FD"/>
<path opacity="0.1" d="M517.122 342.9C517.122 346.218 505.695 349.328 485.755 352H108.585C91.8038 352.036 75.3126 347.625 60.7878 339.217L60.5645 339.091C66.295 337.001 76.6392 335.053 90.718 333.294L91.3494 333.216C97.6627 332.444 104.719 331.71 112.431 331.015C112.625 331.015 112.825 330.986 113.019 330.962C119.138 330.418 125.647 329.908 132.546 329.431C132.765 329.431 132.979 329.393 133.197 329.383C135.859 329.192 138.575 329.01 141.346 328.839L142.415 328.771C162.593 327.517 185.53 326.516 210.405 325.855H210.434C213.918 325.758 217.438 325.672 220.997 325.598C224.953 325.504 228.958 325.421 233.011 325.35C236.105 325.282 239.237 325.234 242.38 325.185H242.452C256.628 324.971 271.275 324.864 286.253 324.864C323.288 324.864 358.293 325.54 389.311 326.754H389.398C394.167 326.939 398.849 327.143 403.414 327.352L407.299 327.537C412.45 327.783 417.468 328.047 422.354 328.329C479.806 331.598 517.122 336.909 517.122 342.9Z" fill="#6C63FF"/>
<path d="M76.6445 328.804L81.7389 328.79H88.9216L98.0031 181.191L187.939 31.0422L184.03 26.8443V16.2134L86.7653 177.713L76.6445 328.804Z" fill="#F1C0C0"/>
<path opacity="0.1" d="M82.2832 328.79H88.9219L98.0035 181.191L187.94 31.0422L184.03 26.8442L91.2627 178.942L82.2832 328.79Z" fill="black"/>
<path d="M61.6328 330.034L294.669 347.875L294.868 347.89L520.396 334.013L520.565 334.003V324.475L272.062 319.913L64.7361 319.714H63.2209L63.0557 320.783L61.6328 330.034Z" fill="#F1C0C0"/>
<path opacity="0.1" d="M61.6328 330.034L294.669 347.875L294.868 347.89L520.396 334.013L520.565 333.828V324.675H520.366L294.669 332.215L64.7361 319.714H64.7021L64.2941 319.981L63.0557 320.783L61.6328 330.034Z" fill="black"/>
<path opacity="0.1" d="M61.6328 330.034L294.669 347.875V332.215L64.2941 319.981L63.0557 320.783L61.6328 330.034Z" fill="black"/>
<path d="M184 26.6451L286.738 136.967L283.562 331.025L292.289 332.079L292.434 332.099H301.161L302.206 145.3L494.583 209.591L497.827 324.062L504.85 324.849L507.229 325.117L501.722 201.652L300.617 131.015L190.347 16.3252H184V26.6451Z" fill="#F1C0C0"/>
<path opacity="0.1" d="M301.414 141.729L302.206 145.3L494.583 209.591L497.827 324.062L504.85 324.849L499.343 207.21L301.414 141.729Z" fill="black"/>
<path opacity="0.1" d="M184 26.6451L286.738 136.967L283.562 331.025L292.289 332.079L294.668 130.617L184 16.3252V26.6451Z" fill="black"/>
<path d="M301.789 219.609L372.348 233.51L372.372 233.515L495.954 257.872L501.612 255.603L501.592 255.204L501.223 247.309L301.862 207.006L301.789 219.609Z" fill="#F1C0C0"/>
<path opacity="0.1" d="M372.371 233.515L495.953 257.872L501.61 255.603L501.591 255.204L372.371 233.515Z" fill="black"/>
<path d="M377.098 170.327L379.006 275.441L379.992 329.368L388.68 329.076L394.149 328.892L392.449 171.848L388.68 170.594L387.855 170.327H377.098Z" fill="#F1C0C0"/>
<path opacity="0.1" d="M377.174 170.303V170.328L379.005 275.441L379.991 329.368L388.679 329.077V170.303H377.174Z" fill="black"/>
<path d="M241.005 197.172C241.515 197.449 242.002 197.766 242.462 198.12C243.006 198.596 243.495 199.132 243.919 199.718C246.002 202.415 247.925 205.549 247.721 208.95C247.726 209.445 247.632 209.935 247.447 210.394C247.261 210.853 246.986 211.27 246.639 211.622C245.779 212.356 244.545 212.39 243.419 212.39C242.195 212.39 240.908 212.39 239.849 211.758C238.791 211.126 237.907 209.897 236.654 209.926C236.477 209.956 236.296 209.956 236.12 209.926C235.687 209.785 235.6 209.217 235.318 208.857C234.833 208.211 233.808 208.372 233.045 208.653C232.283 208.935 231.438 209.358 230.685 209.032C230.248 208.802 229.891 208.444 229.66 208.007C227.859 205.092 227.475 201.589 227.135 198.202C226.926 196.142 225.333 189.116 229.728 190.715C231.671 191.415 233.487 192.814 235.255 193.839L241.005 197.172Z" fill="#3F3D56"/>
<path d="M236.663 197.867C237.056 198.149 237.532 198.292 238.015 198.273C238.498 198.253 238.961 198.073 239.33 197.76C240.053 197.106 240.514 196.211 240.626 195.243C241.112 195.092 241.36 195.729 241.67 196.117C242.214 196.778 243.322 196.768 243.817 197.473C244.162 197.959 244.084 198.634 244.327 199.183C244.642 199.893 245.424 200.262 245.959 200.835C246.463 201.462 246.827 202.189 247.027 202.968L247.823 205.359C248.205 206.353 248.45 207.394 248.552 208.454C248.602 208.983 248.546 209.518 248.388 210.026C248.23 210.534 247.972 211.005 247.629 211.413C246.561 212.564 244.808 212.686 243.258 212.652C242.741 212.663 242.225 212.602 241.724 212.472C240.349 212.044 239.47 210.66 239.106 209.265C238.742 207.871 238.781 206.408 238.567 204.98C238.336 203.577 237.928 202.208 237.353 200.908C236.926 199.897 235.75 198.391 235.77 197.318C236.119 197.318 236.372 197.638 236.663 197.867Z" fill="#3F3D56"/>
<path d="M238.408 192.945C238.181 192.255 238.048 191.538 238.014 190.812C238.014 189.354 238.68 187.984 239.35 186.682L233.799 187.435C233.129 187.528 232.381 187.664 232.002 188.222C231.858 188.499 231.783 188.807 231.783 189.119C231.783 189.431 231.858 189.738 232.002 190.015C232.28 190.57 232.502 191.151 232.663 191.75C232.675 192.274 232.735 192.796 232.842 193.309C233.015 193.687 233.257 194.028 233.556 194.315C235.144 196.074 236.334 198.149 237.519 200.204C237.485 200.146 240.865 197.527 240.729 196.672C240.652 196.186 239.675 195.603 239.365 195.136C238.935 194.459 238.613 193.72 238.408 192.945Z" fill="#BE6F72"/>
<path d="M286 173.962V178.748L204.087 194.733L199.837 197.308H185.176V194.612L265.657 175.157L286 173.962Z" fill="#F1C0C0"/>
<path opacity="0.1" d="M286 178.748L204.087 194.733L199.837 197.308H185.176L266.254 179.948L286 178.748Z" fill="black"/>
<path d="M220.234 309.822C219.321 308.716 218.062 307.952 216.659 307.653C215.257 307.355 213.796 307.541 212.512 308.179C212.238 308.309 211.995 308.498 211.803 308.733C211.318 309.414 211.629 310.351 211.672 311.192C211.784 313.242 210.152 314.909 208.686 316.342C207.899 317.11 207.097 317.931 206.743 318.976C206.388 320.02 206.651 321.347 207.603 321.891C208.018 322.099 208.47 322.225 208.933 322.26C210.486 322.563 212.077 322.607 213.644 322.391C215.193 322.095 216.713 321.215 217.383 319.787C217.513 319.4 217.727 319.046 218.01 318.752C218.865 318.077 220.176 318.869 221.147 318.388C221.948 317.989 221.982 317.362 221.992 316.536C222.021 314.253 221.681 311.668 220.234 309.822Z" fill="#7F96F3"/>
<path d="M231.89 309.734C232.488 311.308 232.57 313.023 232.648 314.705C232.692 315.676 232.721 316.716 232.196 317.537C231.672 318.358 230.647 318.791 229.666 318.995C227.641 319.413 225.295 319.019 223.989 317.411C222.989 316.182 222.78 314.496 222.964 312.902C223.12 311.595 223.45 310.064 222.513 309.136C222.27 308.889 221.954 308.714 221.731 308.447C221.245 307.854 221.323 306.96 221.585 306.231C221.927 305.534 222.183 304.798 222.348 304.04C222.386 303.68 228.923 304.292 229.525 304.589C230.346 304.992 230.22 305.667 230.468 306.484C230.812 307.621 231.473 308.646 231.89 309.734Z" fill="#7F96F3"/>
<path d="M233.089 239.934C234.371 240.764 234.867 242.397 235.066 243.913C235.615 248.067 234.653 252.265 234.58 256.458C234.512 262.332 236.212 268.313 234.76 274.003C233.891 277.404 234.629 281.291 233.813 284.726C233.57 285.746 233.123 286.708 232.89 287.729C232.404 289.94 232.914 292.252 233.599 294.414C233.818 294.997 233.957 295.607 234.012 296.227C233.979 297.181 233.737 298.117 233.303 298.967L230.389 305.862C230.064 306.634 228.782 306.76 227.961 306.862C226.417 307.047 224.692 307.178 223.464 306.221C222.235 305.264 221.939 303.661 221.749 302.164C221.386 299.291 221.224 296.396 221.264 293.501C221.317 292.745 221.25 291.986 221.065 291.251C220.798 290.421 220.21 289.701 220.05 288.822C219.846 287.685 220.424 286.568 220.637 285.421C220.784 284.374 220.768 283.31 220.589 282.268C220.399 280.713 220.181 279.158 219.933 277.613C219.584 275.451 220.084 273.318 220.419 271.151C220.734 269.115 220.331 267.04 219.933 265.019C219.968 266.66 219.763 268.296 219.326 269.878C219.069 270.65 218.7 271.389 218.476 272.176C217.481 275.708 219.603 279.416 219.302 283.074C219.161 284.784 218.491 286.475 218.68 288.161C218.811 289.395 219.384 290.527 219.778 291.703C220.171 292.879 220.375 294.225 219.778 295.323C218.199 298.306 219.38 302.363 220.793 305.424C221.08 305.967 221.329 306.529 221.541 307.105C221.958 308.485 221.609 309.967 221.72 311.405C221.314 311.472 220.897 311.445 220.502 311.326C220.108 311.207 219.745 311 219.443 310.72C219.229 310.497 219.054 310.234 218.845 310.001C218.262 309.445 217.571 309.013 216.815 308.733C216.372 308.485 215.866 308.368 215.358 308.398C214.825 308.547 214.345 308.845 213.974 309.258C213.494 309.68 212.984 310.068 212.449 310.419C212.222 310.594 211.955 310.713 211.672 310.764C211.53 310.786 211.385 310.763 211.257 310.697C211.128 310.632 211.024 310.528 210.958 310.4C210.928 310.319 210.91 310.233 210.905 310.147C210.725 308.68 210.629 307.204 210.619 305.726C210.619 303.184 207.578 301.435 207.195 298.923C206.889 296.897 207.457 294.832 207.268 292.792C207.175 291.742 206.884 290.712 206.903 289.663C206.903 288.982 207.059 288.317 207.112 287.641C207.157 286.892 207.145 286.14 207.078 285.392L206.928 283.045C206.782 280.727 206.622 278.361 205.709 276.243C204.626 273.769 203.985 271.125 203.815 268.43C203.718 266.729 203.781 265.029 203.586 263.323C203.412 261.783 203.023 260.253 203.135 258.708C203.227 257.512 203.62 256.356 203.713 255.161C203.902 252.863 203.028 250.628 202.343 248.427C201.658 246.226 201.153 243.786 202.052 241.663C202.18 241.315 202.394 241.004 202.673 240.76C203.018 240.531 203.41 240.385 203.82 240.332C212.152 238.581 220.693 238.036 229.18 238.714C230.563 238.792 231.906 239.211 233.089 239.934Z" fill="#3F3D56"/>
<path d="M205.518 188.329C209.815 188.329 213.298 184.844 213.298 180.545C213.298 176.247 209.815 172.762 205.518 172.762C201.221 172.762 197.738 176.247 197.738 180.545C197.738 184.844 201.221 188.329 205.518 188.329Z" fill="#BE6F72"/>
<path d="M204.013 190.268C204.125 190.713 204.125 191.178 204.013 191.623C203.891 191.934 203.718 192.223 203.503 192.479C202.75 193.45 201.917 194.357 201.012 195.19C201.473 196.22 202.303 197.04 203.338 197.488C204.366 197.926 205.444 198.234 206.548 198.406C207.099 198.551 207.672 198.591 208.238 198.523C208.759 198.392 209.253 198.168 209.695 197.862L214.017 195.272C214.669 194.919 215.273 194.483 215.814 193.975C216.607 193.16 217.055 192.071 217.067 190.934C217.087 190.73 217.032 190.526 216.912 190.36C216.746 190.216 216.538 190.129 216.319 190.112C214.799 189.777 213.6 188.543 212.92 187.144C212.305 185.709 211.907 184.191 211.74 182.64L207.131 185.069C206.446 185.433 205.766 185.798 205.057 186.114C204.605 186.318 203.692 186.488 203.372 186.901C202.76 187.664 203.853 189.35 204.013 190.268Z" fill="#BE6F72"/>
<path d="M201.042 193.776C200.386 194.314 199.874 195.007 199.551 195.792C199.25 196.764 199.551 197.789 199.823 198.751C201.098 202.851 202.072 207.039 202.737 211.281C203.145 214.197 203.296 217.156 203.495 220.105C203.903 226.12 204.495 235.711 205.287 241.687C208.201 241.819 211.042 240.968 213.931 240.657C219.331 240.084 224.892 241.396 230.181 240.171C228.899 235.104 227.617 226.45 226.334 221.388C225.767 219.393 225.374 217.353 225.159 215.29C225.048 213.808 225.116 212.321 225.135 210.83C225.179 207.914 225.018 204.999 224.858 202.084C224.674 198.683 224.489 195.282 223.683 191.953C223.627 191.529 223.428 191.137 223.12 190.841C222.634 190.486 222.003 190.612 221.425 190.69C219.655 190.915 217.864 190.49 216.384 189.495C215.743 189.058 214.883 188.523 214.286 189.009C214.031 189.302 213.863 189.661 213.8 190.044C213.536 190.731 213.128 191.354 212.603 191.871C212.079 192.388 211.451 192.787 210.76 193.042C209.376 193.543 207.927 193.841 206.457 193.926C206.007 194.023 205.538 193.97 205.122 193.776C204.432 193.353 204.383 191.832 203.514 191.73C202.752 191.643 201.557 193.285 201.042 193.776Z" fill="#3F3D56"/>
<path d="M212.532 205.641C210.74 203.925 209.953 201.438 208.647 199.324C207.757 197.903 206.621 196.652 205.291 195.632C204.623 195.19 204.01 194.67 203.465 194.082C203.004 193.513 202.654 192.755 201.955 192.537C201.666 192.474 201.366 192.482 201.081 192.561C200.796 192.639 200.534 192.786 200.318 192.988C199.89 193.397 199.485 193.828 199.104 194.281C197.045 196.414 193.427 196.71 191.795 199.179C191.355 199.702 191.056 200.329 190.926 201.001C190.456 204.593 191.385 208.229 193.519 211.155C193.933 211.834 194.567 212.349 195.316 212.613C195.215 213.519 195.335 214.436 195.666 215.285C196.565 218.36 197.67 221.371 198.973 224.298C198.661 225.443 198.444 226.611 198.322 227.792C197.982 230.76 198.298 233.773 197.977 236.746C197.715 239.176 197.006 241.542 196.982 243.976C196.982 244.365 197.016 244.826 197.351 245.025C197.529 245.117 197.729 245.159 197.929 245.147L203.902 245.327C207.37 245.429 210.871 245.531 214.285 244.889C214.74 244.822 215.181 244.683 215.592 244.476C216.748 243.83 217.131 242.373 217.316 241.075C217.557 239.393 217.653 237.692 217.602 235.993C218.326 238.282 219.186 240.648 221.371 241.639C222.527 242.164 223.848 242.125 225.115 242.091C227.847 241.969 230.57 241.688 233.269 241.25C233.435 241.271 233.604 241.252 233.762 241.196C233.92 241.14 234.063 241.047 234.178 240.926C234.294 240.804 234.38 240.657 234.428 240.497C234.477 240.336 234.488 240.167 234.459 240.002L234.488 237.349C234.546 231.96 233.211 226.81 232.691 221.446C232.526 219.755 232.541 218.045 232.128 216.388C231.958 215.693 231.71 215.013 231.56 214.313C231.43 213.628 231.349 212.935 231.317 212.239L230.938 206.894C230.758 204.421 230.501 202.035 230.312 199.567C230.207 197.164 229.859 194.777 229.272 192.444C228.85 190.987 227.971 189.335 226.451 189.155C225.64 189.063 224.853 189.417 224.081 189.665C222.183 190.263 220.146 190.254 218.253 189.641C217.668 189.41 217.059 189.247 216.437 189.155C216.124 189.112 215.805 189.154 215.513 189.275C215.221 189.396 214.967 189.593 214.776 189.845C214.587 190.224 214.499 190.646 214.518 191.069C214.29 195.923 213.868 200.923 212.532 205.641Z" fill="#7F96F3"/>
<path d="M204.719 205.786C202.48 203.425 200.183 201.02 197.298 199.518C196.162 198.926 194.87 198.479 193.612 198.702C192.354 198.926 191.184 200.019 191.242 201.297C191.281 202.089 191.762 202.788 191.913 203.566C192.087 204.44 191.835 205.373 192.107 206.219C192.328 206.776 192.658 207.283 193.078 207.71L196.516 211.787C197.973 213.487 199.43 215.212 201.305 216.388C203.179 217.564 205.608 218.113 207.667 217.277C209.132 216.596 210.35 215.477 211.154 214.075C212.008 212.715 212.611 211.228 213.412 209.824C214.659 207.58 216.305 205.583 218.268 203.93C217.258 203.668 215.991 203.298 215.355 202.473C215.173 202.21 215.019 201.93 214.893 201.637L214.106 199.936C213.839 199.922 213.571 199.964 213.321 200.058C213.07 200.153 212.841 200.298 212.649 200.485C212.312 200.875 211.95 201.244 211.567 201.588C210.882 202.103 209.954 202.244 209.333 202.832C209.092 203.084 208.874 203.358 208.682 203.648C208.212 204.267 207.615 204.777 206.931 205.146C206.248 205.515 205.494 205.733 204.719 205.786Z" fill="#3F3D56"/>
<path d="M218.446 195.627C220.131 192.551 220.054 188.863 220.535 185.389C220.587 184.469 220.909 183.585 221.462 182.848C222.433 181.75 224.148 181.736 225.614 181.877C226.047 181.925 226.586 182.129 226.561 182.562C226.527 182.717 226.452 182.859 226.343 182.975C224.921 184.81 224.085 187.032 223.944 189.349C224.706 189.879 225.886 188.79 226.62 189.349C227.105 189.757 226.882 190.564 226.591 191.147C225.914 192.498 225.216 193.839 224.497 195.17C223.924 196.343 223.175 197.423 222.278 198.372C221.661 198.965 220.938 199.431 220.311 200.014C218.854 201.379 217.975 203.308 216.47 204.64C216.343 204.778 216.17 204.865 215.984 204.887C215.793 204.874 215.612 204.793 215.474 204.659C214.722 204.047 214.098 203.292 213.638 202.439C213.065 201.379 213.153 201.068 214.056 200.32C215.746 198.984 217.392 197.551 218.446 195.627Z" fill="#BE6F72"/>
<path d="M201.901 203.697C202.192 203.877 202.551 204.081 202.872 203.93C203.003 203.851 203.114 203.743 203.197 203.614C203.752 202.873 204.216 202.067 204.576 201.214C204.639 201.094 204.673 200.961 204.678 200.825C204.678 200.514 204.402 200.286 204.144 200.106C202.765 199.227 201.282 198.522 199.73 198.007C198.448 197.522 197.107 197.099 195.747 197.22C195.237 197.255 194.738 197.392 194.281 197.624C193.825 197.856 193.42 198.178 193.091 198.571C192.12 199.82 193.747 200.199 194.766 200.651C197.127 201.724 199.681 202.346 201.901 203.697Z" fill="#7F96F3"/>
<path opacity="0.1" d="M200.371 211.957C200.355 212.068 200.364 212.181 200.4 212.288C200.435 212.394 200.495 212.49 200.575 212.569C200.716 211.879 200.531 211.151 200.677 210.456C200.891 209.411 201.906 208.624 201.993 207.574C200.133 207.21 200.386 210.83 200.371 211.957Z" fill="black"/>
<path opacity="0.2" d="M286 173.962V178.748L266.254 179.948L265.656 175.157L286 173.962Z" fill="black"/>
<path d="M198.515 181.702C199.749 180.696 199.035 178.587 199.87 177.237C200.356 176.498 201.177 176.109 201.983 175.779C202.956 175.323 203.998 175.034 205.067 174.924C205.602 174.872 206.142 174.942 206.646 175.128C207.151 175.314 207.607 175.611 207.981 175.998C208.296 176.357 208.51 176.794 208.806 177.168C209.173 177.605 209.651 177.934 210.19 178.12C210.729 178.307 211.308 178.344 211.866 178.228C212.512 178.082 213.182 177.591 213.138 176.93C213.065 176.529 212.86 176.163 212.555 175.891L211.167 174.35C209.588 172.601 207.835 170.745 205.518 170.308C203.906 170.002 202.255 170.434 200.701 170.954C200.074 171.163 199.37 171.474 199.195 172.111C199.079 172.548 199.254 173.024 199.152 173.466C198.953 174.346 197.826 174.642 197.301 175.38C196.777 176.119 196.937 176.994 196.787 177.81C196.636 178.626 196.199 179.423 196.146 180.268C196.112 180.779 196.369 181.726 196.942 181.911C197.515 182.095 198.161 181.094 198.515 181.702Z" fill="#3F3D56"/>
<path d="M212.668 176.231C212.259 174.093 211.376 172.074 210.085 170.322C208.936 168.686 207.339 167.417 205.486 166.669C204.559 166.306 203.563 166.159 202.571 166.237C201.579 166.315 200.618 166.617 199.76 167.121C198.486 168.03 197.494 169.282 196.899 170.731C195.642 173.442 195.175 176.755 196.637 179.36C197.22 178.65 198.22 178.971 199.104 178.713C200.212 178.398 201.149 177.659 202.203 177.198C205.384 175.793 209.269 176.93 212.668 176.231Z" fill="#FED253"/>
<path opacity="0.1" d="M197.38 176.08C197.268 175.205 197.196 174.19 197.817 173.568C197.848 173.53 197.887 173.5 197.932 173.479C197.977 173.459 198.026 173.45 198.075 173.451C198.118 173.465 198.158 173.488 198.192 173.518C198.226 173.548 198.254 173.585 198.274 173.626C198.633 174.193 198.938 174.791 199.187 175.414C198.825 175.331 198.446 175.358 198.1 175.492C197.753 175.627 197.455 175.862 197.244 176.167" fill="black"/>
<path opacity="0.1" d="M208.73 173.612L208.555 171.877C208.527 171.734 208.539 171.586 208.589 171.45C208.663 171.335 208.776 171.252 208.907 171.216C209.038 171.18 209.177 171.194 209.298 171.255C209.537 171.388 209.734 171.585 209.867 171.824C210.271 172.445 210.606 173.108 210.867 173.801C210.085 173.651 209.28 173.661 208.502 173.831" fill="black"/>
<path opacity="0.1" d="M213.077 244.01V247.975L209.731 248.198H192.131V244.01H213.077Z" fill="black"/>
<path d="M213.075 244.01V248.198H192.129L136.484 178.461V175.167H148.15L213.075 244.01Z" fill="#F1C0C0"/>
<path opacity="0.1" d="M213.075 244.01V248.198H192.129L136.484 178.461V175.167H148.15L213.075 244.01Z" fill="black"/>
<path opacity="0.1" d="M213.075 244.01V248.198H192.129L136.484 178.461V175.167L192.43 244.01H213.075Z" fill="black"/>
<path d="M143.779 313.907C143.815 314.105 143.811 314.307 143.766 314.502C143.72 314.698 143.635 314.882 143.516 315.043C143.397 315.203 143.245 315.338 143.072 315.438C142.898 315.538 142.705 315.601 142.506 315.623C141.156 316.079 139.723 316.531 138.767 317.566C137.81 318.601 137.621 320.52 138.767 321.361C139.353 321.714 140.025 321.898 140.709 321.89C142.909 322.041 145.201 322.012 147.197 321.079C148.625 320.418 149.971 319.291 151.539 319.393C152.35 319.442 153.215 319.82 153.938 319.451C154.662 319.082 154.866 318.052 154.871 317.192C154.889 315.397 154.619 313.61 154.069 311.901C153.996 311.668 150.908 311.488 150.539 311.415L146.794 310.929C146.085 310.837 144.556 310.302 143.997 310.895C143.439 311.488 143.779 313.203 143.779 313.907Z" fill="#7F96F3"/>
<path d="M166.124 301.78C166.283 302.655 166.54 303.509 166.891 304.326C167.411 305.648 168.076 307.052 169.349 307.693C170.504 308.271 171.923 308.062 173.098 307.513C173.588 307.31 174.018 306.984 174.346 306.566C174.725 305.905 174.894 305.144 174.832 304.384C174.832 302.504 174.72 300.561 173.86 298.889C173.122 297.432 171.835 296.178 171.816 294.565L167.392 295.42C167.155 295.443 166.929 295.532 166.741 295.678C166.601 295.825 166.503 296.008 166.459 296.207C165.987 298.025 165.873 299.918 166.124 301.78Z" fill="#7F96F3"/>
<path d="M113.29 255.622C113.105 257.187 113.183 258.863 113.999 260.214C114.815 261.565 116.534 262.459 118.02 261.919C118.096 261.9 118.168 261.865 118.23 261.818C118.293 261.77 118.345 261.711 118.384 261.642C118.424 261.478 118.401 261.305 118.321 261.157C117.665 259.405 117.719 257.466 118.472 255.754C118.569 255.53 118.778 255.268 119.006 255.355C119.101 255.404 119.178 255.482 119.224 255.579C119.46 255.986 119.577 256.45 119.564 256.92C119.496 257.345 119.483 257.778 119.526 258.207C119.618 258.625 120.065 259.019 120.453 258.839C120.565 258.77 120.663 258.679 120.739 258.571C120.815 258.463 120.868 258.341 120.895 258.212C121.978 255.078 121.488 251.653 120.992 248.373C120.996 248.298 120.984 248.223 120.956 248.153C120.928 248.083 120.884 248.02 120.829 247.968C120.774 247.917 120.708 247.878 120.637 247.855C120.565 247.832 120.489 247.825 120.414 247.834C118.122 247.606 116.869 247.057 115.558 249.19C114.431 250.987 113.29 253.46 113.29 255.622Z" fill="#7F96F3"/>
<path d="M140.088 247.649C139.408 250.477 138.723 253.339 138.68 256.244C138.692 258.054 138.828 259.861 139.088 261.652L139.598 265.86C139.772 267.278 139.942 268.692 140.19 270.096C140.348 270.82 140.434 271.557 140.447 272.297C140.4 273.027 140.284 273.751 140.103 274.46C139.797 275.947 139.627 277.46 139.593 278.978C139.539 281.408 139.84 283.837 140.03 286.266C140.408 291.107 140.351 295.973 139.86 300.804C139.664 302.108 139.947 303.438 140.656 304.55C140.944 304.9 141.181 305.289 141.36 305.706C141.725 306.819 140.875 307.931 140.656 309.073C140.516 309.963 140.736 310.873 141.266 311.602C141.796 312.331 142.593 312.819 143.483 312.96C147.368 313.422 151.36 313.213 154.861 314.991C155.23 313.912 154.424 312.688 154.793 311.59C155.026 310.91 155.667 310.468 156.105 309.894C156.692 309.021 156.984 307.982 156.94 306.93C156.957 305.558 156.713 304.194 156.221 302.912C155.808 301.843 155.216 300.789 155.25 299.642C155.25 299.079 155.449 298.486 155.221 297.966C155.064 297.667 154.851 297.402 154.594 297.184C153.143 295.593 152.251 293.571 152.054 291.426C151.865 289.298 151.933 287.154 152.258 285.042C152.496 283.03 152.817 280.907 154.094 279.338C153.502 274.579 153.85 269.75 155.119 265.126C155.245 264.698 155.444 264.203 155.881 264.101C156.055 264.083 156.23 264.107 156.392 264.172C156.555 264.236 156.699 264.338 156.814 264.47C157.576 265.184 157.94 266.219 158.271 267.21C158.635 268.284 159.004 269.431 158.727 270.529C158.61 271.015 158.377 271.442 158.241 271.909C157.946 272.846 157.998 273.859 158.387 274.761C158.577 275.091 158.696 275.456 158.737 275.835C158.692 276.159 158.593 276.475 158.445 276.767C158.265 277.342 158.208 277.949 158.277 278.547C158.347 279.146 158.541 279.723 158.848 280.241C159.467 281.273 160.231 282.211 161.116 283.026C160.693 284.89 160.803 286.837 161.432 288.642C161.477 288.724 161.506 288.813 161.517 288.906C161.528 288.998 161.521 289.092 161.495 289.182C161.408 289.366 161.184 289.434 161.01 289.565C160.524 289.964 160.825 290.717 161.15 291.237C162.042 292.664 163.027 294.03 164.098 295.328C165.07 296.489 164.982 298.729 166.429 299.147C167.037 299.278 167.667 299.278 168.275 299.147C169.703 298.928 171.295 298.515 171.995 297.252C172.281 296.732 172.398 296.1 172.845 295.712C173.291 295.323 173.869 295.255 174.117 294.788C174.365 294.322 174.088 293.71 174.17 293.171C174.253 292.631 174.724 292.199 174.875 291.63C175.234 290.318 173.704 289.24 173.495 287.899C173.194 285.955 175.642 284.498 175.54 282.554C175.326 278.332 175.19 274.09 174.972 269.868C174.698 266.086 174.659 262.29 174.855 258.504C175.025 256.147 175.341 253.679 174.476 251.488C173.233 248.397 169.805 246.663 166.488 246.332C163.171 246.002 159.863 246.789 156.576 247.304C151.119 248.146 145.575 248.262 140.088 247.649Z" fill="#3F3D56"/>
<path d="M149.948 201.209C154.245 201.209 157.728 197.725 157.728 193.426C157.728 189.127 154.245 185.642 149.948 185.642C145.651 185.642 142.168 189.127 142.168 193.426C142.168 197.725 145.651 201.209 149.948 201.209Z" fill="#FBBEBE"/>
<path d="M146.781 202.662C146.517 203.278 146.073 203.799 145.507 204.157C144.941 204.516 144.279 204.694 143.61 204.669C143.329 205.835 144.004 207.011 144.776 207.929C146.379 209.796 148.451 211.201 150.778 212C153.105 212.798 155.603 212.961 158.014 212.472C158.953 212.304 159.843 211.932 160.622 211.384C161.673 210.506 162.379 209.283 162.613 207.934C162.837 206.594 162.9 205.232 162.803 203.877C162.83 203.609 162.754 203.341 162.589 203.129C162.395 202.978 162.155 202.899 161.909 202.905C160.268 202.759 158.553 202.696 157.111 201.89C155.669 201.083 154.644 199.261 155.338 197.765C155.227 197.998 152.391 198.11 152.017 198.158C150.846 198.323 149.676 198.508 148.51 198.722C147.95 198.753 147.397 198.857 146.864 199.033C146.16 199.397 146.422 199.217 146.587 199.878C146.835 200.889 147.199 201.613 146.781 202.662Z" fill="#FBBEBE"/>
<path d="M152.702 207.395C151.654 207.407 150.609 207.291 149.589 207.05C148.559 206.809 147.652 206.203 147.034 205.344C146.675 204.8 146.442 204.115 145.869 203.809C144.931 203.323 143.863 204.144 143.115 204.897C142.434 205.64 141.645 206.276 140.774 206.783C139.735 207.332 138.521 207.526 137.54 208.172C136.774 208.752 136.116 209.462 135.597 210.271L128.716 219.648C125.953 223.419 123.549 227.466 121.086 231.445C118.954 234.89 117.837 238.855 116.23 242.572C116.103 242.799 116.05 243.061 116.079 243.32C116.138 243.573 116.444 243.777 116.657 243.631C115.934 244.35 116.57 245.575 116.4 246.585C116.207 247.292 115.804 247.924 115.244 248.398C116.313 248.258 117.398 248.309 118.449 248.548C119.536 248.856 120.561 249.349 121.48 250.006C122.067 249.913 122.014 248.869 122.451 248.48C122.713 248.252 123.102 248.281 123.447 248.213C124.743 247.96 125.258 246.401 126.254 245.521C127.084 244.788 128.259 244.549 129.138 243.86C130.566 242.737 130.872 240.74 131.62 239.083C132.256 237.679 133.257 236.455 133.815 235.017C134.179 234.084 134.354 233.073 134.874 232.213C135.704 230.824 137.268 230.085 138.759 229.419C139.701 228.997 140.702 228.559 141.717 228.627C141.663 230.887 141.377 233.112 141.867 235.318C142.037 236.095 142.275 236.853 142.479 237.626C143.407 241.105 143.625 244.729 143.669 248.315C145.9 247.804 148.179 247.531 150.468 247.499C152.27 247.445 154.066 247.678 155.868 247.644C158.005 247.606 160.118 247.193 162.254 247.047C164.391 246.901 166.625 247.047 168.514 248.019C168.361 244.939 168.447 241.853 168.772 238.787L169.286 233.957C169.403 232.554 169.619 231.161 169.932 229.789C170.214 228.681 170.622 227.612 170.933 226.509C172.026 222.622 171.826 218.473 171.618 214.425C171.511 212.346 170.709 210.3 169.767 208.449C169.426 207.762 169.037 207.099 168.602 206.467C167.463 204.897 165.946 203.642 164.191 202.818C162.437 201.994 160.502 201.628 158.568 201.754C158.321 201.761 158.078 201.814 157.85 201.909C157.44 202.172 157.12 202.553 156.932 203.002C155.927 204.809 154.469 206.323 152.702 207.395Z" fill="#3F3D56"/>
<path d="M143.104 196.006C143.323 195.52 143.91 195.34 144.27 194.951C144.959 194.213 144.648 193.032 144.755 192.036C144.93 190.578 146.139 189.359 147.523 188.839C148.935 188.386 150.437 188.291 151.894 188.562C152.596 188.613 153.273 188.839 153.866 189.218C154.119 189.403 154.352 189.641 154.59 189.811C155.023 190.073 155.542 190.155 156.036 190.04C156.53 189.925 156.959 189.621 157.231 189.194C155.512 187.124 153.609 184.937 150.996 184.301C150.099 184.118 149.186 184.032 148.271 184.043C147.062 184.019 145.814 184 144.697 184.461C143.177 185.088 142.109 186.531 141.56 188.086C141.08 189.662 140.823 191.297 140.797 192.945C140.698 194.044 140.698 195.15 140.797 196.249C140.985 197.75 141.542 199.18 142.419 200.412C142.538 200.604 142.706 200.76 142.905 200.864C145.12 201.836 142.924 196.409 143.104 196.006Z" fill="#3F3D56"/>
<path d="M156.98 187.994C156.713 185.705 155.081 183.815 153.347 182.295C151.95 180.976 150.285 179.973 148.467 179.355C146.636 178.816 144.528 178.932 142.959 180.026C141.697 180.905 140.896 182.304 140.279 183.713C139.469 185.376 139.067 187.209 139.108 189.058C139.23 190.895 140.123 192.755 141.716 193.684C142.289 192.838 143.285 192.401 144.242 192.056C148.411 190.473 152.664 189.117 156.98 187.994Z" fill="#FED253"/>
<path opacity="0.1" d="M142.251 187.041C142.406 187.041 142.508 187.202 142.586 187.333C142.981 187.949 143.321 188.6 143.601 189.276C143.033 189.398 142.057 189.534 141.775 189.033C141.624 188.781 141.804 187.017 142.251 187.041Z" fill="black"/>
<path opacity="0.1" d="M153.317 185.944C153.201 186.055 153.065 185.827 153.065 185.662V183.777C153.062 183.724 153.074 183.672 153.099 183.626C153.119 183.603 153.144 183.584 153.171 183.571C153.199 183.558 153.229 183.55 153.259 183.548C153.653 183.505 153.978 183.84 154.23 184.161C154.614 184.68 154.947 185.235 155.226 185.817L153.172 185.754" fill="black"/>
<path d="M178.954 217.161C179.401 216.736 179.879 216.345 180.382 215.99C181.727 215.091 183.354 214.736 184.865 214.163C186.375 213.59 187.91 212.662 188.497 211.155C188.791 210.214 188.887 209.221 188.779 208.24C188.793 207.83 188.72 207.421 188.565 207.04C188.38 206.704 188.117 206.417 187.798 206.204C185.749 204.688 183 204.567 180.455 204.723C174.845 205.071 169.345 206.444 164.23 208.775C163.959 208.864 163.722 209.034 163.55 209.261C163.45 209.471 163.405 209.703 163.419 209.936C163.328 211.369 163.515 212.806 163.967 214.168C164.638 215.898 166.017 217.292 166.595 219.056C166.857 219.848 166.944 220.688 167.173 221.485C167.36 222.308 167.846 223.032 168.537 223.516C170.456 224.663 172.267 223.123 173.598 221.927L178.954 217.161Z" fill="#3F3D56"/>
<path d="M153.833 223.89L151.37 218.516C151.009 217.772 150.698 217.004 150.438 216.218C150.156 215.28 150.02 214.309 149.758 213.366C148.894 210.227 146.713 207.613 145.649 204.538C145.582 204.26 145.445 204.004 145.251 203.794C145.096 203.685 144.919 203.61 144.731 203.577C144.544 203.543 144.352 203.551 144.168 203.6C142.682 203.858 141.522 204.99 140.162 205.631C139.53 205.923 138.85 206.117 138.219 206.452C137.904 206.602 137.624 206.818 137.399 207.085C137.175 207.352 137.01 207.665 136.918 208.002C136.767 208.745 137.136 209.46 137.447 210.184C138.768 213.167 139.069 216.5 139.127 219.765C139.171 221.961 139.059 224.318 137.763 226.081C135.271 229.483 136.864 234.477 137.797 238.593C137.908 239.078 138.039 239.603 138.117 240.118C138.199 240.763 138.237 241.412 138.229 242.062C138.229 244.243 138.107 246.493 137.194 248.47C138.096 248.95 139.089 249.232 140.108 249.296C142.928 249.656 145.76 249.909 148.602 250.054C149.493 250.138 150.391 250.092 151.268 249.918C152.31 249.637 153.229 249.015 153.879 248.153C154.529 247.291 154.873 246.237 154.857 245.157C155.013 246.503 155.299 247.965 156.275 248.898C157.251 249.831 158.674 249.972 160 250.045C163.742 250.243 167.494 250.138 171.219 249.729C171.456 249.718 171.69 249.664 171.908 249.568C172.627 249.209 172.666 248.218 172.607 247.421C172.501 245.929 172.389 244.438 172.209 242.956C172.057 242.011 171.979 241.056 171.976 240.099C172.05 239.114 172.213 238.139 172.462 237.184C173.113 234.152 173.627 231.057 173.409 227.952C173.322 227.196 173.292 226.434 173.317 225.673C173.443 223.958 174.346 222.326 174.176 220.62C173.69 215.606 173.297 210.461 171.898 205.621C171.646 204.756 171.325 203.828 170.573 203.333C169.601 202.682 168.237 203.022 167.125 202.609C166.603 202.366 166.107 202.071 165.643 201.729C164.637 201.1 163.483 200.745 162.297 200.699C161.404 200.665 160.408 200.865 159.869 201.584C159.619 201.989 159.454 202.44 159.383 202.91C158.679 205.874 157.854 208.804 157.028 211.734L156.236 214.542L154.114 222.083C153.905 222.884 154.046 223.132 153.833 223.89Z" fill="#7F96F3"/>
<path d="M166.249 194.471L213.226 243.86V248.048H192.28L156.979 201.953" fill="#F1C0C0"/>
<path opacity="0.1" d="M166.249 194.471L213.226 243.86V248.048H192.28L156.979 201.953" fill="black"/>
<path opacity="0.1" d="M157.726 201.302L157.877 201.355L192.581 243.859H213.226V248.048H192.28L156.979 201.953L157.726 201.302Z" fill="black"/>
<path d="M163.132 202.342C161.432 203.085 159.543 204.037 159.033 205.825C158.933 206.139 158.911 206.473 158.97 206.797C159.094 207.178 159.331 207.513 159.649 207.756C159.968 208 160.352 208.142 160.752 208.162C161.552 208.182 162.347 208.036 163.088 207.735L173.117 204.421C173.389 204.334 173.7 204.202 173.768 203.935C173.785 203.767 173.751 203.598 173.671 203.449C173.36 202.691 173.054 201.141 172.403 200.612C171.869 200.184 170.81 200.335 170.164 200.345C167.678 200.364 165.342 201.37 163.132 202.342Z" fill="#7F96F3"/>
<path d="M172.073 204.815C173.763 204.81 175.443 205.071 177.051 205.587C178.667 206.112 180.098 207.09 181.174 208.405C181.488 208.773 181.711 209.209 181.825 209.678C181.922 210.164 183.505 210.456 183.156 210.786C184.219 210.616 183.967 211.117 185.045 211.107C186.123 211.097 187.289 210.82 187.934 209.96C188.383 209.254 188.583 208.417 188.503 207.584C188.517 207.007 188.407 206.434 188.182 205.903C187.696 204.883 186.579 204.334 185.55 203.862L176.876 199.893C176.373 199.625 175.833 199.434 175.274 199.324C174.803 199.28 174.329 199.291 173.86 199.358L169.932 199.81C170.791 200.367 171.49 201.137 171.961 202.046C172.432 202.955 172.658 203.971 172.617 204.995" fill="#3F3D56"/>
</g>
<defs>
<clipPath id="clip0">
<rect width="572" height="352" fill="white"/>
</clipPath>
</defs>
</svg>
