<svg width="165" height="139" viewBox="0 0 165 139" fill="none" xmlns="http://www.w3.org/2000/svg">
<path d="M76.9531 138.726C82.8863 138.726 87.6962 133.917 87.6962 127.983C87.6962 122.05 82.8863 117.24 76.9531 117.24C71.0198 117.24 66.21 122.05 66.21 127.983C66.21 133.917 71.0198 138.726 76.9531 138.726Z" fill="#6C63FF"/>
<path d="M141.133 138.123C147.144 136.318 153.533 134.436 158.3 130.145C162.559 126.311 165.435 120.456 163.67 114.705C161.909 108.966 156.635 105.14 151.189 103.237C148.1 102.157 144.869 101.558 141.639 101.088C138.128 100.577 134.601 100.158 131.076 99.7545C116.802 98.1219 102.474 97.1246 88.093 96.7625C80.9968 96.5838 73.9019 96.5881 66.8047 96.6911C60.4665 96.7832 53.7911 96.7809 47.9111 94.087C43.3387 91.9921 39.1887 88.1809 37.9146 83.1726C36.4439 77.3912 39.1566 71.5037 43.0479 67.3167C45.0991 65.1097 47.4964 63.2521 49.9693 61.5441C52.6522 59.6911 55.4286 57.9693 58.2651 56.3621C63.8517 53.1982 69.6924 50.5056 75.7265 48.3121C78.7032 47.2298 81.7241 46.296 84.7712 45.4345C87.3441 44.7071 89.9251 43.9786 92.4118 42.9876C97.219 41.0716 101.791 37.8262 103.014 32.5057C104.172 27.4631 102.219 21.989 98.7945 18.2429C94.8329 13.909 88.8596 12.0092 83.133 11.7018C76.7038 11.3567 70.4228 12.9657 64.38 15.0078C57.9349 17.1859 51.6287 19.6902 45.0475 21.4544C38.5212 23.2021 31.8687 24.4387 25.1504 25.153C21.8615 25.5032 18.4733 25.8986 15.1649 25.6305C12.3921 25.4058 9.6335 24.5904 7.59002 22.6225C5.83784 20.9352 4.79405 18.6163 5.1529 16.1691C5.21808 15.7246 5.8933 15.9136 5.82852 16.3554C5.39169 19.3343 7.41661 22.0793 9.91187 23.4854C12.7957 25.1105 16.305 25.1127 19.5157 24.9268C26.4774 24.5063 33.392 23.5068 40.1879 21.9385C46.8655 20.4133 53.3047 18.2329 59.7365 15.9038C65.8452 13.6918 72.0903 11.5329 78.6164 11.0537C84.279 10.638 90.2357 11.463 95.1688 14.4222C99.5043 17.023 102.692 21.3602 103.708 26.3373C104.701 31.2008 103.326 36.096 99.6446 39.4899C95.8327 43.0039 90.6062 44.5062 85.7354 45.8899C79.5576 47.6448 73.5122 49.6962 67.6607 52.3598C61.7295 55.0521 56.0411 58.2501 50.6586 61.9184C45.463 65.4688 40.3357 69.9362 38.6925 76.2701C37.9271 79.2205 38.0684 82.3498 39.3491 85.1365C40.4879 87.6144 42.3634 89.6988 44.5482 91.3065C49.7611 95.1423 56.3312 95.9299 62.628 96.0082C69.7001 96.0962 76.7724 95.8576 83.8468 95.9737C98.2642 96.2103 112.652 97.0879 127.01 98.6064C130.608 98.9872 134.202 99.4081 137.79 99.8692C141.018 100.284 144.257 100.696 147.431 101.433C153.074 102.742 158.565 105.261 162.072 110.045C163.629 112.119 164.593 114.577 164.862 117.156C165.108 119.847 164.449 122.544 163.232 124.938C160.539 130.237 155.494 133.608 150.136 135.822C147.267 137.008 144.29 137.907 141.32 138.799C140.887 138.929 140.702 138.253 141.133 138.123L141.133 138.123Z" fill="#F2F2F2"/>
<path d="M5.6051 21.8371C8.7007 21.8371 11.2102 19.3277 11.2102 16.232C11.2102 13.1364 8.7007 10.627 5.6051 10.627C2.50949 10.627 0 13.1364 0 16.232C0 19.3277 2.50949 21.8371 5.6051 21.8371Z" fill="#F2F2F2"/>
<path d="M44.4903 32.4621C47.586 32.4621 50.0954 29.9527 50.0954 26.857C50.0954 23.7614 47.586 21.252 44.4903 21.252C41.3947 21.252 38.8853 23.7614 38.8853 26.857C38.8853 29.9527 41.3947 32.4621 44.4903 32.4621Z" fill="#F2F2F2"/>
<path d="M77.4205 11.2102C80.5161 11.2102 83.0256 8.7007 83.0256 5.6051C83.0256 2.50949 80.5161 0 77.4205 0C74.3249 0 71.8154 2.50949 71.8154 5.6051C71.8154 8.7007 74.3249 11.2102 77.4205 11.2102Z" fill="#F2F2F2"/>
<path d="M97.9723 35.0325C101.068 35.0325 103.577 32.523 103.577 29.4274C103.577 26.3318 101.068 23.8223 97.9723 23.8223C94.8767 23.8223 92.3672 26.3318 92.3672 29.4274C92.3672 32.523 94.8767 35.0325 97.9723 35.0325Z" fill="#F2F2F2"/>
<path d="M70.1803 62.5911C73.2759 62.5911 75.7854 60.0816 75.7854 56.986C75.7854 53.8903 73.2759 51.3809 70.1803 51.3809C67.0847 51.3809 64.5752 53.8903 64.5752 56.986C64.5752 60.0816 67.0847 62.5911 70.1803 62.5911Z" fill="#F2F2F2"/>
<path d="M34.9152 75.9016C38.0108 75.9016 40.5203 73.3921 40.5203 70.2965C40.5203 67.2009 38.0108 64.6914 34.9152 64.6914C31.8195 64.6914 29.3101 67.2009 29.3101 70.2965C29.3101 73.3921 31.8195 75.9016 34.9152 75.9016Z" fill="#F2F2F2"/>
<path d="M72.2828 96.6887C75.3784 96.6887 77.8879 94.1792 77.8879 91.0836C77.8879 87.988 75.3784 85.4785 72.2828 85.4785C69.1872 85.4785 66.6777 87.988 66.6777 91.0836C66.6777 94.1792 69.1872 96.6887 72.2828 96.6887Z" fill="#F2F2F2"/>
<path d="M112.452 108.364C115.547 108.364 118.057 105.855 118.057 102.759C118.057 99.6638 115.547 97.1543 112.452 97.1543C109.356 97.1543 106.847 99.6638 106.847 102.759C106.847 105.855 109.356 108.364 112.452 108.364Z" fill="#F2F2F2"/>
<path d="M159.395 105.796C162.491 105.796 165 103.287 165 100.191C165 97.0954 162.491 94.5859 159.395 94.5859C156.3 94.5859 153.79 97.0954 153.79 100.191C153.79 103.287 156.3 105.796 159.395 105.796Z" fill="#F2F2F2"/>
<path d="M75.8026 15.8817C59.0125 16.0003 45.265 29.6445 45.0265 46.4333C45.0243 46.5883 45.0233 47.6782 45.0234 49.1037C45.0236 51.1938 45.8539 53.1983 47.3318 54.6762C48.8096 56.1542 50.8141 56.9847 52.9042 56.9849H52.9042C53.9403 56.9847 54.9662 56.7803 55.9233 56.3834C56.8804 55.9866 57.7499 55.405 58.4821 54.672C59.2143 53.9389 59.7949 53.0688 60.1908 52.1113C60.5866 51.1538 60.7899 50.1277 60.789 49.0916C60.7882 48.1219 60.7877 47.4507 60.7877 47.4095C60.7871 44.8148 61.462 42.2647 62.746 40.01C64.03 37.7552 65.8788 35.8736 68.1105 34.5501C70.3423 33.2266 72.8801 32.5069 75.4744 32.4617C78.0687 32.4165 80.6301 33.0474 82.9066 34.2924C85.1831 35.5374 87.0962 37.3535 88.4579 39.5622C89.8196 41.7708 90.5829 44.2959 90.6727 46.8891C90.7626 49.4822 90.1758 52.054 88.9701 54.3516C87.7645 56.6492 85.9816 58.5933 83.7967 59.9928L83.7994 59.9961C83.7994 59.9961 72.5826 67.2173 69.1629 77.1233L69.1658 77.124C68.5645 79.1534 68.2598 81.259 68.2611 83.3756C68.2611 84.2456 68.3123 91.8583 68.4112 98.037C68.4458 100.169 69.3171 102.202 70.8371 103.697C72.3572 105.192 74.4041 106.03 76.5363 106.029H76.5363C77.6077 106.029 78.6685 105.818 79.6576 105.406C80.6468 104.994 81.5448 104.391 82.3 103.631C83.0553 102.872 83.6528 101.97 84.0582 100.978C84.4636 99.9863 84.6689 98.9243 84.6623 97.8529C84.6279 92.1943 84.6093 85.6054 84.6093 85.1272C84.6093 79.0445 90.4772 72.984 95.2972 69.0318C100.848 64.4807 104.842 58.2787 106.446 51.2825C106.801 49.8422 106.997 48.3672 107.03 46.8841C107.03 42.7938 106.22 38.744 104.648 34.9679C103.076 31.1919 100.772 27.7642 97.8698 24.8824C94.9671 22.0007 91.5229 19.7217 87.7356 18.177C83.9483 16.6322 79.8927 15.8521 75.8026 15.8817Z" fill="#6C63FF"/>
<path d="M55.1293 53.2579C53.0392 53.2577 51.0348 52.4272 49.5569 50.9493C48.079 49.4713 47.2487 47.4668 47.2486 45.3767C47.2484 43.9512 47.2495 42.8613 47.2516 42.7063C47.318 37.8236 48.5477 33.0272 50.8386 28.7148C47.0747 33.8675 45.0051 40.0626 44.9162 46.443C44.914 46.598 44.913 47.6879 44.9131 49.1134C44.9132 51.2035 45.7435 53.208 47.2214 54.686C48.6993 56.164 50.7038 56.9944 52.7939 56.9946C54.5114 56.994 56.1817 56.4328 57.5512 55.3962C58.9206 54.3596 59.9143 52.9044 60.3813 51.2516C58.9382 52.5456 57.0676 53.2603 55.1293 53.2579Z" fill="#3F3D56"/>
<path d="M76.3369 32.4883C78.7532 32.6037 81.1054 33.3038 83.1916 34.5285C85.2777 35.7532 87.0354 37.466 88.3138 39.5196C89.5922 41.5733 90.3531 43.9066 90.5311 46.3191C90.7092 48.7316 90.299 51.1512 89.3359 53.3703C90.729 51.7342 91.7529 49.817 92.3378 47.7494C92.9228 45.6817 93.055 43.5122 92.7255 41.3888C92.396 39.2654 91.6126 37.238 90.4285 35.4449C89.2445 33.6517 87.6877 32.1349 85.8643 30.998C84.0409 29.861 81.9938 29.1306 79.8626 28.8565C77.7313 28.5824 75.566 28.7711 73.5143 29.4096C71.4625 30.0482 69.5726 31.1217 67.9734 32.5569C66.3741 33.9921 65.1031 35.7553 64.2471 37.7262C65.7266 35.9857 67.5862 34.6082 69.6824 33.7001C71.7785 32.7919 74.0552 32.3773 76.3369 32.4883Z" fill="#3F3D56"/>
<path d="M78.761 102.302C76.6288 102.303 74.5819 101.465 73.0619 99.9696C71.5418 98.4744 70.6705 96.4415 70.6359 94.3096C70.5371 88.1309 70.4859 80.5182 70.4859 79.6482C70.4845 77.5316 70.7892 75.426 71.3905 73.3966L71.3876 73.3959C71.7427 72.3773 72.1716 71.3859 72.6708 70.4297C71.1383 72.4719 69.9187 74.731 69.0522 77.1327L69.055 77.1334C68.4537 79.1627 68.149 81.2683 68.1504 83.3849C68.1504 84.2549 68.2016 91.8676 68.3005 98.0463C68.3351 100.178 69.2064 102.211 70.7264 103.706C72.2464 105.202 74.2933 106.039 76.4255 106.039C78.1835 106.039 79.8941 105.468 81.3006 104.413C82.707 103.359 83.7336 101.876 84.2264 100.189C82.7324 101.551 80.7828 102.305 78.761 102.302Z" fill="#3F3D56"/>
<path d="M74.5869 136.106C73.0608 135.441 71.71 134.431 70.6412 133.155C69.5724 131.879 68.8148 130.372 68.4282 128.753C68.0416 127.134 68.0366 125.447 68.4135 123.826C68.7904 122.204 69.539 120.693 70.6002 119.41C69.3699 120.308 68.3446 121.458 67.5926 122.783C66.8406 124.108 66.3789 125.577 66.2383 127.094C66.0976 128.611 66.2812 130.141 66.7768 131.581C67.2725 133.022 68.0688 134.34 69.113 135.45C70.1572 136.559 71.4254 137.433 72.8334 138.015C74.2414 138.596 75.757 138.872 77.2796 138.823C78.8022 138.774 80.297 138.402 81.6648 137.731C83.0325 137.06 84.242 136.106 85.2129 134.933C83.6986 136.039 81.9207 136.73 80.0564 136.936C78.192 137.142 76.3062 136.856 74.5869 136.106Z" fill="#3F3D56"/>
</svg>
