<svg width="314" height="157" viewBox="0 0 314 157" fill="none" xmlns="http://www.w3.org/2000/svg">
<path d="M66.3438 9.74262e-05C57.8128 -0.0145604 49.3599 1.62487 41.453 4.82765C41.1346 4.95813 40.815 5.08924 40.4955 5.22331C28.479 10.2941 18.2264 18.7988 11.0227 29.6715C3.81896 40.5442 -0.0154351 53.3012 4.66973e-05 66.3438V138.737C0.000908312 139.501 0.304999 140.234 0.845606 140.775C1.38621 141.316 2.11919 141.62 2.88372 141.62L2.94098 141.626C58.5212 151.719 112.555 156.834 163.585 156.834C164.35 156.834 165.114 156.832 165.878 156.83C216.039 156.677 264.882 151.563 311.049 141.628L311.116 141.62C311.881 141.62 312.614 141.316 313.154 140.775C313.695 140.234 313.999 139.501 314 138.737V2.88379C313.999 2.11926 313.695 1.38628 313.154 0.845671C312.614 0.305064 311.881 0.000977751 311.116 0.000116982L66.3438 9.74262e-05Z" fill="#6C63FF"/>
<path d="M238.96 57.7346C238.46 57.7429 237.984 57.9472 237.633 58.3036C237.282 58.66 237.086 59.1399 237.086 59.6398C237.086 60.1397 237.282 60.6196 237.633 60.976C237.984 61.3324 238.46 61.5367 238.96 61.5449H286.728C286.979 61.5493 287.227 61.5043 287.46 61.4125C287.693 61.3207 287.906 61.1839 288.086 61.0098C288.266 60.8358 288.41 60.628 288.51 60.3983C288.609 60.1686 288.663 59.9215 288.667 59.6711C288.671 59.4207 288.626 59.172 288.534 58.9392C288.441 58.7063 288.304 58.4939 288.13 58.314C287.956 58.1342 287.748 57.9904 287.518 57.891C287.288 57.7916 287.041 57.7385 286.791 57.7346C286.77 57.7343 286.749 57.7343 286.728 57.7346H238.96Z" fill="#3F3D56"/>
<path d="M297.561 57.2055C297.526 57.2403 297.499 57.2817 297.48 57.3271C297.461 57.3726 297.451 57.4214 297.451 57.4706C297.451 57.5198 297.461 57.5686 297.48 57.6141C297.499 57.6596 297.526 57.7009 297.561 57.7357L299.171 59.3451H295.202C295.103 59.3451 295.007 59.3846 294.937 59.4549C294.867 59.5252 294.827 59.6205 294.827 59.72C294.827 59.8194 294.867 59.9148 294.937 59.9851C295.007 60.0554 295.103 60.0949 295.202 60.0949H299.171L297.561 61.7042C297.526 61.739 297.499 61.7804 297.48 61.8258C297.461 61.8713 297.451 61.9201 297.451 61.9693C297.451 62.0185 297.461 62.0673 297.48 62.1128C297.499 62.1583 297.526 62.1996 297.561 62.2344C297.596 62.2692 297.637 62.2968 297.683 62.3157C297.728 62.3345 297.777 62.3442 297.826 62.3442C297.876 62.3442 297.924 62.3345 297.97 62.3157C298.015 62.2968 298.057 62.2692 298.091 62.2344L300.341 59.9851C300.411 59.9147 300.451 59.8194 300.451 59.72C300.451 59.6205 300.411 59.5252 300.341 59.4549L298.091 57.2055C298.057 57.1707 298.015 57.1431 297.97 57.1242C297.924 57.1054 297.876 57.0957 297.826 57.0957C297.777 57.0957 297.728 57.1054 297.683 57.1242C297.637 57.1431 297.596 57.1707 297.561 57.2055Z" fill="white"/>
<path d="M228.107 57.2055C228.142 57.2403 228.17 57.2817 228.188 57.3271C228.207 57.3726 228.217 57.4214 228.217 57.4706C228.217 57.5198 228.207 57.5686 228.188 57.6141C228.17 57.6596 228.142 57.7009 228.107 57.7357L226.498 59.3451H230.466C230.516 59.3449 230.564 59.3545 230.61 59.3733C230.656 59.3921 230.697 59.4197 230.732 59.4545C230.767 59.4893 230.795 59.5307 230.814 59.5762C230.833 59.6218 230.842 59.6706 230.842 59.72C230.842 59.7693 230.833 59.8181 230.814 59.8637C230.795 59.9092 230.767 59.9506 230.732 59.9854C230.697 60.0203 230.656 60.0479 230.61 60.0666C230.564 60.0854 230.516 60.095 230.466 60.0949H226.498L228.107 61.7042C228.177 61.7745 228.217 61.8699 228.217 61.9693C228.217 62.0687 228.177 62.1641 228.107 62.2344C228.037 62.3047 227.941 62.3442 227.842 62.3442C227.743 62.3442 227.647 62.3047 227.577 62.2344L225.328 59.9851C225.257 59.9147 225.218 59.8194 225.218 59.72C225.218 59.6205 225.257 59.5252 225.328 59.4549L227.577 57.2055C227.612 57.1707 227.653 57.1431 227.699 57.1242C227.744 57.1054 227.793 57.0957 227.842 57.0957C227.891 57.0957 227.94 57.1054 227.985 57.1242C228.031 57.1431 228.072 57.1707 228.107 57.2055Z" fill="white"/>
<g opacity="0.4">
<path opacity="0.4" d="M240.889 18.1905C242.02 18.1905 242.937 17.2738 242.937 16.1431C242.937 15.0123 242.02 14.0957 240.889 14.0957C239.758 14.0957 238.842 15.0123 238.842 16.1431C238.842 17.2738 239.758 18.1905 240.889 18.1905Z" fill="white"/>
<path opacity="0.4" d="M249.42 18.1905C250.551 18.1905 251.467 17.2738 251.467 16.1431C251.467 15.0123 250.551 14.0957 249.42 14.0957C248.289 14.0957 247.373 15.0123 247.373 16.1431C247.373 17.2738 248.289 18.1905 249.42 18.1905Z" fill="white"/>
<path opacity="0.4" d="M257.951 18.1905C259.081 18.1905 259.998 17.2738 259.998 16.1431C259.998 15.0123 259.081 14.0957 257.951 14.0957C256.82 14.0957 255.903 15.0123 255.903 16.1431C255.903 17.2738 256.82 18.1905 257.951 18.1905Z" fill="white"/>
<path opacity="0.4" d="M266.481 18.1905C267.612 18.1905 268.529 17.2738 268.529 16.1431C268.529 15.0123 267.612 14.0957 266.481 14.0957C265.351 14.0957 264.434 15.0123 264.434 16.1431C264.434 17.2738 265.351 18.1905 266.481 18.1905Z" fill="white"/>
<path opacity="0.4" d="M275.012 18.1905C276.143 18.1905 277.06 17.2738 277.06 16.1431C277.06 15.0123 276.143 14.0957 275.012 14.0957C273.881 14.0957 272.965 15.0123 272.965 16.1431C272.965 17.2738 273.881 18.1905 275.012 18.1905Z" fill="white"/>
<path opacity="0.4" d="M283.543 18.1905C284.674 18.1905 285.59 17.2738 285.59 16.1431C285.59 15.0123 284.674 14.0957 283.543 14.0957C282.412 14.0957 281.496 15.0123 281.496 16.1431C281.496 17.2738 282.412 18.1905 283.543 18.1905Z" fill="white"/>
<path opacity="0.4" d="M292.074 18.1905C293.204 18.1905 294.121 17.2738 294.121 16.1431C294.121 15.0123 293.204 14.0957 292.074 14.0957C290.943 14.0957 290.026 15.0123 290.026 16.1431C290.026 17.2738 290.943 18.1905 292.074 18.1905Z" fill="white"/>
<path opacity="0.4" d="M240.889 24.6729C242.02 24.6729 242.937 23.7562 242.937 22.6255C242.937 21.4948 242.02 20.5781 240.889 20.5781C239.758 20.5781 238.842 21.4948 238.842 22.6255C238.842 23.7562 239.758 24.6729 240.889 24.6729Z" fill="white"/>
<path opacity="0.4" d="M249.42 24.6729C250.551 24.6729 251.467 23.7562 251.467 22.6255C251.467 21.4948 250.551 20.5781 249.42 20.5781C248.289 20.5781 247.373 21.4948 247.373 22.6255C247.373 23.7562 248.289 24.6729 249.42 24.6729Z" fill="white"/>
<path opacity="0.4" d="M257.951 24.6729C259.081 24.6729 259.998 23.7562 259.998 22.6255C259.998 21.4948 259.081 20.5781 257.951 20.5781C256.82 20.5781 255.903 21.4948 255.903 22.6255C255.903 23.7562 256.82 24.6729 257.951 24.6729Z" fill="white"/>
<path opacity="0.4" d="M266.481 24.6729C267.612 24.6729 268.529 23.7562 268.529 22.6255C268.529 21.4948 267.612 20.5781 266.481 20.5781C265.351 20.5781 264.434 21.4948 264.434 22.6255C264.434 23.7562 265.351 24.6729 266.481 24.6729Z" fill="white"/>
<path opacity="0.4" d="M275.012 24.6729C276.143 24.6729 277.06 23.7562 277.06 22.6255C277.06 21.4948 276.143 20.5781 275.012 20.5781C273.881 20.5781 272.965 21.4948 272.965 22.6255C272.965 23.7562 273.881 24.6729 275.012 24.6729Z" fill="white"/>
<path opacity="0.4" d="M283.543 24.6729C284.674 24.6729 285.59 23.7562 285.59 22.6255C285.59 21.4948 284.674 20.5781 283.543 20.5781C282.412 20.5781 281.496 21.4948 281.496 22.6255C281.496 23.7562 282.412 24.6729 283.543 24.6729Z" fill="white"/>
<path opacity="0.4" d="M292.074 24.6729C293.204 24.6729 294.121 23.7562 294.121 22.6255C294.121 21.4948 293.204 20.5781 292.074 20.5781C290.943 20.5781 290.026 21.4948 290.026 22.6255C290.026 23.7562 290.943 24.6729 292.074 24.6729Z" fill="white"/>
<path opacity="0.4" d="M240.889 31.1573C242.02 31.1573 242.937 30.2406 242.937 29.1099C242.937 27.9791 242.02 27.0625 240.889 27.0625C239.758 27.0625 238.842 27.9791 238.842 29.1099C238.842 30.2406 239.758 31.1573 240.889 31.1573Z" fill="white"/>
<path opacity="0.4" d="M249.42 31.1573C250.551 31.1573 251.467 30.2406 251.467 29.1099C251.467 27.9791 250.551 27.0625 249.42 27.0625C248.289 27.0625 247.373 27.9791 247.373 29.1099C247.373 30.2406 248.289 31.1573 249.42 31.1573Z" fill="white"/>
<path opacity="0.4" d="M257.951 31.1573C259.081 31.1573 259.998 30.2406 259.998 29.1099C259.998 27.9791 259.081 27.0625 257.951 27.0625C256.82 27.0625 255.903 27.9791 255.903 29.1099C255.903 30.2406 256.82 31.1573 257.951 31.1573Z" fill="white"/>
<path opacity="0.4" d="M266.481 31.1573C267.612 31.1573 268.529 30.2406 268.529 29.1099C268.529 27.9791 267.612 27.0625 266.481 27.0625C265.351 27.0625 264.434 27.9791 264.434 29.1099C264.434 30.2406 265.351 31.1573 266.481 31.1573Z" fill="white"/>
<path opacity="0.4" d="M275.012 31.1573C276.143 31.1573 277.06 30.2406 277.06 29.1099C277.06 27.9791 276.143 27.0625 275.012 27.0625C273.881 27.0625 272.965 27.9791 272.965 29.1099C272.965 30.2406 273.881 31.1573 275.012 31.1573Z" fill="white"/>
<path opacity="0.4" d="M283.543 31.1573C284.674 31.1573 285.59 30.2406 285.59 29.1099C285.59 27.9791 284.674 27.0625 283.543 27.0625C282.412 27.0625 281.496 27.9791 281.496 29.1099C281.496 30.2406 282.412 31.1573 283.543 31.1573Z" fill="white"/>
<path opacity="0.4" d="M292.074 31.1573C293.204 31.1573 294.121 30.2406 294.121 29.1099C294.121 27.9791 293.204 27.0625 292.074 27.0625C290.943 27.0625 290.026 27.9791 290.026 29.1099C290.026 30.2406 290.943 31.1573 292.074 31.1573Z" fill="white"/>
<path opacity="0.4" d="M240.889 37.6397C242.02 37.6397 242.937 36.723 242.937 35.5923C242.937 34.4616 242.02 33.5449 240.889 33.5449C239.758 33.5449 238.842 34.4616 238.842 35.5923C238.842 36.723 239.758 37.6397 240.889 37.6397Z" fill="white"/>
<path opacity="0.4" d="M249.42 37.6397C250.551 37.6397 251.467 36.723 251.467 35.5923C251.467 34.4616 250.551 33.5449 249.42 33.5449C248.289 33.5449 247.373 34.4616 247.373 35.5923C247.373 36.723 248.289 37.6397 249.42 37.6397Z" fill="white"/>
<path opacity="0.4" d="M240.889 44.124C242.02 44.124 242.937 43.2074 242.937 42.0767C242.937 40.9459 242.02 40.0293 240.889 40.0293C239.758 40.0293 238.842 40.9459 238.842 42.0767C238.842 43.2074 239.758 44.124 240.889 44.124Z" fill="white"/>
<path opacity="0.4" d="M249.42 44.124C250.551 44.124 251.467 43.2074 251.467 42.0767C251.467 40.9459 250.551 40.0293 249.42 40.0293C248.289 40.0293 247.373 40.9459 247.373 42.0767C247.373 43.2074 248.289 44.124 249.42 44.124Z" fill="white"/>
<path opacity="0.4" d="M257.951 44.124C259.081 44.124 259.998 43.2074 259.998 42.0767C259.998 40.9459 259.081 40.0293 257.951 40.0293C256.82 40.0293 255.903 40.9459 255.903 42.0767C255.903 43.2074 256.82 44.124 257.951 44.124Z" fill="white"/>
<path opacity="0.4" d="M257.951 37.6397C259.081 37.6397 259.998 36.723 259.998 35.5923C259.998 34.4616 259.081 33.5449 257.951 33.5449C256.82 33.5449 255.903 34.4616 255.903 35.5923C255.903 36.723 256.82 37.6397 257.951 37.6397Z" fill="white"/>
<path opacity="0.4" d="M266.481 37.6397C267.612 37.6397 268.529 36.723 268.529 35.5923C268.529 34.4616 267.612 33.5449 266.481 33.5449C265.351 33.5449 264.434 34.4616 264.434 35.5923C264.434 36.723 265.351 37.6397 266.481 37.6397Z" fill="white"/>
<path opacity="0.4" d="M275.012 37.6397C276.143 37.6397 277.06 36.723 277.06 35.5923C277.06 34.4616 276.143 33.5449 275.012 33.5449C273.881 33.5449 272.965 34.4616 272.965 35.5923C272.965 36.723 273.881 37.6397 275.012 37.6397Z" fill="white"/>
<path opacity="0.4" d="M283.543 37.6397C284.674 37.6397 285.59 36.723 285.59 35.5923C285.59 34.4616 284.674 33.5449 283.543 33.5449C282.412 33.5449 281.496 34.4616 281.496 35.5923C281.496 36.723 282.412 37.6397 283.543 37.6397Z" fill="white"/>
<path opacity="0.4" d="M292.074 37.6397C293.204 37.6397 294.121 36.723 294.121 35.5923C294.121 34.4616 293.204 33.5449 292.074 33.5449C290.943 33.5449 290.026 34.4616 290.026 35.5923C290.026 36.723 290.943 37.6397 292.074 37.6397Z" fill="white"/>
</g>
<path d="M211.52 120.3C209.285 120.3 207.1 119.638 205.241 118.396C203.383 117.154 201.934 115.389 201.079 113.324C200.223 111.259 199.999 108.986 200.435 106.794C200.871 104.602 201.948 102.588 203.528 101.007C205.109 99.4269 207.123 98.3505 209.315 97.9144C211.507 97.4784 213.78 97.7022 215.845 98.5575C217.91 99.4129 219.675 100.861 220.917 102.72C222.159 104.579 222.821 106.764 222.821 108.999C222.818 111.995 221.626 114.868 219.508 116.987C217.389 119.105 214.516 120.297 211.52 120.3ZM211.52 98.3381C209.411 98.3381 207.35 98.9633 205.597 100.135C203.844 101.306 202.477 102.971 201.671 104.919C200.864 106.867 200.653 109.011 201.064 111.079C201.475 113.147 202.491 115.046 203.982 116.537C205.472 118.028 207.372 119.043 209.44 119.455C211.508 119.866 213.652 119.655 215.6 118.848C217.548 118.041 219.213 116.675 220.384 114.922C221.555 113.168 222.181 111.107 222.181 108.999C222.177 106.172 221.053 103.463 219.055 101.464C217.056 99.4655 214.346 98.3413 211.52 98.3381Z" fill="#3F3D56"/>
<path d="M215.853 107.915H212.603V104.665C212.603 104.378 212.489 104.102 212.286 103.899C212.082 103.696 211.807 103.582 211.52 103.582C211.232 103.582 210.957 103.696 210.754 103.899C210.551 104.102 210.436 104.378 210.436 104.665V107.915H207.187C206.899 107.915 206.624 108.029 206.421 108.232C206.218 108.435 206.104 108.711 206.104 108.998C206.104 109.285 206.218 109.561 206.421 109.764C206.624 109.967 206.899 110.081 207.187 110.081H210.436V113.331C210.436 113.618 210.551 113.894 210.754 114.097C210.957 114.3 211.232 114.414 211.52 114.414C211.807 114.414 212.082 114.3 212.286 114.097C212.489 113.894 212.603 113.618 212.603 113.331V110.081H215.853C216.14 110.081 216.415 109.967 216.619 109.764C216.822 109.561 216.936 109.285 216.936 108.998C216.936 108.711 216.822 108.435 216.619 108.232C216.415 108.029 216.14 107.915 215.853 107.915Z" fill="white"/>
<g opacity="0.4">
<path opacity="0.4" d="M17.3099 121.688C18.1989 121.688 18.9196 120.967 18.9196 120.078C18.9196 119.189 18.1989 118.469 17.3099 118.469C16.4209 118.469 15.7002 119.189 15.7002 120.078C15.7002 120.967 16.4209 121.688 17.3099 121.688Z" fill="white"/>
<path opacity="0.4" d="M17.3099 114.981C18.1989 114.981 18.9196 114.26 18.9196 113.371C18.9196 112.482 18.1989 111.762 17.3099 111.762C16.4209 111.762 15.7002 112.482 15.7002 113.371C15.7002 114.26 16.4209 114.981 17.3099 114.981Z" fill="white"/>
<path opacity="0.4" d="M17.3099 108.274C18.1989 108.274 18.9196 107.553 18.9196 106.664C18.9196 105.775 18.1989 105.055 17.3099 105.055C16.4209 105.055 15.7002 105.775 15.7002 106.664C15.7002 107.553 16.4209 108.274 17.3099 108.274Z" fill="white"/>
<path opacity="0.4" d="M17.3099 101.569C18.1989 101.569 18.9196 100.848 18.9196 99.9593C18.9196 99.0703 18.1989 98.3496 17.3099 98.3496C16.4209 98.3496 15.7002 99.0703 15.7002 99.9593C15.7002 100.848 16.4209 101.569 17.3099 101.569Z" fill="white"/>
<path opacity="0.4" d="M17.3099 94.86C18.1989 94.86 18.9196 94.1393 18.9196 93.2503C18.9196 92.3613 18.1989 91.6406 17.3099 91.6406C16.4209 91.6406 15.7002 92.3613 15.7002 93.2503C15.7002 94.1393 16.4209 94.86 17.3099 94.86Z" fill="white"/>
<path opacity="0.4" d="M17.3099 88.153C18.1989 88.153 18.9196 87.4323 18.9196 86.5433C18.9196 85.6543 18.1989 84.9336 17.3099 84.9336C16.4209 84.9336 15.7002 85.6543 15.7002 86.5433C15.7002 87.4323 16.4209 88.153 17.3099 88.153Z" fill="white"/>
<path opacity="0.4" d="M17.3099 81.446C18.1989 81.446 18.9196 80.7253 18.9196 79.8363C18.9196 78.9473 18.1989 78.2266 17.3099 78.2266C16.4209 78.2266 15.7002 78.9473 15.7002 79.8363C15.7002 80.7253 16.4209 81.446 17.3099 81.446Z" fill="white"/>
<path opacity="0.4" d="M22.4076 121.688C23.2966 121.688 24.0173 120.967 24.0173 120.078C24.0173 119.189 23.2966 118.469 22.4076 118.469C21.5185 118.469 20.7979 119.189 20.7979 120.078C20.7979 120.967 21.5185 121.688 22.4076 121.688Z" fill="white"/>
<path opacity="0.4" d="M22.4076 114.981C23.2966 114.981 24.0173 114.26 24.0173 113.371C24.0173 112.482 23.2966 111.762 22.4076 111.762C21.5185 111.762 20.7979 112.482 20.7979 113.371C20.7979 114.26 21.5185 114.981 22.4076 114.981Z" fill="white"/>
<path opacity="0.4" d="M22.4076 108.274C23.2966 108.274 24.0173 107.553 24.0173 106.664C24.0173 105.775 23.2966 105.055 22.4076 105.055C21.5185 105.055 20.7979 105.775 20.7979 106.664C20.7979 107.553 21.5185 108.274 22.4076 108.274Z" fill="white"/>
<path opacity="0.4" d="M22.4076 101.569C23.2966 101.569 24.0173 100.848 24.0173 99.9593C24.0173 99.0703 23.2966 98.3496 22.4076 98.3496C21.5185 98.3496 20.7979 99.0703 20.7979 99.9593C20.7979 100.848 21.5185 101.569 22.4076 101.569Z" fill="white"/>
<path opacity="0.4" d="M22.4076 94.86C23.2966 94.86 24.0173 94.1393 24.0173 93.2503C24.0173 92.3613 23.2966 91.6406 22.4076 91.6406C21.5185 91.6406 20.7979 92.3613 20.7979 93.2503C20.7979 94.1393 21.5185 94.86 22.4076 94.86Z" fill="white"/>
<path opacity="0.4" d="M22.4076 88.153C23.2966 88.153 24.0173 87.4323 24.0173 86.5433C24.0173 85.6543 23.2966 84.9336 22.4076 84.9336C21.5185 84.9336 20.7979 85.6543 20.7979 86.5433C20.7979 87.4323 21.5185 88.153 22.4076 88.153Z" fill="white"/>
<path opacity="0.4" d="M22.4076 81.446C23.2966 81.446 24.0173 80.7253 24.0173 79.8363C24.0173 78.9473 23.2966 78.2266 22.4076 78.2266C21.5185 78.2266 20.7979 78.9473 20.7979 79.8363C20.7979 80.7253 21.5185 81.446 22.4076 81.446Z" fill="white"/>
<path opacity="0.4" d="M27.5047 121.688C28.3937 121.688 29.1144 120.967 29.1144 120.078C29.1144 119.189 28.3937 118.469 27.5047 118.469C26.6157 118.469 25.895 119.189 25.895 120.078C25.895 120.967 26.6157 121.688 27.5047 121.688Z" fill="white"/>
<path opacity="0.4" d="M27.5047 114.981C28.3937 114.981 29.1144 114.26 29.1144 113.371C29.1144 112.482 28.3937 111.762 27.5047 111.762C26.6157 111.762 25.895 112.482 25.895 113.371C25.895 114.26 26.6157 114.981 27.5047 114.981Z" fill="white"/>
<path opacity="0.4" d="M27.5047 108.274C28.3937 108.274 29.1144 107.553 29.1144 106.664C29.1144 105.775 28.3937 105.055 27.5047 105.055C26.6157 105.055 25.895 105.775 25.895 106.664C25.895 107.553 26.6157 108.274 27.5047 108.274Z" fill="white"/>
<path opacity="0.4" d="M27.5047 101.569C28.3937 101.569 29.1144 100.848 29.1144 99.9593C29.1144 99.0703 28.3937 98.3496 27.5047 98.3496C26.6157 98.3496 25.895 99.0703 25.895 99.9593C25.895 100.848 26.6157 101.569 27.5047 101.569Z" fill="white"/>
<path opacity="0.4" d="M27.5047 94.86C28.3937 94.86 29.1144 94.1393 29.1144 93.2503C29.1144 92.3613 28.3937 91.6406 27.5047 91.6406C26.6157 91.6406 25.895 92.3613 25.895 93.2503C25.895 94.1393 26.6157 94.86 27.5047 94.86Z" fill="white"/>
<path opacity="0.4" d="M27.5047 88.153C28.3937 88.153 29.1144 87.4323 29.1144 86.5433C29.1144 85.6543 28.3937 84.9336 27.5047 84.9336C26.6157 84.9336 25.895 85.6543 25.895 86.5433C25.895 87.4323 26.6157 88.153 27.5047 88.153Z" fill="white"/>
<path opacity="0.4" d="M27.5047 81.446C28.3937 81.446 29.1144 80.7253 29.1144 79.8363C29.1144 78.9473 28.3937 78.2266 27.5047 78.2266C26.6157 78.2266 25.895 78.9473 25.895 79.8363C25.895 80.7253 26.6157 81.446 27.5047 81.446Z" fill="white"/>
<path opacity="0.4" d="M32.6019 121.688C33.4909 121.688 34.2116 120.967 34.2116 120.078C34.2116 119.189 33.4909 118.469 32.6019 118.469C31.7129 118.469 30.9922 119.189 30.9922 120.078C30.9922 120.967 31.7129 121.688 32.6019 121.688Z" fill="white"/>
<path opacity="0.4" d="M32.6019 114.981C33.4909 114.981 34.2116 114.26 34.2116 113.371C34.2116 112.482 33.4909 111.762 32.6019 111.762C31.7129 111.762 30.9922 112.482 30.9922 113.371C30.9922 114.26 31.7129 114.981 32.6019 114.981Z" fill="white"/>
<path opacity="0.4" d="M37.6995 121.688C38.5886 121.688 39.3092 120.967 39.3092 120.078C39.3092 119.189 38.5886 118.469 37.6995 118.469C36.8105 118.469 36.0898 119.189 36.0898 120.078C36.0898 120.967 36.8105 121.688 37.6995 121.688Z" fill="white"/>
<path opacity="0.4" d="M37.6995 114.981C38.5886 114.981 39.3092 114.26 39.3092 113.371C39.3092 112.482 38.5886 111.762 37.6995 111.762C36.8105 111.762 36.0898 112.482 36.0898 113.371C36.0898 114.26 36.8105 114.981 37.6995 114.981Z" fill="white"/>
<path opacity="0.4" d="M37.6995 108.274C38.5886 108.274 39.3092 107.553 39.3092 106.664C39.3092 105.775 38.5886 105.055 37.6995 105.055C36.8105 105.055 36.0898 105.775 36.0898 106.664C36.0898 107.553 36.8105 108.274 37.6995 108.274Z" fill="white"/>
<path opacity="0.4" d="M32.6019 108.274C33.4909 108.274 34.2116 107.553 34.2116 106.664C34.2116 105.775 33.4909 105.055 32.6019 105.055C31.7129 105.055 30.9922 105.775 30.9922 106.664C30.9922 107.553 31.7129 108.274 32.6019 108.274Z" fill="white"/>
<path opacity="0.4" d="M32.6019 101.569C33.4909 101.569 34.2116 100.848 34.2116 99.9593C34.2116 99.0703 33.4909 98.3496 32.6019 98.3496C31.7129 98.3496 30.9922 99.0703 30.9922 99.9593C30.9922 100.848 31.7129 101.569 32.6019 101.569Z" fill="white"/>
<path opacity="0.4" d="M32.6019 94.86C33.4909 94.86 34.2116 94.1393 34.2116 93.2503C34.2116 92.3613 33.4909 91.6406 32.6019 91.6406C31.7129 91.6406 30.9922 92.3613 30.9922 93.2503C30.9922 94.1393 31.7129 94.86 32.6019 94.86Z" fill="white"/>
<path opacity="0.4" d="M32.6019 88.153C33.4909 88.153 34.2116 87.4323 34.2116 86.5433C34.2116 85.6543 33.4909 84.9336 32.6019 84.9336C31.7129 84.9336 30.9922 85.6543 30.9922 86.5433C30.9922 87.4323 31.7129 88.153 32.6019 88.153Z" fill="white"/>
<path opacity="0.4" d="M32.6019 81.446C33.4909 81.446 34.2116 80.7253 34.2116 79.8363C34.2116 78.9473 33.4909 78.2266 32.6019 78.2266C31.7129 78.2266 30.9922 78.9473 30.9922 79.8363C30.9922 80.7253 31.7129 81.446 32.6019 81.446Z" fill="white"/>
</g>
<path d="M159.374 10.5742H52.4398C51.9146 10.5747 51.4111 10.7836 51.0397 11.155C50.6684 11.5264 50.4595 12.0299 50.459 12.5551V103.994C50.4595 104.519 50.6684 105.023 51.0397 105.394C51.4111 105.766 51.9147 105.975 52.4398 105.975H159.374C159.899 105.975 160.402 105.766 160.774 105.394C161.145 105.023 161.354 104.519 161.354 103.994V12.5551C161.354 12.0299 161.145 11.5264 160.774 11.155C160.402 10.7836 159.899 10.5747 159.374 10.5742ZM160.561 103.994C160.56 104.309 160.435 104.612 160.213 104.835C159.99 105.058 159.689 105.184 159.374 105.185H52.4398C52.1245 105.184 51.8223 105.059 51.5997 104.835C51.3771 104.612 51.2523 104.31 51.2528 103.994V12.5551C51.2523 12.2398 51.3771 11.9372 51.5997 11.7139C51.8223 11.4906 52.1245 11.3648 52.4398 11.3643H159.374C159.689 11.3655 159.99 11.4914 160.213 11.7146C160.435 11.9377 160.56 12.24 160.561 12.5551V103.994Z" fill="#3F3D56"/>
<path d="M77.1228 89.7179C77.1228 89.8588 77.1191 89.9998 77.1117 90.137C77.0039 92.2006 76.1082 94.1442 74.6094 95.5667C73.1105 96.9892 71.1229 97.7823 69.0565 97.7823C66.9901 97.7823 65.0025 96.9892 63.5037 95.5667C62.0049 94.1442 61.1092 92.2006 61.0014 90.137C60.9939 89.9998 60.9902 89.8588 60.9902 89.7179C60.9896 88.6582 61.1977 87.6087 61.6028 86.6295C62.0079 85.6502 62.6019 84.7604 63.351 84.0109C64.1001 83.2613 64.9895 82.6667 65.9685 82.261C66.9475 81.8553 67.9968 81.6465 69.0565 81.6465C70.1162 81.6465 71.1656 81.8553 72.1446 82.261C73.1235 82.6667 74.013 83.2613 74.7621 84.0109C75.5112 84.7604 76.1052 85.6502 76.5103 86.6295C76.9154 87.6087 77.1235 88.6582 77.1228 89.7179Z" fill="white"/>
<path d="M151.064 84.3379H87.6839C87.3277 84.3384 86.9862 84.4804 86.7344 84.7325C86.4827 84.9846 86.3413 85.3263 86.3413 85.6826C86.3413 86.0389 86.4827 86.3806 86.7344 86.6327C86.9862 86.8848 87.3277 87.0267 87.6839 87.0273H151.064C151.421 87.0267 151.762 86.8848 152.014 86.6327C152.266 86.3806 152.407 86.0389 152.407 85.6826C152.407 85.3263 152.266 84.9846 152.014 84.7325C151.762 84.4804 151.421 84.3384 151.064 84.3379Z" fill="#3F3D56"/>
<path d="M114.956 92.4062H87.6836C87.3275 92.4062 86.986 92.5477 86.7341 92.7996C86.4823 93.0514 86.3408 93.3929 86.3408 93.7491C86.3408 94.1052 86.4823 94.4468 86.7341 94.6986C86.986 94.9504 87.3275 95.0919 87.6836 95.0919H114.956C115.312 95.0919 115.654 94.9504 115.905 94.6986C116.157 94.4468 116.299 94.1052 116.299 93.7491C116.299 93.3929 116.157 93.0514 115.905 92.7996C115.654 92.5477 115.312 92.4062 114.956 92.4062Z" fill="white"/>
<path d="M184.779 74.8399H77.8456C77.1193 74.839 76.4231 74.5501 75.9095 74.0366C75.396 73.523 75.1072 72.8267 75.1064 72.1005V25.1729C75.1073 24.4466 75.3961 23.7504 75.9096 23.2369C76.4231 22.7233 77.1193 22.4344 77.8456 22.4336H184.779C185.505 22.4344 186.201 22.7233 186.715 23.2369C187.228 23.7504 187.517 24.4466 187.518 25.1729V72.1004C187.517 72.8267 187.228 73.523 186.715 74.0365C186.201 74.5501 185.505 74.839 184.779 74.8399ZM77.8456 23.3948C77.3742 23.3954 76.9223 23.5829 76.5889 23.9162C76.2556 24.2495 76.0682 24.7015 76.0677 25.1729V72.1004C76.0682 72.5718 76.2556 73.0238 76.5889 73.3572C76.9222 73.6905 77.3742 73.8781 77.8456 73.8786H184.779C185.25 73.8781 185.702 73.6905 186.035 73.3572C186.369 73.0238 186.556 72.5718 186.557 72.1004V25.1729C186.556 24.7015 186.369 24.2495 186.035 23.9162C185.702 23.5829 185.25 23.3954 184.779 23.3948H77.8456Z" fill="white"/>
<path d="M99.6227 39.5508C99.2662 39.5508 98.9242 39.6924 98.6721 39.9445C98.42 40.1967 98.2783 40.5386 98.2783 40.8952C98.2783 41.2517 98.42 41.5937 98.6721 41.8458C98.9242 42.0979 99.2662 42.2396 99.6227 42.2396H163.002C163.358 42.2396 163.7 42.0979 163.952 41.8458C164.205 41.5937 164.346 41.2517 164.346 40.8952C164.346 40.5386 164.205 40.1967 163.952 39.9445C163.7 39.6924 163.358 39.5508 163.002 39.5508H99.6227Z" fill="white"/>
<path d="M99.6227 47.3398C99.2662 47.3398 98.9242 47.4815 98.6721 47.7336C98.42 47.9857 98.2783 48.3277 98.2783 48.6843C98.2783 49.0408 98.42 49.3828 98.6721 49.6349C98.9242 49.887 99.2662 50.0286 99.6227 50.0286H163.002C163.358 50.0281 163.699 49.8862 163.951 49.6342C164.203 49.3821 164.344 49.0405 164.344 48.6843C164.344 48.3281 164.203 47.9864 163.951 47.7343C163.699 47.4823 163.358 47.3404 163.002 47.3398H99.6227Z" fill="white"/>
<path d="M99.6227 55.0371C99.2662 55.0371 98.9242 55.1788 98.6721 55.4309C98.42 55.683 98.2783 56.025 98.2783 56.3815C98.2783 56.7381 98.42 57.08 98.6721 57.3322C98.9242 57.5843 99.2662 57.7259 99.6227 57.7259H126.895C127.251 57.7254 127.593 57.5835 127.844 57.3314C128.096 57.0794 128.237 56.7377 128.237 56.3815C128.237 56.0253 128.096 55.6837 127.844 55.4316C127.593 55.1796 127.251 55.0377 126.895 55.0371H99.6227Z" fill="white"/>
<path d="M202.41 94.723L191.67 79.5654L195.146 80.2899C195.208 80.3027 195.272 80.3033 195.334 80.2915C195.396 80.2798 195.455 80.2559 195.508 80.2213C195.561 80.1867 195.606 80.142 195.642 80.0898C195.677 80.0376 195.702 79.9789 195.715 79.917C195.728 79.8552 195.729 79.7914 195.717 79.7294C195.705 79.6673 195.681 79.6082 195.647 79.5554C195.612 79.5025 195.567 79.457 195.515 79.4215C195.463 79.3859 195.404 79.361 195.342 79.3481L190.161 78.2695L189.462 83.5148C189.453 83.5775 189.457 83.6413 189.473 83.7025C189.49 83.7636 189.518 83.821 189.556 83.8714C189.594 83.9217 189.642 83.9639 189.697 83.9957C189.752 84.0275 189.812 84.0481 189.875 84.0565C189.938 84.0648 190.001 84.0607 190.063 84.0444C190.124 84.0281 190.181 83.9998 190.231 83.9613C190.281 83.9228 190.324 83.8747 190.355 83.8199C190.387 83.7651 190.407 83.7046 190.415 83.6418L190.884 80.1195L201.625 95.2788C201.662 95.3302 201.708 95.374 201.762 95.4076C201.815 95.4412 201.875 95.464 201.937 95.4746C201.999 95.4852 202.063 95.4835 202.124 95.4694C202.186 95.4554 202.244 95.4295 202.295 95.393C202.347 95.3565 202.391 95.3102 202.424 95.2568C202.458 95.2034 202.481 95.1439 202.491 95.0817C202.502 95.0195 202.5 94.9558 202.486 94.8942C202.472 94.8327 202.446 94.7745 202.41 94.723V94.723Z" fill="white"/>
<path d="M144.076 138.84H67.7369C67.3621 138.84 67.0028 138.691 66.7378 138.426C66.4728 138.161 66.3237 137.801 66.3232 137.426V118.49C66.3237 118.115 66.4728 117.756 66.7378 117.491C67.0028 117.226 67.3621 117.077 67.7369 117.076H144.076C144.451 117.077 144.811 117.226 145.076 117.491C145.341 117.756 145.49 118.115 145.49 118.49V137.426C145.49 137.801 145.341 138.161 145.076 138.426C144.811 138.691 144.451 138.84 144.076 138.84ZM67.7369 117.642C67.5121 117.642 67.2964 117.731 67.1374 117.89C66.9784 118.049 66.889 118.265 66.8887 118.49V137.426C66.889 137.651 66.9784 137.867 67.1374 138.026C67.2964 138.185 67.5121 138.274 67.7369 138.275H144.076C144.301 138.274 144.517 138.185 144.676 138.026C144.835 137.867 144.924 137.651 144.925 137.426V118.49C144.924 118.265 144.835 118.049 144.676 117.89C144.517 117.731 144.301 117.642 144.076 117.642H67.7369Z" fill="#3F3D56"/>
<path d="M79.5985 132.99C82.7789 132.99 85.3571 130.412 85.3571 127.231C85.3571 124.051 82.7789 121.473 79.5985 121.473C76.4181 121.473 73.8398 124.051 73.8398 127.231C73.8398 130.412 76.4181 132.99 79.5985 132.99Z" fill="white"/>
<path d="M92.8985 123.393C92.7724 123.392 92.6474 123.417 92.5307 123.465C92.4141 123.513 92.308 123.584 92.2187 123.673C92.1294 123.762 92.0586 123.868 92.0102 123.985C91.9619 124.101 91.937 124.226 91.937 124.352C91.937 124.479 91.9619 124.603 92.0102 124.72C92.0586 124.837 92.1294 124.942 92.2187 125.032C92.308 125.121 92.4141 125.191 92.5307 125.24C92.6474 125.288 92.7724 125.312 92.8985 125.312H138.145C138.399 125.312 138.644 125.211 138.824 125.031C139.004 124.851 139.105 124.607 139.105 124.352C139.105 124.098 139.004 123.854 138.824 123.674C138.644 123.494 138.399 123.393 138.145 123.393H92.8985Z" fill="white"/>
<path d="M92.8985 129.15C92.7724 129.15 92.6474 129.175 92.5307 129.223C92.4141 129.271 92.308 129.342 92.2187 129.431C92.1294 129.52 92.0586 129.626 92.0102 129.742C91.9619 129.859 91.937 129.984 91.937 130.11C91.937 130.236 91.9619 130.361 92.0102 130.478C92.0586 130.594 92.1294 130.7 92.2187 130.789C92.308 130.879 92.4141 130.949 92.5307 130.997C92.6474 131.046 92.7724 131.07 92.8985 131.07H112.368C112.623 131.07 112.867 130.969 113.047 130.789C113.227 130.609 113.328 130.365 113.328 130.11C113.328 129.856 113.227 129.611 113.047 129.431C112.867 129.252 112.623 129.15 112.368 129.15H92.8985Z" fill="white"/>
<path d="M244.799 71.373H278.728C279.103 71.3735 279.462 71.5226 279.727 71.7876C279.992 72.0526 280.141 72.4119 280.142 72.7867V108.122C280.141 108.497 279.992 108.856 279.727 109.121C279.462 109.386 279.103 109.535 278.728 109.536H244.799C244.425 109.535 244.065 109.386 243.8 109.121C243.535 108.856 243.386 108.497 243.386 108.122V72.7867C243.386 72.4119 243.535 72.0526 243.8 71.7876C244.065 71.5226 244.425 71.3735 244.799 71.373ZM278.728 108.97C278.953 108.97 279.169 108.881 279.328 108.722C279.487 108.563 279.576 108.347 279.576 108.122V72.7867C279.576 72.5619 279.487 72.3462 279.328 72.1872C279.169 72.0282 278.953 71.9388 278.728 71.9385H244.799C244.575 71.9388 244.359 72.0282 244.2 72.1872C244.041 72.3462 243.951 72.5619 243.951 72.7867V108.122C243.951 108.347 244.041 108.563 244.2 108.722C244.359 108.881 244.575 108.97 244.799 108.97H278.728Z" fill="#3F3D56"/>
<path d="M271.499 102.25C271.753 102.25 271.997 102.149 272.177 101.969C272.357 101.789 272.459 101.544 272.459 101.29C272.459 101.035 272.357 100.791 272.177 100.611C271.997 100.431 271.753 100.33 271.499 100.33H252.029C251.775 100.33 251.53 100.431 251.35 100.611C251.17 100.791 251.069 101.035 251.069 101.29C251.069 101.544 251.17 101.789 251.35 101.969C251.53 102.149 251.775 102.25 252.029 102.25H271.499Z" fill="white"/>
<path d="M271.499 96.5934C271.625 96.5936 271.75 96.5689 271.866 96.5208C271.983 96.4727 272.089 96.402 272.178 96.3129C272.268 96.2237 272.339 96.1179 272.387 96.0013C272.435 95.8847 272.46 95.7598 272.46 95.6336C272.46 95.5074 272.435 95.3825 272.387 95.2659C272.339 95.1493 272.268 95.0435 272.178 94.9543C272.089 94.8652 271.983 94.7945 271.866 94.7464C271.75 94.6983 271.625 94.6736 271.499 94.6738H252.029C251.903 94.6736 251.778 94.6983 251.661 94.7464C251.544 94.7945 251.438 94.8652 251.349 94.9543C251.26 95.0435 251.189 95.1493 251.141 95.2659C251.092 95.3825 251.067 95.5074 251.067 95.6336C251.067 95.7598 251.092 95.8847 251.141 96.0013C251.189 96.1179 251.26 96.2237 251.349 96.3129C251.438 96.402 251.544 96.4727 251.661 96.5208C251.778 96.5689 251.903 96.5936 252.029 96.5934H271.499Z" fill="white"/>
<path d="M261.764 78.6582C262.959 78.6582 264.127 79.0125 265.12 79.6764C266.114 80.3402 266.888 81.2837 267.345 82.3876C267.803 83.4915 267.922 84.7062 267.689 85.8781C267.456 87.05 266.881 88.1265 266.036 88.9714C265.191 89.8163 264.114 90.3917 262.943 90.6248C261.771 90.8579 260.556 90.7382 259.452 90.281C258.348 89.8237 257.405 89.0494 256.741 88.0559C256.077 87.0624 255.723 85.8944 255.723 84.6995C255.724 83.0978 256.362 81.5622 257.494 80.4297C258.627 79.2971 260.162 78.66 261.764 78.6582Z" fill="white"/>
</svg>
