<svg width="285" height="208" viewBox="0 0 285 208" fill="none" xmlns="http://www.w3.org/2000/svg">
<path d="M283.9 134.016C188.722 97.9499 94.0746 97.0238 0 134.016V0H283.9V134.016Z" fill="#3F3D56"/>
<path d="M66.0168 8.5H10.2002V11.05H66.0168V8.5Z" fill="#D0CDE1"/>
<path d="M66.0168 15.0176H10.2002V17.5676H66.0168V15.0176Z" fill="#D0CDE1"/>
<path d="M66.0168 21.5332H10.2002V24.0832H66.0168V21.5332Z" fill="#D0CDE1"/>
<path d="M25.2165 32.3008H19.5498V37.9674H25.2165V32.3008Z" fill="#D0CDE1"/>
<path d="M41.0832 32.3008H35.4165V37.9674H41.0832V32.3008Z" fill="#6C63FF"/>
<path d="M56.9499 32.3008H51.2832V37.9674H56.9499V32.3008Z" fill="#FF6584"/>
<path d="M62.0501 53.5508H14.4502V61.7326H62.0501V53.5508Z" fill="#D0CDE1"/>
<path d="M62.0501 66.1055H14.4502V74.2873H62.0501V66.1055Z" fill="#6C63FF"/>
<path d="M62.0501 78.6602H14.4502V86.842H62.0501V78.6602Z" fill="#FF6584"/>
<path opacity="0.15" d="M34.1418 53.5508H14.4502V61.7326H34.1418V53.5508Z" fill="black"/>
<path opacity="0.15" d="M20.8252 66.1055H14.4502V74.2873H20.8252V66.1055Z" fill="black"/>
<path opacity="0.15" d="M46.1835 78.6602H14.4502V86.842H46.1835V78.6602Z" fill="black"/>
<path d="M139.4 6.51758V100.017C151.799 100.017 163.69 95.092 172.457 86.3247C181.224 77.5574 186.15 65.6664 186.15 53.2675C186.15 40.8687 181.224 28.9776 172.457 20.2103C163.69 11.443 151.799 6.51758 139.4 6.51758Z" fill="#D0CDE1"/>
<path d="M136.283 8.57227C128.316 8.57058 120.505 10.7854 113.725 14.9689C106.944 19.1525 101.461 25.1399 97.8887 32.2614L136.283 54.9887V8.57227Z" fill="#D0CDE1"/>
<path d="M94.7718 32.8711C91.1997 39.9996 89.5096 47.9231 89.8621 55.8888C90.2147 63.8544 92.5982 71.5976 96.7861 78.3827C100.974 85.1678 106.827 90.7693 113.79 94.6551C120.752 98.5409 128.593 100.582 136.566 100.584V57.6109L94.7718 32.8711Z" fill="#6C63FF"/>
<path d="M246.216 30.8828H217.6V33.4328H246.216V30.8828Z" fill="#D0CDE1"/>
<path d="M213.917 29.1836H208.25V34.8503H213.917V29.1836Z" fill="#6C63FF"/>
<path d="M246.216 39.3828H217.6V41.9328H246.216V39.3828Z" fill="#D0CDE1"/>
<path d="M213.917 37.6836H208.25V43.3503H213.917V37.6836Z" fill="#6C63FF"/>
<path d="M246.216 47.8828H217.6V50.4328H246.216V47.8828Z" fill="#D0CDE1"/>
<path d="M213.917 46.1836H208.25V51.8503H213.917V46.1836Z" fill="#6C63FF"/>
<path d="M124.3 71.0344L123.899 70.6338L153.732 40.8008H205.7V41.3674H153.967L124.3 71.0344Z" fill="#2F2E41"/>
<path d="M284.183 207.428H0.283203V143.112C91.5164 107.562 186.15 107.562 284.183 143.112V207.428Z" fill="#3F3D56"/>
<path d="M246.802 207.953L246.235 207.942C246.455 201.641 247.127 195.365 248.247 189.161C250.697 175.878 254.772 167.154 260.357 163.232L260.683 163.696C247.635 172.857 246.809 207.603 246.802 207.953Z" fill="#D0CDE1"/>
<path d="M253.886 207.817L253.319 207.806C253.331 207.178 253.685 192.389 259.508 188.301L259.833 188.765C254.245 192.687 253.888 207.666 253.886 207.817Z" fill="#D0CDE1"/>
<path d="M263.907 163.747C265.471 163.747 266.74 162.478 266.74 160.913C266.74 159.349 265.471 158.08 263.907 158.08C262.342 158.08 261.073 159.349 261.073 160.913C261.073 162.478 262.342 163.747 263.907 163.747Z" fill="#6C63FF"/>
<path d="M262.504 188.114C264.069 188.114 265.337 186.845 265.337 185.281C265.337 183.716 264.069 182.447 262.504 182.447C260.939 182.447 259.67 183.716 259.67 185.281C259.67 186.845 260.939 188.114 262.504 188.114Z" fill="#6C63FF"/>
<path d="M252.564 165.446C253.097 168.847 251.709 171.889 251.709 171.889C251.709 171.889 249.458 169.417 248.925 166.015C248.393 162.614 249.781 159.572 249.781 159.572C249.781 159.572 252.032 162.045 252.564 165.446Z" fill="#6C63FF"/>
<path d="M261.817 173.679C258.561 174.796 255.328 173.972 255.328 173.972C255.328 173.972 257.375 171.337 260.631 170.22C263.887 169.104 267.12 169.927 267.12 169.927C267.12 169.927 265.074 172.562 261.817 173.679Z" fill="#D0CDE1"/>
<path d="M261.931 195.285C260.457 195.748 258.888 195.816 257.379 195.482C258.337 194.262 259.627 193.346 261.093 192.843C262.56 192.34 264.14 192.272 265.645 192.647C264.659 193.836 263.379 194.746 261.931 195.285Z" fill="#D0CDE1"/>
<path d="M228.362 157.062C227.634 157.062 226.921 156.846 226.316 156.441C225.71 156.036 225.238 155.461 224.959 154.788C224.68 154.115 224.607 153.375 224.749 152.66C224.892 151.946 225.242 151.289 225.758 150.774C226.273 150.259 226.929 149.908 227.643 149.766C228.358 149.624 229.099 149.697 229.772 149.976C230.445 150.254 231.02 150.727 231.425 151.332C231.829 151.938 232.045 152.65 232.045 153.379C232.044 154.355 231.656 155.291 230.965 155.982C230.275 156.672 229.339 157.061 228.362 157.062ZM228.362 150.262C227.746 150.262 227.143 150.445 226.631 150.787C226.118 151.13 225.719 151.616 225.483 152.186C225.247 152.755 225.185 153.382 225.305 153.987C225.426 154.591 225.722 155.147 226.158 155.582C226.594 156.018 227.149 156.315 227.754 156.435C228.359 156.556 228.985 156.494 229.555 156.258C230.124 156.022 230.611 155.623 230.953 155.11C231.296 154.598 231.479 153.995 231.479 153.379C231.478 152.552 231.149 151.76 230.565 151.176C229.981 150.592 229.188 150.263 228.362 150.262Z" fill="#D0CDE1"/>
<path d="M211.083 176.233C212.335 176.233 213.35 175.218 213.35 173.966C213.35 172.714 212.335 171.699 211.083 171.699C209.831 171.699 208.816 172.714 208.816 173.966C208.816 175.218 209.831 176.233 211.083 176.233Z" fill="#D0CDE1"/>
<path d="M24.3667 186.15H17V178.783H24.3667V186.15ZM17.5667 185.583H23.8V179.35H17.5667V185.583Z" fill="#D0CDE1"/>
<path d="M169.15 163.199H113.333V165.749H169.15V163.199Z" fill="#D0CDE1"/>
<path d="M169.15 150.449H113.333V152.999H169.15V150.449Z" fill="#D0CDE1"/>
<path d="M148.75 169.717H113.333V172.267H148.75V169.717Z" fill="#D0CDE1"/>
<path d="M148.75 156.967H113.333V159.517H148.75V156.967Z" fill="#D0CDE1"/>
<path d="M68.2834 156.967C65.4815 156.967 62.7425 157.798 60.4128 159.354C58.0831 160.911 56.2673 163.123 55.1951 165.712C54.1228 168.301 53.8423 171.149 54.3889 173.897C54.9355 176.645 56.2848 179.17 58.266 181.151C60.2473 183.132 62.7715 184.481 65.5196 185.028C68.2676 185.575 71.1161 185.294 73.7047 184.222C76.2933 183.149 78.5058 181.334 80.0625 179.004C81.6191 176.674 82.45 173.935 82.45 171.133C82.45 167.376 80.9575 163.773 78.3007 161.116C75.6439 158.459 72.0406 156.967 68.2834 156.967ZM65.8396 177.473L59.7459 171.379L61.4551 169.67L65.8453 174.06L75.1117 164.794L76.8209 166.503L65.8396 177.473Z" fill="#6C63FF"/>
</svg>
