<svg width="288" height="184" viewBox="0 0 288 184" fill="none" xmlns="http://www.w3.org/2000/svg">
<path d="M287.166 0.164062H0.121582V184H287.166V0.164062Z" fill="#E6E6E6"/>
<path d="M278.959 23.2188H8.33057V173.121H278.959V23.2188Z" fill="white"/>
<path d="M287.044 0H0V12.1947H287.044V0Z" fill="#6C63FF"/>
<path d="M9.06195 8.49304C10.3102 8.49304 11.3221 7.48112 11.3221 6.23285C11.3221 4.98458 10.3102 3.97266 9.06195 3.97266C7.81368 3.97266 6.80176 4.98458 6.80176 6.23285C6.80176 7.48112 7.81368 8.49304 9.06195 8.49304Z" fill="white"/>
<path d="M17.6411 8.49304C18.8893 8.49304 19.9012 7.48112 19.9012 6.23285C19.9012 4.98458 18.8893 3.97266 17.6411 3.97266C16.3928 3.97266 15.3809 4.98458 15.3809 6.23285C15.3809 7.48112 16.3928 8.49304 17.6411 8.49304Z" fill="white"/>
<path d="M26.2202 8.49304C27.4684 8.49304 28.4803 7.48112 28.4803 6.23285C28.4803 4.98458 27.4684 3.97266 26.2202 3.97266C24.9719 3.97266 23.96 4.98458 23.96 6.23285C23.96 7.48112 24.9719 8.49304 26.2202 8.49304Z" fill="white"/>
<path d="M202.383 37.2616H114.275C114.087 37.2368 113.914 37.1445 113.789 37.0018C113.664 36.8592 113.595 36.676 113.595 36.4863C113.595 36.2965 113.664 36.1133 113.789 35.9707C113.914 35.828 114.087 35.7357 114.275 35.7109H202.383C202.571 35.7357 202.744 35.828 202.869 35.9707C202.994 36.1133 203.063 36.2965 203.063 36.4863C203.063 36.676 202.994 36.8592 202.869 37.0018C202.744 37.1445 202.571 37.2368 202.383 37.2616Z" fill="#CCCCCC"/>
<path d="M141.333 45.7889H85.3136C85.1255 45.7641 84.9529 45.6718 84.8278 45.5292C84.7027 45.3865 84.6338 45.2033 84.6338 45.0136C84.6338 44.8239 84.7027 44.6407 84.8278 44.498C84.9529 44.3554 85.1255 44.2631 85.3136 44.2383H141.333C141.521 44.2631 141.693 44.3554 141.819 44.498C141.944 44.6407 142.013 44.8239 142.013 45.0136C142.013 45.2033 141.944 45.3865 141.819 45.5292C141.693 45.6718 141.521 45.7641 141.333 45.7889Z" fill="#CCCCCC"/>
<path d="M202.383 45.9452H146.364C146.176 45.9204 146.003 45.8281 145.878 45.6854C145.753 45.5428 145.684 45.3596 145.684 45.1698C145.684 44.9801 145.753 44.7969 145.878 44.6543C146.003 44.5116 146.176 44.4193 146.364 44.3945H202.383C202.571 44.4193 202.744 44.5116 202.869 44.6543C202.994 44.7969 203.063 44.9801 203.063 45.1698C203.063 45.3596 202.994 45.5428 202.869 45.6854C202.744 45.8281 202.571 45.9204 202.383 45.9452H202.383Z" fill="#CCCCCC"/>
<path d="M141.469 54.3182H85.4499C85.2618 54.2934 85.0891 54.2011 84.9641 54.0585C84.839 53.9158 84.77 53.7326 84.77 53.5429C84.77 53.3532 84.839 53.1699 84.9641 53.0273C85.0891 52.8847 85.2618 52.7924 85.4499 52.7676H141.469C141.657 52.7924 141.83 52.8847 141.955 53.0273C142.08 53.1699 142.149 53.3532 142.149 53.5429C142.149 53.7326 142.08 53.9158 141.955 54.0585C141.83 54.2011 141.657 54.2934 141.469 54.3182Z" fill="#CCCCCC"/>
<path d="M141.605 62.8456H85.5861C85.398 62.8208 85.2254 62.7285 85.1003 62.5858C84.9752 62.4432 84.9062 62.2599 84.9063 62.0702C84.9062 61.8805 84.9752 61.6973 85.1003 61.5547C85.2254 61.412 85.398 61.3197 85.5861 61.2949H141.605C141.793 61.3197 141.966 61.412 142.091 61.5547C142.216 61.6973 142.285 61.8805 142.285 62.0702C142.285 62.2599 142.216 62.4432 142.091 62.5858C141.966 62.7285 141.793 62.8208 141.605 62.8456Z" fill="#CCCCCC"/>
<path d="M167.031 54.3182H150.987C150.799 54.2934 150.626 54.2011 150.501 54.0585C150.376 53.9158 150.307 53.7326 150.307 53.5429C150.307 53.3532 150.376 53.1699 150.501 53.0273C150.626 52.8847 150.799 52.7924 150.987 52.7676H167.031C167.219 52.7924 167.392 52.8847 167.517 53.0273C167.642 53.1699 167.711 53.3532 167.711 53.5429C167.711 53.7326 167.642 53.9158 167.517 54.0585C167.392 54.2011 167.219 54.2934 167.031 54.3182Z" fill="#CCCCCC"/>
<path d="M167.031 62.6913H150.987C150.799 62.6665 150.626 62.5742 150.501 62.4315C150.376 62.2889 150.307 62.1057 150.307 61.916C150.307 61.7263 150.376 61.543 150.501 61.4004C150.626 61.2577 150.799 61.1654 150.987 61.1406H167.031C167.219 61.1654 167.392 61.2577 167.517 61.4004C167.642 61.543 167.711 61.7263 167.711 61.916C167.711 62.1057 167.642 62.2889 167.517 62.4315C167.392 62.5742 167.219 62.6665 167.031 62.6913Z" fill="#CCCCCC"/>
<path d="M193.953 62.6913H177.909C177.721 62.6665 177.548 62.5742 177.423 62.4315C177.298 62.2889 177.229 62.1057 177.229 61.916C177.229 61.7263 177.298 61.543 177.423 61.4004C177.548 61.2577 177.721 61.1654 177.909 61.1406H193.953C194.141 61.1654 194.314 61.2577 194.439 61.4004C194.564 61.543 194.633 61.7263 194.633 61.916C194.633 62.1057 194.564 62.2889 194.439 62.4315C194.314 62.5742 194.141 62.6665 193.953 62.6913Z" fill="#CCCCCC"/>
<path d="M100.951 37.2616H84.9064C84.7183 37.2368 84.5457 37.1445 84.4206 37.0018C84.2955 36.8592 84.2266 36.676 84.2266 36.4863C84.2266 36.2965 84.2955 36.1133 84.4206 35.9707C84.5457 35.828 84.7183 35.7357 84.9064 35.7109H100.951C101.139 35.7357 101.311 35.828 101.437 35.9707C101.562 36.1133 101.631 36.2965 101.631 36.4863C101.631 36.676 101.562 36.8592 101.437 37.0018C101.311 37.1445 101.139 37.2368 100.951 37.2616Z" fill="#CCCCCC"/>
<path d="M141.129 135.047H85.11C84.9219 135.022 84.7493 134.93 84.6242 134.787C84.4991 134.644 84.4302 134.461 84.4302 134.271C84.4302 134.082 84.4991 133.898 84.6242 133.756C84.7493 133.613 84.9219 133.521 85.11 133.496H141.129C141.317 133.521 141.49 133.613 141.615 133.756C141.74 133.898 141.809 134.082 141.809 134.271C141.809 134.461 141.74 134.644 141.615 134.787C141.49 134.93 141.317 135.022 141.129 135.047H141.129Z" fill="#CCCCCC"/>
<path d="M140.857 152.103H84.838C84.65 152.079 84.4773 151.986 84.3522 151.844C84.2272 151.701 84.1582 151.518 84.1582 151.328C84.1582 151.138 84.2272 150.955 84.3522 150.812C84.4773 150.67 84.65 150.578 84.838 150.553H140.857C141.045 150.578 141.218 150.67 141.343 150.812C141.468 150.955 141.537 151.138 141.537 151.328C141.537 151.518 141.468 151.701 141.343 151.844C141.218 151.986 141.045 152.079 140.857 152.103H140.857Z" fill="#CCCCCC"/>
<path d="M140.993 160.635H84.9738C84.7857 160.61 84.6131 160.518 84.488 160.375C84.3629 160.232 84.2939 160.049 84.2939 159.859C84.2939 159.67 84.3629 159.486 84.488 159.344C84.6131 159.201 84.7857 159.109 84.9738 159.084H140.993C141.181 159.109 141.354 159.201 141.479 159.344C141.604 159.486 141.673 159.67 141.673 159.859C141.673 160.049 141.604 160.232 141.479 160.375C141.354 160.518 141.181 160.61 140.993 160.635H140.993Z" fill="#CCCCCC"/>
<path d="M164.923 152.26H148.879C148.691 152.235 148.518 152.143 148.393 152C148.268 151.857 148.199 151.674 148.199 151.484C148.199 151.295 148.268 151.111 148.393 150.969C148.518 150.826 148.691 150.734 148.879 150.709H164.923C165.111 150.734 165.284 150.826 165.409 150.969C165.534 151.111 165.603 151.295 165.603 151.484C165.603 151.674 165.534 151.857 165.409 152C165.284 152.143 165.111 152.235 164.923 152.26Z" fill="#CCCCCC"/>
<path d="M164.923 160.635H148.879C148.691 160.61 148.518 160.518 148.393 160.375C148.268 160.232 148.199 160.049 148.199 159.859C148.199 159.67 148.268 159.486 148.393 159.344C148.518 159.201 148.691 159.109 148.879 159.084H164.923C165.111 159.109 165.284 159.201 165.409 159.344C165.534 159.486 165.603 159.67 165.603 159.859C165.603 160.049 165.534 160.232 165.409 160.375C165.284 160.518 165.111 160.61 164.923 160.635Z" fill="#CCCCCC"/>
<path d="M191.845 152.26H175.801C175.613 152.235 175.44 152.143 175.315 152C175.19 151.857 175.121 151.674 175.121 151.484C175.121 151.295 175.19 151.111 175.315 150.969C175.44 150.826 175.613 150.734 175.801 150.709H191.845C192.033 150.734 192.206 150.826 192.331 150.969C192.456 151.111 192.525 151.295 192.525 151.484C192.525 151.674 192.456 151.857 192.331 152C192.206 152.143 192.033 152.235 191.845 152.26Z" fill="#CCCCCC"/>
<path d="M202.451 143.576H114.343C114.155 143.551 113.983 143.459 113.858 143.316C113.733 143.174 113.664 142.99 113.664 142.801C113.664 142.611 113.733 142.428 113.858 142.285C113.983 142.143 114.155 142.05 114.343 142.025H202.451C202.639 142.05 202.812 142.143 202.937 142.285C203.062 142.428 203.131 142.611 203.131 142.801C203.131 142.99 203.062 143.174 202.937 143.316C202.812 143.459 202.639 143.551 202.451 143.576Z" fill="#CCCCCC"/>
<path d="M101.018 143.576H84.9738C84.7857 143.551 84.613 143.459 84.488 143.316C84.3629 143.174 84.2939 142.99 84.2939 142.801C84.2939 142.611 84.3629 142.428 84.488 142.285C84.613 142.143 84.7857 142.05 84.9738 142.025H101.018C101.206 142.05 101.379 142.143 101.504 142.285C101.629 142.428 101.698 142.611 101.698 142.801C101.698 142.99 101.629 143.174 101.504 143.316C101.379 143.459 101.206 143.551 101.018 143.576Z" fill="#CCCCCC"/>
<path d="M127.6 76.6211L105.845 98.1045L127.6 119.587L132.495 114.693L116.043 98.2402L132.631 81.6521L127.6 76.6211Z" fill="#E6E6E6"/>
<path d="M159.689 76.6211L181.444 98.1045L159.689 119.587L154.794 114.693L171.246 98.2402L154.658 81.6521L159.689 76.6211Z" fill="#E6E6E6"/>
<path d="M127.6 76.6211L105.845 98.1045L127.6 119.587L132.495 114.693L116.043 98.2402L132.631 81.6521L127.6 76.6211Z" fill="#6C63FF"/>
<path d="M159.689 76.6211L181.444 98.1045L159.689 119.587L154.794 114.693L171.246 98.2402L154.658 81.6521L159.689 76.6211Z" fill="#6C63FF"/>
</svg>
