<svg width="303" height="244" viewBox="0 0 303 244" fill="none" xmlns="http://www.w3.org/2000/svg">
<path d="M246.84 3.69355e-09H49.6462C48.8951 0.000655542 48.175 0.299327 47.6439 0.830447C47.1128 1.36157 46.8141 2.08173 46.8135 2.83283V74.1117H94.5363C95.8282 74.1133 97.0668 74.6272 97.9803 75.5407C98.8938 76.4543 99.4077 77.6928 99.4093 78.9847V139.29H246.84C247.25 139.29 247.654 139.201 248.026 139.029C248.398 138.858 248.728 138.607 248.994 138.296C249.017 138.271 249.037 138.245 249.056 138.218C249.225 138.011 249.362 137.78 249.462 137.532C249.604 137.192 249.677 136.826 249.676 136.457V2.83283C249.675 2.08121 249.376 1.36066 248.844 0.829481C248.313 0.298306 247.592 -3.83297e-05 246.84 3.69355e-09Z" fill="#F2F2F2"/>
<path d="M249.269 11.3535H47.2163V12.1633H249.269V11.3535Z" fill="#CCCCCC"/>
<path d="M54.0994 8.50352C55.4412 8.50352 56.5289 7.4158 56.5289 6.07402C56.5289 4.73225 55.4412 3.64453 54.0994 3.64453C52.7576 3.64453 51.6699 4.73225 51.6699 6.07402C51.6699 7.4158 52.7576 8.50352 54.0994 8.50352Z" fill="#CCCCCC"/>
<path d="M61.0848 8.50352C62.4265 8.50352 63.5143 7.4158 63.5143 6.07402C63.5143 4.73225 62.4265 3.64453 61.0848 3.64453C59.743 3.64453 58.6553 4.73225 58.6553 6.07402C58.6553 7.4158 59.743 8.50352 61.0848 8.50352Z" fill="#CCCCCC"/>
<path d="M68.0691 8.50352C69.4109 8.50352 70.4986 7.4158 70.4986 6.07402C70.4986 4.73225 69.4109 3.64453 68.0691 3.64453C66.7274 3.64453 65.6396 4.73225 65.6396 6.07402C65.6396 7.4158 66.7274 8.50352 68.0691 8.50352Z" fill="#CCCCCC"/>
<path d="M198.922 29.0371H97.5641C96.444 29.0371 95.3698 29.4821 94.5778 30.2741C93.7858 31.0661 93.3408 32.1403 93.3408 33.2604C93.3408 34.3804 93.7858 35.4547 94.5778 36.2467C95.3698 37.0387 96.444 37.4836 97.5641 37.4836H198.922C200.042 37.4836 201.117 37.0387 201.909 36.2467C202.701 35.4547 203.146 34.3804 203.146 33.2604C203.146 32.1403 202.701 31.0661 201.909 30.2741C201.117 29.4821 200.042 29.0371 198.922 29.0371ZM198.922 36.8339H97.5641C96.6163 36.8339 95.7074 36.4574 95.0372 35.7872C94.367 35.1171 93.9906 34.2081 93.9906 33.2604C93.9906 32.3126 94.367 31.4037 95.0372 30.7335C95.7074 30.0633 96.6163 29.6868 97.5641 29.6868H198.922C199.87 29.6868 200.779 30.0633 201.449 30.7335C202.119 31.4037 202.496 32.3126 202.496 33.2604C202.496 34.2081 202.119 35.1171 201.449 35.7872C200.779 36.4574 199.87 36.8339 198.922 36.8339Z" fill="#CCCCCC"/>
<path d="M229.937 62.6836H128.579C127.459 62.6836 126.384 63.1285 125.592 63.9206C124.8 64.7126 124.355 65.7868 124.355 66.9069C124.355 68.0269 124.8 69.1011 125.592 69.8932C126.384 70.6852 127.459 71.1301 128.579 71.1301H229.937C231.057 71.1301 232.131 70.6852 232.923 69.8932C233.715 69.1011 234.16 68.0269 234.16 66.9069C234.16 65.7868 233.715 64.7126 232.923 63.9206C232.131 63.1285 231.057 62.6836 229.937 62.6836Z" fill="white"/>
<path d="M229.937 78.2773H128.579C127.459 78.2773 126.384 78.7223 125.592 79.5143C124.8 80.3063 124.355 81.3805 124.355 82.5006C124.355 83.6207 124.8 84.6949 125.592 85.4869C126.384 86.2789 127.459 86.7239 128.579 86.7239H229.937C231.057 86.7239 232.131 86.2789 232.923 85.4869C233.715 84.6949 234.16 83.6207 234.16 82.5006C234.16 81.3805 233.715 80.3063 232.923 79.5143C232.131 78.7223 231.057 78.2773 229.937 78.2773Z" fill="white"/>
<path d="M229.937 93.8711H128.579C127.459 93.8711 126.384 94.316 125.592 95.1081C124.8 95.9001 124.355 96.9743 124.355 98.0944C124.355 99.2144 124.8 100.289 125.592 101.081C126.384 101.873 127.459 102.318 128.579 102.318H229.937C231.057 102.318 232.131 101.873 232.923 101.081C233.715 100.289 234.16 99.2144 234.16 98.0944C234.16 96.9743 233.715 95.9001 232.923 95.1081C232.131 94.316 231.057 93.8711 229.937 93.8711Z" fill="white"/>
<path d="M112.199 55.6973H66.0614C65.0718 55.6984 64.123 56.0921 63.4233 56.7918C62.7235 57.4916 62.3298 58.4404 62.3286 59.43V74.1107H62.9783V59.43C62.9796 58.6127 63.3048 57.8292 63.8827 57.2513C64.4607 56.6734 65.2441 56.3482 66.0614 56.347H112.199C113.016 56.3477 113.8 56.6727 114.378 57.2508C114.956 57.8288 115.281 58.6125 115.282 59.43V105.567C115.281 106.385 114.956 107.169 114.378 107.747C113.8 108.325 113.016 108.65 112.199 108.65H99.4089V109.3H112.199C113.189 109.3 114.138 108.906 114.838 108.206C115.537 107.506 115.931 106.557 115.932 105.567V59.43C115.931 58.4402 115.537 57.4911 114.838 56.7913C114.138 56.0914 113.189 55.6979 112.199 55.6973Z" fill="#CCCCCC"/>
<path d="M94.5361 73.4609H5.52273C4.05864 73.463 2.65512 74.0455 1.61986 75.0808C0.584597 76.1161 0.00207201 77.5196 0 78.9837V191.387C0.00207115 192.851 0.584597 194.255 1.61986 195.29C2.65512 196.326 4.05864 196.908 5.52273 196.91H94.5361C96.0002 196.908 97.4037 196.326 98.4389 195.29C99.4742 194.255 100.057 192.851 100.059 191.387V78.9837C100.057 77.5196 99.4742 76.1161 98.4389 75.0808C97.4037 74.0455 96.0002 73.463 94.5361 73.4609ZM99.4091 191.387C99.4075 192.679 98.8936 193.918 97.9801 194.831C97.0666 195.745 95.828 196.259 94.5361 196.26H5.52273C4.23081 196.259 2.99226 195.745 2.07874 194.831C1.16521 193.918 0.651304 192.679 0.649733 191.387V78.9837C0.651304 77.6917 1.16521 76.4532 2.07874 75.5397C2.99226 74.6262 4.23081 74.1122 5.52273 74.1107H94.5361C95.828 74.1122 97.0666 74.6262 97.9801 75.5397C98.8936 76.4532 99.4075 77.6917 99.4091 78.9837V191.387Z" fill="#3F3D56"/>
<path d="M76.9937 151.267H23.0659C17.5572 151.24 17.5342 142.849 23.0662 142.82H76.9937C82.4986 142.846 82.5284 151.238 76.9937 151.267Z" fill="#CCCCCC"/>
<path d="M76.9937 166.861H23.0659C17.5572 166.834 17.5342 158.443 23.0662 158.414H76.9937C82.4986 158.44 82.5284 166.832 76.9937 166.861Z" fill="#CCCCCC"/>
<path d="M76.9937 182.456H23.0659C17.5572 182.43 17.5342 174.039 23.0662 174.01H76.9937C82.4986 174.036 82.5284 182.427 76.9937 182.456Z" fill="#CCCCCC"/>
<path d="M97.135 83.8559C95.4644 83.8559 93.8314 83.3606 92.4424 82.4324C91.0533 81.5043 89.9707 80.1852 89.3314 78.6418C88.6921 77.0984 88.5249 75.4 88.8508 73.7616C89.1767 72.1231 89.9811 70.6181 91.1624 69.4368C92.3437 68.2556 93.8487 67.4511 95.4872 67.1252C97.1256 66.7993 98.8239 66.9666 100.367 67.6058C101.911 68.2451 103.23 69.3278 104.158 70.7168C105.086 72.1058 105.582 73.7389 105.582 75.4094C105.579 77.6488 104.688 79.7957 103.105 81.3792C101.521 82.9627 99.3744 83.8534 97.135 83.8559Z" fill="#6C63FF"/>
<path d="M287.476 113.379H198.199C190.467 113.379 184.199 119.647 184.199 127.379V229.001C184.199 236.733 190.467 243.001 198.199 243.001H287.476C295.208 243.001 301.476 236.733 301.476 229.001V127.379C301.476 119.647 295.208 113.379 287.476 113.379Z" fill="#E4E4E4" stroke="#3F3D56" stroke-width="2" stroke-miterlimit="10"/>
<path d="M101.033 75.0869H97.4597V71.026C97.4597 70.9399 97.4255 70.8572 97.3646 70.7963C97.3037 70.7354 97.221 70.7012 97.1349 70.7012C97.0487 70.7012 96.9661 70.7354 96.9052 70.7963C96.8442 70.8572 96.81 70.9399 96.81 71.026V75.0869H93.2365C93.1503 75.0869 93.0677 75.1211 93.0068 75.182C92.9458 75.2429 92.9116 75.3256 92.9116 75.4117C92.9116 75.4979 92.9458 75.5805 93.0068 75.6414C93.0677 75.7024 93.1503 75.7366 93.2365 75.7366H96.81V79.7974C96.81 79.8836 96.8442 79.9662 96.9052 80.0271C96.9661 80.0881 97.0487 80.1223 97.1349 80.1223C97.221 80.1223 97.3037 80.0881 97.3646 80.0271C97.4255 79.9662 97.4597 79.8836 97.4597 79.7974V75.7366H101.033C101.119 75.7366 101.202 75.7024 101.263 75.6414C101.324 75.5805 101.358 75.4979 101.358 75.4117C101.358 75.3256 101.324 75.2429 101.263 75.182C101.202 75.1211 101.119 75.0869 101.033 75.0869Z" fill="white"/>
<path d="M76.0186 132.684H24.04C22.6188 132.682 21.2564 132.117 20.2515 131.112C19.2466 130.107 18.6813 128.745 18.6797 127.324V98.2158C18.6813 96.7946 19.2466 95.4321 20.2515 94.4272C21.2564 93.4223 22.6188 92.8571 24.04 92.8555H76.0186C77.4397 92.8571 78.8022 93.4223 79.8071 94.4272C80.812 95.4321 81.3773 96.7946 81.3789 98.2158V127.324C81.3773 128.745 80.812 130.107 79.8071 131.112C78.8022 132.117 77.4397 132.682 76.0186 132.684Z" fill="#6C63FF"/>
<path d="M214.899 132.869H207.752C199.409 132.869 192.646 139.632 192.646 147.975C192.646 156.318 199.409 163.082 207.752 163.082H214.899C223.242 163.082 230.005 156.318 230.005 147.975C230.005 139.632 223.242 132.869 214.899 132.869Z" fill="#6C63FF"/>
<path d="M295.628 172.178H192.646V175.426H295.628V172.178Z" fill="#F2F2F2"/>
<path d="M280.684 140.992H244.624V144.241H280.684V140.992Z" fill="#F2F2F2"/>
<path d="M295.628 149.766H244.624V152.689H295.628V149.766Z" fill="#F2F2F2"/>
<path d="M278.086 139.369H242.025V142.293H278.086V139.369Z" stroke="#3F3D56" stroke-miterlimit="10"/>
<path d="M293.029 147.812H242.025V151.061H293.029V147.812Z" stroke="#3F3D56" stroke-miterlimit="10"/>
<path d="M293.029 170.232H190.047V173.481H293.029V170.232Z" stroke="#3F3D56" stroke-miterlimit="10"/>
<path d="M295.628 182.25H192.646V185.174H295.628V182.25Z" fill="#F2F2F2"/>
<path d="M293.029 180.301H190.047V183.549H293.029V180.301Z" stroke="#3F3D56" stroke-miterlimit="10"/>
<path d="M186.149 124.098C184.478 124.098 182.845 123.603 181.456 122.675C180.067 121.747 178.984 120.427 178.345 118.884C177.706 117.341 177.539 115.642 177.864 114.004C178.19 112.365 178.995 110.86 180.176 109.679C181.357 108.498 182.862 107.693 184.501 107.367C186.139 107.041 187.838 107.209 189.381 107.848C190.924 108.487 192.244 109.57 193.172 110.959C194.1 112.348 194.595 113.981 194.595 115.652C194.593 117.891 193.702 120.038 192.118 121.621C190.535 123.205 188.388 124.096 186.149 124.098Z" fill="#6C63FF"/>
<path d="M190.047 115.327H186.473V111.266C186.473 111.18 186.439 111.097 186.378 111.037C186.317 110.976 186.235 110.941 186.149 110.941C186.062 110.941 185.98 110.976 185.919 111.037C185.858 111.097 185.824 111.18 185.824 111.266V115.327H182.25C182.164 115.327 182.081 115.361 182.02 115.422C181.96 115.483 181.925 115.566 181.925 115.652C181.925 115.738 181.96 115.821 182.02 115.882C182.081 115.943 182.164 115.977 182.25 115.977H185.824V120.038C185.824 120.124 185.858 120.206 185.919 120.267C185.98 120.328 186.062 120.363 186.149 120.363C186.235 120.363 186.317 120.328 186.378 120.267C186.439 120.206 186.473 120.124 186.473 120.038V115.977H190.047C190.133 115.977 190.216 115.943 190.277 115.882C190.338 115.821 190.372 115.738 190.372 115.652C190.372 115.566 190.338 115.483 190.277 115.422C190.216 115.361 190.133 115.327 190.047 115.327Z" fill="white"/>
<path d="M295.628 191.998H192.646V195.247H295.628V191.998Z" fill="#F2F2F2"/>
<path d="M293.029 190.373H190.047V193.622H293.029V190.373Z" stroke="#3F3D56" stroke-miterlimit="10"/>
<path d="M295.628 202.066H192.646V205.315H295.628V202.066Z" fill="#F2F2F2"/>
<path d="M293.029 200.441H190.047V203.365H293.029V200.441Z" stroke="#3F3D56" stroke-miterlimit="10"/>
<path d="M295.628 212.139H192.646V215.387H295.628V212.139Z" fill="#F2F2F2"/>
<path d="M293.029 210.188H190.047V213.436H293.029V210.188Z" stroke="#3F3D56" stroke-miterlimit="10"/>
<path d="M295.628 222.209H192.646V225.133H295.628V222.209Z" fill="#F2F2F2"/>
<path d="M293.029 220.26H190.047V223.508H293.029V220.26Z" stroke="#3F3D56" stroke-miterlimit="10"/>
</svg>
