<svg width="605" height="609" viewBox="0 0 605 609" fill="none" xmlns="http://www.w3.org/2000/svg">
<path fill-rule="evenodd" clip-rule="evenodd" d="M462.467 452.145C416.134 493.164 347.541 470.099 285.647 463.553C223.161 456.944 152.809 463.963 112.858 415.17C68.816 361.38 48.408 277.342 85.8051 219.481C120.046 166.503 203.406 205.815 262.529 183.595C324.923 160.146 365.229 67.6991 428.196 90.7991C492.541 114.405 495.996 203.538 502.453 271.613C508.593 336.357 510.893 409.273 462.467 452.145Z" fill="#F3F6FD"/>
<g clip-path="url(#clip0)">
<path d="M249.932 233.252C246.516 236.797 242.401 239.595 237.848 241.472C233.296 243.348 228.403 244.261 223.479 244.154C218.555 244.047 213.707 242.921 209.241 240.848C204.774 238.775 200.786 235.799 197.528 232.109L118 307.32L229.832 425.362L336.429 324.552L249.932 233.252Z" fill="white"/>
<path d="M224.193 236.723C228.39 236.728 232.545 235.885 236.407 234.243C240.269 232.602 243.759 230.197 246.666 227.173L224.49 203.766L200.797 226.173C203.722 229.492 207.321 232.15 211.356 233.97C215.39 235.789 219.767 236.728 224.193 236.723Z" fill="white"/>
<path d="M398.766 270.958C398.773 278.31 397.329 285.591 394.517 292.385C391.704 299.179 387.578 305.352 382.375 310.551C377.171 315.749 370.993 319.872 364.193 322.682C357.393 325.492 350.105 326.934 342.747 326.927C342.428 326.927 342.108 326.924 341.789 326.917C340.445 326.896 339.117 326.829 337.797 326.713C326.97 325.754 316.657 321.669 308.113 314.956C299.57 308.243 293.165 299.192 289.68 288.906C286.195 278.62 285.781 267.543 288.487 257.026C291.192 246.508 296.902 237.004 304.92 229.672C312.937 222.34 322.917 217.497 333.641 215.732C344.366 213.968 355.372 215.358 365.32 219.734C375.267 224.11 383.726 231.283 389.664 240.378C395.603 249.474 398.765 260.098 398.766 270.958Z" fill="#778FF3"/>
<path opacity="0.1" d="M375.211 250.703C378.723 244.516 381.015 237.713 381.964 230.663C374.513 223.487 365.218 218.513 355.11 216.293C345.002 214.073 334.476 214.694 324.699 218.088C314.923 221.481 306.279 227.514 299.726 235.517C293.173 243.52 288.967 253.181 287.574 263.427C296.775 272.313 308.753 277.771 321.501 278.884C322.822 279 324.149 279.068 325.494 279.088C325.813 279.095 326.132 279.098 326.451 279.098C336.368 279.109 346.11 276.485 354.678 271.495C363.246 266.506 370.333 259.33 375.211 250.703Z" fill="black"/>
<path d="M367.532 325.566H277.562V425.972H367.532V325.566Z" fill="#2F2E41"/>
<path opacity="0.1" d="M396.346 291.852C392.864 300.02 387.489 307.243 380.665 312.929C373.841 318.614 365.762 322.598 357.095 324.552H369.569V424.958H286.586L333.156 344.365L343.827 325.899L344.605 324.552L379.924 263.434L396.346 291.852Z" fill="black"/>
<path d="M391.5 266L437.75 346L484 426H391.5H299L345.25 346L391.5 266Z" fill="#3F3D56"/>
<path d="M484.002 425.297H129.555V425.975H484.002V425.297Z" fill="#2F2E41"/>
<path d="M176.227 409.939L175.608 415.098L172.096 416.749L168.171 415.511L165.486 416.749L164.66 412.003L169.411 406.637L176.227 409.939Z" fill="#9F616A"/>
<path d="M173.747 413.861C173.747 413.861 176.949 410.13 177 411.996C177.051 413.861 184.074 420.258 184.074 420.258C184.074 420.258 195.022 423.56 186.553 425.624C178.084 427.688 159.494 421.703 158.875 420.464C158.255 419.226 164.038 409.733 164.658 410.559C165.278 411.384 168.376 414.273 173.747 413.861Z" fill="#2F2E41"/>
<path d="M181.598 352.57C181.598 352.57 182.837 362.27 181.598 363.714C180.359 365.159 180.978 368.048 181.598 368.461C182.218 368.874 180.772 370.525 179.739 371.35C178.706 372.176 177.26 375.89 177.26 375.89C177.26 375.89 171.683 390.543 171.683 391.988C171.683 393.432 169.205 396.528 169.411 397.56C169.618 398.592 167.965 401.894 168.172 402.513C168.378 403.132 165.487 408.704 166.313 409.529C167.139 410.355 178.5 413.244 177.88 411.387C177.26 409.529 176.847 407.259 177.26 407.259C177.674 407.259 179.533 404.989 179.119 404.164C178.706 403.338 191.513 381.669 191.513 381.669L181.598 352.57Z" fill="#2F2E41"/>
<path opacity="0.1" d="M173.747 413.861C173.747 413.861 176.949 410.13 177 411.996C177.051 413.861 184.074 420.258 184.074 420.258C184.074 420.258 195.022 423.56 186.553 425.624C178.084 427.688 159.494 421.703 158.875 420.464C158.255 419.226 164.038 409.733 164.658 410.559C165.278 411.384 168.376 414.273 173.747 413.861Z" fill="black"/>
<path opacity="0.1" d="M181.598 352.57C181.598 352.57 182.837 362.27 181.598 363.714C180.359 365.159 180.978 368.048 181.598 368.461C182.218 368.874 180.772 370.525 179.739 371.35C178.706 372.176 177.26 375.89 177.26 375.89C177.26 375.89 171.683 390.543 171.683 391.988C171.683 393.432 169.205 396.528 169.411 397.56C169.618 398.592 167.965 401.894 168.172 402.513C168.378 403.132 165.487 408.704 166.313 409.529C167.139 410.355 178.5 413.244 177.88 411.387C177.26 409.529 176.847 407.259 177.26 407.259C177.674 407.259 179.533 404.989 179.119 404.164C178.706 403.338 191.513 381.669 191.513 381.669L181.598 352.57Z" fill="black"/>
<path d="M202.667 407.379L204.939 413.157L203.906 421.206L197.296 420.793L193.578 417.491V410.475L202.667 407.379Z" fill="#9F616A"/>
<path d="M201.426 414.396C201.426 414.396 203.699 406.966 204.938 409.03C205.723 410.356 206.413 411.735 207.004 413.158C207.004 413.158 217.125 419.762 219.81 419.762C222.495 419.762 224.974 423.064 221.462 424.302C217.951 425.54 191.099 427.191 190.686 424.302C190.272 421.413 191.099 412.126 192.338 413.158C193.577 414.189 199.981 416.46 201.426 414.396Z" fill="#2F2E41"/>
<path d="M206.59 322.972C206.59 322.972 215.694 329.154 216.108 329.979C216.521 330.805 221.803 333.343 217.466 335.406C213.128 337.47 201.633 324.417 201.633 324.417L206.59 322.972Z" fill="#9F616A"/>
<path d="M202.048 311.004C202.048 311.004 208.657 323.799 207.418 324.212C206.179 324.625 201.221 327.101 201.221 327.101L198.949 314.1L202.048 311.004Z" fill="#575A88"/>
<path opacity="0.1" d="M202.048 311.004C202.048 311.004 208.657 323.799 207.418 324.212C206.179 324.625 201.221 327.101 201.221 327.101L198.949 314.1L202.048 311.004Z" fill="black"/>
<path d="M201.633 321.732C201.633 321.732 203.079 332.463 202.459 334.733C201.84 337.003 202.872 371.055 202.046 372.912C201.22 374.77 200.6 386.739 200.6 388.184C200.6 389.628 202.253 401.392 202.666 402.424C203.079 403.455 204.318 406.964 203.699 408.615C203.079 410.266 194.61 414.393 193.371 412.949C192.131 411.504 193.164 406.964 192.131 406.757C191.099 406.551 189.859 396.852 189.859 396.852L183.043 358.879C183.043 358.879 170.237 327.097 173.128 324.002C176.02 320.906 201.633 321.732 201.633 321.732Z" fill="#2F2E41"/>
<path d="M193.988 248.471C199.578 248.471 204.11 243.943 204.11 238.358C204.11 232.774 199.578 228.246 193.988 228.246C188.399 228.246 183.867 232.774 183.867 238.358C183.867 243.943 188.399 248.471 193.988 248.471Z" fill="#9F616A"/>
<path d="M197.707 246.612C197.707 246.612 194.402 255.28 194.815 257.137C195.228 258.995 185.107 253.835 185.107 253.835C185.107 253.835 185.727 243.723 185.107 241.04C184.487 238.357 197.707 246.612 197.707 246.612Z" fill="#9F616A"/>
<path d="M169.957 303.082C170.002 304.813 170.031 305.845 170.031 305.845C170.031 305.845 169.412 315.338 170.445 318.434C171.477 321.53 171.477 323.8 172.097 325.863C172.279 326.464 174.751 326.786 178.223 326.928C181.409 327.058 185.434 327.04 189.299 326.951C195.698 326.802 201.663 326.46 202.667 326.276C204.939 325.863 202.254 322.355 203.08 320.498C203.907 318.64 201.635 294.907 201.635 294.907C201.635 294.907 201.841 281.493 200.808 276.334C199.776 271.174 195.851 262.92 195.025 261.888C194.198 260.856 194.818 260.237 196.677 258.998C198.536 257.76 196.677 253.014 196.677 253.014C193.166 250.124 184.284 249.712 184.284 249.712C184.284 249.712 170.651 263.745 169.825 266.634C169.325 268.38 169.505 282.327 169.724 293.095C169.808 297.147 169.897 300.75 169.957 303.082Z" fill="#575A88"/>
<path d="M187.381 328.749C187.381 328.749 195.23 344.846 189.033 345.878C182.837 346.91 179.738 331.226 179.738 331.226L187.381 328.749Z" fill="#9F616A"/>
<path d="M203.457 233.234C203.815 231.499 202.488 229.878 201.091 228.788C198.048 226.43 194.304 225.155 190.454 225.164C187.745 225.179 184.949 225.895 182.902 227.667C180.514 229.734 179.424 233.049 179.625 236.199C179.825 239.349 181.197 242.337 183.047 244.897C183.934 246.125 185.36 247.396 186.779 246.861C187.334 246.601 187.81 246.199 188.159 245.696C189.069 244.568 189.862 243.351 190.526 242.062C191.033 241.077 191.473 240.038 192.193 239.194C192.912 238.35 193.994 237.715 195.093 237.867C196.001 237.992 196.891 238.631 197.757 238.331C198.721 237.997 198.954 236.766 199.03 235.75C199.114 234.637 199.055 233.347 199.364 232.294C199.703 232.474 203.291 234.065 203.457 233.234Z" fill="#2F2E41"/>
<path opacity="0.1" d="M169.959 303.078C172.272 311.414 177.578 325.462 177.882 326.066C177.958 326.221 178.078 326.525 178.225 326.925C181.41 327.055 185.436 327.036 189.3 326.948C188.701 325.383 188.003 323.873 188.003 323.384C188.003 322.352 183.046 295.73 183.046 295.73C183.046 295.73 186.97 283.966 190.482 274.06C193.993 264.154 180.051 266.115 180.051 266.115C172.615 264.258 171.272 267.456 171.272 267.456C171.272 267.456 170.617 284.854 169.725 293.092C169.496 295.203 169.252 296.712 169 297.174C168.67 297.779 169.116 300.053 169.959 303.078Z" fill="black"/>
<path d="M183.042 259.411C183.042 259.411 192.544 263.332 189.032 273.238C185.521 283.144 181.596 294.907 181.596 294.907C181.596 294.907 186.554 321.529 186.554 322.561C186.554 323.593 189.652 329.165 188.413 330.197C187.173 331.229 178.911 333.292 178.705 332.26C178.498 331.229 176.846 326.069 176.433 325.244C176.019 324.418 166.311 298.622 167.551 296.351C168.463 294.681 169.263 279.376 169.622 271.408C169.705 269.135 170.379 266.922 171.577 264.989C172.776 263.055 174.458 261.466 176.458 260.378C178.383 259.359 180.626 258.807 183.042 259.411Z" fill="#575A88"/>
<path d="M221.199 319.801H208.977V332.012H221.199V319.801Z" fill="#6C63FF"/>
<path d="M215.09 319.801C217.153 319.801 218.825 318.131 218.825 316.07C218.825 314.009 217.153 312.339 215.09 312.339C213.028 312.339 211.355 314.009 211.355 316.07C211.355 318.131 213.028 319.801 215.09 319.801Z" fill="#3F3D56"/>
<path d="M359.433 197.426C369.617 197.426 377.873 189.178 377.873 179.002C377.873 168.827 369.617 160.578 359.433 160.578C349.248 160.578 340.992 168.827 340.992 179.002C340.992 189.178 349.248 197.426 359.433 197.426Z" fill="#FF6584"/>
<path d="M359.382 191.585C359.382 205.486 351.111 210.34 340.908 210.34C330.705 210.34 322.434 205.486 322.434 191.585C322.434 177.684 340.908 160 340.908 160C340.908 160 359.382 177.684 359.382 191.585Z" fill="white"/>
<path d="M340.234 208.213L340.423 196.58L348.297 182.187L340.453 194.755L340.538 189.524L345.965 179.111L340.56 188.139L340.713 178.731L346.524 170.441L340.737 177.251L340.833 160L340.232 182.838L340.282 181.896L334.373 172.86L340.187 183.704L339.636 194.212L339.62 193.933L332.809 184.424L339.599 194.918L339.53 196.232L339.518 196.252L339.524 196.36L338.127 223.018H339.993L340.217 209.249L346.991 198.78L340.234 208.213Z" fill="#3F3D56"/>
<path d="M403.897 212.361C399.483 225.544 390.098 227.525 380.422 224.29C370.746 221.056 364.443 213.831 368.858 200.648C373.272 187.466 396.408 176.552 396.408 176.552C396.408 176.552 408.312 199.178 403.897 212.361Z" fill="white"/>
<path d="M380.457 222.06L384.331 211.087L396.369 199.934L384.939 209.366L386.681 204.432L395.134 196.277L387.142 203.126L390.275 194.253L398.418 188.233L390.767 192.857L396.336 176.527L388.514 197.995L388.86 197.117L386.126 186.675L388.196 198.802L384.337 208.592L384.41 208.323L380.97 197.146L384.078 209.25L383.595 210.475L383.577 210.49L383.548 210.594L373.758 235.432L375.528 236.023L380.113 223.036L389.861 215.256L380.457 222.06Z" fill="#3F3D56"/>
<path d="M312.199 201.756C317.203 214.726 311.232 222.227 301.712 225.894C292.191 229.56 282.726 228.003 277.723 215.032C272.719 202.061 283.592 178.922 283.592 178.922C283.592 178.922 307.195 188.785 312.199 201.756Z" fill="white"/>
<path d="M300.315 224.152L296.304 213.229L298.471 196.97L295.675 211.515L293.871 206.603L295.187 194.937L293.394 205.304L290.15 196.47L292.589 186.647L289.64 195.081L283.52 178.949L291.18 200.475L290.887 199.578L282.121 193.27L291.449 201.3L294.718 211.302L294.602 211.047L284.824 204.623L294.938 211.974L295.346 213.225L295.342 213.248L295.386 213.347L303.679 238.723L305.42 238.053L300.672 225.124L303.225 212.922L300.315 224.152Z" fill="#3F3D56"/>
<path d="M272.96 311.969C271.815 313.793 270.33 313.75 268.991 312.911C267.652 312.073 266.966 310.756 268.111 308.931C269.256 307.107 273.137 306.305 273.137 306.305C273.137 306.305 274.105 310.144 272.96 311.969Z" fill="#6C63FF"/>
<path d="M409.489 257.291C409.701 259.434 408.5 260.308 406.927 260.463C405.354 260.618 404.005 259.996 403.794 257.853C403.582 255.71 406.16 252.703 406.16 252.703C406.16 252.703 409.277 255.148 409.489 257.291Z" fill="#6C63FF"/>
<path d="M266.87 273.113C265.726 274.938 264.24 274.895 262.901 274.056C261.562 273.217 260.876 271.9 262.021 270.076C263.166 268.252 267.047 267.449 267.047 267.449C267.047 267.449 268.015 271.289 266.87 273.113Z" fill="#6C63FF"/>
</g>
<defs>
<clipPath id="clip0">
<rect x="118" y="160" width="367" height="266.054" fill="white"/>
</clipPath>
</defs>
</svg>
