<svg width="338" height="360" viewBox="0 0 338 360" fill="none" xmlns="http://www.w3.org/2000/svg">
<path fill-rule="evenodd" clip-rule="evenodd" d="M324.808 187.29C324.393 224.462 315.901 300.415 287.79 330.052C249.263 370.67 219.303 319.167 159.882 306.176C100.039 293.093 53.9884 315.083 24.2088 270.618C-5.48657 226.278 33.7002 171.692 46.3111 121.355C59.3378 69.3577 72.7095 22.5407 135.828 11.7409C191.241 2.25977 253.239 39.7834 294.963 70.1232C331.973 97.0346 325.268 146.138 324.808 187.29Z" fill="#F5F8FF"/>
<path d="M236.634 290.728C236.515 290.822 236.396 290.912 236.274 291H206.194C205.97 290.912 205.747 290.821 205.525 290.728C202.35 289.405 199.394 287.642 196.753 285.497C194.999 284.074 193.385 282.604 192.216 281.227C190.584 279.305 189.081 277.211 188.382 274.825C187.684 272.439 187.892 269.704 189.451 267.725C189.933 267.116 190.526 266.596 191.202 266.189C191.314 266.121 191.427 266.056 191.543 265.995C193.412 264.99 195.77 264.745 197.874 265.266C200.887 266.011 203.391 268.093 205.178 270.535C206.964 272.975 208.124 275.779 209.267 278.55C210.427 273.603 213.939 269.171 218.683 266.918C223.426 264.665 229.319 264.692 233.961 267.133C235.422 267.905 236.741 268.901 237.867 270.08C237.979 270.195 238.089 270.314 238.196 270.433C240.461 272.944 241.877 276.16 241.993 279.477C242.142 283.749 240.075 288.041 236.634 290.728Z" fill="#D6D6D6"/>
<path d="M207.001 291H206.581C206.575 290.909 206.568 290.82 206.56 290.729C206.413 288.956 206.106 287.199 205.641 285.478C204.575 281.549 202.755 277.85 200.276 274.572C197.803 271.285 194.686 268.5 191.102 266.377C191.076 266.363 191.053 266.343 191.036 266.319C191.019 266.294 191.008 266.267 191.004 266.238C190.997 266.2 191.002 266.161 191.017 266.125C191.032 266.09 191.057 266.059 191.09 266.037C191.122 266.015 191.16 266.002 191.2 266C191.24 265.998 191.279 266.007 191.314 266.026C191.323 266.032 191.333 266.038 191.342 266.044C193.372 267.242 195.257 268.657 196.961 270.262C200.008 273.139 202.465 276.548 204.203 280.31C205.735 283.604 206.674 287.128 206.979 290.729C206.987 290.82 206.994 290.911 207.001 291Z" fill="white"/>
<path d="M237.86 270.394C237.857 270.396 237.853 270.397 237.85 270.397C237.546 270.452 237.24 270.509 236.938 270.57C234.453 271.07 232.021 271.794 229.673 272.732C227.33 273.669 225.077 274.807 222.939 276.134C220.799 277.459 218.781 278.965 216.907 280.635C215.034 282.301 213.315 284.128 211.772 286.094C210.618 287.566 209.569 289.114 208.633 290.728C208.58 290.818 208.529 290.909 208.477 291H208.001C208.051 290.909 208.102 290.818 208.155 290.728C209.288 288.751 210.588 286.87 212.04 285.104C213.645 283.15 215.425 281.34 217.358 279.696C219.279 278.06 221.34 276.591 223.52 275.304C225.708 274.011 228.008 272.911 230.395 272.016C232.71 271.149 235.101 270.487 237.538 270.041C237.606 270.028 237.672 270.016 237.74 270.004C238 269.958 238.111 270.341 237.86 270.394Z" fill="white"/>
<path d="M229.843 285.241C226.842 284.866 223.795 284.929 220.816 285.427C217.846 285.92 214.978 286.832 212.317 288.129C210.821 288.859 209.401 289.712 208.075 290.677C207.858 290.834 208.165 291.11 208.38 290.954C210.707 289.271 213.315 287.937 216.106 287.005C218.874 286.074 221.784 285.537 224.733 285.413C226.402 285.344 228.074 285.413 229.728 285.619C229.783 285.631 229.841 285.624 229.891 285.598C229.94 285.573 229.977 285.532 229.994 285.482C230.008 285.432 230.001 285.379 229.973 285.334C229.945 285.289 229.898 285.256 229.843 285.241H229.843Z" fill="white"/>
<path d="M243.831 263.309C243.944 263.099 244.008 262.866 244.021 262.628C244.034 262.389 243.994 262.151 243.905 261.93C243.815 261.709 243.679 261.51 243.504 261.347C243.329 261.184 243.121 261.062 242.894 260.988L242.775 255.189L240.293 256.9L240.787 262.145C240.688 262.534 240.736 262.946 240.922 263.303C241.107 263.659 241.417 263.936 241.792 264.079C242.167 264.223 242.582 264.223 242.958 264.082C243.334 263.94 243.645 263.665 243.831 263.309H243.831Z" fill="#A0616A"/>
<path d="M240.982 240.971L243.365 259.248L240.496 259.359L238.098 240.172L238.674 239.825C238.893 239.693 239.14 239.619 239.394 239.609C239.648 239.598 239.901 239.652 240.129 239.766C240.358 239.879 240.555 240.048 240.704 240.259C240.853 240.469 240.948 240.714 240.982 240.971Z" fill="#6C63FF"/>
<path d="M233.269 289.645L231.336 289.645L230.417 281.964L233.27 281.964L233.269 289.645Z" fill="#A0616A"/>
<path d="M227.52 291.555L233.749 291.555L233.749 289.148L229.926 289.148C229.288 289.148 228.676 289.401 228.225 289.853C227.773 290.304 227.52 290.916 227.52 291.555Z" fill="#2F2E41"/>
<path d="M249.729 287.285L247.979 288.108L244.023 281.642L246.605 280.427L249.729 287.285Z" fill="#A0616A"/>
<path d="M245.321 291.456L250.974 288.839L249.963 286.655L246.494 288.261C245.915 288.529 245.466 289.016 245.246 289.615C245.026 290.215 245.053 290.877 245.321 291.456Z" fill="#2F2E41"/>
<path d="M231.209 288.108C231.238 288.108 231.267 288.106 231.296 288.103L232.87 287.918C233.036 287.898 233.19 287.822 233.306 287.703C233.423 287.585 233.495 287.43 233.512 287.264L235.402 267.498C235.407 267.446 235.428 267.397 235.463 267.359C235.498 267.32 235.544 267.294 235.595 267.283C235.646 267.272 235.699 267.278 235.746 267.3C235.793 267.322 235.832 267.358 235.857 267.403L246.371 286.397C246.45 286.541 246.576 286.654 246.728 286.717C246.879 286.781 247.048 286.791 247.206 286.747L248.975 286.257C249.07 286.231 249.159 286.185 249.237 286.123C249.314 286.062 249.378 285.985 249.424 285.898C249.471 285.81 249.499 285.715 249.507 285.616C249.515 285.518 249.504 285.419 249.472 285.325C247.932 280.73 240.215 257.7 239.556 255.58C238.767 253.048 232.883 252.05 232.376 251.968L232.084 251.678L232.028 251.753C229.431 255.239 228.174 259.857 228.489 264.755L228.489 264.757L230.483 287.443C230.499 287.624 230.582 287.793 230.717 287.916C230.851 288.039 231.027 288.108 231.209 288.108Z" fill="#2F2E41"/>
<path d="M239.524 236.755C237.282 236.755 235.464 234.986 235.464 232.805C235.464 230.623 237.282 228.854 239.524 228.854C241.766 228.854 243.584 230.623 243.584 232.805C243.584 234.986 241.766 236.755 239.524 236.755Z" fill="#A0616A"/>
<path d="M239.378 254.97L241.755 242.75C241.954 241.717 241.748 240.649 241.178 239.761C240.608 238.873 239.718 238.232 238.686 237.967C238.049 237.804 237.379 237.815 236.748 237.999C236.116 238.184 235.548 238.534 235.103 239.014C233.89 240.32 232.349 242.221 231.897 243.86C231.514 245.251 230.437 250.463 230.426 250.516L230.417 250.557L230.447 250.588C230.453 250.594 231.03 251.182 231.928 251.916C232.455 252.347 232.994 252.747 233.53 253.105C235.033 254.106 239.124 254.92 239.298 254.955L239.378 254.97Z" fill="#6C63FF"/>
<path opacity="0.2" d="M233.563 252.994C232.96 252.598 232.414 252.189 231.953 251.819C232.119 249.432 235.743 244.436 237.212 244.436C237.212 244.436 237.56 252.137 233.563 252.994Z" fill="black"/>
<path d="M226.245 259.476C226.468 259.395 226.67 259.265 226.837 259.096C227.005 258.927 227.134 258.723 227.215 258.499C227.296 258.274 227.327 258.035 227.306 257.797C227.286 257.559 227.213 257.328 227.095 257.121L230.856 252.726L227.891 252.336L224.774 256.57C224.443 256.794 224.205 257.133 224.105 257.522C224.005 257.911 224.05 258.324 224.231 258.683C224.412 259.041 224.718 259.319 225.089 259.466C225.46 259.612 225.872 259.616 226.245 259.476H226.245Z" fill="#A0616A"/>
<path d="M236.873 238.071C236.707 238.075 236.542 238.094 236.379 238.127C236.05 238.202 235.745 238.356 235.491 238.576C235.237 238.797 235.042 239.076 234.924 239.389L230.21 249.147L225.15 254.484L227.68 256.506L235.678 249.389L238.874 240.771C238.976 240.46 239.002 240.129 238.949 239.806C238.897 239.483 238.767 239.177 238.572 238.913C238.377 238.65 238.121 238.436 237.825 238.289C237.53 238.143 237.204 238.068 236.873 238.071Z" fill="#6C63FF"/>
<path d="M239.69 236.715C240.251 235.872 240.694 234.702 240.076 233.9C239.466 233.108 238.262 233.225 237.328 232.874C236.026 232.386 235.271 230.852 235.507 229.478C235.742 228.104 236.841 226.965 238.151 226.499C239.461 226.032 240.937 226.184 242.22 226.721C243.798 227.381 245.153 228.66 245.721 230.278C246.288 231.897 245.985 233.841 244.807 235.086C243.544 236.42 241.562 236.775 239.728 236.754" fill="#2F2E41"/>
<path d="M246.014 232.072C246.176 232.978 247.173 233.492 248.089 233.605C249.004 233.718 249.951 233.573 250.843 233.811C252.414 234.229 253.451 235.736 254.021 237.256C254.592 238.775 254.845 240.414 255.586 241.858C256.327 243.302 257.765 244.575 259.386 244.44C259.068 245.237 258.512 245.917 257.792 246.387C257.073 246.858 256.225 247.095 255.365 247.067C254.506 247.039 253.675 246.748 252.988 246.232C252.3 245.716 251.789 245.002 251.524 244.186C250.929 242.352 251.612 240.166 250.571 238.543C249.995 237.645 249 237.116 248.04 236.645C247.081 236.175 246.073 235.691 245.43 234.84C244.787 233.988 244.658 232.642 245.451 231.927" fill="#2F2E41"/>
<path d="M263.662 292H172.339C172.25 292 172.163 291.947 172.1 291.853C172.037 291.759 172.001 291.632 172.001 291.5C172.001 291.368 172.037 291.241 172.1 291.147C172.163 291.053 172.25 291 172.339 291H263.662C263.752 291 263.838 291.053 263.902 291.147C263.965 291.241 264.001 291.368 264.001 291.5C264.001 291.632 263.965 291.759 263.902 291.853C263.838 291.947 263.752 292 263.662 292Z" fill="#3F3D56"/>
<path d="M162.167 252.752L164.322 253.161L166.859 245.402L163.677 244.798L162.167 252.752Z" fill="#A0616A"/>
<path d="M167.862 256.03L161.234 254.772L161.737 252.12L165.84 252.899C166.172 252.962 166.487 253.092 166.769 253.282C167.05 253.472 167.292 253.717 167.48 254.004C167.669 254.292 167.8 254.615 167.867 254.956C167.933 255.298 167.934 255.65 167.869 255.994L167.862 256.03Z" fill="#2F2E41"/>
<path d="M165.317 240.501L163.587 241.759L158.003 235.623L160.557 233.767L165.317 240.501Z" fill="#A0616A"/>
<path d="M161.95 242.06L165.328 239.638L166.84 241.747L161.383 245.659L161.362 245.63C160.966 245.079 160.806 244.393 160.917 243.723C161.027 243.054 161.399 242.455 161.95 242.06Z" fill="#2F2E41"/>
<path d="M184.151 220.918C184.324 220.732 184.453 220.509 184.53 220.267C184.607 220.025 184.629 219.769 184.596 219.517C184.563 219.266 184.475 219.024 184.339 218.81C184.202 218.595 184.02 218.413 183.805 218.277L179.568 195.9L176.013 197.201L181.319 218.903C181.113 219.278 181.052 219.715 181.148 220.132C181.244 220.549 181.49 220.916 181.839 221.165C182.188 221.413 182.616 221.525 183.042 221.48C183.469 221.435 183.863 221.235 184.151 220.918Z" fill="#A0616A"/>
<path d="M152.573 216.588C152.828 216.618 153.087 216.592 153.331 216.512C153.575 216.432 153.799 216.3 153.985 216.125C154.172 215.95 154.318 215.736 154.412 215.499C154.506 215.262 154.547 215.007 154.531 214.752L170.341 198.137L167.16 196.016L152.538 213.101C152.108 213.155 151.714 213.363 151.429 213.686C151.145 214.01 150.99 214.426 150.994 214.855C150.999 215.285 151.162 215.699 151.453 216.018C151.743 216.338 152.142 216.541 152.573 216.588Z" fill="#A0616A"/>
<path d="M175.493 217.292L167.275 248.778L162.198 247.345L165.604 223.611L160.799 233.17L154.487 232.44L160.746 212.928L175.493 217.292Z" fill="#2F2E41"/>
<path d="M160.139 231.491L160.753 233.156L166.212 238.683L161.271 240.221C161.271 240.221 153.503 233.792 154.535 232.44L160.139 231.491Z" fill="#2F2E41"/>
<path d="M182.484 205.071L181.636 199.689C181.447 198.491 181.021 197.342 180.382 196.307C179.742 195.272 178.903 194.373 177.912 193.661C175.638 192.305 173.007 191.656 170.362 191.799C170.145 191.81 169.915 191.822 169.674 191.835C167.842 191.923 166.052 192.397 164.422 193.225C163.144 193.882 161.934 194.792 161.621 195.958C161.62 195.961 161.618 195.963 161.617 195.965C161.055 197.244 159.583 204.166 159.583 204.166L162.3 204.682L160.092 213.968L160.139 213.907C160.139 213.907 175.258 219.822 175.545 218.311L177.381 208.642L178.367 205.201L182.484 205.071Z" fill="#E6E6E6"/>
<path d="M170.137 190.538C172.479 190.983 174.75 189.385 175.209 186.969C175.668 184.553 174.141 182.234 171.798 181.789C169.455 181.344 167.184 182.942 166.725 185.358C166.267 187.774 167.794 190.093 170.137 190.538Z" fill="#A0616A"/>
<path d="M170.891 184.25L167.292 183.555C166.874 183.474 166.42 183.372 166.153 183.039C165.751 182.536 165.979 181.775 166.346 181.244C167.369 179.766 169.34 179.078 171.085 179.458C172.83 179.839 174.292 181.201 174.954 182.87C175.616 184.54 175.514 186.47 174.829 188.134C174.585 187.175 174.095 186.299 173.409 185.591C172.722 184.884 171.863 184.372 170.918 184.104L170.891 184.25Z" fill="#2F2E41"/>
<path d="M209.066 99.5445C196.865 97.6038 182.972 96.5682 168.502 96.5682C155.261 96.5682 142.503 97.4343 131.085 99.0672C131.088 98.8924 131.09 98.7176 131.098 98.5429C131.401 88.3984 135.672 78.7743 143 71.7276C150.328 64.681 160.13 60.7708 170.312 60.8328C180.494 60.8948 190.247 64.924 197.488 72.0594C204.729 79.1948 208.882 88.8702 209.06 99.0176C209.063 99.195 209.066 99.3698 209.066 99.5445Z" fill="#6C63FF"/>
<g opacity="0.1">
<path opacity="0.1" d="M175.175 60.8133C169.77 60.0831 164.271 60.497 159.036 62.0279C153.801 63.5588 148.945 66.1727 144.785 69.7001C140.625 73.2275 137.252 77.5897 134.885 82.504C132.519 87.4184 131.211 92.7751 131.047 98.2272C131.039 98.4022 131.037 98.5772 131.034 98.7522C134.42 98.2664 137.926 97.8501 141.526 97.5025C141.966 88.4196 145.572 79.7775 151.719 73.0758C157.865 66.374 166.164 62.0356 175.175 60.8133Z" fill="white"/>
</g>
<path d="M226.016 102.632C220.41 101.109 214.724 99.899 208.985 99.0081C199.577 97.5467 190.093 96.6329 180.58 96.2715C176.617 96.1092 172.581 96.0254 168.501 96.0254C165.267 96.0254 162.059 96.0778 158.896 96.1825C149.616 96.4574 140.359 97.2415 131.165 98.5315C124.359 99.471 117.619 100.841 110.986 102.632C95.5192 106.919 87.001 112.665 87.001 118.808C87.001 124.952 95.5193 130.697 110.986 134.984C121.863 138.001 135.274 140.057 149.887 140.999C155.918 141.392 162.153 141.591 168.501 141.591C174.869 141.591 181.126 141.39 187.175 140.997C200.474 140.135 212.777 138.352 223.075 135.759C223.129 135.744 223.182 135.731 223.237 135.717C223.931 135.545 224.616 135.364 225.292 135.183C225.535 135.115 225.776 135.05 226.016 134.984C226.029 134.979 226.043 134.974 226.058 134.971C226.288 134.908 226.515 134.843 226.742 134.78C227.197 134.649 227.646 134.521 228.087 134.387C228.108 134.382 228.127 134.377 228.145 134.371C228.529 134.256 228.905 134.141 229.279 134.026C229.584 133.929 229.887 133.835 230.188 133.738C230.407 133.667 230.624 133.596 230.838 133.526C230.995 133.473 231.149 133.423 231.3 133.371C231.507 133.303 231.713 133.232 231.917 133.162C232.003 133.133 232.089 133.104 232.173 133.073C232.369 133.007 232.559 132.939 232.75 132.871C232.956 132.798 233.163 132.722 233.367 132.648C233.536 132.588 233.706 132.525 233.873 132.462C234.014 132.407 234.153 132.355 234.294 132.303C234.678 132.159 235.054 132.009 235.425 131.863C235.611 131.787 235.796 131.713 235.979 131.638C236.159 131.564 236.342 131.488 236.52 131.412C236.812 131.289 237.099 131.166 237.382 131.043C237.517 130.98 237.656 130.92 237.789 130.862C237.891 130.815 237.99 130.771 238.092 130.724C238.165 130.692 238.238 130.658 238.309 130.624C238.573 130.504 238.834 130.381 239.09 130.257C240.072 129.786 240.989 129.304 241.84 128.812C247.182 125.745 250.001 122.344 250.001 118.808C250.001 112.665 241.483 106.919 226.016 102.632ZM225.875 134.481C214.985 137.501 201.537 139.557 186.885 140.491C180.927 140.871 174.768 141.068 168.501 141.068C162.255 141.068 156.117 140.874 150.177 140.494C135.501 139.562 122.033 137.506 111.127 134.481C95.9059 130.26 87.5234 124.695 87.5234 118.808C87.5243 118.288 87.5892 117.77 87.7168 117.266C89.0489 111.955 97.2433 106.985 111.127 103.135C117.71 101.357 124.399 99.9957 131.152 99.0579C140.401 97.7606 149.715 96.9738 159.05 96.701C162.164 96.5989 165.314 96.5483 168.501 96.5491C172.526 96.5491 176.507 96.6303 180.42 96.7874C189.989 97.1456 199.528 98.0637 208.99 99.5371C214.68 100.424 220.317 101.625 225.875 103.135C239.756 106.985 247.948 111.953 249.283 117.261C249.412 117.766 249.478 118.286 249.479 118.808C249.479 124.695 241.096 130.26 225.875 134.481Z" fill="#3F3D56"/>
<path d="M249.815 119.033C249.815 122.537 246.94 125.853 241.805 128.814C240.952 129.308 240.032 129.79 239.055 130.262C238.799 130.386 238.538 130.509 238.275 130.63C238.204 130.664 238.131 130.698 238.058 130.729C237.956 130.777 237.857 130.821 237.755 130.868C237.622 130.926 237.483 130.986 237.347 131.049C237.065 131.173 236.778 131.296 236.486 131.419C236.308 131.495 236.125 131.571 235.945 131.645C235.762 131.721 235.577 131.794 235.391 131.87C235.02 132.017 234.644 132.167 234.26 132.311C234.119 132.364 233.981 132.416 233.84 132.471C233.673 132.534 233.503 132.597 233.333 132.657C233.13 132.731 232.923 132.807 232.717 132.88C232.526 132.949 232.336 133.017 232.14 133.082C232.056 133.114 231.97 133.143 231.884 133.172C231.68 133.242 231.474 133.313 231.268 133.381C231.116 133.434 230.962 133.484 230.805 133.536C230.591 133.607 230.374 133.678 230.155 133.749C229.855 133.846 229.552 133.94 229.246 134.037C228.873 134.153 228.496 134.268 228.113 134.383C228.094 134.389 228.076 134.394 228.055 134.399C227.614 134.533 227.165 134.662 226.71 134.793C226.483 134.856 226.256 134.921 226.026 134.984C226.012 134.987 225.998 134.992 225.984 134.997C225.744 135.063 225.504 135.128 225.261 135.197C224.587 135.375 223.9 135.556 223.205 135.732C223.15 135.745 223.098 135.758 223.043 135.774C213.028 138.287 200.74 140.118 187.141 141.002C181.184 141.387 174.973 141.592 168.593 141.592C162.156 141.592 155.893 141.385 149.889 140.991C114.046 138.643 87.3711 129.704 87.3711 119.033C87.3739 118.383 87.4725 117.738 87.6635 117.118C87.6792 117.162 87.6949 117.204 87.7132 117.249C91.4399 127.081 117.888 135.026 152.205 136.965C157.462 137.264 162.908 137.418 168.481 137.418C174.078 137.418 179.544 137.261 184.822 136.962C219.11 135.016 245.532 127.067 249.246 117.244C249.309 117.086 249.364 116.929 249.411 116.771C249.675 117.496 249.812 118.261 249.815 119.033Z" fill="#3F3D56"/>
<ellipse cx="105" cy="114.5" rx="9" ry="2.5" fill="white"/>
<ellipse cx="232.5" cy="113.5" rx="8.5" ry="2.5" fill="white"/>
<ellipse cx="207.5" cy="126" rx="8.5" ry="2" fill="white"/>
<ellipse cx="168.5" cy="131.5" rx="8.5" ry="2.5" fill="white"/>
<path d="M232.589 116.031C228.279 116.031 223.698 115.09 223.698 113.345C223.698 111.6 228.279 110.659 232.589 110.659C236.899 110.659 241.48 111.6 241.48 113.345C241.48 115.09 236.899 116.031 232.589 116.031ZM232.589 111.185C227.654 111.185 224.216 112.323 224.216 113.345C224.216 114.367 227.654 115.505 232.589 115.505C237.523 115.505 240.962 114.367 240.962 113.345C240.962 112.323 237.523 111.185 232.589 111.185Z" fill="#3F3D56"/>
<ellipse cx="129.5" cy="126" rx="8.5" ry="2" fill="white"/>
<path d="M104.984 117.372C100.629 117.372 96 116.43 96 114.686C96 112.941 100.629 112 104.984 112C109.339 112 113.967 112.941 113.967 114.686C113.967 116.43 109.339 117.372 104.984 117.372ZM104.984 112.526C99.9978 112.526 96.5234 113.664 96.5234 114.686C96.5234 115.707 99.9978 116.846 104.984 116.846C109.969 116.846 113.444 115.707 113.444 114.686C113.444 113.664 109.969 112.526 104.984 112.526Z" fill="#3F3D56"/>
<path d="M129.51 128.441C125.155 128.441 120.527 127.532 120.527 125.848C120.527 124.164 125.155 123.255 129.51 123.255C133.865 123.255 138.494 124.164 138.494 125.848C138.494 127.532 133.865 128.441 129.51 128.441ZM129.51 123.763C124.525 123.763 121.05 124.862 121.05 125.848C121.05 126.834 124.525 127.934 129.51 127.934C134.496 127.934 137.971 126.834 137.971 125.848C137.971 124.862 134.496 123.763 129.51 123.763Z" fill="#3F3D56"/>
<path d="M207.305 128.441C202.95 128.441 198.322 127.532 198.322 125.848C198.322 124.164 202.95 123.255 207.305 123.255C211.66 123.255 216.289 124.164 216.289 125.848C216.289 127.532 211.66 128.441 207.305 128.441ZM207.305 123.763C202.32 123.763 198.845 124.862 198.845 125.848C198.845 126.834 202.32 127.934 207.305 127.934C212.291 127.934 215.765 126.834 215.765 125.848C215.765 124.862 212.291 123.763 207.305 123.763Z" fill="#3F3D56"/>
<path d="M168.408 134.183C164.053 134.183 159.425 133.275 159.425 131.59C159.425 129.906 164.053 128.997 168.408 128.997C172.763 128.997 177.392 129.906 177.392 131.59C177.392 133.275 172.763 134.183 168.408 134.183ZM168.408 129.505C163.423 129.505 159.948 130.604 159.948 131.59C159.948 132.577 163.423 133.676 168.408 133.676C173.394 133.676 176.868 132.577 176.868 131.59C176.868 130.604 173.394 129.505 168.408 129.505Z" fill="#3F3D56"/>
<path d="M156.461 189.935C156.314 189.935 156.172 189.88 156.068 189.782C155.964 189.684 155.905 189.551 155.905 189.413V158.598C155.905 158.46 155.964 158.327 156.068 158.229C156.172 158.131 156.314 158.076 156.461 158.076C156.608 158.076 156.75 158.131 156.854 158.229C156.958 158.327 157.017 158.46 157.017 158.598V189.413C157.017 189.551 156.958 189.684 156.854 189.782C156.75 189.88 156.608 189.935 156.461 189.935Z" fill="#CCCCCC"/>
<path d="M148.682 217.536C148.534 217.536 148.393 217.48 148.289 217.382C148.185 217.284 148.126 217.151 148.126 217.013V194.534C148.126 194.396 148.185 194.263 148.289 194.165C148.393 194.067 148.534 194.012 148.682 194.012C148.829 194.012 148.97 194.067 149.075 194.165C149.179 194.263 149.237 194.396 149.237 194.534V217.013C149.237 217.151 149.179 217.284 149.075 217.382C148.97 217.48 148.829 217.536 148.682 217.536Z" fill="#CCCCCC"/>
<path d="M168.778 199.012C168.655 199.012 168.537 198.957 168.45 198.859C168.363 198.761 168.314 198.629 168.314 198.49V167.676C168.314 167.537 168.363 167.404 168.45 167.306C168.537 167.208 168.655 167.153 168.778 167.153C168.9 167.153 169.018 167.208 169.105 167.306C169.192 167.404 169.241 167.537 169.241 167.676V198.49C169.241 198.629 169.192 198.761 169.105 198.859C169.018 198.957 168.9 199.012 168.778 199.012Z" fill="#CCCCCC"/>
<path d="M161.184 221.239C161.061 221.239 160.943 221.185 160.856 221.087C160.769 220.99 160.721 220.857 160.721 220.719V208.238C160.721 208.1 160.769 207.968 160.856 207.87C160.943 207.773 161.061 207.718 161.184 207.718C161.307 207.718 161.424 207.773 161.511 207.87C161.598 207.968 161.647 208.1 161.647 208.238V220.719C161.647 220.857 161.598 220.99 161.511 221.087C161.424 221.185 161.307 221.239 161.184 221.239Z" fill="#CCCCCC"/>
<path d="M171.927 156.965C171.804 156.965 171.686 156.91 171.6 156.813C171.513 156.715 171.464 156.583 171.464 156.445V143.963C171.464 143.825 171.513 143.693 171.599 143.596C171.686 143.498 171.804 143.443 171.927 143.443C172.05 143.443 172.168 143.498 172.254 143.596C172.341 143.693 172.39 143.825 172.39 143.963V156.445C172.39 156.583 172.341 156.715 172.254 156.813C172.168 156.91 172.05 156.965 171.927 156.965Z" fill="#CCCCCC"/>
<path d="M145.718 162.522C145.57 162.522 145.429 162.467 145.325 162.368C145.221 162.269 145.162 162.135 145.162 161.995V149.343C145.162 149.203 145.221 149.069 145.325 148.97C145.429 148.871 145.57 148.815 145.718 148.815C145.865 148.815 146.007 148.871 146.111 148.97C146.215 149.069 146.273 149.203 146.273 149.343V161.995C146.273 162.135 146.215 162.269 146.111 162.368C146.007 162.467 145.865 162.522 145.718 162.522Z" fill="#CCCCCC"/>
<path d="M191.283 163.819C191.136 163.819 190.995 163.764 190.89 163.665C190.786 163.566 190.728 163.432 190.728 163.292V150.639C190.728 150.5 190.786 150.366 190.89 150.267C190.994 150.168 191.136 150.112 191.283 150.112C191.431 150.112 191.572 150.168 191.676 150.267C191.78 150.366 191.839 150.5 191.839 150.639V163.292C191.839 163.432 191.78 163.566 191.676 163.665C191.572 163.764 191.431 163.819 191.283 163.819Z" fill="#CCCCCC"/>
<path d="M190.172 202.903C190.025 202.903 189.883 202.848 189.779 202.751C189.675 202.653 189.616 202.521 189.616 202.383V187.308C189.616 187.17 189.675 187.038 189.779 186.94C189.883 186.843 190.025 186.788 190.172 186.788C190.319 186.788 190.461 186.843 190.565 186.94C190.669 187.038 190.728 187.17 190.728 187.308V202.383C190.728 202.521 190.669 202.653 190.565 202.751C190.461 202.848 190.319 202.903 190.172 202.903Z" fill="#CCCCCC"/>
<path d="M179.706 216.239C179.583 216.239 179.466 216.184 179.379 216.086C179.292 215.988 179.243 215.855 179.243 215.716V193.238C179.243 193.099 179.292 192.966 179.379 192.868C179.466 192.77 179.583 192.715 179.706 192.715C179.829 192.715 179.947 192.77 180.034 192.868C180.121 192.966 180.169 193.099 180.169 193.238V215.716C180.169 215.855 180.121 215.988 180.034 216.086C179.947 216.184 179.829 216.239 179.706 216.239Z" fill="#CCCCCC"/>
<path d="M181.836 177.896C181.689 177.896 181.548 177.841 181.444 177.743C181.339 177.645 181.281 177.512 181.281 177.374V146.559C181.281 146.421 181.339 146.288 181.444 146.19C181.548 146.092 181.689 146.037 181.836 146.037C181.984 146.037 182.125 146.092 182.229 146.19C182.334 146.288 182.392 146.421 182.392 146.559V177.374C182.392 177.512 182.334 177.645 182.229 177.743C182.125 177.841 181.984 177.896 181.836 177.896Z" fill="#CCCCCC"/>
</svg>
