<svg width="48" height="48" viewBox="0 0 48 48" fill="none" xmlns="http://www.w3.org/2000/svg">
<circle cx="24" cy="24" r="24" fill="#324FC5"/>
<path d="M17.4176 17.5002C21.7291 14.6406 27.3336 14.6406 31.645 17.5002C33.6779 18.8482 35.2648 20.7692 36.2051 23.0199C36.265 23.164 36.265 23.3261 36.2051 23.47C35.2647 25.7207 33.6777 27.6417 31.6445 28.9899C27.3332 31.8493 21.7289 31.8493 17.4174 28.9899C15.3846 27.6417 13.7974 25.7207 12.8574 23.47C12.7975 23.3261 12.7975 23.164 12.8574 23.0199C13.7974 20.7692 15.3848 18.8482 17.4176 17.5002ZM18.0689 28.0156C21.9861 30.6115 27.0765 30.6115 30.9937 28.0156C32.7647 26.8413 34.1635 25.1866 35.0266 23.2449C34.1635 21.3035 32.7647 19.6485 30.9937 18.4745C27.0765 15.8784 21.9861 15.8784 18.0689 18.4745C16.2983 19.6485 14.8992 21.3035 14.036 23.2449C14.8992 25.1866 16.2983 26.8413 18.0689 28.0156Z" fill="white"/>
<path d="M28.7467 19.0305C31.074 21.3581 31.074 25.1314 28.7467 27.4587C26.4193 29.7862 22.6458 29.7862 20.3187 27.4587C17.991 25.1314 17.991 21.3581 20.3187 19.0305C22.6458 16.7034 26.4193 16.7034 28.7467 19.0305ZM21.1469 26.6303C23.0162 28.4978 26.0454 28.4969 27.9136 26.6283C29.7816 24.7595 29.7816 21.7302 27.9136 19.8616C26.0454 17.9928 23.0162 17.9919 21.1469 19.8596C19.2761 21.7286 19.2761 24.761 21.1469 26.6303Z" fill="white"/>
<path d="M26.3441 21.4345C27.3436 22.4361 27.3436 24.0575 26.3441 25.0591C25.3432 26.06 23.7205 26.06 22.7197 25.0591C21.7186 24.0581 21.7186 22.4354 22.7197 21.4345C23.7205 20.4333 25.3432 20.4333 26.3441 21.4345ZM23.5482 24.2306C24.0915 24.7738 24.9722 24.7738 25.5155 24.2306C26.059 23.6871 26.059 22.8063 25.5155 22.2631C24.9722 21.7196 24.0915 21.7196 23.5482 22.2631C23.0047 22.8063 23.0047 23.6871 23.5482 24.2306Z" fill="white"/>
</svg>
